<svg width="687" height="572" viewBox="0 0 687 572" fill="none" xmlns="http://www.w3.org/2000/svg">
<g filter="url(#filter0_d)">
<path d="M20 56C20 33.3563 38.3563 15 61 15H626C648.644 15 667 33.3563 667 56V506C667 528.644 648.644 547 626 547H61C38.3563 547 20 528.644 20 506V56Z" fill="white"/>
<path d="M22.5 56C22.5 34.737 39.737 17.5 61 17.5H626C647.263 17.5 664.5 34.737 664.5 56V506C664.5 527.263 647.263 544.5 626 544.5H61C39.737 544.5 22.5 527.263 22.5 506V56Z" stroke="#458FF6" stroke-width="5"/>
</g>
<path d="M223.675 408.05H215.35L213.65 412H209.725L217.9 394.2H221.05L229.225 412H225.375L223.675 408.05ZM222.4 405.075L219.525 398.4L216.65 405.075H222.4ZM236.726 412.225C235.376 412.225 234.076 412.05 232.826 411.7C231.592 411.333 230.567 410.825 229.751 410.175L231.001 407.375C232.717 408.575 234.634 409.175 236.751 409.175C237.884 409.175 238.751 409 239.351 408.65C239.967 408.283 240.276 407.775 240.276 407.125C240.276 406.558 239.992 406.117 239.426 405.8C238.876 405.467 237.901 405.15 236.501 404.85C234.934 404.533 233.684 404.15 232.751 403.7C231.834 403.233 231.159 402.675 230.726 402.025C230.309 401.358 230.101 400.533 230.101 399.55C230.101 398.483 230.392 397.525 230.976 396.675C231.576 395.825 232.409 395.167 233.476 394.7C234.542 394.217 235.776 393.975 237.176 393.975C238.442 393.975 239.659 394.158 240.826 394.525C241.992 394.892 242.926 395.392 243.626 396.025L242.376 398.825C240.809 397.625 239.084 397.025 237.201 397.025C236.201 397.025 235.401 397.225 234.801 397.625C234.201 398.025 233.901 398.567 233.901 399.25C233.901 399.65 234.009 399.983 234.226 400.25C234.459 400.517 234.842 400.758 235.376 400.975C235.909 401.175 236.667 401.375 237.651 401.575C239.934 402.075 241.576 402.725 242.576 403.525C243.592 404.325 244.101 405.417 244.101 406.8C244.101 408.467 243.451 409.792 242.151 410.775C240.851 411.742 239.042 412.225 236.726 412.225ZM250.665 397.375H245.09V394.2H260.19V397.375H254.615V412H250.665V397.375ZM277.288 412H273.163L270.888 406.075C270.705 405.608 270.422 405.283 270.038 405.1C269.672 404.917 269.205 404.825 268.638 404.825H266.113V412H262.263V394.2H270.188C272.255 394.2 273.822 394.65 274.888 395.55C275.955 396.45 276.488 397.742 276.488 399.425C276.488 400.608 276.172 401.625 275.538 402.475C274.922 403.325 274.03 403.933 272.863 404.3C273.913 404.517 274.672 405.242 275.138 406.475L277.288 412ZM269.613 401.85C270.73 401.85 271.547 401.667 272.063 401.3C272.58 400.917 272.838 400.325 272.838 399.525C272.838 398.725 272.58 398.142 272.063 397.775C271.547 397.392 270.73 397.2 269.613 397.2H266.063V401.85H269.613ZM291.619 408.05H283.294L281.594 412H277.669L285.844 394.2H288.994L297.169 412H293.319L291.619 408.05ZM290.344 405.075L287.469 398.4L284.594 405.075H290.344ZM323.395 394.2V412H319.945V402.275L315.845 412H313.32L309.195 402.4V412H305.77V394.2H308.87L314.62 407.325L320.32 394.2H323.395ZM326.985 394.2H339.26V397.225H330.785V401.425H338.735V404.475H330.785V408.975H339.26V412H326.985V394.2ZM359.626 394.2V412H356.176V402.275L352.076 412H349.551L345.426 402.4V412H342.001V394.2H345.101L350.851 407.325L356.551 394.2H359.626ZM374.64 402.8C375.674 403.1 376.474 403.625 377.04 404.375C377.607 405.125 377.89 406.042 377.89 407.125C377.89 408.625 377.332 409.817 376.215 410.7C375.099 411.567 373.582 412 371.665 412H363.215V394.2H371.415C373.265 394.2 374.724 394.617 375.79 395.45C376.874 396.267 377.415 397.392 377.415 398.825C377.415 399.758 377.165 400.575 376.665 401.275C376.182 401.975 375.507 402.483 374.64 402.8ZM367.015 401.45H370.765C371.765 401.45 372.507 401.283 372.99 400.95C373.49 400.6 373.74 400.067 373.74 399.35C373.74 398.617 373.49 398.075 372.99 397.725C372.507 397.375 371.765 397.2 370.765 397.2H367.015V401.45ZM371.215 409C372.265 409 373.024 408.825 373.49 408.475C373.974 408.108 374.215 407.533 374.215 406.75C374.215 405.95 373.974 405.367 373.49 405C373.024 404.633 372.265 404.45 371.215 404.45H367.015V409H371.215ZM380.623 394.2H392.898V397.225H384.423V401.425H392.373V404.475H384.423V408.975H392.898V412H380.623V394.2ZM410.613 412H406.488L404.213 406.075C404.03 405.608 403.747 405.283 403.363 405.1C402.997 404.917 402.53 404.825 401.963 404.825H399.438V412H395.588V394.2H403.513C405.58 394.2 407.147 394.65 408.213 395.55C409.28 396.45 409.813 397.742 409.813 399.425C409.813 400.608 409.497 401.625 408.863 402.475C408.247 403.325 407.355 403.933 406.188 404.3C407.238 404.517 407.997 405.242 408.463 406.475L410.613 412ZM402.938 401.85C404.055 401.85 404.872 401.667 405.388 401.3C405.905 400.917 406.163 400.325 406.163 399.525C406.163 398.725 405.905 398.142 405.388 397.775C404.872 397.392 404.055 397.2 402.938 397.2H399.388V401.85H402.938ZM419.392 412.225C418.042 412.225 416.742 412.05 415.492 411.7C414.258 411.333 413.233 410.825 412.417 410.175L413.667 407.375C415.383 408.575 417.3 409.175 419.417 409.175C420.55 409.175 421.417 409 422.017 408.65C422.633 408.283 422.942 407.775 422.942 407.125C422.942 406.558 422.658 406.117 422.092 405.8C421.542 405.467 420.567 405.15 419.167 404.85C417.6 404.533 416.35 404.15 415.417 403.7C414.5 403.233 413.825 402.675 413.392 402.025C412.975 401.358 412.767 400.533 412.767 399.55C412.767 398.483 413.058 397.525 413.642 396.675C414.242 395.825 415.075 395.167 416.142 394.7C417.208 394.217 418.442 393.975 419.842 393.975C421.108 393.975 422.325 394.158 423.492 394.525C424.658 394.892 425.592 395.392 426.292 396.025L425.042 398.825C423.475 397.625 421.75 397.025 419.867 397.025C418.867 397.025 418.067 397.225 417.467 397.625C416.867 398.025 416.567 398.567 416.567 399.25C416.567 399.65 416.675 399.983 416.892 400.25C417.125 400.517 417.508 400.758 418.042 400.975C418.575 401.175 419.333 401.375 420.317 401.575C422.6 402.075 424.242 402.725 425.242 403.525C426.258 404.325 426.767 405.417 426.767 406.8C426.767 408.467 426.117 409.792 424.817 410.775C423.517 411.742 421.708 412.225 419.392 412.225ZM445.497 394.2V412H441.672V404.525H433.422V412H429.597V394.2H433.422V401.4H441.672V394.2H445.497ZM449.08 394.2H452.98V412H449.08V394.2ZM456.55 394.2H464.625C466.592 394.2 468.117 394.675 469.2 395.625C470.3 396.575 470.85 397.867 470.85 399.5C470.85 401.117 470.3 402.408 469.2 403.375C468.1 404.325 466.575 404.8 464.625 404.8H460.45V412H456.55V394.2ZM464.125 401.825C466.159 401.825 467.175 401.058 467.175 399.525C467.175 397.975 466.159 397.2 464.125 397.2H460.45V401.825H464.125Z" fill="black"/>
<path d="M226.8 331.131H221.044L220.184 308.93H226.801L226.8 331.131Z" fill="#FFB8B8"/>
<path d="M228.266 336.709L209.707 336.708V336.474C209.707 335.525 209.894 334.586 210.257 333.709C210.62 332.833 211.152 332.036 211.823 331.366C212.494 330.695 213.29 330.163 214.166 329.8C215.043 329.437 215.982 329.25 216.931 329.25H228.266V336.709Z" fill="#2F2E41"/>
<path d="M259.22 331.131H264.976L265.836 308.93H259.219L259.22 331.131Z" fill="#FFB8B8"/>
<path d="M257.75 329.25H269.085H269.086C270.034 329.25 270.974 329.437 271.85 329.8C272.726 330.163 273.523 330.695 274.194 331.366C274.864 332.036 275.396 332.833 275.759 333.709C276.123 334.586 276.309 335.525 276.309 336.474V336.708L257.75 336.709V329.25Z" fill="#2F2E41"/>
<path d="M259.367 328.285C258.887 328.283 258.421 328.119 258.047 327.818C257.672 327.518 257.41 327.099 257.304 326.631L243.038 264.406C243.007 264.248 242.921 264.106 242.795 264.005C242.669 263.904 242.512 263.851 242.351 263.855H242.347C242.185 263.852 242.028 263.906 241.902 264.008C241.777 264.11 241.692 264.254 241.662 264.413L228.561 326.218C228.459 326.691 228.198 327.115 227.822 327.419C227.446 327.724 226.978 327.891 226.494 327.893H220.253C219.965 327.893 219.68 327.834 219.416 327.72C219.152 327.606 218.913 327.439 218.716 327.229C218.518 327.02 218.366 326.772 218.268 326.501C218.169 326.231 218.127 325.943 218.144 325.655L222.793 247.319L224.663 246.766H224.698L261.439 247.087L269.264 325.338C269.292 325.617 269.263 325.898 269.181 326.166C269.098 326.434 268.963 326.683 268.783 326.898C268.603 327.113 268.382 327.29 268.133 327.419C267.884 327.548 267.611 327.626 267.332 327.648L259.536 328.278C259.48 328.282 259.423 328.285 259.367 328.285Z" fill="#2F2E41"/>
<path d="M244.195 175.06C250.564 175.06 255.726 169.898 255.726 163.529C255.726 157.161 250.564 151.998 244.195 151.998C237.827 151.998 232.664 157.161 232.664 163.529C232.664 169.898 237.827 175.06 244.195 175.06Z" fill="#A0616A"/>
<path d="M237.134 255.907C235.112 255.932 233.097 255.649 231.159 255.067C229.436 254.547 227.837 253.68 226.462 252.519C225.086 251.359 223.962 249.929 223.16 248.318C222.906 247.833 222.849 247.268 223.003 246.743C224.274 242.402 230.42 219.841 226.499 201.905C225.945 199.414 225.899 196.836 226.364 194.327C226.828 191.817 227.793 189.426 229.201 187.298C230.576 185.186 232.363 183.372 234.454 181.966C236.545 180.559 238.898 179.588 241.373 179.111V179.11C242.024 178.983 242.678 178.879 243.317 178.8C246.052 178.464 248.828 178.736 251.446 179.597C254.065 180.458 256.46 181.888 258.461 183.783C260.522 185.715 262.13 188.079 263.17 190.706C264.21 193.332 264.657 196.156 264.478 198.976L261.464 247.335C261.444 247.697 261.329 248.048 261.131 248.353C260.934 248.658 260.661 248.906 260.339 249.073C256.868 250.892 246.442 255.907 237.134 255.907Z" fill="#CCCCCC"/>
<path d="M225.691 247.968C226.352 247.64 226.932 247.17 227.391 246.593C227.85 246.017 228.177 245.346 228.349 244.629C228.521 243.912 228.534 243.166 228.386 242.444C228.238 241.721 227.934 241.04 227.495 240.448L231.266 203.574H223.116L220.119 239.579C219.173 240.383 218.555 241.506 218.382 242.735C218.208 243.965 218.492 245.215 219.179 246.249C219.866 247.283 220.908 248.029 222.109 248.346C223.309 248.663 224.584 248.528 225.691 247.968Z" fill="#A0616A"/>
<path d="M231.844 186.117C233.436 186.437 234.857 187.326 235.841 188.617C236.825 189.908 237.306 191.513 237.192 193.132L236.069 209.209C236.049 209.491 235.966 209.765 235.826 210.01C235.686 210.255 235.492 210.466 235.259 210.626C235.026 210.786 234.76 210.891 234.481 210.934C234.202 210.977 233.916 210.956 233.646 210.874L220.113 206.731C219.867 206.656 219.639 206.53 219.443 206.363C219.247 206.195 219.088 205.989 218.975 205.758C218.862 205.526 218.798 205.274 218.787 205.016C218.776 204.759 218.818 204.502 218.91 204.261L224.294 190.268C224.86 188.796 225.928 187.572 227.31 186.813C228.692 186.053 230.298 185.807 231.844 186.117Z" fill="#CCCCCC"/>
<path d="M257.222 155.043C256.025 152.032 253.83 149.524 251.006 147.936C248.182 146.348 244.899 145.777 241.705 146.318L245.34 149.256C240.823 149.408 236.068 149.084 232.843 152.251C233.87 152.222 235.215 154.419 236.242 154.39C234.323 154.428 232.582 155.777 231.734 157.5C230.949 159.269 230.765 161.248 231.211 163.132C231.59 165.014 234.482 169.424 235.261 171.179C235.127 166.592 244.157 155.651 248.567 156.793C246.326 157.624 244.382 159.1 242.98 161.035C245.98 159.521 249.373 158.966 252.699 159.445C253.458 159.619 254.241 159.663 255.015 159.574C255.49 159.48 255.932 159.267 256.301 158.953C256.669 158.639 256.95 158.237 257.119 157.783C257.287 157.33 257.336 156.841 257.261 156.363C257.187 155.885 256.991 155.434 256.693 155.054L257.222 155.043Z" fill="#2F2E41"/>
<path d="M333.344 337.25H154.469C154.345 337.25 154.226 337.2 154.138 337.112C154.049 337.024 154 336.905 154 336.78C154 336.656 154.049 336.536 154.138 336.448C154.226 336.36 154.345 336.311 154.469 336.311H333.344C333.468 336.311 333.588 336.36 333.676 336.448C333.764 336.536 333.813 336.656 333.813 336.78C333.813 336.905 333.764 337.024 333.676 337.112C333.588 337.2 333.468 337.25 333.344 337.25Z" fill="#3F3D56"/>
<path d="M538.415 131.615H535.598V132.085H538.415V131.615Z" fill="#E6E6E6"/>
<path d="M529.909 132.085H524.219V131.615H529.909V132.085ZM518.528 132.085H512.837V131.615H518.528V132.085ZM507.146 132.085H501.456V131.615H507.146V132.085ZM495.765 132.085H490.074V131.615H495.765V132.085ZM484.383 132.085H478.693V131.615H484.383V132.085ZM473.002 132.085H467.311V131.615H473.002V132.085ZM461.62 132.085H455.93V131.615H461.62V132.085ZM450.239 132.085H444.548V131.615H450.239V132.085ZM438.857 132.085H433.167V131.615H438.857V132.085ZM427.476 132.085H421.785V131.615H427.476V132.085ZM416.094 132.085H410.404V131.615H416.094V132.085ZM404.713 132.085H399.022V131.615H404.713V132.085ZM393.331 132.085H387.641V131.615H393.331V132.085ZM381.95 132.085H376.259V131.615H381.95V132.085ZM370.568 132.085H364.878V131.615H370.568V132.085ZM359.187 132.085H353.496V131.615H359.187V132.085Z" fill="#E6E6E6"/>
<path d="M347.805 131.615H344.988V132.085H347.805V131.615Z" fill="#E6E6E6"/>
<path d="M445.926 175.277H443.109V175.747H445.926V175.277Z" fill="#E6E6E6"/>
<path d="M437.507 175.747H431.901V175.277H437.507V175.747ZM426.295 175.747H420.689V175.277H426.295V175.747ZM415.082 175.747H409.476V175.277H415.082V175.747ZM403.87 175.747H398.264V175.277H403.87V175.747ZM392.658 175.747H387.051V175.277H392.658V175.747ZM381.445 175.747H375.839V175.277H381.445V175.747ZM370.233 175.747H364.626V175.277H370.233V175.747ZM359.02 175.747H353.414V175.277H359.02V175.747Z" fill="#E6E6E6"/>
<path d="M347.805 175.277H344.988V175.747H347.805V175.277Z" fill="#E6E6E6"/>
<path d="M390.997 195.936H388.18V196.405H390.997V195.936Z" fill="#E6E6E6"/>
<path d="M382.414 196.405H376.646V195.936H382.414V196.405ZM370.878 196.405H365.11V195.936H370.878V196.405ZM359.342 196.405H353.574V195.936H359.342V196.405Z" fill="#E6E6E6"/>
<path d="M347.805 195.936H344.988V196.405H347.805V195.936Z" fill="#E6E6E6"/>
<path d="M538.495 136.785V217.189C538.49 221.235 536.881 225.113 534.02 227.973C531.16 230.834 527.282 232.443 523.236 232.448H359.855C357.713 232.449 355.595 231.998 353.64 231.124C351.684 230.251 349.936 228.974 348.508 227.377V226.659C349.882 228.312 351.602 229.645 353.546 230.564C355.49 231.483 357.611 231.966 359.761 231.978L388.02 203.72C388.39 203.349 388.83 203.055 389.314 202.855C389.798 202.654 390.317 202.551 390.841 202.551C391.365 202.551 391.884 202.654 392.369 202.855C392.853 203.055 393.293 203.349 393.663 203.72L408.682 218.734L443.889 183.532C444.259 183.161 444.699 182.867 445.183 182.667C445.667 182.466 446.186 182.363 446.71 182.363C447.234 182.363 447.753 182.466 448.237 182.667C448.722 182.867 449.161 183.161 449.532 183.532L470.184 204.18L537.561 136.809L538.025 136.795L538.241 136.79L538.495 136.785Z" fill="#575A89"/>
<path d="M523.393 232.555H360.012C355.967 232.55 352.089 230.941 349.228 228.08C346.368 225.22 344.758 221.342 344.754 217.296V133.258C344.758 129.213 346.368 125.335 349.228 122.474C352.089 119.614 355.967 118.005 360.012 118H523.393C527.439 118.005 531.317 119.614 534.178 122.474C537.038 125.335 538.647 129.213 538.652 133.258V217.296C538.647 221.342 537.038 225.22 534.178 228.081C531.317 230.941 527.439 232.55 523.393 232.555ZM360.012 118.469C356.091 118.474 352.332 120.033 349.56 122.806C346.787 125.578 345.228 129.337 345.223 133.258V217.296C345.228 221.217 346.787 224.976 349.56 227.749C352.332 230.521 356.091 232.081 360.012 232.085H523.393C527.314 232.081 531.073 230.521 533.846 227.749C536.618 224.976 538.178 221.217 538.182 217.296V133.258C538.178 129.337 536.618 125.578 533.846 122.806C531.073 120.033 527.314 118.474 523.393 118.469H360.012Z" fill="#3F3D56"/>
<path d="M360.18 232.486L359.848 232.154L388.178 203.824C388.927 203.076 389.942 202.657 391 202.657C392.058 202.657 393.073 203.076 393.821 203.824L408.84 218.842L444.047 183.636C444.796 182.889 445.811 182.469 446.869 182.469C447.927 182.469 448.941 182.889 449.69 183.636L470.343 204.288L538.252 136.379L538.584 136.711L470.343 204.952L449.358 183.968C449.031 183.641 448.643 183.381 448.216 183.204C447.789 183.028 447.331 182.936 446.869 182.936C446.406 182.936 445.948 183.028 445.521 183.204C445.094 183.381 444.706 183.641 444.379 183.968L408.84 219.506L393.489 204.156C392.829 203.496 391.933 203.126 391 203.126C390.066 203.126 389.171 203.496 388.51 204.156L360.18 232.486Z" fill="#3F3D56"/>
<path d="M390.997 199.456C392.812 199.456 394.284 197.984 394.284 196.169C394.284 194.354 392.812 192.883 390.997 192.883C389.182 192.883 387.711 194.354 387.711 196.169C387.711 197.984 389.182 199.456 390.997 199.456Z" fill="#3F3D56"/>
<path d="M445.927 178.799C447.742 178.799 449.213 177.328 449.213 175.513C449.213 173.698 447.742 172.227 445.927 172.227C444.112 172.227 442.641 173.698 442.641 175.513C442.641 177.328 444.112 178.799 445.927 178.799Z" fill="#3F3D56"/>
<path d="M538.415 135.135C540.23 135.135 541.702 133.665 541.702 131.85C541.702 130.035 540.23 128.562 538.415 128.562C536.6 128.562 535.129 130.035 535.129 131.85C535.129 133.665 536.6 135.135 538.415 135.135Z" fill="#3F3D56"/>
<path d="M234.503 255.142C241.319 255.142 246.845 247.278 246.845 237.576C246.845 227.874 241.319 220.01 234.503 220.01C227.686 220.01 222.16 227.874 222.16 237.576C222.16 247.278 227.686 255.142 234.503 255.142Z" fill="#3F3D56"/>
<path opacity="0.1" d="M234.503 255.142C241.319 255.142 246.845 247.278 246.845 237.576C246.845 227.874 241.319 220.01 234.503 220.01C227.686 220.01 222.16 227.874 222.16 237.576C222.16 247.278 227.686 255.142 234.503 255.142Z" fill="black"/>
<path d="M236.167 255.142C242.983 255.142 248.509 247.278 248.509 237.576C248.509 227.874 242.983 220.01 236.167 220.01C229.35 220.01 223.824 227.874 223.824 237.576C223.824 247.278 229.35 255.142 236.167 255.142Z" fill="#3F3D56"/>
<path opacity="0.1" d="M236.168 252.642C242.015 252.642 246.754 245.897 246.754 237.576C246.754 229.255 242.015 222.51 236.168 222.51C230.322 222.51 225.582 229.255 225.582 237.576C225.582 245.897 230.322 252.642 236.168 252.642Z" fill="black"/>
<path d="M236.073 244.833V243.065C235.226 243.057 234.403 242.788 233.715 242.294L234.085 241.121C234.726 241.601 235.503 241.865 236.304 241.874C236.54 241.893 236.777 241.862 237 241.784C237.223 241.706 237.428 241.582 237.6 241.421C237.773 241.259 237.91 241.063 238.003 240.846C238.095 240.629 238.142 240.394 238.139 240.158C238.139 239.195 237.537 238.599 236.397 238.074C234.825 237.374 233.854 236.568 233.854 235.045C233.829 234.372 234.053 233.713 234.482 233.193C234.911 232.674 235.515 232.329 236.181 232.226V230.457H237.137V232.156C237.849 232.165 238.544 232.378 239.141 232.768L238.755 233.924C238.183 233.533 237.506 233.325 236.813 233.329C236.604 233.307 236.393 233.33 236.193 233.396C235.993 233.462 235.81 233.57 235.656 233.712C235.501 233.855 235.379 234.029 235.296 234.222C235.214 234.416 235.174 234.625 235.179 234.835C235.179 235.745 235.749 236.2 237.09 236.831C238.678 237.566 239.48 238.477 239.48 240.035C239.501 240.742 239.266 241.432 238.819 241.979C238.371 242.526 237.741 242.893 237.044 243.012V244.833H236.073Z" fill="#575A89"/>
<path d="M242.773 227.512C243.031 227.541 243.287 227.591 243.537 227.661L261.211 212.504L260.178 206.943L268.367 204.287L271.153 213.954C271.378 214.735 271.344 215.568 271.055 216.328C270.766 217.088 270.239 217.734 269.552 218.168L247.168 232.333C247.184 233.333 246.895 234.315 246.339 235.148C245.784 235.98 244.988 236.623 244.057 236.992C243.127 237.361 242.107 237.438 241.131 237.213C240.156 236.987 239.273 236.471 238.599 235.731C237.924 234.991 237.491 234.064 237.357 233.072C237.223 232.081 237.394 231.072 237.847 230.179C238.3 229.287 239.014 228.554 239.894 228.077C240.774 227.601 241.778 227.403 242.773 227.512Z" fill="#A0616A"/>
<path d="M257.915 186.695C259.505 186.364 261.16 186.623 262.572 187.424C263.985 188.224 265.057 189.512 265.589 191.045L270.871 206.271C270.964 206.538 270.995 206.822 270.963 207.103C270.93 207.384 270.835 207.653 270.683 207.892C270.532 208.131 270.329 208.332 270.089 208.481C269.849 208.63 269.578 208.724 269.297 208.754L255.225 210.26C254.969 210.287 254.71 210.262 254.464 210.185C254.218 210.108 253.99 209.981 253.796 209.812C253.601 209.643 253.443 209.436 253.331 209.204C253.22 208.972 253.158 208.719 253.148 208.461L252.602 193.478C252.545 191.902 253.047 190.357 254.019 189.116C254.991 187.874 256.372 187.017 257.915 186.695Z" fill="#CCCCCC"/>
<defs>
<filter id="filter0_d" x="0" y="0" width="687" height="572" filterUnits="userSpaceOnUse" color-interpolation-filters="sRGB">
<feFlood flood-opacity="0" result="BackgroundImageFix"/>
<feColorMatrix in="SourceAlpha" type="matrix" values="0 0 0 0 0 0 0 0 0 0 0 0 0 0 0 0 0 0 127 0" result="hardAlpha"/>
<feOffset dy="5"/>
<feGaussianBlur stdDeviation="10"/>
<feComposite in2="hardAlpha" operator="out"/>
<feColorMatrix type="matrix" values="0 0 0 0 0 0 0 0 0 0 0 0 0 0 0 0 0 0 0.25 0"/>
<feBlend mode="normal" in2="BackgroundImageFix" result="effect1_dropShadow"/>
<feBlend mode="normal" in="SourceGraphic" in2="effect1_dropShadow" result="shape"/>
</filter>
</defs>
</svg>
