<svg width="680" height="459" viewBox="0 0 680 459" fill="none" xmlns="http://www.w3.org/2000/svg">
<g clip-path="url(#clip0)">
<path d="M439.425 104.311C452.282 104.311 462.705 93.8881 462.705 81.0308C462.705 68.1734 452.282 57.7505 439.425 57.7505C426.567 57.7505 416.145 68.1734 416.145 81.0308C416.145 93.8881 426.567 104.311 439.425 104.311Z" fill="#F2F2F2"/>
<path d="M529.026 244.279L130.617 0.525391L0.387205 213.383L398.796 457.137L529.026 244.279Z" fill="#F2F2F2"/>
<path d="M493.626 311.797C489.988 303.43 484.387 296.083 473.183 289.899C467.392 286.625 461.173 284.176 454.704 282.624C459.056 280.602 463.059 277.9 466.563 274.621C471.713 270.017 475.617 264.186 477.912 257.67C480.024 251.048 480.888 244.092 480.458 237.154C479.658 224.932 477.257 213.074 470.855 204.562C464.453 196.05 455.432 189.502 443.501 184.919C434.334 181.427 424.949 179.245 410.399 178.444V131.957L381.298 150.144V178.517H358.018V148.689L328.19 131.957V178.517H264.824L285.195 213.438C291.487 213.445 295.751 214.027 297.926 215.111C299.957 215.98 301.626 217.521 302.655 219.476C303.6 221.295 304.037 225.587 304.037 232.207V358.212C304.037 364.759 303.6 368.979 302.655 370.87C301.709 372.762 301.2 374.435 298.944 375.454C296.689 376.472 296.616 376.4 290.36 376.4H290.287L264.824 411.32H328.118V457.881H357.945V411.32H381.226V457.881H410.326V411.029C429.241 410.083 442.7 407.61 453.54 403.536C467.581 398.298 478.348 390.659 486.06 380.619C493.771 370.58 496.9 355.229 497.554 343.371C498.064 332.822 496.9 319.217 493.626 311.797ZM357.945 217.803H357.953V216.835H378.294C389.738 216.835 427.874 213.023 428.507 244.168C429.147 275.312 378.294 274.039 378.294 274.039H357.953V271.638H357.945V217.803ZM357.945 306.559H381.226C385.955 306.559 402.222 307.279 408.144 307.548C410.558 307.636 412.948 308.062 415.244 308.814C416.081 309.098 416.874 309.418 417.732 309.774C421.32 310.934 424.705 312.647 427.764 314.852C429.759 316.169 431.513 317.818 432.952 319.727C433.575 320.588 434.148 321.484 434.669 322.411C436.046 324.742 437.068 327.265 437.702 329.897C438.396 332.439 438.755 335.061 438.772 337.696C438.772 343.363 437.724 348.056 435.141 352.028C431.642 357.892 425.902 362.046 419.442 364.978C402.738 372.573 381.226 372.035 381.226 372.035H357.945V306.559Z" fill="#3F3D56"/>
<path opacity="0.3" d="M445.725 82.0105C445.504 81.4652 445.099 81.0152 444.579 80.7396C444.256 80.5501 443.907 80.4079 443.543 80.3174C443.788 80.1993 444.013 80.0424 444.208 79.8529C444.498 79.5829 444.717 79.2448 444.844 78.8692C444.963 78.484 445.011 78.0807 444.987 77.6785C444.985 77.0105 444.799 76.356 444.449 75.787C444.058 75.267 443.525 74.8711 442.915 74.647C442.322 74.4171 441.695 74.29 441.059 74.2712V71.5732L439.428 72.6288V74.2754H438.123V72.5443L436.451 71.5732V74.2754H432.898L434.04 76.3021C434.282 76.2855 434.525 76.3185 434.754 76.3992C434.869 76.4506 434.963 76.5401 435.019 76.6525C435.089 76.8922 435.115 77.1424 435.097 77.3914V84.7042C435.114 84.9517 435.088 85.2004 435.019 85.4388C434.966 85.5486 434.938 85.6457 434.811 85.7048C434.685 85.7639 434.681 85.7597 434.33 85.7597H434.326L432.898 87.7863H436.447V90.4885H438.119V87.7863H439.424V90.4885H441.055V87.7695C441.881 87.7548 442.699 87.6079 443.478 87.3346C444.201 87.0762 444.834 86.6143 445.301 86.0046C445.708 85.3558 445.931 84.6085 445.945 83.8428C445.988 83.2236 445.914 82.6019 445.725 82.0105ZM438.119 76.5555H438.119V76.4993H439.26C439.901 76.4993 442.039 76.2781 442.074 78.0856C442.11 79.8931 439.26 79.8192 439.26 79.8192H438.119V79.6798H438.119V76.5555ZM438.119 81.7065H439.424C439.689 81.7065 440.601 81.7483 440.933 81.7639C441.068 81.769 441.203 81.7938 441.331 81.8374C441.378 81.8539 441.422 81.8724 441.47 81.8931C441.672 81.9608 441.862 82.0603 442.033 82.1878C442.145 82.2648 442.244 82.3605 442.324 82.4707C442.447 82.6498 442.538 82.8498 442.59 83.061C442.629 83.2087 442.649 83.3608 442.65 83.5136C442.663 83.8046 442.593 84.0934 442.446 84.3454C442.237 84.6801 441.93 84.9425 441.566 85.0969C440.887 85.3752 440.158 85.5144 439.424 85.5065H438.119V81.7065Z" fill="black"/>
<path d="M581.033 346.669C585.746 346.669 589.567 342.849 589.567 338.136C589.567 333.423 585.746 329.603 581.033 329.603C576.321 329.603 572.5 333.423 572.5 338.136C572.5 342.849 576.321 346.669 581.033 346.669Z" fill="#FF6584"/>
<path d="M648.303 431.025V333.866" stroke="#3F3D56" stroke-width="2" stroke-miterlimit="10"/>
<path d="M648.304 347.606C655.892 347.606 662.044 341.454 662.044 333.866C662.044 326.278 655.892 320.126 648.304 320.126C640.716 320.126 634.564 326.278 634.564 333.866C634.564 341.454 640.716 347.606 648.304 347.606Z" fill="#3F3D56"/>
<path d="M621.244 388.266C601.398 418.701 606.836 457.41 606.836 457.41C606.836 457.41 644.451 446.775 664.297 416.34C684.143 385.905 678.705 347.195 678.705 347.195C678.705 347.195 641.09 357.831 621.244 388.266Z" fill="#B3FBA7"/>
<path d="M606.73 457.057C606.73 457.057 606.247 456.98 605.358 456.8C604.648 456.656 603.672 456.45 602.479 456.167C591.82 453.654 563.479 445.158 544.95 422.821C521.76 394.85 522.736 355.773 522.736 355.773C522.736 355.773 558.195 361.535 581.561 386.653C582.573 387.732 583.558 388.851 584.516 390.009C604.695 414.345 606.576 447.091 606.725 455.186C606.745 456.399 606.73 457.057 606.73 457.057Z" fill="#EA7D88"/>
<path d="M592.428 388.266C612.274 418.701 606.836 457.41 606.836 457.41C606.836 457.41 569.221 446.775 549.375 416.34C529.529 385.905 534.967 347.195 534.967 347.195C534.967 347.195 572.582 357.831 592.428 388.266Z" stroke="#3F3D56" stroke-width="2" stroke-miterlimit="10"/>
<path opacity="0.1" d="M606.725 455.186C606.2 455.818 605.738 456.357 605.357 456.799C604.515 457.761 604.037 458.264 604.037 458.264C604.037 458.264 603.456 457.534 602.479 456.167C597.118 448.694 579.875 422.122 581.206 391.427C581.278 389.818 581.396 388.227 581.56 386.652C582.573 387.732 583.558 388.85 584.516 390.009C604.694 414.345 606.576 447.091 606.725 455.186Z" fill="black"/>
<path d="M636.152 393.647C634.584 429.947 607.637 458.265 607.637 458.265C607.637 458.265 583.234 427.728 584.803 391.428C586.372 355.128 613.318 326.81 613.318 326.81C613.318 326.81 637.721 357.347 636.152 393.647Z" fill="#EA7D88"/>
<path d="M607.637 457.237L613.561 328.291" stroke="#3F3D56" stroke-width="2" stroke-miterlimit="10"/>
<path d="M42.1973 457.378H657.685" stroke="#3F3D56" stroke-width="2" stroke-miterlimit="10"/>
<path d="M172.92 300.124C190.089 300.124 204.007 286.206 204.007 269.038C204.007 251.869 190.089 237.951 172.92 237.951C155.752 237.951 141.834 251.869 141.834 269.038C141.834 286.206 155.752 300.124 172.92 300.124Z" fill="#BBFFB5"/>
<path d="M120.08 373.285C137.249 373.285 151.167 359.368 151.167 342.199C151.167 325.031 137.249 311.113 120.08 311.113C102.912 311.113 88.9941 325.031 88.9941 342.199C88.9941 359.368 102.912 373.285 120.08 373.285Z" fill="#EA7D88"/>
<path d="M55.0492 431.713C72.2177 431.713 86.1356 417.795 86.1356 400.626C86.1356 383.458 72.2177 369.54 55.0492 369.54C37.8807 369.54 23.9629 383.458 23.9629 400.626C23.9629 417.795 37.8807 431.713 55.0492 431.713Z" fill="#EA7D88"/>
<path d="M55.0215 456.845V400.456" stroke="#3F3D56" stroke-width="2" stroke-miterlimit="10"/>
<path d="M55.0211 408.43C59.4252 408.43 62.9954 404.86 62.9954 400.456C62.9954 396.052 59.4252 392.481 55.0211 392.481C50.6171 392.481 47.0469 396.052 47.0469 400.456C47.0469 404.86 50.6171 408.43 55.0211 408.43Z" fill="#3F3D56"/>
<path d="M55.0216 435.209C55.0216 435.209 53.8825 410.708 30.5293 413.556L55.0216 435.209Z" fill="#3F3D56"/>
<path d="M172.939 457.24V269.152" stroke="#3F3D56" stroke-width="2" stroke-miterlimit="10"/>
<path d="M172.939 277.037C177.343 277.037 180.913 273.467 180.913 269.063C180.913 264.659 177.343 261.088 172.939 261.088C168.535 261.088 164.965 264.659 164.965 269.063C164.965 273.467 168.535 277.037 172.939 277.037Z" fill="#3F3D56"/>
<path d="M148.447 413.12C152.851 413.12 156.421 409.55 156.421 405.146C156.421 400.742 152.851 397.171 148.447 397.171C144.043 397.171 140.473 400.742 140.473 405.146C140.473 409.55 144.043 413.12 148.447 413.12Z" fill="#3F3D56"/>
<path d="M172.94 309.796C172.94 309.796 171.8 285.294 148.447 288.142L172.94 309.796Z" fill="#3F3D56"/>
<path d="M172.94 379.254C172.94 379.254 171.8 354.753 148.447 357.601L172.94 379.254Z" fill="#3F3D56"/>
<path d="M172.94 455.049C172.94 455.049 178.066 407.424 148.447 405.146" stroke="#3F3D56" stroke-width="2" stroke-miterlimit="10"/>
<path d="M197.435 413.12C201.839 413.12 205.409 409.55 205.409 405.146C205.409 400.742 201.839 397.171 197.435 397.171C193.031 397.171 189.461 400.742 189.461 405.146C189.461 409.55 193.031 413.12 197.435 413.12Z" fill="#3F3D56"/>
<path d="M172.942 455.049C172.942 455.049 167.816 407.424 197.435 405.146" stroke="#3F3D56" stroke-width="2" stroke-miterlimit="10"/>
<path d="M197.921 338.319C202.325 338.319 205.896 334.748 205.896 330.344C205.896 325.94 202.325 322.37 197.921 322.37C193.517 322.37 189.947 325.94 189.947 330.344C189.947 334.748 193.517 338.319 197.921 338.319Z" fill="#3F3D56"/>
<path d="M173.429 377.707C173.429 377.707 168.303 332.623 197.921 330.344" stroke="#3F3D56" stroke-width="2" stroke-miterlimit="10"/>
<path d="M120.109 456.975V342.164" stroke="#3F3D56" stroke-width="2" stroke-miterlimit="10"/>
<path d="M120.109 350.138C124.513 350.138 128.083 346.568 128.083 342.164C128.083 337.76 124.513 334.19 120.109 334.19C115.705 334.19 112.135 337.76 112.135 342.164C112.135 346.568 115.705 350.138 120.109 350.138Z" fill="#3F3D56"/>
<path d="M120.109 374.64C120.109 374.64 118.97 350.138 95.6172 352.986L120.109 374.64Z" fill="#3F3D56"/>
<path d="M120.11 454.783C120.11 454.783 125.236 407.667 95.6172 405.389" stroke="#3F3D56" stroke-width="2" stroke-miterlimit="10"/>
<path d="M95.6169 413.363C100.021 413.363 103.591 409.793 103.591 405.389C103.591 400.985 100.021 397.415 95.6169 397.415C91.2128 397.415 87.6426 400.985 87.6426 405.389C87.6426 409.793 91.2128 413.363 95.6169 413.363Z" fill="#3F3D56"/>
<path d="M558.009 282.551C565.241 282.551 571.104 276.688 571.104 269.456C571.104 262.224 565.241 256.361 558.009 256.361C550.777 256.361 544.914 262.224 544.914 269.456C544.914 276.688 550.777 282.551 558.009 282.551Z" fill="#F2F2F2"/>
<path opacity="0.1" d="M419.442 364.978C402.738 372.573 381.226 372.034 381.226 372.034H357.945V367.589C367.432 364.941 380.549 363.304 395.048 363.304C403.209 363.276 411.361 363.835 419.442 364.978Z" fill="black"/>
<path opacity="0.1" d="M447.427 377.854C447.427 385.893 423.973 392.405 395.047 392.405C366.121 392.405 342.666 385.893 342.666 377.854C342.666 373.846 348.501 370.216 357.944 367.589V372.034H381.224C381.224 372.034 402.736 372.573 419.44 364.978C436.078 367.407 447.427 372.26 447.427 377.854Z" fill="black"/>
<path d="M401.738 287.258H379.451V309.585H401.738V287.258Z" fill="#2F2E41"/>
<path d="M387.738 303.047C387.738 303.047 389.583 309.503 386.355 309.965C384.351 310.277 382.453 311.068 380.82 312.271L386.816 320.111H397.884L404.802 313.193C404.802 313.193 395.578 306.275 397.423 302.124C399.268 297.974 387.738 303.047 387.738 303.047Z" fill="#FFB9B9"/>
<path opacity="0.1" d="M387.738 303.047C387.738 303.047 389.583 309.503 386.355 309.965C384.351 310.277 382.453 311.068 380.82 312.271L386.816 320.111H397.884L404.802 313.193C404.802 313.193 395.578 306.275 397.423 302.124C399.268 297.974 387.738 303.047 387.738 303.047Z" fill="black"/>
<path d="M390.506 383.294L401.114 386.983L408.492 387.444L408.031 380.988L392.812 376.487L390.506 383.294Z" fill="#FFB9B9"/>
<path d="M404.111 381.911C404.111 381.911 404.111 388.367 405.034 388.367C405.956 388.367 418.408 386.984 422.098 388.367C425.788 389.751 431.322 384.678 428.555 381.911C425.787 379.144 421.274 374.993 418.457 375.915C415.641 376.838 404.111 379.144 404.111 379.144L404.111 381.911Z" fill="#2F2E41"/>
<path d="M370.213 375.915C370.213 375.915 364.678 386.984 368.368 387.906C372.057 388.828 376.208 387.445 376.669 386.984C377.131 386.522 383.587 384.678 384.51 385.6C385.432 386.522 385.432 381.911 385.432 381.911L370.213 375.915Z" fill="#2F2E41"/>
<path d="M374.826 360.696C374.826 360.696 366.063 372.687 372.52 375.915C378.977 379.143 409.876 379.143 412.182 375.915C414.488 372.687 415.411 362.541 412.182 361.618C408.954 360.696 374.826 360.696 374.826 360.696Z" fill="#2F2E41"/>
<path opacity="0.2" d="M374.826 360.696C374.826 360.696 366.063 372.687 372.52 375.915C378.977 379.143 409.876 379.143 412.182 375.915C414.488 372.687 415.411 362.541 412.182 361.618C408.954 360.696 374.826 360.696 374.826 360.696Z" fill="black"/>
<path d="M391.428 306.276C397.286 306.276 402.035 301.526 402.035 295.668C402.035 289.81 397.286 285.061 391.428 285.061C385.569 285.061 380.82 289.81 380.82 295.668C380.82 301.526 385.569 306.276 391.428 306.276Z" fill="#FFB9B9"/>
<path d="M374.824 312.271L384.048 310.426C384.048 310.426 386.354 317.805 393.733 316.421C401.112 315.038 402.957 310.426 402.957 310.426C402.957 310.426 408.491 312.732 408.952 312.732C409.414 312.732 415.409 315.038 415.409 316.421C415.409 317.805 408.491 331.641 408.491 331.641L409.414 356.545L375.285 355.623L377.591 331.179L374.824 312.271Z" fill="#458FF6"/>
<path d="M369.752 324.262C369.752 324.262 366.985 348.705 368.829 350.55C370.674 352.394 378.053 357.467 378.053 357.467V351.933L374.364 345.015L378.053 328.874L369.752 324.262Z" fill="#FFB9B9"/>
<path d="M417.486 323.57C417.486 323.57 415.872 348.705 415.872 349.627C415.872 350.55 411.721 353.778 410.337 353.778C408.954 353.778 408.031 351.472 408.031 351.472L411.26 347.782L408.954 328.874L417.486 323.57Z" fill="#FFB9B9"/>
<path d="M413.105 358.851C413.105 358.851 433.858 347.321 434.32 358.851C434.781 370.381 423.712 374.993 423.712 374.993C423.712 374.993 395.118 383.567 393.965 380.433C392.812 377.298 390.506 372.225 392.351 371.764C394.196 371.303 396.502 370.381 397.424 371.303C398.347 372.225 409.876 364.385 409.876 364.385L413.105 358.851Z" fill="#2F2E41"/>
<path opacity="0.2" d="M422.788 357.468C422.788 357.468 418.638 359.313 417.254 360.696C415.87 362.08 409.875 364.386 409.875 364.386" stroke="black" stroke-width="2" stroke-miterlimit="10"/>
<path d="M377.593 313.193L374.826 312.271C374.826 312.271 364.679 322.878 367.908 325.645C371.136 328.412 372.981 329.334 373.903 330.257C374.826 331.179 379.438 331.64 379.438 331.64L377.593 313.193Z" fill="#458FF6"/>
<path d="M411.259 315.499L415.41 316.421C415.41 316.421 418.638 323.339 419.561 324.262C420.483 325.184 418.177 324.723 416.794 326.568C415.41 328.412 414.026 331.641 411.259 331.641C408.492 331.641 404.803 327.029 404.803 327.029L411.259 315.499Z" fill="#458FF6"/>
<path d="M375.748 363.002C375.748 363.002 358.223 350.55 352.228 359.774C346.232 368.997 378.054 381.45 382.666 383.294C387.278 385.139 391.429 386.984 391.429 386.984C391.429 386.984 395.58 376.838 395.58 374.993C395.58 373.148 392.351 373.148 391.429 373.148C390.507 373.148 386.356 372.226 385.434 370.842C384.511 369.459 375.748 363.002 375.748 363.002Z" fill="#2F2E41"/>
<path opacity="0.2" d="M366.062 359.773C366.062 359.773 370.674 363.463 374.825 364.385C378.976 365.308 380.359 367.614 380.359 367.614" stroke="black" stroke-width="2" stroke-miterlimit="10"/>
<path d="M372.567 342.433L372.935 361.96C372.947 362.605 373.214 363.219 373.677 363.668C374.14 364.117 374.762 364.365 375.407 364.358L411.746 363.95C412.365 363.943 412.958 363.701 413.406 363.274C413.854 362.846 414.123 362.265 414.159 361.646L415.262 342.528C415.281 342.195 415.232 341.863 415.118 341.55C415.004 341.237 414.827 340.951 414.599 340.709C414.37 340.467 414.095 340.274 413.789 340.142C413.483 340.01 413.154 339.942 412.821 339.942H375.011C374.686 339.942 374.364 340.007 374.065 340.133C373.765 340.259 373.494 340.443 373.266 340.675C373.039 340.907 372.86 341.182 372.739 341.483C372.619 341.785 372.561 342.108 372.567 342.433Z" fill="#575A89"/>
<path d="M368.364 312.387C369.354 310.203 370.684 308.153 371.317 305.841C372.077 303.069 371.781 300.137 371.691 297.264C371.547 294.724 371.763 292.175 372.334 289.696C372.913 287.204 374.215 284.939 376.075 283.183C380.908 278.868 389.753 278.558 395.655 280.355C397.982 281.063 400.46 282.411 401.037 284.774C401.124 285.13 401.163 285.498 401.26 285.852C401.743 287.611 403.543 288.724 404.192 290.428C405.032 292.633 403.737 295.031 403.568 297.384C403.37 300.132 404.721 302.728 406.052 305.139C406.844 306.573 407.666 308.1 407.588 309.735C407.522 310.63 407.25 311.497 406.793 312.269C405.945 313.668 404.755 314.829 403.336 315.643C401.916 316.457 400.313 316.897 398.677 316.921C397.613 317.007 396.55 316.756 395.637 316.204C394.197 315.212 393.775 313.215 394.075 311.492C394.375 309.769 395.249 308.211 395.935 306.603C396.145 306.109 396.335 305.607 396.509 305.1C398.634 303.914 400.271 302.015 401.132 299.739C401.993 297.463 402.022 294.956 401.214 292.661C400.405 290.366 398.812 288.43 396.715 287.195C394.618 285.961 392.152 285.507 389.753 285.914C387.354 286.321 385.176 287.562 383.604 289.419C382.031 291.276 381.165 293.629 381.159 296.062C381.153 298.496 382.007 300.853 383.57 302.718C385.133 304.583 387.305 305.835 389.702 306.254C390.219 308.857 389.984 311.553 389.025 314.028C388.153 316.041 387.058 317.95 385.761 319.719C385.23 320.626 384.523 321.417 383.681 322.046C383.126 322.375 382.531 322.629 381.91 322.803C379.305 323.64 376.562 324.315 373.851 323.938C371.141 323.561 368.457 321.926 367.533 319.35C366.724 317.093 367.374 314.571 368.364 312.387Z" fill="#2F2E41"/>
<path d="M390.913 296.091C397.131 296.091 402.171 293.235 402.171 289.712C402.171 286.189 397.131 283.333 390.913 283.333C384.696 283.333 379.656 286.189 379.656 289.712C379.656 293.235 384.696 296.091 390.913 296.091Z" fill="#2F2E41"/>
<path opacity="0.3" d="M562.904 270.217C562.733 269.793 562.418 269.443 562.014 269.229C561.763 269.082 561.491 268.972 561.209 268.901C561.399 268.809 561.574 268.688 561.725 268.54C561.951 268.33 562.121 268.068 562.22 267.776C562.312 267.477 562.35 267.163 562.331 266.851C562.329 266.332 562.184 265.823 561.912 265.381C561.609 264.977 561.195 264.669 560.721 264.495C560.26 264.316 559.773 264.218 559.279 264.203V262.106L558.011 262.927V264.206H556.997V262.861L555.698 262.106V264.206H552.938L553.825 265.781C554.013 265.768 554.202 265.794 554.379 265.856C554.469 265.896 554.541 265.966 554.585 266.053C554.64 266.24 554.66 266.434 554.646 266.627V272.31C554.659 272.502 554.639 272.696 554.585 272.881C554.544 272.966 554.522 273.042 554.424 273.088C554.326 273.133 554.322 273.13 554.05 273.13H554.047L552.938 274.705H555.695V276.805H556.994V274.705H558.008V276.805H559.276V274.692C559.917 274.68 560.553 274.566 561.158 274.354C561.72 274.153 562.212 273.794 562.575 273.32C562.891 272.816 563.064 272.236 563.075 271.641C563.109 271.16 563.051 270.676 562.904 270.217ZM556.994 265.978H556.994V265.934H557.88C558.379 265.934 560.04 265.762 560.068 267.167C560.096 268.571 557.88 268.514 557.88 268.514H556.994V268.406H556.994V265.978ZM556.994 269.981H558.008C558.214 269.981 558.923 270.013 559.181 270.025C559.286 270.029 559.39 270.048 559.49 270.082C559.526 270.095 559.561 270.11 559.598 270.126C559.755 270.178 559.903 270.256 560.035 270.355C560.123 270.414 560.199 270.489 560.261 270.574C560.357 270.714 560.427 270.869 560.468 271.033C560.498 271.148 560.514 271.266 560.515 271.385C560.525 271.611 560.47 271.835 560.357 272.031C560.194 272.291 559.955 272.495 559.673 272.615C559.145 272.831 558.579 272.94 558.008 272.933H556.994V269.981Z" fill="#A9A9A9"/>
<path d="M47.2983 328.384C54.5306 328.384 60.3935 322.521 60.3935 315.289C60.3935 308.057 54.5306 302.194 47.2983 302.194C40.066 302.194 34.2031 308.057 34.2031 315.289C34.2031 322.521 40.066 328.384 47.2983 328.384Z" fill="#F2F2F2"/>
<path opacity="0.3" d="M52.1936 316.05C52.0221 315.627 51.7068 315.277 51.3031 315.063C51.0518 314.915 50.7807 314.805 50.4981 314.735C50.6885 314.643 50.863 314.521 51.0146 314.374C51.2404 314.164 51.4103 313.901 51.509 313.609C51.6011 313.31 51.6387 312.997 51.6199 312.684C51.6183 312.165 51.4736 311.656 51.2016 311.214C50.8982 310.81 50.4844 310.503 50.01 310.328C49.5495 310.15 49.0618 310.051 48.5681 310.036V307.94L47.3004 308.76V310.04H46.2862V308.695L44.9869 307.94V310.04H42.2266L43.1139 311.614C43.302 311.602 43.4907 311.627 43.6685 311.69C43.7578 311.73 43.8305 311.799 43.8745 311.887C43.9286 312.073 43.949 312.268 43.9348 312.461V318.143C43.9486 318.336 43.9282 318.529 43.8745 318.714C43.8333 318.8 43.8112 318.875 43.7129 318.921C43.6147 318.967 43.6115 318.964 43.339 318.964H43.3358L42.2266 320.538H44.9838V322.638H46.2831V320.538H47.2973V322.638H48.5649V320.525C49.2064 320.514 49.842 320.4 50.4474 320.187C51.0093 319.987 51.5013 319.628 51.864 319.154C52.1802 318.65 52.3533 318.069 52.3647 317.474C52.3981 316.993 52.3401 316.51 52.1936 316.05ZM46.2831 311.811H46.2834V311.768H47.1696C47.6681 311.768 49.3293 311.596 49.3569 313C49.3848 314.405 47.1696 314.347 47.1696 314.347H46.2834V314.239H46.2831L46.2831 311.811ZM46.2831 315.814H47.2973C47.5033 315.814 48.2119 315.847 48.4699 315.859C48.5752 315.863 48.6794 315.882 48.7792 315.916C48.8156 315.929 48.8502 315.943 48.8876 315.959C49.0445 316.012 49.192 316.089 49.3246 316.188C49.4119 316.248 49.4883 316.322 49.5506 316.408C49.6466 316.547 49.7167 316.702 49.7575 316.867C49.7877 316.981 49.8034 317.1 49.8041 317.218C49.8145 317.444 49.7596 317.669 49.6459 317.865C49.4832 318.125 49.2444 318.329 48.962 318.449C48.4339 318.665 47.8679 318.773 47.2973 318.767H46.2831L46.2831 315.814Z" fill="#EA7D88"/>
</g>
<defs>
<clipPath id="clip0">
<rect width="679" height="457.812" fill="white" transform="translate(0.386719 0.525391)"/>
</clipPath>
</defs>
</svg>
