<svg width="758" height="746" viewBox="0 0 758 746" fill="none" xmlns="http://www.w3.org/2000/svg">
<path d="M373 746C579.002 746 746 579.002 746 373C746 166.998 579.002 0 373 0C166.998 0 0 166.998 0 373C0 579.002 166.998 746 373 746Z" fill="#F5F9FF"/>
<path d="M756.443 557.001C756.443 557.001 718.591 379.602 481.67 250.913" stroke="#3F3D56" stroke-width="2" stroke-miterlimit="10"/>
<path d="M491.431 247.043L491.905 248.988L482.322 251.312L485.341 260.701L483.435 261.312L479.76 249.876L491.431 247.043Z" fill="#3F3D56"/>
<path d="M144.497 216.037L112.146 229.396L137.041 289.681L169.391 276.322L144.497 216.037Z" fill="#2F2E41"/>
<path d="M140.705 251.394C144.278 249.919 146.076 246.061 144.721 242.779C143.365 239.496 139.37 238.031 135.796 239.507C132.223 240.983 130.425 244.84 131.781 248.122C133.136 251.405 137.132 252.87 140.705 251.394Z" fill="#6C63FF"/>
<path d="M402.5 240.516C411.699 238.639 418.351 233.169 417.357 228.298C416.363 223.428 408.1 221.002 398.901 222.88C389.702 224.757 383.05 230.227 384.044 235.098C385.038 239.968 393.301 242.394 402.5 240.516Z" fill="#57B894"/>
<path d="M470.386 248.094C429.932 241.574 392.373 249.24 357.709 271.091L348.311 225.04C382.789 206.455 421.984 198.455 460.988 202.043L470.386 248.094Z" stroke="#3F3D56" stroke-width="2" stroke-miterlimit="10"/>
<path d="M452.765 241.769C423.568 237.064 396.46 242.597 371.442 258.367L364.658 225.131C389.542 211.717 417.831 205.943 445.982 208.533L452.765 241.769Z" stroke="#3F3D56" stroke-width="2" stroke-miterlimit="10"/>
<path d="M407.578 235.397C416.778 233.519 423.429 228.049 422.435 223.179C421.441 218.309 413.178 215.883 403.979 217.761C394.78 219.638 388.128 225.108 389.122 229.978C390.116 234.849 398.379 237.275 407.578 235.397Z" stroke="#3F3D56" stroke-width="2" stroke-miterlimit="10"/>
<path d="M414.135 288.817C414.48 283.859 407.167 279.311 397.8 278.659C388.434 278.007 380.562 281.499 380.217 286.457C379.872 291.416 387.185 295.964 396.551 296.616C405.917 297.267 413.789 293.776 414.135 288.817Z" fill="#57B894"/>
<path d="M459.935 322.077C422.7 304.974 384.459 302.312 345.213 314.094L348.476 267.208C386.669 258.523 426.576 261.3 463.198 275.191L459.935 322.077Z" stroke="#3F3D56" stroke-width="2" stroke-miterlimit="10"/>
<path d="M444.649 311.27C417.775 298.926 390.175 297.005 361.85 305.509L364.204 271.669C391.77 265.4 420.572 267.405 447.004 277.431L444.649 311.27Z" stroke="#3F3D56" stroke-width="2" stroke-miterlimit="10"/>
<path d="M420.396 285.243C420.741 280.285 413.428 275.737 404.062 275.085C394.696 274.433 386.823 277.924 386.478 282.883C386.133 287.842 393.446 292.39 402.813 293.041C412.179 293.693 420.051 290.202 420.396 285.243Z" stroke="#3F3D56" stroke-width="2" stroke-miterlimit="10"/>
<path d="M322.921 206.244C322.921 206.244 249.425 196.189 196.939 226.948" stroke="#3F3D56" stroke-width="2" stroke-miterlimit="10"/>
<path d="M198.707 216.611L200.616 217.215L197.632 226.614L207.226 228.903L206.759 230.85L195.076 228.059L198.707 216.611Z" fill="#3F3D56"/>
<path d="M283.284 369.736H318.636V378.448H294.228V390.544H317.124V399.328H294.228V412.288H318.636V421H283.284V369.736ZM348.202 383.56C356.842 383.56 361.162 388.672 361.162 398.896V421H350.29V399.4C350.29 396.856 349.81 395.008 348.85 393.856C347.938 392.656 346.474 392.056 344.458 392.056C342.058 392.056 340.138 392.824 338.698 394.36C337.258 395.896 336.538 397.96 336.538 400.552V421H325.666V394.936C325.666 391.048 325.474 387.568 325.09 384.496H335.314L336.034 390.256C337.33 388.096 339.01 386.44 341.074 385.288C343.186 384.136 345.562 383.56 348.202 383.56ZM391.062 383.632C392.598 383.632 393.894 383.872 394.95 384.352L394.878 394.288C393.102 393.472 391.326 393.064 389.55 393.064C386.67 393.064 384.462 393.856 382.926 395.44C381.438 396.976 380.694 399.136 380.694 401.92V421H369.822V394.936C369.822 391.048 369.63 387.568 369.246 384.496H379.47L380.19 390.76C381.102 388.456 382.518 386.704 384.438 385.504C386.406 384.256 388.614 383.632 391.062 383.632ZM399.353 384.496H410.225V421H399.353V384.496ZM410.585 367.36V377.584H398.993V367.36H410.585ZM436.391 421.576C430.439 421.576 425.759 419.896 422.351 416.536C418.991 413.176 417.311 408.592 417.311 402.784C417.311 398.992 418.127 395.656 419.759 392.776C421.391 389.848 423.671 387.592 426.599 386.008C429.575 384.376 433.007 383.56 436.895 383.56C439.535 383.56 442.103 383.968 444.599 384.784C447.095 385.6 449.087 386.704 450.575 388.096L447.695 395.656C446.255 394.504 444.671 393.616 442.943 392.992C441.215 392.32 439.535 391.984 437.903 391.984C434.927 391.984 432.599 392.896 430.919 394.72C429.287 396.496 428.471 399.112 428.471 402.568C428.471 406.072 429.287 408.736 430.919 410.56C432.551 412.336 434.879 413.224 437.903 413.224C439.535 413.224 441.215 412.912 442.943 412.288C444.671 411.616 446.255 410.704 447.695 409.552L450.575 417.112C448.991 418.504 446.927 419.608 444.383 420.424C441.839 421.192 439.175 421.576 436.391 421.576ZM478.28 383.56C486.92 383.56 491.24 388.672 491.24 398.896V421H480.368V399.4C480.368 396.856 479.888 395.008 478.928 393.856C478.016 392.656 476.552 392.056 474.536 392.056C472.136 392.056 470.216 392.824 468.776 394.36C467.336 395.896 466.616 397.96 466.616 400.552V421H455.744V368.008H466.616V389.464C467.912 387.544 469.568 386.08 471.584 385.072C473.6 384.064 475.832 383.56 478.28 383.56ZM230.045 448.632V462.816C230.045 464.832 230.573 466.32 231.629 467.28C232.685 468.192 234.053 468.648 235.733 468.648C236.789 468.648 237.989 468.48 239.333 468.144V476.568C237.605 477.24 235.517 477.576 233.069 477.576C228.557 477.576 225.101 476.304 222.701 473.76C220.349 471.216 219.173 467.64 219.173 463.032V448.632H212.261V440.496H219.173V431.928L230.045 428.4V440.496H239.333V448.632H230.045ZM267.448 439.56C276.088 439.56 280.408 444.672 280.408 454.896V477H269.536V455.4C269.536 452.856 269.056 451.008 268.096 449.856C267.184 448.656 265.72 448.056 263.704 448.056C261.304 448.056 259.384 448.824 257.944 450.36C256.504 451.896 255.784 453.96 255.784 456.552V477H244.912V424.008H255.784V445.464C257.08 443.544 258.736 442.08 260.752 441.072C262.768 440.064 265 439.56 267.448 439.56ZM321.828 459.648H297.78C297.972 463.056 298.86 465.552 300.444 467.136C302.028 468.672 304.38 469.44 307.5 469.44C309.372 469.44 311.244 469.128 313.116 468.504C314.988 467.88 316.716 466.968 318.3 465.768L321.18 473.112C319.452 474.504 317.292 475.608 314.7 476.424C312.156 477.192 309.588 477.576 306.996 477.576C300.852 477.576 296.028 475.896 292.524 472.536C289.02 469.128 287.268 464.496 287.268 458.64C287.268 454.944 288.012 451.656 289.5 448.776C291.036 445.848 293.172 443.592 295.908 442.008C298.644 440.376 301.74 439.56 305.196 439.56C310.332 439.56 314.388 441.24 317.364 444.6C320.34 447.912 321.828 452.4 321.828 458.064V459.648ZM305.484 447.192C303.42 447.192 301.74 447.792 300.444 448.992C299.196 450.192 298.38 451.944 297.996 454.248H312.468C311.892 449.544 309.564 447.192 305.484 447.192ZM362.584 448.632V462.816C362.584 464.832 363.112 466.32 364.168 467.28C365.224 468.192 366.592 468.648 368.272 468.648C369.328 468.648 370.528 468.48 371.872 468.144V476.568C370.144 477.24 368.056 477.576 365.608 477.576C361.096 477.576 357.64 476.304 355.24 473.76C352.888 471.216 351.712 467.64 351.712 463.032V448.632H344.8V440.496H351.712V431.928L362.584 428.4V440.496H371.872V448.632H362.584ZM398.691 439.632C400.227 439.632 401.523 439.872 402.579 440.352L402.507 450.288C400.731 449.472 398.955 449.064 397.179 449.064C394.299 449.064 392.091 449.856 390.555 451.44C389.067 452.976 388.323 455.136 388.323 457.92V477H377.451V450.936C377.451 447.048 377.259 443.568 376.875 440.496H387.099L387.819 446.76C388.731 444.456 390.147 442.704 392.067 441.504C394.035 440.256 396.243 439.632 398.691 439.632ZM442.855 440.496V477H432.127V471.6C431.023 473.472 429.463 474.936 427.447 475.992C425.431 477.048 423.151 477.576 420.607 477.576C417.439 477.576 414.631 476.808 412.183 475.272C409.783 473.736 407.887 471.552 406.495 468.72C405.151 465.84 404.479 462.528 404.479 458.784C404.479 455.04 405.151 451.704 406.495 448.776C407.887 445.848 409.807 443.592 412.255 442.008C414.703 440.376 417.487 439.56 420.607 439.56C423.151 439.56 425.431 440.112 427.447 441.216C429.463 442.32 431.023 443.808 432.127 445.68V440.496H442.855ZM423.775 469.296C426.463 469.296 428.527 468.384 429.967 466.56C431.407 464.736 432.127 462.096 432.127 458.64C432.127 455.184 431.407 452.544 429.967 450.72C428.527 448.848 426.463 447.912 423.775 447.912C421.087 447.912 418.999 448.872 417.511 450.792C416.023 452.712 415.279 455.376 415.279 458.784C415.279 462.192 415.999 464.808 417.439 466.632C418.927 468.408 421.039 469.296 423.775 469.296ZM488.207 424.008V477H477.479V471.6C476.375 473.472 474.815 474.936 472.799 475.992C470.783 477.048 468.503 477.576 465.959 477.576C462.839 477.576 460.055 476.784 457.607 475.2C455.159 473.568 453.239 471.312 451.847 468.432C450.503 465.504 449.831 462.168 449.831 458.424C449.831 454.68 450.503 451.392 451.847 448.56C453.239 445.68 455.135 443.472 457.535 441.936C459.983 440.352 462.791 439.56 465.959 439.56C468.407 439.56 470.639 440.088 472.655 441.144C474.671 442.152 476.231 443.568 477.335 445.392V424.008H488.207ZM469.127 469.296C471.815 469.296 473.879 468.384 475.319 466.56C476.759 464.688 477.479 462.024 477.479 458.568C477.479 455.16 476.735 452.544 475.247 450.72C473.807 448.848 471.767 447.912 469.127 447.912C466.439 447.912 464.351 448.824 462.863 450.648C461.375 452.472 460.631 455.064 460.631 458.424C460.631 461.88 461.375 464.568 462.863 466.488C464.351 468.36 466.439 469.296 469.127 469.296ZM529.742 459.648H505.694C505.886 463.056 506.774 465.552 508.358 467.136C509.942 468.672 512.294 469.44 515.414 469.44C517.286 469.44 519.158 469.128 521.03 468.504C522.902 467.88 524.63 466.968 526.214 465.768L529.094 473.112C527.366 474.504 525.206 475.608 522.614 476.424C520.07 477.192 517.502 477.576 514.91 477.576C508.766 477.576 503.942 475.896 500.438 472.536C496.934 469.128 495.182 464.496 495.182 458.64C495.182 454.944 495.926 451.656 497.414 448.776C498.95 445.848 501.086 443.592 503.822 442.008C506.558 440.376 509.654 439.56 513.11 439.56C518.246 439.56 522.302 441.24 525.278 444.6C528.254 447.912 529.742 452.4 529.742 458.064V459.648ZM513.398 447.192C511.334 447.192 509.654 447.792 508.358 448.992C507.11 450.192 506.294 451.944 505.91 454.248H520.382C519.806 449.544 517.478 447.192 513.398 447.192ZM557.808 439.632C559.344 439.632 560.64 439.872 561.696 440.352L561.624 450.288C559.848 449.472 558.072 449.064 556.296 449.064C553.416 449.064 551.208 449.856 549.672 451.44C548.184 452.976 547.44 455.136 547.44 457.92V477H536.568V450.936C536.568 447.048 536.376 443.568 535.992 440.496H546.216L546.936 446.76C547.848 444.456 549.264 442.704 551.184 441.504C553.152 440.256 555.36 439.632 557.808 439.632ZM296.275 496.496H307.147V533H296.275V496.496ZM307.507 479.36V489.584H295.915V479.36H307.507ZM338.569 495.56C347.209 495.56 351.529 500.672 351.529 510.896V533H340.657V511.4C340.657 508.856 340.177 507.008 339.217 505.856C338.305 504.656 336.841 504.056 334.825 504.056C332.425 504.056 330.505 504.824 329.065 506.36C327.625 507.896 326.905 509.96 326.905 512.552V533H316.033V506.936C316.033 503.048 315.841 499.568 315.457 496.496H325.681L326.401 502.256C327.697 500.096 329.377 498.44 331.441 497.288C333.553 496.136 335.929 495.56 338.569 495.56ZM416.439 496.496L399.591 534.944C397.527 539.6 394.911 543.008 391.743 545.168C388.623 547.376 384.783 548.792 380.223 549.416L377.703 541.064C381.063 540.344 383.583 539.432 385.263 538.328C386.991 537.224 388.335 535.616 389.295 533.504L390.375 531.128L375.327 496.496H386.703L396.063 520.184L405.711 496.496H416.439ZM436.746 533.576C432.858 533.576 429.45 532.808 426.522 531.272C423.642 529.736 421.41 527.528 419.826 524.648C418.29 521.768 417.522 518.408 417.522 514.568C417.522 510.728 418.29 507.368 419.826 504.488C421.41 501.608 423.642 499.4 426.522 497.864C429.45 496.328 432.858 495.56 436.746 495.56C440.586 495.56 443.946 496.328 446.826 497.864C449.706 499.4 451.914 501.608 453.45 504.488C455.034 507.368 455.826 510.728 455.826 514.568C455.826 518.408 455.034 521.768 453.45 524.648C451.914 527.528 449.706 529.736 446.826 531.272C443.946 532.808 440.586 533.576 436.746 533.576ZM436.746 525.296C439.434 525.296 441.474 524.408 442.866 522.632C444.306 520.856 445.026 518.168 445.026 514.568C445.026 511.016 444.306 508.352 442.866 506.576C441.474 504.752 439.434 503.84 436.746 503.84C434.01 503.84 431.922 504.752 430.482 506.576C429.042 508.352 428.322 511.016 428.322 514.568C428.322 521.72 431.13 525.296 436.746 525.296ZM497.623 496.496V533H487.039V527.672C485.887 529.592 484.375 531.056 482.503 532.064C480.631 533.072 478.519 533.576 476.167 533.576C471.607 533.576 468.199 532.304 465.943 529.76C463.687 527.216 462.559 523.376 462.559 518.24V496.496H473.431V518.456C473.431 522.872 475.327 525.08 479.119 525.08C481.375 525.08 483.199 524.312 484.591 522.776C485.983 521.24 486.679 519.224 486.679 516.728V496.496H497.623Z" fill="black"/>
</svg>
