<svg width="622" height="400" viewBox="0 0 622 400" fill="none" xmlns="http://www.w3.org/2000/svg">
<g clip-path="url(#clip0)">
<path d="M545.107 368.691C565.078 348.721 565.078 316.343 545.107 296.372C525.137 276.402 492.759 276.402 472.788 296.372C452.818 316.343 452.818 348.721 472.788 368.691C492.759 388.662 525.137 388.662 545.107 368.691Z" fill="#2F2E41"/>
<path d="M508.662 337.236C518.086 335.15 524.035 325.818 521.949 316.394C519.863 306.97 510.532 301.021 501.107 303.107C491.683 305.193 485.734 314.524 487.82 323.949C489.906 333.373 499.237 339.322 508.662 337.236Z" fill="white"/>
<path d="M499.062 321.346C502.203 320.65 504.186 317.54 503.491 314.398C502.795 311.257 499.685 309.274 496.544 309.969C493.402 310.665 491.419 313.775 492.115 316.917C492.81 320.058 495.92 322.041 499.062 321.346Z" fill="#3F3D56"/>
<path d="M506.927 297.96C486.014 297.922 471.332 294.186 471.367 275.239C471.402 256.292 488.384 240.963 509.298 241.002C530.211 241.04 547.137 256.431 547.102 275.379C547.067 294.326 527.841 297.999 506.927 297.96Z" fill="#937CB8"/>
<path d="M589.095 341.08C583.096 361.89 565.58 376.458 547.309 388.833C544.758 390.561 542.206 392.249 539.653 393.898C539.636 393.906 539.618 393.922 539.601 393.93C539.478 394.008 539.355 394.088 539.24 394.167C538.714 394.507 538.187 394.846 537.664 395.182L537.951 395.311C537.951 395.311 538.233 395.461 537.925 395.335C537.833 395.297 537.737 395.262 537.645 395.224C527.031 390.943 516.228 386.346 508.094 378.327C499.656 369.999 494.724 356.937 499.293 345.997C499.894 344.564 500.653 343.202 501.555 341.937C501.926 341.407 502.325 340.899 502.741 340.401C505.261 337.325 508.555 334.976 512.284 333.595C516.014 332.214 520.044 331.851 523.96 332.544C527.875 333.237 531.536 334.96 534.565 337.537C537.594 340.113 539.883 343.45 541.195 347.205C542.537 334.706 532.231 324.237 522.314 316.513C512.392 308.792 501.117 300.384 499.199 287.955C498.128 281.04 500.533 274.339 504.913 268.959C505.049 268.796 505.184 268.632 505.324 268.473C510.656 262.208 518.156 258.184 526.325 257.207C541.539 255.625 556.318 263.679 567.37 274.257C585.16 291.276 595.914 317.418 589.095 341.08Z" fill="#E6E6E6"/>
<path d="M560.501 313.859C563.421 318.402 565.663 323.347 567.156 328.536C568.418 333.175 568.98 337.976 568.823 342.781C568.416 352.668 565.64 362.313 560.729 370.904C557.03 377.421 552.523 383.445 547.313 388.832C544.762 390.561 542.21 392.249 539.657 393.898C539.64 393.905 539.622 393.921 539.604 393.929C539.482 394.008 539.359 394.087 539.244 394.167C538.717 394.506 538.19 394.846 537.668 395.182C537.668 395.182 538.236 395.461 537.928 395.335C537.836 395.296 537.74 395.262 537.649 395.223C538.6 387.424 537.668 379.51 534.931 372.145C532.194 364.779 527.731 358.178 521.917 352.892C516.089 347.687 509.113 343.934 501.559 341.937C501.929 341.407 502.328 340.899 502.744 340.401C505.662 341.219 508.501 342.293 511.23 343.612C520.983 348.295 528.969 355.995 534.006 365.571C538.526 374.266 540.471 384.07 539.613 393.832C540.05 393.437 540.486 393.033 540.91 392.633C548.975 385.113 556.139 376.482 560.988 366.52C565.194 358.084 567.261 348.743 567.008 339.32C566.612 329.045 562.518 319.528 556.591 311.243C550.095 302.404 542.42 294.495 533.781 287.735C525.074 280.762 515.547 274.88 505.411 270.22C505.183 270.114 505.004 269.923 504.912 269.688C504.82 269.454 504.822 269.192 504.917 268.959C504.984 268.749 505.132 268.575 505.327 268.473C505.428 268.43 505.537 268.41 505.647 268.414C505.756 268.419 505.863 268.448 505.96 268.5C507.211 269.076 508.454 269.66 509.686 270.269C519.954 275.344 529.551 281.675 538.258 289.116C546.668 296.286 554.585 304.478 560.501 313.859Z" fill="white"/>
<path d="M88.454 398.756C95.6039 398.756 101.4 396.582 101.4 393.901C101.4 391.22 95.6039 389.046 88.454 389.046C81.304 389.046 75.5078 391.22 75.5078 393.901C75.5078 396.582 81.304 398.756 88.454 398.756Z" fill="#2F2E41"/>
<path d="M119.524 398.109C126.674 398.109 132.47 395.935 132.47 393.254C132.47 390.573 126.674 388.399 119.524 388.399C112.374 388.399 106.578 390.573 106.578 393.254C106.578 395.935 112.374 398.109 119.524 398.109Z" fill="#2F2E41"/>
<path d="M160.771 316.508C173.005 309.456 181.127 300.625 178.913 296.784C176.699 292.944 164.987 295.548 152.753 302.6C140.519 309.653 132.396 318.484 134.61 322.324C136.824 326.165 148.537 323.561 160.771 316.508Z" fill="#2F2E41"/>
<path d="M149.286 333.802C153.81 305.924 134.878 279.657 107 275.133C79.1226 270.609 52.8559 289.541 48.3319 317.419C43.808 345.297 62.74 371.563 90.6177 376.087C118.495 380.611 144.762 361.679 149.286 333.802Z" fill="#2F2E41"/>
<path d="M91.0432 365.743H75.5078V393.577H91.0432V365.743Z" fill="#2F2E41"/>
<path d="M122.114 365.743H106.578V393.577H122.114V365.743Z" fill="#2F2E41"/>
<path d="M100.102 330.141C109.755 330.141 117.58 322.316 117.58 312.664C117.58 303.011 109.755 295.187 100.102 295.187C90.4499 295.187 82.625 303.011 82.625 312.664C82.625 322.316 90.4499 330.141 100.102 330.141Z" fill="white"/>
<path d="M100.103 318.489C103.321 318.489 105.929 315.881 105.929 312.664C105.929 309.446 103.321 306.838 100.103 306.838C96.8856 306.838 94.2773 309.446 94.2773 312.664C94.2773 315.881 96.8856 318.489 100.103 318.489Z" fill="#3F3D56"/>
<path d="M49.2052 278.054C45.0761 259.562 58.2752 240.876 78.6862 236.319C99.0972 231.761 118.991 243.057 123.12 261.549C127.249 280.041 113.722 286.861 93.311 291.419C72.8999 295.976 53.3343 296.546 49.2052 278.054Z" fill="#E6E6E6"/>
<path d="M64.3156 312.839C66.2152 308.834 57.4121 300.681 44.6532 294.63C31.8944 288.578 20.0113 286.92 18.1116 290.925C16.2119 294.931 25.0149 303.083 37.7738 309.135C50.5327 315.186 62.4159 316.845 64.3156 312.839Z" fill="#2F2E41"/>
<path d="M73.6914 344.058C73.6914 349.063 86.5783 358.946 100.878 358.946C115.178 358.946 128.586 344.856 128.586 339.851C128.586 334.846 115.178 340.822 100.878 340.822C86.5784 340.822 73.6914 339.053 73.6914 344.058Z" fill="white"/>
<path d="M277.122 398.756C284.272 398.756 290.068 396.582 290.068 393.901C290.068 391.22 284.272 389.046 277.122 389.046C269.972 389.046 264.176 391.22 264.176 393.901C264.176 396.582 269.972 398.756 277.122 398.756Z" fill="#2F2E41"/>
<path d="M246.052 398.109C253.202 398.109 258.998 395.935 258.998 393.254C258.998 390.573 253.202 388.399 246.052 388.399C238.902 388.399 233.105 390.573 233.105 393.254C233.105 395.935 238.902 398.109 246.052 398.109Z" fill="#2F2E41"/>
<path d="M230.964 322.324C233.178 318.484 225.055 309.653 212.822 302.6C200.588 295.548 188.875 292.944 186.661 296.784C184.447 300.625 192.57 309.456 204.804 316.508C217.038 323.561 228.75 326.165 230.964 322.324Z" fill="#2F2E41"/>
<path d="M266.762 376.747C295.005 376.747 317.9 353.852 317.9 325.61C317.9 297.368 295.005 274.473 266.762 274.473C238.52 274.473 215.625 297.368 215.625 325.61C215.625 353.852 238.52 376.747 266.762 376.747Z" fill="#2F2E41"/>
<path d="M290.067 365.743H274.531V393.577H290.067V365.743Z" fill="#2F2E41"/>
<path d="M258.996 365.743H243.461V393.577H258.996V365.743Z" fill="#2F2E41"/>
<path d="M254.782 330.141C264.434 330.141 272.259 322.316 272.259 312.664C272.259 303.011 264.434 295.187 254.782 295.187C245.13 295.187 237.305 303.011 237.305 312.664C237.305 322.316 245.13 330.141 254.782 330.141Z" fill="white"/>
<path d="M250.572 314.393C252.855 312.113 252.87 308.426 250.605 306.16C248.34 303.893 244.654 303.904 242.371 306.185C240.089 308.466 240.074 312.152 242.339 314.419C244.603 316.685 248.29 316.674 250.572 314.393Z" fill="#3F3D56"/>
<path d="M272.262 291.419C251.851 286.861 238.324 280.041 242.453 261.549C246.582 243.057 266.476 231.761 286.887 236.319C307.298 240.876 320.497 259.562 316.368 278.054C312.239 296.546 292.673 295.976 272.262 291.419Z" fill="#937CB8"/>
<path d="M320.241 364.59C324.525 363.452 325.06 351.466 321.435 337.818C317.81 324.17 311.398 314.029 307.113 315.167C302.829 316.305 302.294 328.291 305.919 341.939C309.544 355.587 315.956 365.728 320.241 364.59Z" fill="#2F2E41"/>
<path d="M255.179 340.823C245.791 340.823 236.988 334.847 236.988 339.852C236.988 344.857 245.791 358.947 255.179 358.947C264.567 358.947 273.028 349.064 273.028 344.059C273.028 339.054 264.567 340.823 255.179 340.823Z" fill="white"/>
<path d="M189.093 240.822H184.551C180.483 240.818 176.583 239.2 173.706 236.323C170.83 233.446 169.211 229.546 169.207 225.478V221.665C169.207 212.222 170.996 204.315 174.525 198.164C178.802 191.009 183.791 184.306 189.417 178.155C193.152 174.399 196.541 170.314 199.543 165.95C201.697 162.56 202.809 158.612 202.741 154.596C202.741 145.123 196.569 140.518 183.873 140.518C176.83 140.597 169.832 141.648 163.076 143.639C160.47 144.383 157.728 144.512 155.064 144.016C152.4 143.52 149.888 142.412 147.725 140.78C145.562 139.148 143.808 137.037 142.599 134.611C141.391 132.186 140.762 129.514 140.762 126.804V119.086C140.747 115.764 141.696 112.508 143.494 109.714C145.293 106.921 147.863 104.708 150.893 103.346C162.825 98.2539 175.692 95.7226 188.664 95.9155C202.252 95.9155 214.519 98.1981 225.124 102.699C235.749 107.21 244.143 113.571 250.073 121.607C255.985 129.585 259.127 139.277 259.021 149.206C259.021 159.869 256.11 169.156 250.369 176.809C244.691 184.384 236.551 192.677 226.175 201.459C220.708 206.005 215.528 210.886 210.664 216.072C207.522 219.456 205.301 223.59 204.215 228.078C203.609 231.648 201.758 234.887 198.989 237.221C196.22 239.554 192.714 240.831 189.093 240.822Z" fill="#937CB8"/>
<path d="M186.567 312.981H185.968C178.428 312.977 171.199 309.978 165.87 304.645C160.541 299.312 157.547 292.082 157.547 284.542C157.547 277.003 160.541 269.772 165.87 264.439C171.199 259.106 178.428 256.108 185.968 256.103H186.567C190.303 256.101 194.003 256.834 197.455 258.263C200.908 259.691 204.045 261.785 206.688 264.426C209.331 267.067 211.427 270.203 212.858 273.655C214.288 277.106 215.024 280.806 215.024 284.542C215.024 288.278 214.288 291.978 212.858 295.43C211.427 298.881 209.331 302.017 206.688 304.658C204.045 307.299 200.908 309.394 197.455 310.822C194.003 312.25 190.303 312.984 186.567 312.981Z" fill="#937CB8"/>
<path d="M371.389 399.291H2.11316C1.79825 399.291 1.49625 399.166 1.27357 398.943C1.0509 398.721 0.925781 398.419 0.925781 398.104C0.925781 397.789 1.0509 397.487 1.27357 397.264C1.49625 397.042 1.79825 396.917 2.11316 396.917H371.389C371.703 396.917 372.005 397.042 372.228 397.264C372.451 397.487 372.576 397.789 372.576 398.104C372.576 398.419 372.451 398.721 372.228 398.943C372.005 399.166 371.703 399.291 371.389 399.291Z" fill="#CCCCCC"/>
<path d="M620.738 399.291H423.633C423.318 399.291 423.016 399.166 422.793 398.943C422.57 398.721 422.445 398.419 422.445 398.104C422.445 397.789 422.57 397.487 422.793 397.264C423.016 397.042 423.318 396.917 423.633 396.917H620.738C621.053 396.917 621.355 397.042 621.578 397.264C621.8 397.487 621.925 397.789 621.925 398.104C621.925 398.419 621.8 398.721 621.578 398.943C621.355 399.166 621.053 399.291 620.738 399.291Z" fill="#CCCCCC"/>
<path d="M498.405 364.608C512.523 364.332 523.898 360.515 523.812 356.083C523.725 351.651 512.21 348.282 498.091 348.558C483.973 348.834 472.598 352.651 472.684 357.083C472.771 361.515 484.287 364.884 498.405 364.608Z" fill="#2F2E41"/>
<path d="M485.57 177.251H454.699C453.125 177.249 451.616 176.623 450.503 175.51C449.39 174.397 448.764 172.888 448.762 171.314V140.442C448.764 138.868 449.39 137.359 450.503 136.246C451.616 135.133 453.125 134.507 454.699 134.505H485.57C487.144 134.507 488.653 135.133 489.766 136.246C490.879 137.359 491.505 138.868 491.507 140.442V171.314C491.505 172.888 490.879 174.397 489.766 175.51C488.653 176.623 487.144 177.249 485.57 177.251ZM454.699 136.88C453.754 136.881 452.849 137.257 452.181 137.925C451.513 138.592 451.138 139.498 451.136 140.442V171.314C451.138 172.259 451.513 173.164 452.181 173.832C452.849 174.5 453.754 174.875 454.699 174.876H485.57C486.515 174.875 487.42 174.5 488.088 173.832C488.756 173.164 489.131 172.259 489.133 171.314V140.442C489.131 139.498 488.756 138.592 488.088 137.925C487.42 137.257 486.515 136.881 485.57 136.88H454.699Z" fill="#F2F2F2"/>
<path d="M499.816 157.066H468.945C467.371 157.064 465.862 156.438 464.749 155.325C463.636 154.212 463.01 152.703 463.008 151.129V120.257C463.01 118.683 463.636 117.174 464.749 116.061C465.862 114.948 467.371 114.322 468.945 114.32H499.816C501.39 114.322 502.899 114.948 504.012 116.061C505.125 117.174 505.752 118.683 505.753 120.257V151.129C505.752 152.703 505.125 154.212 504.012 155.325C502.899 156.438 501.39 157.064 499.816 157.066ZM468.945 116.695C468 116.696 467.095 117.072 466.427 117.74C465.759 118.407 465.384 119.313 465.383 120.257V151.129C465.384 152.074 465.759 152.979 466.427 153.647C467.095 154.315 468 154.69 468.945 154.691H499.816C500.761 154.69 501.666 154.315 502.334 153.647C503.002 152.979 503.378 152.074 503.379 151.129V120.257C503.378 119.313 503.002 118.407 502.334 117.74C501.666 117.072 500.761 116.696 499.816 116.695H468.945Z" fill="#F2F2F2"/>
<path d="M256.403 58.5133H225.531C223.957 58.5115 222.448 57.8854 221.335 56.7724C220.222 55.6594 219.596 54.1504 219.594 52.5764V21.7045C219.596 20.1305 220.222 18.6215 221.335 17.5085C222.448 16.3955 223.957 15.7694 225.531 15.7676H256.403C257.977 15.7694 259.486 16.3955 260.599 17.5085C261.712 18.6215 262.338 20.1305 262.339 21.7045V52.5764C262.338 54.1504 261.712 55.6594 260.599 56.7724C259.486 57.8854 257.977 58.5115 256.403 58.5133ZM225.531 18.1423C224.586 18.1434 223.681 18.519 223.013 19.1868C222.345 19.8546 221.97 20.7601 221.969 21.7045V52.5764C221.97 53.5208 222.345 54.4262 223.013 55.094C223.681 55.7618 224.586 56.1375 225.531 56.1385H256.403C257.347 56.1375 258.252 55.7618 258.92 55.094C259.588 54.4262 259.964 53.5208 259.965 52.5764V21.7045C259.964 20.7601 259.588 19.8546 258.92 19.1868C258.252 18.519 257.347 18.1434 256.403 18.1423H225.531Z" fill="#F2F2F2"/>
<path d="M237.406 43.0772H206.535C204.961 43.0754 203.452 42.4493 202.339 41.3364C201.226 40.2234 200.599 38.7143 200.598 37.1403V6.26845C200.599 4.69443 201.226 3.18542 202.339 2.07243C203.452 0.959433 204.961 0.333344 206.535 0.331543H237.406C238.98 0.333344 240.489 0.959433 241.602 2.07243C242.715 3.18542 243.342 4.69443 243.343 6.26845V37.1403C243.342 38.7143 242.715 40.2234 241.602 41.3364C240.489 42.4493 238.98 43.0754 237.406 43.0772ZM206.535 2.7063C205.59 2.70733 204.685 3.08296 204.017 3.75077C203.349 4.41858 202.973 5.32402 202.972 6.26845V37.1403C202.973 38.0848 203.349 38.9902 204.017 39.658C204.685 40.3258 205.59 40.7014 206.535 40.7025H237.406C238.351 40.7014 239.256 40.3258 239.924 39.658C240.592 38.9902 240.968 38.0848 240.969 37.1403V6.26845C240.968 5.32402 240.592 4.41858 239.924 3.75077C239.256 3.08296 238.351 2.70733 237.406 2.7063H206.535Z" fill="#F2F2F2"/>
<path d="M382.335 225.503C386.576 225.503 390.014 222.065 390.014 217.824C390.014 213.583 386.576 210.146 382.335 210.146C378.094 210.146 374.656 213.583 374.656 217.824C374.656 222.065 378.094 225.503 382.335 225.503Z" fill="#F2F2F2"/>
<path d="M73.6162 198.193C77.857 198.193 81.2948 194.755 81.2948 190.515C81.2948 186.274 77.857 182.836 73.6162 182.836C69.3754 182.836 65.9375 186.274 65.9375 190.515C65.9375 194.755 69.3754 198.193 73.6162 198.193Z" fill="#F2F2F2"/>
<path d="M591.315 264.686C595.556 264.686 598.994 261.249 598.994 257.008C598.994 252.767 595.556 249.329 591.315 249.329C587.075 249.329 583.637 252.767 583.637 257.008C583.637 261.249 587.075 264.686 591.315 264.686Z" fill="#F2F2F2"/>
</g>
<defs>
<clipPath id="clip0">
<rect width="621" height="398.96" fill="white" transform="translate(0.925781 0.331543)"/>
</clipPath>
</defs>
</svg>
