<svg width="539" height="397" viewBox="0 0 539 397" fill="none" xmlns="http://www.w3.org/2000/svg">
<g clip-path="url(#clip0)">
<path opacity="0.1" d="M313.163 59.4785C278.61 58.2813 245.698 47.1197 214.274 34.9182C182.849 22.7168 151.716 9.1941 117.993 2.7261C96.2994 -1.43326 71.4911 -2.01042 54.0141 9.60908C37.1906 20.7993 31.7577 40.1365 28.8385 58.0475C26.6396 71.5368 25.347 85.713 31.3666 98.358C35.5498 107.12 42.9765 114.49 48.1137 122.885C65.9771 152.105 53.3606 188.133 33.9853 216.657C24.9224 230.041 14.3666 242.805 7.35962 257.053C0.352614 271.301 -2.89093 287.619 3.23841 302.148C9.32005 316.553 23.8015 327.371 39.4897 334.979C71.3575 350.434 108.911 354.86 145.53 357.364C226.594 362.888 308.088 360.503 389.363 358.118C419.442 357.226 449.65 356.324 479.242 351.674C495.67 349.093 512.632 344.996 524.556 335.098C539.701 322.534 543.455 301.26 533.305 285.491C516.285 259.071 469.221 252.507 457.325 224.15C450.775 208.543 457.501 191.157 467.017 176.68C487.432 145.623 521.652 118.382 523.455 82.8845C524.695 58.5054 508.243 34.0883 482.81 22.5546C456.146 10.4629 419.18 11.9845 399.508 31.999C379.265 52.6098 343.672 60.5374 313.163 59.4785Z" fill="#515481"/>
<path d="M316.808 360.553L223.795 359.36L224.067 356.975L228.565 317.624H310.25L316.26 356.975L316.718 359.956L316.808 360.553Z" fill="#D0D2D5"/>
<path opacity="0.1" d="M316.718 359.957H270.302L223.795 359.36L224.067 356.976H316.26L316.718 359.957Z" fill="black"/>
<path d="M331.714 357.572H208.293V360.553H331.714V357.572Z" fill="#D0D2D5"/>
<path d="M449.468 81.2651C449.473 80.246 449.278 79.2358 448.892 78.2923C448.507 77.3488 447.939 76.4905 447.222 75.7663C446.505 75.0421 445.652 74.4663 444.713 74.0716C443.773 73.677 442.765 73.4713 441.746 73.4663H97.0672C96.0476 73.4707 95.0389 73.6759 94.0987 74.0703C93.1585 74.4646 92.3053 75.0404 91.5877 75.7646C90.87 76.4889 90.3022 77.3474 89.9165 78.2912C89.5308 79.235 89.3349 80.2456 89.3399 81.2651V290.187H449.468V81.2651Z" fill="#444053"/>
<path d="M89.3398 288.112V312.582C89.3398 314.632 90.154 316.597 91.6031 318.046C93.0522 319.495 95.0177 320.309 97.0671 320.309H441.745C443.794 320.308 445.758 319.493 447.206 318.044C448.654 316.595 449.468 314.631 449.468 312.582V288.112H89.3398Z" fill="#D0D2D5"/>
<path opacity="0.1" d="M436.351 86.5835H104.246V274.399H436.351V86.5835Z" fill="#515481"/>
<path d="M271.194 311.022C272.413 311.023 273.617 310.747 274.714 310.215C275.812 309.682 276.774 308.908 277.528 307.95C277.757 307.658 277.966 307.35 278.153 307.03L273.736 306.305L278.506 306.343C278.966 305.346 279.217 304.265 279.243 303.168C279.269 302.07 279.07 300.978 278.659 299.961L272.253 303.3L278.163 298.959C277.607 298.006 276.862 297.178 275.974 296.526C275.085 295.873 274.072 295.41 272.997 295.165C271.922 294.921 270.808 294.9 269.724 295.103C268.641 295.307 267.611 295.731 266.698 296.35C265.785 296.968 265.009 297.767 264.418 298.698C263.827 299.629 263.433 300.671 263.262 301.76C263.091 302.849 263.145 303.962 263.421 305.029C263.698 306.096 264.19 307.096 264.869 307.964C265.623 308.919 266.585 309.69 267.68 310.22C268.776 310.749 269.977 311.024 271.194 311.022Z" fill="#515481"/>
<path opacity="0.1" d="M279.244 320.309L316.349 357.572L310.659 320.309H279.244Z" fill="black"/>
<path d="M330.745 120.469H115.24C114.555 120.469 114 121.024 114 121.709V249.924C114 250.609 114.555 251.164 115.24 251.164H330.745C331.43 251.164 331.985 250.609 331.985 249.924V121.709C331.985 121.024 331.43 120.469 330.745 120.469Z" fill="white"/>
<path d="M436.447 86.6025H104.461V97.5733H436.447V86.6025Z" fill="white"/>
<path d="M115.06 88.5103H106.265C106.059 88.5103 105.893 88.6768 105.893 88.8823V94.8161C105.893 95.0216 106.059 95.1881 106.265 95.1881H115.06C115.266 95.1881 115.432 95.0216 115.432 94.8161V88.8823C115.432 88.6768 115.266 88.5103 115.06 88.5103Z" fill="#515481"/>
<path opacity="0.3" d="M319.307 88.5103H219.693C219.54 88.5103 219.416 88.6341 219.416 88.7869V94.9115C219.416 95.0643 219.54 95.1881 219.693 95.1881H319.307C319.46 95.1881 319.584 95.0643 319.584 94.9115V88.7869C319.584 88.6341 319.46 88.5103 319.307 88.5103Z" fill="#515481"/>
<path d="M316.613 92.5363H316.37L316.279 92.46C316.585 92.0968 316.754 91.6376 316.756 91.1626C316.753 90.7724 316.635 90.3919 316.416 90.0689C316.197 89.7459 315.887 89.4951 315.526 89.3479C315.165 89.2008 314.768 89.164 314.386 89.2422C314.003 89.3204 313.653 89.5101 313.378 89.7873C313.104 90.0645 312.917 90.4168 312.843 90.7998C312.768 91.1828 312.809 91.5792 312.96 91.9392C313.11 92.2991 313.364 92.6063 313.689 92.8221C314.014 93.0379 314.396 93.1526 314.786 93.1516C315.261 93.1487 315.72 92.98 316.083 92.6746L316.174 92.7509V92.999L317.7 94.5254L318.177 94.0484L316.613 92.5363ZM314.781 92.5363C314.508 92.5372 314.241 92.4571 314.014 92.306C313.786 92.1549 313.609 91.9396 313.504 91.6875C313.399 91.4355 313.371 91.1579 313.424 90.89C313.477 90.6222 313.609 90.3761 313.802 90.1831C313.995 89.99 314.241 89.8586 314.509 89.8056C314.777 89.7525 315.054 89.7802 315.306 89.8852C315.558 89.9901 315.774 90.1675 315.925 90.3949C316.076 90.6224 316.156 90.8895 316.155 91.1626C316.156 91.3433 316.122 91.5225 316.053 91.6898C315.984 91.857 315.883 92.009 315.756 92.1368C315.628 92.2646 315.476 92.3657 315.309 92.4343C315.141 92.5029 314.962 92.5376 314.781 92.5363Z" fill="#444053"/>
<path d="M431.677 95.1881C433.521 95.1881 435.016 93.6932 435.016 91.8492C435.016 90.0051 433.521 88.5103 431.677 88.5103C429.833 88.5103 428.338 90.0051 428.338 91.8492C428.338 93.6932 429.833 95.1881 431.677 95.1881Z" fill="#515481"/>
<path d="M377.572 109.498H348.886C348.246 109.498 347.727 110.017 347.727 110.657V129.327C347.727 129.967 348.246 130.486 348.886 130.486H377.572C378.212 130.486 378.731 129.967 378.731 129.327V110.657C378.731 110.017 378.212 109.498 377.572 109.498Z" fill="white"/>
<path d="M426.616 109.498H387.131C386.97 109.498 386.84 109.628 386.84 109.789V112.546C386.84 112.707 386.97 112.837 387.131 112.837H426.616C426.777 112.837 426.907 112.707 426.907 112.546V109.789C426.907 109.628 426.777 109.498 426.616 109.498Z" fill="white"/>
<path d="M426.616 116.653H387.131C386.97 116.653 386.84 116.783 386.84 116.944V119.701C386.84 119.862 386.97 119.992 387.131 119.992H426.616C426.777 119.992 426.907 119.862 426.907 119.701V116.944C426.907 116.783 426.777 116.653 426.616 116.653Z" fill="white"/>
<path d="M426.616 123.808H387.131C386.97 123.808 386.84 123.938 386.84 124.099V126.856C386.84 127.016 386.97 127.147 387.131 127.147H426.616C426.777 127.147 426.907 127.016 426.907 126.856V124.099C426.907 123.938 426.777 123.808 426.616 123.808Z" fill="white"/>
<path d="M377.572 142.411H348.886C348.246 142.411 347.727 142.93 347.727 143.57V162.239C347.727 162.879 348.246 163.398 348.886 163.398H377.572C378.212 163.398 378.731 162.879 378.731 162.239V143.57C378.731 142.93 378.212 142.411 377.572 142.411Z" fill="white"/>
<path d="M426.616 142.411H387.131C386.97 142.411 386.84 142.541 386.84 142.702V145.459C386.84 145.619 386.97 145.75 387.131 145.75H426.616C426.777 145.75 426.907 145.619 426.907 145.459V142.702C426.907 142.541 426.777 142.411 426.616 142.411Z" fill="white"/>
<path d="M426.616 149.565H387.131C386.97 149.565 386.84 149.696 386.84 149.856V152.614C386.84 152.774 386.97 152.904 387.131 152.904H426.616C426.777 152.904 426.907 152.774 426.907 152.614V149.856C426.907 149.696 426.777 149.565 426.616 149.565Z" fill="white"/>
<path d="M426.592 156.72H387.155C386.981 156.72 386.84 156.861 386.84 157.035V159.744C386.84 159.918 386.981 160.059 387.155 160.059H426.592C426.766 160.059 426.907 159.918 426.907 159.744V157.035C426.907 156.861 426.766 156.72 426.592 156.72Z" fill="white"/>
<path d="M377.572 175.323H348.886C348.246 175.323 347.727 175.842 347.727 176.482V195.151C347.727 195.791 348.246 196.31 348.886 196.31H377.572C378.212 196.31 378.731 195.791 378.731 195.151V176.482C378.731 175.842 378.212 175.323 377.572 175.323Z" fill="white"/>
<path d="M426.592 175.323H387.155C386.981 175.323 386.84 175.464 386.84 175.638V178.347C386.84 178.521 386.981 178.662 387.155 178.662H426.592C426.766 178.662 426.907 178.521 426.907 178.347V175.638C426.907 175.464 426.766 175.323 426.592 175.323Z" fill="white"/>
<path d="M426.592 182.478H387.155C386.981 182.478 386.84 182.618 386.84 182.792V185.502C386.84 185.676 386.981 185.816 387.155 185.816H426.592C426.766 185.816 426.907 185.676 426.907 185.502V182.792C426.907 182.618 426.766 182.478 426.592 182.478Z" fill="white"/>
<path d="M426.592 189.633H387.155C386.981 189.633 386.84 189.774 386.84 189.948V192.657C386.84 192.831 386.981 192.972 387.155 192.972H426.592C426.766 192.972 426.907 192.831 426.907 192.657V189.948C426.907 189.774 426.766 189.633 426.592 189.633Z" fill="white"/>
<path d="M377.572 208.235H348.886C348.246 208.235 347.727 208.754 347.727 209.394V228.064C347.727 228.704 348.246 229.223 348.886 229.223H377.572C378.212 229.223 378.731 228.704 378.731 228.064V209.394C378.731 208.754 378.212 208.235 377.572 208.235Z" fill="white"/>
<path d="M426.592 208.235H387.155C386.981 208.235 386.84 208.376 386.84 208.55V211.26C386.84 211.433 386.981 211.574 387.155 211.574H426.592C426.766 211.574 426.907 211.433 426.907 211.26V208.55C426.907 208.376 426.766 208.235 426.592 208.235Z" fill="white"/>
<path d="M426.592 215.39H387.155C386.981 215.39 386.84 215.531 386.84 215.705V218.414C386.84 218.588 386.981 218.729 387.155 218.729H426.592C426.766 218.729 426.907 218.588 426.907 218.414V215.705C426.907 215.531 426.766 215.39 426.592 215.39Z" fill="white"/>
<path d="M426.592 222.545H387.155C386.981 222.545 386.84 222.686 386.84 222.86V225.569C386.84 225.743 386.981 225.884 387.155 225.884H426.592C426.766 225.884 426.907 225.743 426.907 225.569V222.86C426.907 222.686 426.766 222.545 426.592 222.545Z" fill="white"/>
<path d="M377.572 241.147H348.886C348.246 241.147 347.727 241.666 347.727 242.307V260.976C347.727 261.616 348.246 262.135 348.886 262.135H377.572C378.212 262.135 378.731 261.616 378.731 260.976V242.307C378.731 241.666 378.212 241.147 377.572 241.147Z" fill="white"/>
<path d="M426.592 241.147H387.155C386.981 241.147 386.84 241.288 386.84 241.462V244.172C386.84 244.345 386.981 244.486 387.155 244.486H426.592C426.766 244.486 426.907 244.345 426.907 244.172V241.462C426.907 241.288 426.766 241.147 426.592 241.147Z" fill="white"/>
<path d="M426.592 248.302H387.155C386.981 248.302 386.84 248.443 386.84 248.617V251.326C386.84 251.5 386.981 251.641 387.155 251.641H426.592C426.766 251.641 426.907 251.5 426.907 251.326V248.617C426.907 248.443 426.766 248.302 426.592 248.302Z" fill="white"/>
<path d="M426.592 255.458H387.155C386.981 255.458 386.84 255.598 386.84 255.772V258.482C386.84 258.655 386.981 258.796 387.155 258.796H426.592C426.766 258.796 426.907 258.655 426.907 258.482V255.772C426.907 255.598 426.766 255.458 426.592 255.458Z" fill="white"/>
<path opacity="0.1" d="M194.492 155.103H145.443V157.645H194.492V155.103Z" fill="#515481"/>
<path opacity="0.1" d="M154.527 141.662H149.805V155.103H154.527V141.662Z" fill="#515481"/>
<path opacity="0.1" d="M161.427 141.662H156.705V155.103H161.427V141.662Z" fill="#515481"/>
<path opacity="0.1" d="M168.33 141.662H163.607V155.103H168.33V141.662Z" fill="#515481"/>
<path opacity="0.1" d="M175.232 141.662H170.51V155.103H175.232V141.662Z" fill="#515481"/>
<path opacity="0.1" d="M182.134 141.662H177.412V155.103H182.134V141.662Z" fill="#515481"/>
<path opacity="0.1" d="M189.041 141.662H184.318V155.103H189.041V141.662Z" fill="#515481"/>
<path opacity="0.1" d="M154.527 144.204H149.805V145.659H154.527V144.204Z" fill="#515481"/>
<path opacity="0.1" d="M161.427 144.204H156.705V145.659H161.427V144.204Z" fill="#515481"/>
<path opacity="0.1" d="M168.33 144.204H163.607V145.659H168.33V144.204Z" fill="#515481"/>
<path opacity="0.1" d="M175.232 144.204H170.51V145.659H175.232V144.204Z" fill="#515481"/>
<path opacity="0.1" d="M182.134 144.204H177.412V145.659H182.134V144.204Z" fill="#515481"/>
<path opacity="0.1" d="M189.041 144.204H184.318V145.659H189.041V144.204Z" fill="#515481"/>
<path opacity="0.1" d="M154.527 150.744H149.805V152.198H154.527V150.744Z" fill="#515481"/>
<path opacity="0.1" d="M161.427 150.744H156.705V152.198H161.427V150.744Z" fill="#515481"/>
<path opacity="0.1" d="M168.33 150.744H163.607V152.198H168.33V150.744Z" fill="#515481"/>
<path opacity="0.1" d="M175.232 150.744H170.51V152.198H175.232V150.744Z" fill="#515481"/>
<path opacity="0.1" d="M182.134 150.744H177.412V152.198H182.134V150.744Z" fill="#515481"/>
<path opacity="0.1" d="M189.041 150.744H184.318V152.198H189.041V150.744Z" fill="#515481"/>
<path opacity="0.1" d="M302.032 161.643H252.982V164.185H302.032V161.643Z" fill="#515481"/>
<path opacity="0.1" d="M262.064 148.201H257.342V161.643H262.064V148.201Z" fill="#515481"/>
<path opacity="0.1" d="M268.966 148.201H264.244V161.643H268.966V148.201Z" fill="#515481"/>
<path opacity="0.1" d="M275.867 148.201H271.145V161.643H275.867V148.201Z" fill="#515481"/>
<path opacity="0.1" d="M282.775 148.201H278.053V161.643H282.775V148.201Z" fill="#515481"/>
<path opacity="0.1" d="M289.677 148.201H284.955V161.643H289.677V148.201Z" fill="#515481"/>
<path opacity="0.1" d="M296.578 148.201H291.855V161.643H296.578V148.201Z" fill="#515481"/>
<path opacity="0.1" d="M262.064 150.744H257.342V152.198H262.064V150.744Z" fill="#515481"/>
<path opacity="0.1" d="M268.966 150.744H264.244V152.198H268.966V150.744Z" fill="#515481"/>
<path opacity="0.1" d="M275.867 150.744H271.145V152.198H275.867V150.744Z" fill="#515481"/>
<path opacity="0.1" d="M282.775 150.744H278.053V152.198H282.775V150.744Z" fill="#515481"/>
<path opacity="0.1" d="M289.677 150.744H284.955V152.198H289.677V150.744Z" fill="#515481"/>
<path opacity="0.1" d="M296.578 150.744H291.855V152.198H296.578V150.744Z" fill="#515481"/>
<path opacity="0.1" d="M262.064 157.283H257.342V158.738H262.064V157.283Z" fill="#515481"/>
<path opacity="0.1" d="M268.966 157.283H264.244V158.738H268.966V157.283Z" fill="#515481"/>
<path opacity="0.1" d="M275.867 157.283H271.145V158.738H275.867V157.283Z" fill="#515481"/>
<path opacity="0.1" d="M282.775 157.283H278.053V158.738H282.775V157.283Z" fill="#515481"/>
<path opacity="0.1" d="M289.677 157.283H284.955V158.738H289.677V157.283Z" fill="#515481"/>
<path opacity="0.1" d="M296.578 157.283H291.855V158.738H296.578V157.283Z" fill="#515481"/>
<path opacity="0.1" d="M302.032 180.169H252.982V182.711H302.032V180.169Z" fill="#515481"/>
<path opacity="0.1" d="M262.064 166.728H257.342V180.169H262.064V166.728Z" fill="#515481"/>
<path opacity="0.1" d="M268.966 166.728H264.244V180.169H268.966V166.728Z" fill="#515481"/>
<path opacity="0.1" d="M275.867 166.728H271.145V180.169H275.867V166.728Z" fill="#515481"/>
<path opacity="0.1" d="M282.775 166.728H278.053V180.169H282.775V166.728Z" fill="#515481"/>
<path opacity="0.1" d="M289.677 166.728H284.955V180.169H289.677V166.728Z" fill="#515481"/>
<path opacity="0.1" d="M296.578 166.728H291.855V180.169H296.578V166.728Z" fill="#515481"/>
<path opacity="0.1" d="M262.064 169.27H257.342V170.724H262.064V169.27Z" fill="#515481"/>
<path opacity="0.1" d="M268.966 169.27H264.244V170.724H268.966V169.27Z" fill="#515481"/>
<path opacity="0.1" d="M275.867 169.27H271.145V170.724H275.867V169.27Z" fill="#515481"/>
<path opacity="0.1" d="M282.775 169.27H278.053V170.724H282.775V169.27Z" fill="#515481"/>
<path opacity="0.1" d="M289.677 169.27H284.955V170.724H289.677V169.27Z" fill="#515481"/>
<path opacity="0.1" d="M296.578 169.27H291.855V170.724H296.578V169.27Z" fill="#515481"/>
<path opacity="0.1" d="M262.064 175.81H257.342V177.264H262.064V175.81Z" fill="#515481"/>
<path opacity="0.1" d="M268.966 175.81H264.244V177.264H268.966V175.81Z" fill="#515481"/>
<path opacity="0.1" d="M275.867 175.81H271.145V177.264H275.867V175.81Z" fill="#515481"/>
<path opacity="0.1" d="M282.775 175.81H278.053V177.264H282.775V175.81Z" fill="#515481"/>
<path opacity="0.1" d="M289.677 175.81H284.955V177.264H289.677V175.81Z" fill="#515481"/>
<path opacity="0.1" d="M296.578 175.81H291.855V177.264H296.578V175.81Z" fill="#515481"/>
<path opacity="0.1" d="M175.532 183.851C175.166 183.382 174.832 182.89 174.531 182.377L181.595 181.218L173.963 181.276C173.231 179.682 172.831 177.955 172.789 176.202C172.746 174.449 173.061 172.705 173.715 171.077L183.946 176.382L174.497 169.437C175.376 167.894 176.565 166.55 177.988 165.489C179.411 164.428 181.038 163.672 182.767 163.27C184.496 162.868 186.29 162.827 188.036 163.151C189.781 163.475 191.441 164.156 192.91 165.152C194.38 166.148 195.628 167.437 196.576 168.938C197.524 170.439 198.151 172.12 198.418 173.875C198.685 175.63 198.587 177.421 198.129 179.136C197.671 180.852 196.863 182.454 195.757 183.842C196.332 184.567 196.824 185.354 197.226 186.189L188.058 190.958L197.832 187.682C198.515 189.708 198.684 191.873 198.321 193.98C197.959 196.088 197.078 198.072 195.757 199.754C197.254 201.653 198.187 203.935 198.448 206.339C198.709 208.744 198.288 211.173 197.233 213.349C196.178 215.525 194.531 217.36 192.482 218.644C190.432 219.927 188.063 220.608 185.644 220.608C183.226 220.608 180.857 219.927 178.807 218.644C176.758 217.36 175.111 215.525 174.056 213.349C173.001 211.173 172.58 208.744 172.841 206.339C173.102 203.935 174.035 201.653 175.532 199.754C173.748 197.485 172.779 194.682 172.779 191.796C172.779 188.909 173.748 186.106 175.532 183.837V183.851Z" fill="#515481"/>
<path opacity="0.1" d="M198.514 191.808C198.514 194.691 197.543 197.49 195.757 199.754C197.254 201.653 198.187 203.935 198.448 206.339C198.709 208.743 198.288 211.173 197.233 213.349C196.178 215.525 194.531 217.36 192.482 218.643C190.432 219.927 188.063 220.608 185.644 220.608C183.226 220.608 180.857 219.927 178.807 218.643C176.758 217.36 175.111 215.525 174.056 213.349C173.001 211.173 172.58 208.743 172.841 206.339C173.102 203.935 174.035 201.653 175.532 199.754C173.801 197.574 198.514 190.362 198.514 191.808Z" fill="#515481"/>
<path opacity="0.2" d="M187.705 224.024C187.727 224.057 187.748 224.093 187.767 224.129H183.398C183.421 224.095 183.436 224.057 183.46 224.024C183.083 223.369 182.889 222.627 182.897 221.872C182.895 221.355 182.983 220.842 183.159 220.355C183.402 220.394 183.703 220.437 184.051 220.475C185.064 220.576 186.086 220.576 187.099 220.475C187.392 220.446 187.692 220.408 188.001 220.36C187.998 220.368 187.998 220.376 188.001 220.384C188.174 220.863 188.261 221.368 188.258 221.877C188.268 222.629 188.077 223.37 187.705 224.024Z" fill="#3F3D56"/>
<path opacity="0.1" d="M172.003 224.129H147.677C147.624 223.99 147.576 223.843 147.533 223.699C146.676 220.943 146.776 217.978 147.815 215.285C145.44 213.643 143.686 211.251 142.834 208.493C141.982 205.734 142.081 202.769 143.117 200.074C142.628 199.738 142.164 199.366 141.728 198.963L148.13 195.772L140.851 198.08C139.68 196.774 138.789 195.243 138.231 193.581C137.674 191.918 137.461 190.159 137.607 188.412L148.964 190.463L137.889 186.613C138.271 184.878 139.008 183.24 140.054 181.803C141.1 180.366 142.432 179.161 143.966 178.264C145.5 177.367 147.203 176.797 148.969 176.591C150.734 176.384 152.523 176.545 154.223 177.063C155.922 177.582 157.497 178.446 158.846 179.603C160.196 180.759 161.291 182.182 162.064 183.783C162.837 185.383 163.27 187.126 163.336 188.902C163.402 190.678 163.1 192.449 162.449 194.102C163.217 194.637 163.926 195.252 164.562 195.939L157.207 203.194L165.578 197.174C166.833 198.91 167.634 200.931 167.911 203.055C168.187 205.179 167.93 207.338 167.162 209.337C169.472 210.937 171.195 213.248 172.069 215.919C172.944 218.59 172.92 221.473 172.003 224.129Z" fill="#515481"/>
<path opacity="0.1" d="M172.002 224.129H147.676C147.623 223.99 147.576 223.843 147.533 223.7C146.676 220.943 146.775 217.978 147.814 215.285C145.525 213.702 167.003 199.511 167.428 200.895C168.285 203.652 168.186 206.619 167.147 209.313C169.464 210.913 171.194 213.227 172.071 215.903C172.948 218.579 172.924 221.468 172.002 224.129Z" fill="#515481"/>
<path opacity="0.1" d="M282.068 206.699C280.591 209.179 278.32 211.088 275.624 212.118C275.739 213.035 275.757 213.963 275.677 214.884L265.369 214.264L275.438 216.449C275.142 217.821 274.623 219.136 273.902 220.341C273.024 221.817 271.856 223.099 270.468 224.109H256.435V224.477H242.125C242.154 224.353 242.182 224.233 242.216 224.109C242.738 222.136 243.722 220.315 245.086 218.796C246.45 217.278 248.156 216.105 250.062 215.376C249.696 212.512 250.303 209.609 251.784 207.132C253.266 204.654 255.537 202.746 258.233 201.715C258.158 201.125 258.122 200.53 258.128 199.935L264.782 202.564L258.2 198.695C258.394 196.952 258.942 195.267 259.81 193.743C260.679 192.219 261.85 190.888 263.251 189.833L269.314 199.649L264.768 188.841C267.244 187.47 270.102 186.954 272.901 187.371C275.7 187.788 278.284 189.116 280.253 191.148C282.222 193.181 283.467 195.805 283.795 198.616C284.123 201.427 283.516 204.268 282.068 206.699Z" fill="#515481"/>
<path opacity="0.1" d="M273.902 220.36C273.024 221.836 271.856 223.118 270.468 224.129H256.435V224.496H242.125C242.154 224.372 242.182 224.253 242.216 224.129C242.738 222.155 243.722 220.334 245.086 218.816C246.45 217.297 248.156 216.125 250.062 215.395C249.943 214.441 252.714 214.584 256.411 215.204C263.656 216.42 274.393 219.54 273.902 220.36Z" fill="#515481"/>
<path d="M213.077 186.012C213.077 186.012 214.842 195.552 210.902 198.667C206.962 201.781 214.241 220.451 226.252 218.271C238.262 216.091 243.156 200.432 243.156 200.432C243.156 200.432 231.127 197.942 235.586 185.287L213.077 186.012Z" fill="#EE8E9E"/>
<path opacity="0.1" d="M213.077 186.012C213.077 186.012 214.842 195.552 210.902 198.667C206.962 201.781 214.241 220.451 226.252 218.271C238.262 216.091 243.156 200.432 243.156 200.432C243.156 200.432 231.127 197.942 235.586 185.287L213.077 186.012Z" fill="black"/>
<path d="M223.709 193.014C234.708 193.014 243.624 184.098 243.624 173.1C243.624 162.102 234.708 153.186 223.709 153.186C212.711 153.186 203.795 162.102 203.795 173.1C203.795 184.098 212.711 193.014 223.709 193.014Z" fill="#EE8E9E"/>
<path d="M256.436 210.959V224.496H190.678V211.574C190.678 209.936 191.16 208.333 192.065 206.967C192.971 205.602 194.258 204.533 195.767 203.894L197.651 203.093C202.421 201.061 208.217 198.538 210.11 197.488C210.318 197.385 210.513 197.259 210.692 197.112C211.727 196.077 211.522 197.422 211.522 197.422C211.522 197.422 211.494 197.679 211.475 198.123C211.36 201.171 211.799 213.148 225.837 212.151C239.531 211.197 240.147 201.934 240.008 199.21C240 198.958 239.98 198.707 239.946 198.457C240.893 198.682 241.82 198.985 242.717 199.363C245.579 200.422 249.806 202.12 250.936 202.921C251.289 203.169 251.718 203.427 252.186 203.689C252.716 203.985 253.212 204.339 253.664 204.744C254.537 205.527 255.234 206.485 255.712 207.556C256.189 208.627 256.436 209.786 256.436 210.959Z" fill="#515481"/>
<path opacity="0.1" d="M242.717 199.363C241.558 204.734 237.919 214.794 224.801 215.056C210.826 215.333 210.015 201.433 210.105 197.488C210.316 197.388 210.513 197.261 210.692 197.112C211.732 196.077 211.522 197.422 211.522 197.422C211.522 197.422 209.762 213.291 225.832 212.151C241.902 211.011 239.927 198.462 239.927 198.462C239.927 198.385 241.124 198.8 242.717 199.363Z" fill="black"/>
<path d="M200.136 174.097C200.798 173.932 201.493 173.968 202.133 174.202C202.774 174.436 203.329 174.856 203.728 175.409C204.453 176.425 204.563 177.65 204.654 178.824C205.517 179.005 206.003 178.027 206.085 177.288C206.404 174.278 206.428 171.211 207.439 168.301C208.45 165.392 210.659 162.577 214.05 161.466C215.209 161.065 216.447 160.947 217.661 161.123C218.381 161.242 219.059 161.495 219.774 161.6C222.255 162.01 224.95 160.836 227.273 161.652C228.732 162.167 229.657 163.355 230.34 164.543C230.636 165.183 231.039 165.769 231.532 166.274C232.519 167.161 234.065 167.39 235.482 167.667C236.898 167.944 238.444 168.425 239.049 169.518C239.593 170.505 239.193 171.645 239.011 172.714C238.731 174.406 239.014 176.144 239.817 177.66C240.08 178.137 240.614 178.714 241.248 178.557C241.532 178.461 241.773 178.266 241.926 178.008C243.552 175.728 243.509 172.761 245.551 170.705C246.233 170.019 247.115 169.484 247.778 168.797C248.28 168.288 248.648 167.663 248.85 166.977C249.051 166.292 249.08 165.567 248.933 164.867C248.565 163.293 247.306 162.005 246.29 160.622C244.971 158.869 244.01 156.874 243.462 154.75C243.366 154.503 243.366 154.229 243.462 153.982C243.654 153.732 243.903 153.529 244.187 153.391C244.74 153.02 245.139 152.461 245.309 151.817C245.479 151.173 245.409 150.49 245.112 149.894C244.535 148.716 243.266 147.819 241.835 147.285C240.384 146.808 238.885 146.488 237.366 146.331C236.364 146.474 235.191 145.907 234.881 145.105C234.742 144.748 234.742 144.361 234.604 144.003C234.416 143.644 234.145 143.335 233.813 143.103C233.481 142.87 233.098 142.721 232.696 142.668C231.843 142.53 230.969 142.592 230.144 142.849C229.19 143.116 228.107 143.517 227.282 143.049C226.848 142.806 226.61 142.363 226.142 142.162C225.188 141.762 224.205 142.572 223.523 143.24C222.866 143.941 222.059 144.484 221.162 144.829C220.689 145.009 220.182 145.085 219.677 145.051C219.171 145.017 218.679 144.875 218.234 144.633C217.58 144.218 217.251 143.55 216.731 143.021C215.749 142.145 214.492 141.639 213.177 141.59C211.825 141.518 210.471 141.666 209.166 142.029C206.676 142.636 204.298 143.634 202.121 144.986C201.026 145.588 200.096 146.451 199.416 147.5C199.014 148.304 198.806 149.191 198.81 150.09C198.705 152.909 199.64 155.876 202.078 157.85C200.59 158.471 200.089 159.992 199.741 161.342C199.182 163.498 198.624 165.687 198.834 167.882C198.939 169.017 199.249 170.152 199.082 171.283C198.948 171.815 198.875 172.36 198.863 172.909C198.933 173.211 199.092 173.486 199.318 173.697C199.545 173.909 199.83 174.048 200.136 174.097Z" fill="#454B69"/>
<g opacity="0.1">
<path opacity="0.1" d="M248.622 163.98C248.407 164.447 248.117 164.876 247.763 165.249C247.1 165.945 246.218 166.484 245.535 167.157C243.494 169.198 243.537 172.184 241.91 174.464C241.758 174.722 241.518 174.916 241.233 175.008C240.613 175.17 240.079 174.607 239.802 174.111C239.487 173.507 239.248 172.866 239.091 172.203C239.058 172.37 239.024 172.537 238.996 172.68C238.716 174.373 238.999 176.111 239.802 177.627C240.064 178.104 240.599 178.681 241.233 178.523C241.517 178.427 241.757 178.233 241.91 177.975C243.537 175.695 243.494 172.728 245.535 170.672C246.218 169.985 247.1 169.451 247.763 168.764C248.265 168.255 248.633 167.63 248.834 166.944C249.036 166.258 249.064 165.533 248.917 164.834C248.844 164.541 248.745 164.255 248.622 163.98Z" fill="black"/>
<path opacity="0.1" d="M244.175 149.861C243.89 149.998 243.642 150.201 243.45 150.453C243.355 150.698 243.355 150.97 243.45 151.216C243.639 151.957 243.879 152.684 244.171 153.391C244.724 153.02 245.122 152.461 245.293 151.817C245.463 151.174 245.393 150.49 245.096 149.895C245.003 149.698 244.891 149.511 244.762 149.336C244.593 149.539 244.395 149.715 244.175 149.861Z" fill="black"/>
<path opacity="0.1" d="M202.109 154.283C200.419 152.89 199.306 150.92 198.985 148.754C198.899 149.182 198.851 149.616 198.842 150.052C198.732 152.135 199.281 154.199 200.411 155.952C200.753 155.206 201.357 154.612 202.109 154.283Z" fill="black"/>
<path opacity="0.1" d="M239.011 169.198C239.192 168.125 239.593 166.985 239.049 166.003C238.443 164.906 236.898 164.429 235.481 164.152C234.064 163.875 232.519 163.641 231.532 162.759C231.039 162.253 230.636 161.668 230.339 161.028C229.667 159.84 228.732 158.643 227.272 158.137C224.949 157.321 222.254 158.49 219.774 158.085C219.058 157.965 218.381 157.717 217.661 157.608C216.447 157.43 215.208 157.548 214.05 157.951C210.658 159.067 208.45 161.881 207.439 164.786C206.428 167.691 206.404 170.758 206.084 173.773C206.003 174.507 205.516 175.49 204.653 175.309C204.562 174.131 204.453 172.924 203.728 171.889C203.328 171.337 202.772 170.918 202.132 170.685C201.492 170.452 200.797 170.416 200.136 170.582C199.735 170.492 199.379 170.264 199.13 169.938C199.182 170.375 199.182 170.817 199.13 171.254C198.996 171.787 198.922 172.332 198.91 172.881C198.972 173.186 199.123 173.466 199.345 173.684C199.567 173.903 199.849 174.05 200.155 174.107C200.816 173.941 201.512 173.978 202.152 174.212C202.792 174.446 203.348 174.866 203.747 175.418C204.472 176.434 204.582 177.66 204.672 178.834C205.536 179.015 206.022 178.037 206.103 177.298C206.423 174.288 206.447 171.221 207.458 168.311C208.469 165.402 210.678 162.587 214.069 161.476C215.228 161.074 216.466 160.957 217.68 161.133C218.4 161.252 219.077 161.505 219.793 161.609C222.273 162.02 224.968 160.846 227.291 161.662C228.751 162.177 229.676 163.365 230.358 164.553C230.655 165.193 231.058 165.778 231.551 166.284C232.538 167.171 234.083 167.4 235.5 167.677C236.917 167.953 238.362 168.402 238.996 169.413C238.973 169.342 238.996 169.27 239.011 169.198Z" fill="black"/>
<path opacity="0.1" d="M199.11 167.715C199.188 166.826 199.135 165.931 198.952 165.058C198.812 165.98 198.782 166.915 198.862 167.844C198.862 168.082 198.914 168.321 198.947 168.554C199 168.273 199.071 167.996 199.11 167.715Z" fill="black"/>
</g>
<path d="M175.766 243.742V235.133C175.766 235.068 175.791 235.006 175.837 234.961C175.883 234.915 175.944 234.889 176.009 234.889H176.987C177.051 234.889 177.113 234.915 177.159 234.961C177.204 235.006 177.23 235.068 177.23 235.133V238.715L181.199 235.037C181.292 234.959 181.405 234.909 181.526 234.893C181.646 234.876 181.768 234.894 181.879 234.944C181.99 234.993 182.085 235.073 182.153 235.174C182.22 235.275 182.258 235.393 182.262 235.514V243.313C182.258 243.434 182.22 243.552 182.153 243.653C182.085 243.754 181.99 243.834 181.879 243.884C181.768 243.933 181.646 243.951 181.526 243.934C181.405 243.918 181.292 243.868 181.199 243.79L177.23 240.136V243.699C177.23 243.764 177.204 243.826 177.159 243.871C177.113 243.917 177.051 243.943 176.987 243.943H176.009C175.951 243.943 175.895 243.924 175.85 243.887C175.806 243.85 175.776 243.799 175.766 243.742Z" fill="#444053"/>
<path d="M271.656 235.133V243.742C271.656 243.775 271.65 243.807 271.637 243.837C271.625 243.866 271.606 243.893 271.583 243.916C271.56 243.939 271.533 243.957 271.503 243.968C271.473 243.98 271.441 243.986 271.408 243.986H270.454C270.39 243.986 270.328 243.96 270.282 243.914C270.237 243.869 270.211 243.807 270.211 243.742V240.16L266.242 243.833C266.148 243.91 266.035 243.96 265.914 243.976C265.794 243.992 265.671 243.975 265.56 243.925C265.449 243.876 265.354 243.796 265.286 243.696C265.218 243.595 265.179 243.477 265.174 243.356V235.528C265.179 235.407 265.218 235.289 265.286 235.189C265.354 235.088 265.449 235.009 265.56 234.959C265.671 234.91 265.794 234.892 265.914 234.908C266.035 234.925 266.148 234.974 266.242 235.051L270.211 238.705V235.147C270.211 235.082 270.237 235.02 270.282 234.975C270.328 234.929 270.39 234.904 270.454 234.904H271.408C271.471 234.902 271.532 234.925 271.578 234.968C271.625 235.011 271.653 235.07 271.656 235.133Z" fill="#444053"/>
<path d="M222.093 244.114H220.151C219.898 244.114 219.656 244.014 219.477 243.835C219.298 243.656 219.197 243.413 219.197 243.16V236.034C219.197 235.781 219.298 235.538 219.477 235.36C219.656 235.181 219.898 235.08 220.151 235.08H222.093C222.346 235.08 222.588 235.181 222.767 235.36C222.946 235.538 223.047 235.781 223.047 236.034V243.16C223.047 243.413 222.946 243.656 222.767 243.835C222.588 244.014 222.346 244.114 222.093 244.114ZM228.246 243.16V236.034C228.246 235.781 228.145 235.538 227.966 235.36C227.787 235.181 227.545 235.08 227.292 235.08H225.331C225.078 235.08 224.836 235.181 224.657 235.36C224.478 235.538 224.377 235.781 224.377 236.034V243.16C224.377 243.413 224.478 243.656 224.657 243.835C224.836 244.014 225.078 244.114 225.331 244.114H227.273C227.4 244.117 227.526 244.094 227.644 244.047C227.762 244.001 227.869 243.931 227.96 243.842C228.05 243.753 228.122 243.647 228.171 243.53C228.221 243.413 228.246 243.287 228.246 243.16Z" fill="#444053"/>
<path opacity="0.6" d="M280.949 223.528H166.471V224.801H280.949V223.528Z" fill="#444053"/>
<path d="M201.82 227.181C203.488 227.181 204.84 225.829 204.84 224.162C204.84 222.494 203.488 221.143 201.82 221.143C200.153 221.143 198.801 222.494 198.801 224.162C198.801 225.829 200.153 227.181 201.82 227.181Z" fill="#444053"/>
<path d="M201.82 223.528H166.471V224.801H201.82V223.528Z" fill="#444053"/>
<path d="M456.519 367.273C472.186 367.273 484.886 364.83 484.886 361.817C484.886 358.803 472.186 356.36 456.519 356.36C440.853 356.36 428.152 358.803 428.152 361.817C428.152 364.83 440.853 367.273 456.519 367.273Z" fill="#515481"/>
<path d="M456.047 363.82C457.87 363.82 459.348 361.885 459.348 359.498C459.348 357.112 457.87 355.177 456.047 355.177C454.224 355.177 452.746 357.112 452.746 359.498C452.746 361.885 454.224 363.82 456.047 363.82Z" fill="#3F3D56"/>
<path d="M456.047 358.535C457.87 358.535 459.348 356.6 459.348 354.214C459.348 351.827 457.87 349.892 456.047 349.892C454.224 349.892 452.746 351.827 452.746 354.214C452.746 356.6 454.224 358.535 456.047 358.535Z" fill="#3F3D56"/>
<path d="M456.047 353.255C457.87 353.255 459.348 351.32 459.348 348.933C459.348 346.547 457.87 344.612 456.047 344.612C454.224 344.612 452.746 346.547 452.746 348.933C452.746 351.32 454.224 353.255 456.047 353.255Z" fill="#3F3D56"/>
<path d="M456.047 347.97C457.87 347.97 459.348 346.035 459.348 343.648C459.348 341.261 457.87 339.327 456.047 339.327C454.224 339.327 452.746 341.261 452.746 343.648C452.746 346.035 454.224 347.97 456.047 347.97Z" fill="#3F3D56"/>
<path d="M456.047 342.685C457.87 342.685 459.348 340.75 459.348 338.363C459.348 335.976 457.87 334.042 456.047 334.042C454.224 334.042 452.746 335.976 452.746 338.363C452.746 340.75 454.224 342.685 456.047 342.685Z" fill="#3F3D56"/>
<path d="M456.047 337.4C457.87 337.4 459.348 335.465 459.348 333.078C459.348 330.692 457.87 328.757 456.047 328.757C454.224 328.757 452.746 330.692 452.746 333.078C452.746 335.465 454.224 337.4 456.047 337.4Z" fill="#3F3D56"/>
<path d="M456.047 332.115C457.87 332.115 459.348 330.18 459.348 327.793C459.348 325.407 457.87 323.472 456.047 323.472C454.224 323.472 452.746 325.407 452.746 327.793C452.746 330.18 454.224 332.115 456.047 332.115Z" fill="#3F3D56"/>
<path d="M468.406 291.637C468.856 291.061 469.267 290.456 469.637 289.825L460.955 288.394L470.343 288.465C471.242 286.506 471.732 284.384 471.783 282.229C471.835 280.073 471.447 277.93 470.643 275.93L458.06 282.465L469.67 273.931C468.582 272.051 467.119 270.414 465.371 269.124C463.623 267.834 461.628 266.917 459.511 266.432C457.393 265.946 455.198 265.902 453.063 266.301C450.927 266.701 448.897 267.536 447.099 268.755C445.3 269.974 443.772 271.55 442.609 273.385C441.446 275.22 440.674 277.275 440.34 279.422C440.006 281.569 440.118 283.761 440.669 285.863C441.219 287.964 442.197 289.93 443.54 291.637C442.841 292.526 442.237 293.485 441.737 294.499L453.004 300.352L440.993 296.321C440.15 298.814 439.941 301.477 440.386 304.071C440.831 306.664 441.915 309.106 443.54 311.175C441.706 313.508 440.566 316.31 440.249 319.261C439.932 322.212 440.452 325.193 441.749 327.862C443.046 330.532 445.068 332.782 447.584 334.357C450.1 335.932 453.008 336.767 455.976 336.767C458.944 336.767 461.852 335.932 464.367 334.357C466.883 332.782 468.905 330.532 470.202 327.862C471.499 325.193 472.019 322.212 471.702 319.261C471.386 316.31 470.245 313.508 468.411 311.175C470.602 308.386 471.793 304.943 471.793 301.397C471.793 297.85 470.602 294.407 468.411 291.618L468.406 291.637Z" fill="#507653"/>
<path opacity="0.1" d="M440.158 301.415C440.151 304.963 441.343 308.408 443.54 311.194C441.706 313.527 440.565 316.329 440.249 319.28C439.932 322.231 440.452 325.212 441.749 327.881C443.046 330.551 445.068 332.801 447.584 334.376C450.099 335.95 453.007 336.785 455.975 336.785C458.943 336.785 461.851 335.95 464.367 334.376C466.883 332.801 468.905 330.551 470.202 327.881C471.499 325.212 472.019 322.231 471.702 319.28C471.385 316.329 470.244 313.527 468.41 311.194C470.528 308.508 440.158 299.641 440.158 301.415Z" fill="black"/>
<path opacity="0.1" d="M138.328 396.647C164.408 396.647 185.55 392.162 185.55 386.63C185.55 381.098 164.408 376.613 138.328 376.613C112.248 376.613 91.1055 381.098 91.1055 386.63C91.1055 392.162 112.248 396.647 138.328 396.647Z" fill="#515481"/>
<path d="M154.139 385.466C153.185 385.118 152.164 385.175 151.167 385.065C149.097 384.826 147.17 383.891 145.701 382.413C144.756 381.458 144.013 380.323 143.516 379.074C143.831 379.189 144.146 379.308 144.47 379.437C143.516 377.209 144.518 374.71 145.396 372.459C146.884 368.643 148.291 364.806 149.617 360.949C152.956 351.175 155.818 341.011 155.756 330.612C155.756 326.853 155.064 323.3 154.931 319.546C154.831 316.76 155.26 313.979 155.241 311.189C155.241 310.798 155.241 310.412 155.212 310.02C156.065 309.273 156.736 308.341 157.172 307.294C157.607 306.247 157.797 305.114 157.726 303.982C157.677 303.392 157.593 302.806 157.473 302.226C157.304 301.22 157.081 300.223 156.805 299.24C156.49 298.205 156.061 297.213 155.694 296.202C154.983 294.242 154.501 292.2 153.896 290.206C154.12 290.229 154.339 290.289 154.544 290.383C154.392 290.203 154.287 289.989 154.239 289.758C153.883 288.489 153.691 287.179 153.667 285.861L154.072 285.68C154.255 284.393 154.188 283.083 153.877 281.821C154.105 279.774 154.463 277.714 154.683 275.677C154.764 274.914 154.73 273.955 154.029 273.769C153.886 272.677 153.829 271.57 153.772 270.468C153.571 266.624 153.373 262.781 153.175 258.939C152.975 255.081 152.775 251.227 152.698 247.363C152.646 244.911 152.617 242.374 152.035 240.027C152.136 238.902 152.021 237.769 151.697 236.688C150.809 233.878 148.052 231.651 145.257 231.808C144.424 230.615 143.393 229.573 142.209 228.727C142.767 227.477 143.435 226.189 143.984 225.178C148.458 223.723 151.73 219.311 151.73 214.064C151.737 212.144 151.287 210.249 150.418 208.536C150.5 208.325 150.571 208.11 150.628 207.892C150.868 206.862 150.793 205.783 150.414 204.796C150.279 204.417 150.12 204.047 149.937 203.69C149.813 203.451 149.679 203.213 149.541 202.984L149.297 202.616C149.15 202.392 148.997 202.178 148.82 201.968C148.482 201.513 148.119 201.077 147.733 200.661C147.258 200.147 146.734 199.68 146.168 199.268C145.401 198.698 144.524 198.293 143.593 198.08C143.054 197.974 142.506 197.924 141.957 197.932C141.627 197.932 141.294 197.932 140.964 197.961C140.297 197.999 139.634 198.047 138.971 198.042C138.751 198.042 138.527 198.042 138.308 198.009C137.14 197.853 135.986 197.612 134.854 197.288L134.282 197.169C134.086 197.131 133.895 197.098 133.7 197.074C133.177 197.004 132.649 196.972 132.121 196.978H131.592C131.063 197.004 130.536 197.058 130.013 197.141L129.488 197.222C128.163 197.429 126.872 197.812 125.648 198.362C125.491 198.433 125.329 198.514 125.171 198.6L125.076 198.653C124.947 198.719 124.818 198.791 124.694 198.867L124.623 198.91L124.217 199.168L124.184 199.192C120.397 201.739 118.159 206.566 117.592 211.355C116.957 216.731 118.069 222.149 119.18 227.439L120.182 232.209C120.225 232.424 120.273 232.633 120.315 232.848C118.907 234.004 117.824 235.506 117.172 237.208C116.218 239.593 116.194 242.173 116.271 244.759C116.271 245.283 116.299 245.808 116.352 246.333C116.232 247.325 116.127 248.322 116.061 249.323C115.76 253.95 116.323 258.601 116.175 263.237C116.061 266.81 115.522 270.392 115.784 273.941C116.013 277.089 116.857 280.142 117.692 283.18L118.894 287.511C118.933 287.735 119.038 287.943 119.195 288.107C119.392 288.24 119.633 288.29 119.867 288.246C119.085 290.022 118.432 291.852 117.911 293.722C117.552 294.867 117.315 296.047 117.205 297.242C117.048 299.426 117.554 301.597 118.059 303.719C118.822 306.899 119.582 310.092 120.339 313.297C120.874 315.539 121.406 317.779 121.937 320.018C122.987 324.435 124.041 328.881 124.236 333.426C124.345 335.709 124.185 337.997 123.759 340.243C122.383 346.967 122.183 353.879 123.168 360.672C123.964 366.403 125.255 372.054 127.027 377.562C127.413 377.357 127.804 377.166 128.205 376.99L128.038 377.3C127.488 378.254 126.979 379.232 126.512 380.234C126.196 380.885 125.924 381.555 125.696 382.242C125.085 384.15 124.99 386.182 124.904 388.19C124.86 388.576 124.894 388.967 125.004 389.339C125.267 390.06 126.02 390.427 126.721 390.627C128.782 391.214 130.924 391.004 133.065 390.727C133.075 390.775 133.09 390.821 133.108 390.866C133.371 391.586 134.12 391.953 134.826 392.154C137.773 392.993 140.883 392.201 143.922 391.915C146.96 391.629 149.946 391.839 152.87 391.138C153.306 391.044 153.724 390.883 154.11 390.661C154.862 390.135 155.414 389.37 155.675 388.49C155.766 388.262 155.827 388.023 155.856 387.78C155.975 386.735 155.083 385.814 154.139 385.466ZM144.051 341.292C143.886 342.409 143.565 343.498 143.097 344.526C140.802 349.405 139.157 354.564 138.203 359.871C137.577 363.376 137.215 366.924 137.12 370.484C137.072 373.107 137.172 375.855 136.08 378.211L136.476 378.149C136.352 378.378 136.233 378.626 136.118 378.807L136.061 378.912C135.4 377.787 134.958 376.548 134.759 375.258C134.759 375.216 134.544 375.182 134.215 375.163C132.867 367.628 132.399 359.963 132.822 352.32C132.829 351.393 132.957 350.471 133.204 349.577C133.447 348.809 133.857 348.108 134.158 347.364C134.634 346.114 134.955 344.81 135.112 343.481C135.631 340.086 135.832 336.649 135.713 333.217C135.598 329.978 136.347 326.758 136.986 323.534C137.292 322.002 137.573 320.467 137.726 318.931L137.754 318.621C140.592 323.302 142.576 328.451 143.612 333.827C144.188 336.271 144.336 338.797 144.051 341.292ZM123.635 272.357L123.788 272.491C124.249 272.896 124.674 273.342 125.057 273.822C125.247 274.031 125.385 274.283 125.457 274.556C125.601 275.253 125.023 275.844 124.551 276.354C124.346 276.576 124.153 276.808 123.974 277.051C123.872 275.486 123.764 273.922 123.65 272.357H123.635Z" fill="url(#paint0_linear)"/>
<path d="M117.035 242.459L116.511 246.509C116.334 247.883 116.158 249.252 116.062 250.63C115.743 255.219 116.334 259.827 116.182 264.425C116.058 267.964 115.495 271.499 115.767 275.033C116.01 278.153 116.897 281.186 117.784 284.191L119.044 288.484C119.087 288.709 119.196 288.915 119.358 289.076C119.601 289.22 119.889 289.266 120.165 289.205L125.755 288.699C125.397 287.058 125.001 285.36 124.801 283.676C124.648 282.36 124.558 281.034 124.462 279.708C124.167 275.577 123.828 271.446 123.508 267.306L122.912 260.056C122.659 256.908 122.397 253.745 121.605 250.688C120.811 247.599 119.237 244.766 117.035 242.459Z" fill="#515481"/>
<path opacity="0.1" d="M117.035 242.459L116.511 246.509C116.334 247.883 116.158 249.252 116.062 250.63C115.743 255.219 116.334 259.827 116.182 264.425C116.058 267.964 115.495 271.499 115.767 275.033C116.01 278.153 116.897 281.186 117.784 284.191L119.044 288.484C119.087 288.709 119.196 288.915 119.358 289.076C119.601 289.22 119.889 289.266 120.165 289.205L125.755 288.699C125.397 287.058 125.001 285.36 124.801 283.676C124.648 282.36 124.558 281.034 124.462 279.708C124.167 275.577 123.828 271.446 123.508 267.306L122.912 260.056C122.659 256.908 122.397 253.745 121.605 250.688C120.811 247.599 119.237 244.766 117.035 242.459Z" fill="black"/>
<path d="M126.995 380.32C126.667 380.965 126.38 381.631 126.136 382.313C125.497 384.197 125.402 386.22 125.306 388.209C125.264 388.592 125.3 388.98 125.411 389.349C125.688 390.064 126.48 390.427 127.219 390.623C130.315 391.457 133.577 390.675 136.759 390.389C139.94 390.103 143.084 390.312 146.156 389.621C146.609 389.533 147.048 389.381 147.458 389.168C148.235 388.661 148.816 387.904 149.103 387.021C149.196 386.795 149.258 386.558 149.289 386.315C149.39 385.266 148.478 384.36 147.486 384.016C146.494 383.673 145.411 383.725 144.367 383.62C142.215 383.4 140.197 382.476 138.624 380.992C137.051 379.508 136.011 377.546 135.666 375.411C135.628 375.182 130.496 375.321 129.943 375.616C129.313 375.965 128.931 376.828 128.574 377.415C128.011 378.359 127.484 379.327 126.995 380.32Z" fill="#A26565"/>
<path opacity="0.1" d="M126.995 380.32C126.667 380.965 126.38 381.631 126.136 382.313C125.497 384.197 125.402 386.22 125.306 388.209C125.264 388.592 125.3 388.98 125.411 389.349C125.688 390.064 126.48 390.427 127.219 390.623C130.315 391.457 133.577 390.675 136.759 390.389C139.94 390.103 143.084 390.312 146.156 389.621C146.609 389.533 147.048 389.381 147.458 389.168C148.235 388.661 148.816 387.904 149.103 387.021C149.196 386.795 149.258 386.558 149.289 386.315C149.39 385.266 148.478 384.36 147.486 384.016C146.494 383.673 145.411 383.725 144.367 383.62C142.215 383.4 140.197 382.476 138.624 380.992C137.051 379.508 136.011 377.546 135.666 375.411C135.628 375.182 130.496 375.321 129.943 375.616C129.313 375.965 128.931 376.828 128.574 377.415C128.011 378.359 127.484 379.327 126.995 380.32Z" fill="black"/>
<path d="M135.508 381.836C135.178 382.479 134.891 383.144 134.649 383.825C134.005 385.733 133.91 387.732 133.819 389.721C133.775 390.104 133.811 390.492 133.924 390.861C134.196 391.576 134.988 391.939 135.727 392.139C138.823 392.969 142.09 392.187 145.267 391.9C148.444 391.614 151.597 391.824 154.664 391.132C155.12 391.04 155.559 390.88 155.966 390.655C156.745 390.15 157.326 389.392 157.612 388.509C157.704 388.283 157.767 388.045 157.798 387.803C157.898 386.758 156.987 385.847 155.995 385.504C155.002 385.161 153.92 385.218 152.875 385.108C150.725 384.887 148.707 383.964 147.134 382.481C145.561 380.998 144.521 379.038 144.175 376.904C144.137 376.675 139.004 376.808 138.451 377.104C137.817 377.452 137.435 378.316 137.077 378.902C136.533 379.871 135.999 380.844 135.508 381.836Z" fill="#A26565"/>
<path d="M157.703 331.165C157.77 341.473 154.774 351.547 151.259 361.216C149.866 365.051 148.389 368.852 146.827 372.621C145.902 374.853 144.857 377.333 145.85 379.537C142.988 378.45 140.078 377.81 137.068 378.311C138.213 375.974 138.103 373.255 138.156 370.679C138.253 367.149 138.629 363.632 139.281 360.162C140.292 354.879 142.023 349.761 144.428 344.95C144.914 343.936 145.25 342.856 145.425 341.745C145.816 339.293 145.511 336.775 145.001 334.347C143.903 328.984 141.816 323.873 138.847 319.274L138.819 319.579C138.641 321.113 138.383 322.637 138.046 324.144C137.373 327.335 136.586 330.531 136.706 333.741C136.83 337.145 136.619 340.553 136.076 343.915C135.901 345.236 135.556 346.528 135.051 347.76C134.721 348.499 134.292 349.191 134.035 349.959C133.777 350.842 133.642 351.757 133.634 352.678C133.252 360.438 133.634 368.318 135.217 375.926C132.561 375.716 129.904 376.484 127.528 377.677C125.671 372.231 124.314 366.627 123.474 360.934C122.439 354.202 122.649 347.338 124.094 340.681C124.544 338.462 124.713 336.194 124.595 333.932C124.39 329.424 123.283 325.017 122.181 320.638L120.502 313.96C119.707 310.78 118.912 307.615 118.117 304.463C117.588 302.36 117.054 300.209 117.221 298.043C117.337 296.855 117.587 295.684 117.965 294.552C119.156 290.7 120.937 287.057 123.245 283.752C132.437 284.268 141.738 283.409 150.91 282.703C151.355 282.615 151.817 282.693 152.208 282.923C152.521 283.24 152.707 283.661 152.733 284.105L156.181 303.662C156.74 306.38 157.067 309.141 157.159 311.914C157.159 314.681 156.73 317.438 156.835 320.199C156.978 323.92 157.684 327.44 157.703 331.165Z" fill="#454B69"/>
<path opacity="0.1" d="M138.829 319.579C138.651 321.113 138.393 322.637 138.056 324.144C136.058 320.686 133.902 317.314 132.061 313.769C131.584 312.858 131.135 311.933 130.682 311.008L129.323 308.241C129.07 307.721 128.817 307.201 128.588 306.672C128.215 305.911 127.929 305.111 127.734 304.287C128.402 304.163 130.053 305.966 130.549 306.438C131.56 307.44 132.516 308.497 133.411 309.605C134.497 310.837 135.495 312.144 136.397 313.517C137.551 315.382 138.374 317.433 138.829 319.579Z" fill="black"/>
<path d="M146.484 224.701C146.484 224.701 141.38 232.834 142.325 234.537C143.269 236.24 126.25 233.025 126.25 233.025C126.25 233.025 135.518 224.892 134.569 221.486C133.62 218.08 146.484 224.701 146.484 224.701Z" fill="#EFB7B9"/>
<path d="M141.949 227.162C148.321 227.162 153.487 221.996 153.487 215.624C153.487 209.251 148.321 204.085 141.949 204.085C135.576 204.085 130.41 209.251 130.41 215.624C130.41 221.996 135.576 227.162 141.949 227.162Z" fill="#EFB7B9"/>
<path d="M146.656 233.229C145.421 231.515 143.744 230.167 141.805 229.328C140.688 228.927 139.532 228.643 138.356 228.479L133.753 227.668C132.628 227.467 131.421 227.281 130.372 227.744C129.841 228.016 129.358 228.372 128.941 228.798C127.343 230.282 125.792 231.908 123.784 232.767C123.236 233 122.663 233.172 122.115 233.406C119.868 234.36 118.189 236.392 117.24 238.653C116.238 241.009 116.21 243.571 116.286 246.132C116.285 247.016 116.373 247.898 116.548 248.765C116.778 249.59 117.07 250.397 117.421 251.179C118.055 252.851 118.588 254.56 119.014 256.297C120.207 260.86 121.199 265.471 121.991 270.129C122.058 270.797 122.254 271.445 122.568 272.037C123.013 272.631 123.551 273.148 124.161 273.569C124.645 273.966 125.091 274.408 125.492 274.89C125.692 275.086 125.841 275.329 125.926 275.596C126.074 276.283 125.449 276.874 124.972 277.375C123.946 278.422 123.203 279.714 122.816 281.129C122.577 281.419 122.454 281.788 122.473 282.164C122.572 282.425 122.609 282.706 122.582 282.984C122.488 283.237 122.34 283.467 122.148 283.657C121.928 283.944 121.772 284.274 121.69 284.626C121.607 284.978 121.601 285.344 121.671 285.698C125.247 287.252 129.073 288.147 132.966 288.341C133.92 288.389 134.874 288.389 135.828 288.503C136.506 288.589 137.173 288.727 137.851 288.808C138.834 288.901 139.822 288.926 140.808 288.885C145.945 288.78 151.23 288.651 155.948 286.614C156.391 284.196 155.433 281.73 154.832 279.345C153.878 275.529 153.639 271.622 152.924 267.773C152.447 265.145 151.731 262.555 151.326 259.908C150.92 257.26 150.849 254.518 151.555 251.942C152.199 249.662 152.394 247.334 153.062 245.059C153.73 242.784 154.197 240.318 153.444 238.066C152.49 235.28 149.594 233.072 146.656 233.229Z" fill="#515481"/>
<path d="M152.323 209.504C152.886 207.458 151.779 205.326 150.463 203.661C149.032 201.872 147.21 200.26 144.973 199.812C143.155 199.444 141.271 199.888 139.42 199.74C137.784 199.611 136.21 199.02 134.584 198.786C133.108 198.627 131.617 198.683 130.157 198.953C128.772 199.159 127.418 199.537 126.127 200.079C121.214 202.258 118.337 207.629 117.67 212.957C117.002 218.285 118.171 223.656 119.334 228.898L120.389 233.64C121.486 238.577 122.583 243.533 122.874 248.579C123.165 253.626 122.621 258.806 120.546 263.414C127.256 259.809 132.455 253.923 135.204 246.819C135.948 244.868 136.501 242.841 137.331 240.923C138.042 239.273 138.953 237.708 139.583 236.025C140.294 234.124 140.636 232.105 140.589 230.077C140.551 228.55 140.298 227.033 140.341 225.507C140.384 223.981 140.775 222.392 141.829 221.286C142.783 220.308 144.095 219.855 145.302 219.22C147.201 218.244 148.861 216.86 150.162 215.166C150.921 214.174 150.964 213.735 151.154 212.609C151.345 211.483 152.027 210.587 152.323 209.504Z" fill="#A26565"/>
<path d="M152.337 296.178C152.457 297.366 152.242 298.563 152.5 299.741C152.695 300.619 153.148 301.411 153.415 302.269C153.68 303.261 153.816 304.282 153.821 305.308C153.859 306.166 153.792 307.216 153.029 307.617C152.695 307.793 152.295 307.793 151.946 307.946C151.598 308.098 151.302 308.513 151.503 308.838C151.703 309.162 152.047 309.11 152.361 309.172C152.676 309.234 153.015 309.558 152.838 309.82C152.766 309.906 152.67 309.968 152.562 309.997C152.243 310.095 151.941 310.239 151.665 310.426C151.53 310.524 151.424 310.657 151.36 310.811C151.295 310.965 151.273 311.134 151.298 311.299C151.317 311.378 151.354 311.452 151.405 311.514C151.457 311.577 151.522 311.627 151.596 311.661C151.67 311.695 151.751 311.712 151.832 311.71C151.913 311.709 151.993 311.689 152.066 311.652C151.926 311.951 151.849 312.276 151.841 312.606C153.062 313.131 154.431 312.444 155.576 311.781C156.071 311.505 156.549 311.199 157.007 310.865C157.933 310.154 158.671 309.227 159.157 308.165C159.642 307.104 159.861 305.939 159.793 304.774C159.738 304.188 159.647 303.607 159.521 303.033C159.345 302.033 159.111 301.043 158.82 300.071C158.491 299.045 158.042 298.067 157.656 297.061C156.835 294.919 156.306 292.677 155.562 290.507C155.512 290.282 155.386 290.081 155.204 289.939C155.04 289.858 154.857 289.824 154.675 289.839C153.84 289.795 153.003 289.872 152.19 290.068C151.713 290.211 150.897 290.545 150.673 291.022C150.449 291.499 150.806 291.9 151.021 292.296C151.707 293.493 152.154 294.811 152.337 296.178Z" fill="#EFB7B9"/>
<path opacity="0.1" d="M151.559 238.219C151.804 238.47 152.01 238.756 152.17 239.068C153.81 242.049 153.83 245.612 153.906 249.013C153.992 252.829 154.202 256.645 154.411 260.485L155.036 271.932C155.098 273.025 155.156 274.117 155.313 275.2C156.048 275.386 156.076 276.34 155.995 277.108C155.466 281.773 154.154 286.576 155.518 291.065C155.571 291.295 155.681 291.508 155.838 291.685C155.145 291.468 154.404 291.458 153.705 291.656C153.023 291.799 152.365 292.052 151.678 292.209C150.81 292.405 149.828 292.491 149.236 293.163C148.566 291.147 148.032 289.088 147.638 287.001C147.314 285.093 147.223 283.127 146.45 281.363C146.14 280.652 145.721 279.994 145.339 279.311C143.34 275.744 142.358 271.713 141.399 267.735C140.969 265.849 140.866 263.903 141.094 261.982C141.233 261.106 141.312 260.222 141.332 259.335C141.274 258.399 141.152 257.468 140.965 256.549C140.56 253.852 140.75 251.099 141.523 248.484C142.239 246.056 142.868 243.499 144.385 241.458C145.902 239.416 149.026 238.252 151.559 238.219Z" fill="black"/>
<path d="M152.128 237.837C152.373 238.09 152.578 238.378 152.738 238.691C154.379 241.668 154.398 245.236 154.475 248.636C154.56 252.452 154.77 256.268 154.98 260.084L155.605 271.532C155.667 272.624 155.724 273.717 155.882 274.799C156.616 274.985 156.645 275.939 156.559 276.707C156.034 281.372 154.723 286.171 156.082 290.664C156.135 290.894 156.245 291.108 156.402 291.284C155.709 291.067 154.968 291.057 154.269 291.256C153.587 291.399 152.929 291.651 152.242 291.804C151.374 292.004 150.391 292.086 149.8 292.758C149.132 290.733 148.603 288.664 148.216 286.567C147.892 284.659 147.801 282.698 147.029 280.934C146.693 280.231 146.322 279.547 145.917 278.882C143.914 275.315 142.936 271.279 141.977 267.301C141.547 265.415 141.444 263.469 141.672 261.549C142.031 259.75 141.987 257.895 141.543 256.116C141.138 253.42 141.328 250.669 142.101 248.055C142.817 245.627 143.446 243.07 144.963 241.028C146.48 238.987 149.595 237.876 152.128 237.837Z" fill="#515481"/>
<g opacity="0.1">
<path opacity="0.1" d="M150.462 203.661C149.031 201.872 147.209 200.26 144.972 199.812C143.154 199.444 141.27 199.888 139.42 199.74C137.783 199.611 136.209 199.02 134.583 198.786C133.107 198.627 131.616 198.683 130.156 198.953C128.771 199.159 127.417 199.537 126.126 200.079C125.428 200.391 124.762 200.77 124.137 201.209C125.286 200.763 126.481 200.443 127.7 200.255C129.158 199.985 130.647 199.929 132.122 200.088C133.753 200.298 135.322 200.885 136.963 201.014C138.809 201.161 140.693 200.723 142.515 201.085C144.752 201.533 146.584 203.15 148.001 204.939C149.322 206.599 150.424 208.731 149.866 210.782C149.57 211.86 148.883 212.805 148.697 213.916C148.511 215.028 148.463 215.481 147.7 216.473C146.722 217.745 145.538 218.846 144.199 219.731C144.566 219.559 144.943 219.387 145.301 219.201C147.201 218.225 148.861 216.841 150.161 215.147C150.92 214.155 150.963 213.716 151.154 212.59C151.344 211.464 152.026 210.539 152.322 209.456C152.885 207.458 151.778 205.326 150.462 203.661Z" fill="black"/>
<path opacity="0.1" d="M141.828 221.314C142.026 221.11 142.241 220.923 142.472 220.756C141.37 221.291 140.211 221.758 139.367 222.664C138.313 223.766 137.936 225.359 137.879 226.886C137.822 228.412 138.093 229.929 138.127 231.45C138.174 233.481 137.832 235.501 137.12 237.403C136.491 239.087 135.58 240.647 134.869 242.302C134.044 244.21 133.49 246.242 132.746 248.193C130.362 254.352 126.128 259.621 120.626 263.275C120.597 263.337 120.574 263.404 120.545 263.466C127.255 259.862 132.454 253.975 135.203 246.872C135.947 244.921 136.5 242.893 137.33 240.976C138.041 239.326 138.952 237.761 139.582 236.077C140.293 234.177 140.635 232.158 140.588 230.129C140.55 228.603 140.297 227.086 140.34 225.56C140.383 224.033 140.774 222.421 141.828 221.314Z" fill="black"/>
</g>
</g>
<defs>
<linearGradient id="paint0_linear" x1="136.743" y1="392.511" x2="136.743" y2="196.993" gradientUnits="userSpaceOnUse">
<stop stop-color="#808080" stop-opacity="0.25"/>
<stop offset="0.54" stop-color="#808080" stop-opacity="0.12"/>
<stop offset="1" stop-color="#808080" stop-opacity="0.1"/>
</linearGradient>
<clipPath id="clip0">
<rect width="539" height="396.647" fill="white"/>
</clipPath>
</defs>
</svg>
