<svg width="520" height="337" viewBox="0 0 520 337" fill="none" xmlns="http://www.w3.org/2000/svg">
<g clip-path="url(#clip0)">
<path d="M0 332.398H520V336.198H0V332.398Z" fill="#85848B"/>
<path d="M108.026 265.301C108.026 268.225 125.064 276.746 145.302 276.746C165.541 276.746 181.311 268.225 181.311 265.301C181.311 262.378 164.907 263.32 144.648 263.32C124.39 263.32 108.026 262.373 108.026 265.301Z" fill="#504F60"/>
<path opacity="0.2" d="M108.026 265.301C108.026 268.224 125.064 276.745 145.302 276.745C165.541 276.745 181.311 268.224 181.311 265.301" fill="black"/>
<path d="M311.842 211.665C308.557 212.086 305.149 212.354 302.003 211.333C301.507 211.179 300.962 210.838 301.012 210.342C301.047 210.162 301.123 209.993 301.235 209.847C302.421 208.068 303.417 206.17 304.207 204.184C304.239 204.08 304.303 203.99 304.391 203.926C304.493 203.889 304.605 203.889 304.708 203.926C306.159 204.308 307.413 205.244 308.854 205.645C309.59 205.847 310.357 205.904 311.114 205.814C311.768 205.74 312.659 205.2 313.254 205.269C312.917 207.434 312.095 209.455 311.842 211.665Z" fill="#D9D9D9"/>
<path d="M249.719 206.181C247.554 204.695 245.31 203.134 244.032 200.84C243.94 200.703 243.887 200.544 243.878 200.379C243.9 200.217 243.963 200.064 244.061 199.933C245.279 197.998 246.847 196.306 248.684 194.944C249.643 195.622 250.509 196.421 251.26 197.322C251.805 197.897 253.311 198.809 253.326 199.686C253.326 200.181 252.751 200.756 252.484 201.172C252.122 201.707 251.78 202.252 251.453 202.807C251.265 203.079 249.546 206.072 249.719 206.181Z" fill="#D9D9D9"/>
<path d="M298.966 218.299C298.928 218.809 299.068 219.317 299.363 219.736C299.594 219.968 299.88 220.139 300.195 220.231C304.788 221.876 310.104 219.825 314.687 221.445C315.628 221.777 316.52 222.258 317.466 222.575C318.594 222.914 319.758 223.12 320.934 223.189C322.554 223.343 324.184 223.442 325.809 223.486C327.044 223.574 328.285 223.465 329.485 223.164C330.086 223.011 330.647 222.732 331.133 222.347C331.618 221.962 332.018 221.479 332.304 220.93C332.553 220.437 332.603 219.868 332.443 219.339C332.371 219.158 332.269 218.991 332.141 218.844C331.83 218.496 331.465 218.199 331.061 217.967L329.371 216.877C328.579 216.317 327.718 215.861 326.81 215.52C326.141 215.302 325.433 215.207 324.754 215.024C322.381 214.331 320.567 212.448 318.883 210.64L316.584 208.187C316.369 207.917 316.097 207.699 315.786 207.548C315.468 207.442 315.129 207.41 314.796 207.454C312.563 207.613 310.406 208.336 308.528 209.555C308.048 209.915 307.53 210.22 306.983 210.466C305.635 210.991 303.906 210.595 302.662 209.931C302.073 209.614 302.202 209.436 301.954 208.871C301.706 208.306 301.102 207.944 300.577 208.46C300.418 208.638 300.306 208.852 300.25 209.084C299.754 210.719 299.942 212.478 299.942 214.192C299.957 214.46 299.923 214.728 299.843 214.985C299.717 215.243 299.566 215.488 299.393 215.718C299.357 215.779 299.326 215.841 299.298 215.906C298.995 216.665 298.881 217.486 298.966 218.299Z" fill="#514E7F"/>
<path d="M298.966 218.299C298.928 218.81 299.068 219.318 299.363 219.736C299.594 219.969 299.88 220.139 300.195 220.232C304.788 221.876 310.104 219.825 314.687 221.445C315.628 221.777 316.52 222.258 317.466 222.575C318.594 222.914 319.758 223.12 320.934 223.189C322.554 223.343 324.184 223.442 325.809 223.487C327.044 223.574 328.285 223.465 329.485 223.165C330.086 223.011 330.647 222.732 331.133 222.347C331.618 221.963 332.018 221.48 332.304 220.93C332.553 220.438 332.603 219.868 332.443 219.34C332.371 219.159 332.269 218.991 332.141 218.844C331.873 219.404 331.68 220.147 331.512 220.415C331.284 220.811 330.974 221.155 330.604 221.422C330.233 221.69 329.809 221.875 329.361 221.966C328.691 222.007 328.018 221.921 327.38 221.713C323.218 220.682 318.794 220.668 314.796 219.107C313.423 218.567 312.115 217.849 310.674 217.522C309.232 217.195 307.701 217.284 306.215 217.16C303.866 216.972 301.592 216.263 299.279 215.892C298.98 216.657 298.873 217.483 298.966 218.299Z" fill="#464353"/>
<path d="M239.2 205.878C239.418 207.622 240.523 209.123 241.737 210.397C242.951 211.67 244.323 212.814 245.289 214.281C246.478 216.099 247.013 218.353 248.559 219.889C249.153 220.448 249.819 220.923 250.541 221.301C251.349 221.778 252.204 222.171 253.092 222.475C255.401 223.213 257.888 223.045 260.301 222.867C261.084 222.859 261.86 222.71 262.59 222.426C262.922 222.257 263.24 222.061 263.541 221.841C264.146 221.469 264.655 220.96 265.027 220.355C265.21 220.026 265.262 219.64 265.171 219.275C265.033 218.872 264.796 218.511 264.482 218.224C263.94 217.66 263.357 217.135 262.739 216.654C261.89 216.106 261.126 215.439 260.469 214.672C260.067 214.066 259.77 213.396 259.593 212.69C259.242 211.454 259.027 210.183 258.953 208.9C258.956 208.048 258.868 207.197 258.691 206.364C258.324 205.056 257.353 203.886 257.462 202.534C257.506 202.34 257.489 202.138 257.413 201.954C257.297 201.811 257.136 201.711 256.957 201.672C256.2 201.37 255.401 201.185 254.589 201.122C254.181 201.094 253.772 201.157 253.392 201.306C253.011 201.455 252.669 201.686 252.389 201.984C252.052 202.39 251.829 202.975 251.334 203.133C251.088 203.2 250.831 203.211 250.581 203.163C249.362 203.039 248.074 202.886 247.112 202.098C246.668 201.699 246.311 201.213 246.064 200.67C245.817 200.127 245.685 199.539 245.676 198.942C245.676 198.491 245.879 198.021 245.18 197.951C244.655 197.882 244.239 198.447 243.971 198.793C243.005 200.086 242.014 201.439 241.653 203.014C241.512 202.96 241.363 202.931 241.212 202.93C240.903 202.928 240.598 203 240.323 203.14C240.047 203.281 239.81 203.486 239.631 203.738C239.237 204.377 239.084 205.136 239.2 205.878Z" fill="#514E7F"/>
<path d="M239.202 205.879C239.42 207.623 240.525 209.124 241.739 210.397C242.953 211.67 244.325 212.815 245.291 214.281C246.48 216.1 247.015 218.354 248.561 219.89C249.154 220.448 249.821 220.923 250.543 221.302C251.351 221.779 252.206 222.172 253.094 222.476C255.403 223.214 257.89 223.046 260.303 222.867C261.086 222.86 261.862 222.71 262.592 222.426C262.924 222.257 263.242 222.062 263.543 221.842C264.148 221.469 264.657 220.96 265.029 220.355C264.565 220.132 264.058 220.01 263.543 219.999C262.473 220.058 261.69 221.069 260.664 221.381C259.203 221.822 257.746 220.791 256.265 220.44C255.299 220.212 254.283 220.271 253.327 219.944C252.53 219.636 251.794 219.19 251.152 218.626C250.272 217.997 249.489 217.243 248.828 216.387C248.28 215.531 247.823 214.619 247.466 213.667C246.684 211.842 245.763 210.08 244.711 208.395C244.556 208.129 244.368 207.883 244.152 207.662C243.919 207.449 243.656 207.301 243.394 207.112C242.403 206.364 241.991 205.131 241.645 203.922C241.551 203.554 241.42 203.197 241.253 202.857C240.944 202.854 240.639 202.926 240.364 203.066C240.089 203.207 239.852 203.412 239.673 203.664C239.246 204.318 239.079 205.108 239.202 205.879Z" fill="#464353"/>
<path d="M343.089 51.4112C341.856 52.3353 340.841 53.5192 340.116 54.8792C339.423 56.2367 335.425 66.7697 335.657 68.3006C334.354 66.9877 329.217 66.7747 327.899 65.4618C327.349 64.9118 324.381 62.1671 323.935 61.528C323.49 60.8889 320.18 59.5463 319.818 58.8725C318.466 56.4498 329.41 47.2693 328.008 44.8764C327.93 44.7664 327.89 44.6344 327.894 44.4998C327.926 44.3869 327.99 44.2855 328.077 44.2075C328.974 43.291 330.163 42.7212 331.243 42.0425C332.323 41.3637 333.364 40.4174 333.656 39.1689C334.686 39.6431 335.631 40.2823 336.455 41.0615C338.463 42.7823 340.437 44.5378 342.376 46.328C343.134 47.0315 344.6 47.9679 344.952 48.9736C345.368 50.0537 343.812 50.8216 343.089 51.4112Z" fill="#A1616A"/>
<path d="M325.372 47.5127C327.051 48.6411 328.62 49.9249 330.059 51.3474C331.416 52.69 332.704 54.2457 333.031 56.1234C333.17 56.8616 333.15 57.6097 333.264 58.3578C333.76 61.6029 336.564 63.981 337.802 67.018C338.161 67.9554 338.425 68.9263 338.59 69.9163C338.938 71.793 339.129 73.6955 339.16 75.6039C339.19 77.4519 337.376 78.7252 336.712 80.4493C336.048 82.1734 335.87 83.9471 335.533 85.7158C334.899 89.055 333.735 92.2753 332.561 95.4759C330.118 102.224 322.201 120.877 319.759 127.63C312.272 125.752 292.346 121.437 285.717 117.478C283.507 116.16 301.051 101.292 298.688 100.267C298.553 100.246 298.424 100.194 298.313 100.114C298.201 100.035 298.11 99.9313 298.045 99.8107C297.981 99.6901 297.945 99.5561 297.942 99.4195C297.938 99.2828 297.966 99.1471 298.024 99.0232C300.387 88.6884 307.779 80.1966 311.133 70.1343C312.297 66.6415 314.388 63.659 315.973 60.3395C317.41 57.3322 318.178 54.0079 319.897 51.1492C320.221 50.5602 320.646 50.0322 321.151 49.5886C321.579 49.2598 322.043 48.979 322.533 48.7513C323.514 48.2757 324.426 47.9933 325.372 47.5127Z" fill="#514E7F"/>
<path d="M342.693 50.2369C336.222 50.2369 330.976 44.9909 330.976 38.5198C330.976 32.0486 336.222 26.8027 342.693 26.8027C349.164 26.8027 354.41 32.0486 354.41 38.5198C354.41 44.9909 349.164 50.2369 342.693 50.2369Z" fill="#A1616A"/>
<path d="M330.773 44.0242C330.189 43.4856 329.456 43.1367 328.67 43.0235C327.883 42.9103 327.081 43.0381 326.369 43.3901C325.576 43.8013 324.883 44.6336 325.061 45.5056L319.25 45.5948C318.325 45.5695 317.4 45.6543 316.495 45.8475C315.584 46.0457 314.771 46.5556 314.196 47.2892C314.127 47.3833 314.048 47.4973 313.929 47.5121C313.832 47.5136 313.738 47.4822 313.661 47.4229C312.767 46.9746 311.76 46.8021 310.768 46.9275C307.627 47.1306 304.723 48.7012 302.261 50.6631C301.817 50.9683 301.472 51.3973 301.27 51.8967C301.067 52.5557 301.31 53.383 300.775 53.8537C300.775 59.3035 298.902 64.3966 297.654 69.7077C297.431 70.654 296.524 71.4912 295.895 72.2344C295.117 73.0583 294.483 74.006 294.017 75.0386C292.957 77.7932 294.418 81.0334 293.388 83.7979C292.952 84.9671 292.11 85.9283 291.406 86.9439C290.479 88.1167 289.892 89.5223 289.712 91.0065C289.667 91.6704 289.751 92.3392 289.712 92.9882C289.645 93.8809 289.479 94.7633 289.216 95.619C288.793 97.2176 288.351 98.8146 287.888 100.41C287.135 102.986 286.154 105.766 283.846 107.138C289.419 108.084 295.295 109.011 300.606 107.073C301.347 106.821 302.05 106.469 302.697 106.028C304.614 104.661 305.541 102.322 306.368 100.113C307.29 97.6354 308.226 95.1137 308.414 92.4779C308.413 91.6396 308.531 90.8054 308.766 90.0008C309.306 88.564 310.748 87.697 312.056 86.8993C313.533 86.09 314.871 85.0497 316.019 83.8177C316.589 83.1972 317.026 82.4664 317.302 81.6705C317.578 80.8745 317.688 80.0304 317.625 79.1903C317.525 78.3729 317.203 77.5851 317.174 76.7627C317.144 75.9403 317.511 74.9989 318.298 74.781C322.356 73.5523 324.293 68.7465 325.195 64.6047C325.584 62.464 325.758 60.2898 325.715 58.1145L325.77 53.8884C326.329 53.379 326.78 52.7609 327.093 52.0718C327.407 51.3828 327.577 50.6371 327.593 49.8803C327.539 49.4387 327.547 48.9918 327.618 48.5525C327.814 48.0156 328.132 47.5321 328.549 47.1405C329.445 46.2211 330.195 45.1702 330.773 44.0242Z" fill="#464353"/>
<path d="M343.253 57.4212C343.386 58.7291 343.089 60.0718 343.381 61.355C343.495 61.8504 343.693 62.3458 343.837 62.8066C344.276 64.6535 344.086 66.5942 343.297 68.3208C342.509 70.0304 341.565 71.664 340.478 73.2008C340.11 73.7255 339.808 74.2928 339.576 74.8903C339.389 75.5177 339.273 76.1641 339.23 76.8175C338.943 79.4411 338.483 82.0429 337.852 84.6058C337.297 86.8253 330.995 105.801 329.529 107.559C329.263 107.949 328.859 108.223 328.399 108.327C328.068 108.34 327.738 108.272 327.438 108.129L324.466 106.99C324.213 106.912 323.978 106.784 323.777 106.613C323.498 106.288 323.347 105.872 323.351 105.444C323.138 103.026 329.455 83.9171 330.257 81.6332C332.685 74.7367 335.915 68.0879 337.496 60.9487C337.936 58.9669 338.169 55.9151 339.621 54.3346C340.22 53.6806 340.017 53.9581 340.736 54.2999C341.099 54.4575 341.45 54.6413 341.786 54.8499C342.207 55.1422 342.556 55.5248 342.81 55.9696C343.064 56.4145 343.215 56.9104 343.253 57.4212Z" fill="#464353"/>
<path d="M334.231 70.5057C333.433 74.7219 332.611 78.9281 331.793 83.1443L320.161 80.0974C320.066 78.8786 320.715 77.749 321.151 76.6293C322.212 73.9688 322.236 71.0061 323.094 68.2713C323.743 66.1905 324.872 64.2781 325.482 62.1824C325.833 60.9636 326.012 59.7052 326.358 58.4716C326.73 57.2601 327.187 56.0764 327.726 54.9292C328.379 53.2655 329.231 51.6868 330.262 50.2275C331.749 50.7824 333.334 51.4265 334.181 52.7691C334.616 53.5256 334.864 54.3748 334.905 55.2463C335.108 57.8573 334.162 60.4831 334.474 63.0792C334.795 65.5515 334.713 68.0597 334.231 70.5057Z" fill="#D9D9D9"/>
<path d="M319.968 126.589C319.314 129.066 320.26 131.672 321.033 134.124C322.196 137.818 322.99 141.619 323.401 145.47C323.451 146.45 323.649 147.417 323.986 148.338C324.352 149.166 324.977 149.864 325.403 150.652C326.572 152.723 326.542 155.25 326.289 157.618C326.121 159.178 325.868 160.734 325.556 162.27C325.175 164.148 324.704 166.11 325.254 167.943C324.332 167.74 323.708 168.934 323.768 169.87C323.827 170.806 324.129 171.852 323.678 172.659C322.539 173.075 322.529 174.641 322.564 175.855C322.545 177.96 322.279 180.055 321.771 182.097C320.047 190.388 318.217 198.655 316.282 206.899C312.095 208.197 307.205 209.549 303.212 207.751C302.469 207.419 301.726 206.889 301.557 206.086C301.514 205.654 301.568 205.217 301.716 204.808L303.608 197.922C304.069 196.257 304.53 194.538 304.287 192.829C304.104 191.555 303.549 190.183 304.173 189.058C304.386 188.672 304.723 188.37 304.971 188.003C305.962 186.551 305.441 184.609 305.362 182.85C305.331 182.456 305.358 182.058 305.441 181.671C305.577 181.219 305.767 180.785 306.006 180.378C307.57 177.342 308.321 173.952 308.186 170.539C308.127 170.103 308.187 169.66 308.36 169.256C308.48 169.089 308.587 168.913 308.682 168.73C308.755 168.412 308.719 168.079 308.578 167.784C309.145 167.353 309.658 166.854 310.104 166.298C309.829 166.127 309.596 165.896 309.424 165.622C309.251 165.348 309.144 165.039 309.108 164.717C309.073 164.396 309.111 164.07 309.22 163.766C309.329 163.461 309.506 163.185 309.737 162.959C309.535 162.918 309.348 162.822 309.197 162.682C309.046 162.541 308.937 162.362 308.883 162.163C308.828 161.964 308.829 161.754 308.886 161.556C308.943 161.358 309.054 161.18 309.207 161.041C309.45 160.873 309.772 160.799 309.945 160.546C310.213 160.179 309.995 159.669 309.777 159.278L308.622 157.192C307.76 155.641 307.567 153.724 306.64 152.237C305.313 150.072 304.446 147.66 303.589 145.272L300.254 136.071L298.01 138.018C297.262 138.589 296.636 139.304 296.167 140.119C295.848 140.925 295.646 141.773 295.567 142.636C294.745 147.63 291.604 151.96 290.44 156.88C290.182 157.975 290.009 159.124 289.379 160.06C289.154 160.348 288.952 160.653 288.775 160.972C288.611 161.459 288.526 161.969 288.522 162.483C288.418 163.489 288.099 164.461 287.586 165.333C287.073 166.205 286.379 166.957 285.55 167.536C284.445 168.295 283.073 168.815 282.473 170.014C282.353 170.385 282.187 170.74 281.978 171.069C281.443 171.713 280.288 171.787 280.06 172.595C279.931 173.046 280.169 173.586 279.917 173.982C279.773 174.166 279.583 174.307 279.367 174.393L276.141 176.003C272.535 177.807 270.692 181.949 268.031 184.966C267.112 185.949 266.299 187.025 265.603 188.176C264.454 190.232 263.924 192.814 261.982 194.122C261.46 194.392 260.985 194.745 260.575 195.167C259.965 195.97 260.188 197.094 260.134 198.105C260.079 199.116 259.306 200.32 258.345 200.012C258.682 201.236 258.682 202.529 258.345 203.753C254.126 203.536 250.102 201.906 246.921 199.126C245.979 198.303 245.073 197.253 245.063 196.004C245.048 195.789 245.096 195.574 245.201 195.385C245.392 195.141 245.643 194.951 245.93 194.835C248.947 193.2 249.854 189.41 251.38 186.333C252.712 183.618 254.684 181.28 256.334 178.758C259.921 173.333 262.368 166.769 267.793 163.187C268.987 162.399 270.375 161.7 270.974 160.397C271.306 159.669 271.346 158.837 271.608 158.084C271.871 157.33 272.5 156.597 273.303 156.597C272.857 155.507 272.946 154.18 272.916 153C272.886 152.477 272.946 151.952 273.094 151.45C273.301 150.909 273.568 150.393 273.892 149.914C275.308 147.517 276.015 144.769 275.933 141.987C275.894 140.555 275.641 139.079 276.072 137.711C276.29 137.023 276.672 136.393 276.934 135.729C277.33 134.527 277.539 133.27 277.553 132.004L277.851 127.243C277.896 125.657 278.101 124.08 278.465 122.536C279.456 118.84 280.447 103.358 283.84 101.614C287.234 99.8698 293.065 111.785 296.885 112.018C298.575 112.088 300.245 112.411 301.84 112.974C304.381 113.925 306.512 115.699 308.587 117.433L315.613 123.334C317.099 124.557 318.328 125.727 319.968 126.589Z" fill="#464353"/>
<path d="M353.686 25.5104C352.14 23.3999 349.485 22.2802 346.869 22.186C344.253 22.0919 341.677 22.9143 339.333 24.0786C338.642 24.472 337.902 24.775 337.134 24.9803C335.895 25.233 334.518 24.8961 333.398 25.4757C331.912 26.2635 331.624 28.27 331.753 29.9347C331.882 31.5993 332.194 33.4473 331.307 34.889C330.993 35.3002 330.706 35.7322 330.45 36.1821C330.069 37.0392 330.292 38.0301 330.519 38.9367C331.099 38.4413 331.426 37.6932 331.941 37.1185C332.457 36.5438 333.353 36.1573 333.992 36.5884C334.632 37.0194 334.622 37.8022 334.656 38.5057C334.691 39.2092 334.869 40.0515 335.533 40.2794C335.811 40.3425 336.1 40.321 336.365 40.2176C336.63 40.1143 336.858 39.9339 337.02 39.6997C338.154 38.3125 337.698 36.0979 338.823 34.7008C339.462 33.9081 340.527 33.5216 341.117 32.6893C341.583 32.0353 341.701 31.203 342.108 30.4995C342.514 29.7959 343.46 29.2807 344.089 29.7662C344.304 29.9714 344.483 30.2108 344.62 30.4747C345.012 31.0367 345.582 31.45 346.239 31.6477C346.895 31.8455 347.599 31.8162 348.236 31.5646C348.723 31.2656 349.251 31.037 349.802 30.8859C350.163 30.8678 350.521 30.951 350.837 31.1261C351.154 31.3012 351.414 31.5613 351.59 31.8768C351.946 32.5072 352.118 33.2246 352.086 33.9477C352.086 34.9386 351.907 35.9938 352.472 36.7865C352.687 37.085 352.956 37.3404 353.265 37.5396C354.092 38.0697 355.247 38.4264 356.01 37.822C356.268 37.5812 356.461 37.2778 356.568 36.9412C356.676 36.6046 356.695 36.2459 356.624 35.8997C356.475 35.2101 356.28 34.5315 356.039 33.8684C355.603 32.3326 356.173 30.6035 355.698 29.1568C355.199 27.854 354.522 26.6267 353.686 25.5104Z" fill="#464353"/>
<path d="M347.41 60.4628C347.485 60.8239 347.447 61.1991 347.301 61.5379C347.154 61.7686 346.953 61.9606 346.717 62.0977C345.05 63.1356 343.156 63.7497 341.197 63.8862C340.931 63.8908 340.669 63.9588 340.434 64.0844C339.969 64.3916 339.939 65.0753 340.112 65.6203C340.344 66.1344 340.463 66.6915 340.464 67.2552C340.32 68.2907 339.092 68.7415 338.056 68.8951C336.605 69.0784 335.014 68.9843 333.865 68.0776C333.086 67.3675 332.493 66.478 332.136 65.4865C329.292 58.9517 328.296 51.7282 325.418 45.2132C325.2 44.7878 325.054 44.3291 324.987 43.8557C324.956 43.6188 324.99 43.3781 325.084 43.1585C325.178 42.939 325.329 42.7486 325.522 42.6072C326.057 42.2753 326.889 42.4636 327.251 41.9434C327.429 41.6808 327.409 41.3241 327.568 41.0466C327.9 40.4571 328.772 40.5512 329.366 40.2093C329.832 39.9616 330.154 39.4513 330.674 39.3522C330.93 39.3378 331.185 39.3831 331.42 39.4846C331.654 39.5861 331.862 39.7409 332.027 39.9368C333.716 41.5123 334.603 43.7467 335.544 45.8573C336.982 49.0925 338.665 52.2129 340.578 55.1913C340.355 54.8445 341.648 52.2187 342.154 52.1048C343.04 51.9264 344.175 53.4821 344.656 54.0617C346.164 55.8901 347.119 58.1106 347.41 60.4628Z" fill="#D9D9D9"/>
<path opacity="0.1" d="M329.411 40.6699C329.767 40.6759 330.117 40.7618 330.435 40.9213C330.754 41.0808 331.032 41.3098 331.25 41.5914C331.78 42.2801 331.884 43.1917 332.017 44.0686C332.468 46.8469 333.46 49.5097 334.936 51.9064" fill="black"/>
<path opacity="0.1" d="M326.885 42.6475C327.376 42.6584 327.856 42.7971 328.277 43.0499C328.699 43.3027 329.047 43.6609 329.288 44.0892C329.616 44.8685 329.82 45.6943 329.892 46.5366C330.317 48.4042 331.136 50.1593 332.295 51.6842" fill="black"/>
<path d="M209.139 139.505V133.352C209.14 128.822 210.94 124.479 214.144 121.276C217.347 118.073 221.692 116.274 226.221 116.274H469.228C473.758 116.274 478.102 118.073 481.305 121.276C484.509 124.479 486.309 128.822 486.311 133.352V144.698L209.139 139.505Z" fill="#33323D"/>
<path d="M401.626 109.06C401.626 109.06 402.32 152.094 394.69 166.253C387.06 180.413 383.79 242.01 383.79 242.01C383.79 242.01 303.807 250.284 248.071 232.102C192.334 213.919 73.7365 206.483 73.7365 206.483L93.7224 71.7783C93.7224 71.7783 192.458 65.4467 248.625 92.2349C304.793 119.023 401.626 109.06 401.626 109.06Z" fill="#8DD070"/>
<path opacity="0.1" d="M401.626 109.06C401.626 109.06 402.32 152.094 394.69 166.253C387.06 180.413 383.79 242.01 383.79 242.01C383.79 242.01 303.807 250.284 248.071 232.102C192.334 213.919 73.7365 206.483 73.7365 206.483L93.7224 71.7783C93.7224 71.7783 192.458 65.4467 248.625 92.2349C304.793 119.023 401.626 109.06 401.626 109.06Z" fill="black"/>
<path d="M383.924 124.781C383.924 124.781 386.426 160.288 380.149 171.634C373.871 182.979 373.579 233.628 373.579 233.628C373.579 233.628 301.597 236.967 250.394 219.538C199.19 202.108 91.5917 190.802 91.5917 190.802L103.819 80.6421C103.819 80.6421 192.849 79.7256 244.81 104.26C296.772 128.794 383.924 124.781 383.924 124.781Z" fill="#8DD070"/>
<path opacity="0.1" d="M245.6 199.368C235.358 198.092 229.274 179.251 232.01 157.285C234.746 135.318 245.266 118.545 255.508 119.821C265.75 121.097 271.835 139.938 269.099 161.904C266.363 183.871 255.842 200.644 245.6 199.368Z" fill="black"/>
<path opacity="0.2" d="M147.854 6.1582C147.854 6.1582 243.775 30.4346 289.009 73.1659C334.242 115.897 429.465 136.131 429.465 136.131C429.465 136.131 416.92 177.297 405.317 188.434C393.714 199.572 371.707 257.201 371.707 257.201C371.707 257.201 293.046 240.524 245.584 206.101C198.121 171.678 87.5048 128.204 87.5048 128.204L147.854 6.1582Z" fill="black"/>
<path d="M430.906 129.968C430.906 129.968 418.367 171.139 406.774 182.276C395.18 193.413 373.163 251.038 373.163 251.038C373.163 251.038 294.493 234.366 247.025 199.943C199.557 165.52 88.9513 122.061 88.9513 122.061L149.3 0C149.3 0 245.217 24.2764 290.45 67.0078C335.683 109.739 430.906 129.968 430.906 129.968Z" fill="#8DD070"/>
<path opacity="0.1" d="M430.906 129.968C430.906 129.968 418.367 171.139 406.774 182.276C395.18 193.413 373.163 251.038 373.163 251.038C373.163 251.038 294.493 234.366 247.025 199.943C199.557 165.52 88.9513 122.061 88.9513 122.061L149.3 0C149.3 0 245.217 24.2764 290.45 67.0078C335.683 109.739 430.906 129.968 430.906 129.968Z" fill="black"/>
<path d="M409.25 139.5C409.25 139.5 400.733 174.066 391.276 182.934C381.818 191.803 366.008 239.91 366.008 239.91C366.008 239.91 296.479 220.994 253.093 188.691C209.708 156.389 110.759 112.657 110.759 112.657L156.196 11.5283C156.196 11.5283 241.208 37.9698 283.137 77.2678C325.065 116.566 409.25 139.5 409.25 139.5Z" fill="#8DD070"/>
<path opacity="0.1" d="M254.698 168.042C245.341 163.685 245.332 143.885 254.676 123.818C264.021 103.751 279.181 91.0158 288.537 95.3728C297.894 99.7297 297.903 119.529 288.559 139.596C279.214 159.663 264.054 172.399 254.698 168.042Z" fill="black"/>
<path opacity="0.1" d="M202.578 145.544V316.469C202.578 318.41 202.961 320.333 203.704 322.126C204.447 323.919 205.536 325.549 206.909 326.921C208.282 328.294 209.911 329.382 211.705 330.125C213.499 330.867 215.421 331.249 217.362 331.248H471.521C475.44 331.247 479.198 329.689 481.968 326.918C484.739 324.146 486.295 320.388 486.295 316.469V128.312C479.012 131.018 479.012 131.018 471.521 130.79H217.362C213.446 130.79 209.691 132.343 206.919 135.109C204.147 137.875 202.586 141.628 202.578 145.544Z" fill="black"/>
<path d="M202.578 147.72V318.645C202.58 322.565 204.138 326.324 206.91 329.096C209.682 331.867 213.442 333.424 217.362 333.424H471.521C475.44 333.423 479.198 331.865 481.968 329.094C484.739 326.322 486.295 322.564 486.295 318.645V130.483C479.012 133.184 479.012 133.184 471.521 132.961H217.362C213.446 132.961 209.689 134.515 206.917 137.282C204.145 140.049 202.585 143.803 202.578 147.72Z" fill="#504F60"/>
<path opacity="0.1" d="M203.302 210.912V265.574H256.314C263.499 265.477 270.357 262.555 275.403 257.44C280.45 252.325 283.279 245.428 283.279 238.243C283.279 231.057 280.45 224.161 275.403 219.046C270.357 213.931 263.499 211.009 256.314 210.912H203.302Z" fill="black"/>
<path d="M202.58 209.455V264.126H255.591C262.776 264.03 269.634 261.108 274.681 255.993C279.727 250.878 282.557 243.981 282.557 236.796C282.557 229.61 279.727 222.714 274.681 217.599C269.634 212.484 262.776 209.562 255.591 209.465L202.58 209.455Z" fill="#33323D"/>
<path opacity="0.1" d="M253.048 248.903C247.163 248.903 242.391 244.131 242.391 238.246C242.391 232.36 247.163 227.589 253.048 227.589C258.934 227.589 263.705 232.36 263.705 238.246C263.705 244.131 258.934 248.903 253.048 248.903Z" fill="black"/>
<path d="M252.326 247.455C246.44 247.455 241.669 242.684 241.669 236.798C241.669 230.913 246.44 226.142 252.326 226.142C258.211 226.142 262.982 230.913 262.982 236.798C262.982 242.684 258.211 247.455 252.326 247.455Z" fill="#D9D9D9"/>
<path d="M110.562 208.985C110.141 213.548 113.594 217.977 112.588 222.446C112.37 223.402 111.959 224.304 111.81 225.27C111.394 227.925 112.974 230.437 114.486 232.657L127.466 251.701C127.986 252.538 128.608 253.307 129.319 253.99C131.796 256.2 135.522 255.972 138.782 256.631C141.073 257.096 143.237 258.053 145.123 259.435C145.202 259.502 145.252 259.597 145.263 259.701C145.274 259.804 145.246 259.907 145.183 259.99C144.644 260.724 143.93 261.311 143.106 261.697C142.282 262.084 141.375 262.259 140.466 262.204C140.124 262.655 140.466 263.314 140.962 263.636C141.66 264.132 142.616 264.251 142.755 265.43C142.804 265.841 142.721 266.258 142.517 266.619C141.994 267.42 141.181 267.986 140.248 268.199C135.755 269.572 130.899 267.159 127.535 263.874C124.171 260.589 121.759 256.443 118.459 253.098C116.631 251.25 114.555 249.665 112.672 247.871C108.917 244.294 105.999 239.945 103.18 235.59C102.333 234.277 101.48 232.929 101.124 231.408C100.767 229.887 100.935 228.351 100.534 226.88C100.009 224.948 98.5969 223.412 97.4227 221.792C95.119 218.621 93.5831 214.742 93.8854 210.838C94.1876 206.934 96.6103 203.074 100.296 201.746C101.439 201.288 102.699 201.211 103.888 201.528C105.399 201.994 106.514 203.243 107.545 204.437L110.022 207.285C110.639 207.91 111.128 208.651 111.458 209.465C111.617 209.874 111.655 210.32 111.567 210.75C111.479 211.179 111.269 211.574 110.963 211.888" fill="#FBBEBE"/>
<path opacity="0.05" d="M110.562 208.985C110.141 213.548 113.594 217.977 112.588 222.446C112.37 223.402 111.959 224.304 111.81 225.27C111.394 227.925 112.974 230.437 114.486 232.657L127.466 251.701C127.986 252.538 128.608 253.307 129.319 253.99C131.796 256.2 135.522 255.972 138.782 256.631C141.073 257.096 143.237 258.053 145.123 259.435C145.202 259.502 145.252 259.597 145.263 259.701C145.274 259.804 145.246 259.907 145.183 259.99C144.644 260.724 143.93 261.311 143.106 261.697C142.282 262.084 141.375 262.259 140.466 262.204C140.124 262.655 140.466 263.314 140.962 263.636C141.66 264.132 142.616 264.251 142.755 265.43C142.804 265.841 142.721 266.258 142.517 266.619C141.994 267.42 141.181 267.986 140.248 268.199C135.755 269.572 130.899 267.159 127.535 263.874C124.171 260.589 121.759 256.443 118.459 253.098C116.631 251.25 114.555 249.665 112.672 247.871C108.917 244.294 105.999 239.945 103.18 235.59C102.333 234.277 101.48 232.929 101.124 231.408C100.767 229.887 100.935 228.351 100.534 226.88C100.009 224.948 98.5969 223.412 97.4227 221.792C95.119 218.621 93.5831 214.742 93.8854 210.838C94.1876 206.934 96.6103 203.074 100.296 201.746C101.439 201.288 102.699 201.211 103.888 201.528C105.399 201.994 106.514 203.243 107.545 204.437L110.022 207.285C110.639 207.91 111.128 208.651 111.458 209.465C111.617 209.874 111.655 210.32 111.567 210.75C111.479 211.179 111.269 211.574 110.963 211.888" fill="black"/>
<path d="M100.737 326.453C103.571 328.182 107.103 328.286 110.398 327.885C110.928 327.82 111.557 327.78 111.884 328.192C112.38 328.786 111.795 329.678 111.191 330.139C109.247 331.598 106.964 332.537 104.557 332.869C102.407 333.173 100.238 333.317 98.0666 333.3C92.1213 333.404 86.1761 333.503 80.325 332.651C79.9784 332.624 79.641 332.527 79.3342 332.363C78.957 332.098 78.6948 331.7 78.6009 331.249C78.1996 329.723 78.9725 328.088 80.1417 327.027C81.3109 325.967 82.8121 325.378 84.2786 324.808L89.4311 322.801C90.64 322.331 92.5771 321.082 93.89 321.181C96.3573 321.36 98.6908 325.254 100.737 326.453Z" fill="#3F3D56"/>
<path opacity="0.05" d="M100.737 326.453C103.571 328.182 107.103 328.286 110.398 327.885C110.928 327.82 111.557 327.78 111.884 328.192C112.38 328.786 111.795 329.678 111.191 330.139C109.247 331.598 106.964 332.537 104.557 332.869C102.407 333.173 100.238 333.317 98.0666 333.3C92.1213 333.404 86.1761 333.503 80.325 332.651C79.9784 332.624 79.641 332.527 79.3342 332.363C78.957 332.098 78.6948 331.7 78.6009 331.249C78.1996 329.723 78.9725 328.088 80.1417 327.027C81.3109 325.967 82.8121 325.378 84.2786 324.808L89.4311 322.801C90.64 322.331 92.5771 321.082 93.89 321.181C96.3573 321.36 98.6908 325.254 100.737 326.453Z" fill="black"/>
<path d="M97.125 258.053C99.2702 260.907 101.49 264.201 100.96 267.734C100.672 269.636 99.6071 271.316 98.8243 273.074C97.7641 275.462 97.2092 278.029 96.6642 280.585C95.8616 284.321 95.0541 288.066 94.5636 291.861C94.0038 296.147 96.6345 308.548 96.8773 312.863C96.9367 313.903 97.0606 315.028 97.7839 315.776C98.0663 316.073 98.4429 316.311 98.5717 316.698C98.6472 317.07 98.5856 317.457 98.3983 317.788C97.1894 320.512 94.7172 322.544 91.9576 323.703C89.198 324.862 82.5443 326.864 79.537 326.968C79.1406 327.012 78.7395 326.959 78.3678 326.814C77.9677 326.57 77.6528 326.209 77.4661 325.779C75.311 321.657 77.3819 307.002 77.3522 302.35C77.3224 298.471 76.4059 294.616 76.5743 290.742C76.713 287.63 77.5652 284.588 77.8476 281.487C78.343 276.404 77.4116 271.296 76.4752 266.272C75.7618 262.418 75.0434 258.563 74.1269 254.758C73.567 252.435 72.918 250.091 71.6497 248.075C70.6588 246.474 69.2666 245.137 68.1123 243.616C64.9083 239.415 63.4847 234.123 64.1488 228.882C64.2181 228.386 71.5803 230.749 72.2293 231.032C74.8775 232.153 77.314 233.72 79.433 235.664C81.1373 237.289 82.4799 239.459 83.9712 241.277C86.0817 243.85 88.1659 246.441 90.2236 249.051C92.5719 252.033 94.8724 255.034 97.125 258.053Z" fill="#464353"/>
<path opacity="0.05" d="M97.125 257.88C99.2702 260.733 101.49 264.033 100.96 267.56C100.672 269.468 99.6071 271.147 98.8243 272.906C97.7641 275.289 97.2092 277.861 96.6642 280.412C95.8616 284.153 95.0541 287.898 94.5636 291.688C94.0037 295.979 96.6345 308.374 96.8773 312.69C96.9367 313.73 97.0606 314.86 97.7839 315.608C98.0663 315.9 98.4428 316.138 98.5717 316.524C98.6476 316.897 98.586 317.284 98.3983 317.614C97.1894 320.344 94.7172 322.37 91.9576 323.56C89.198 324.749 82.5443 325.784 79.5369 325.883C79.1405 325.927 78.7394 325.874 78.3677 325.73C77.9669 325.489 77.6516 325.128 77.466 324.699C75.3109 320.577 77.3818 306.863 77.3521 302.206C77.3224 298.322 76.4058 294.472 76.5742 290.593C76.713 287.482 77.5651 284.44 77.8475 281.343C78.343 276.255 77.4115 271.147 76.4751 266.124C75.7617 262.274 75.0433 258.42 74.1268 254.61C73.5669 252.286 72.9179 249.943 71.6496 247.926C70.6587 246.326 69.2665 244.988 68.1122 243.467C64.9072 239.267 63.4835 233.974 64.1487 228.733C64.218 228.238 71.5802 230.601 72.2292 230.883C74.8767 232.008 77.3129 233.576 79.4329 235.521C81.1372 237.141 82.4799 239.311 83.9711 241.129C86.0817 243.702 88.1658 246.295 90.2235 248.907C92.5719 251.867 94.8724 254.857 97.125 257.88Z" fill="black"/>
<path d="M120.995 195.202C114.355 195.202 108.971 189.818 108.971 183.178C108.971 176.537 114.355 171.153 120.995 171.153C127.636 171.153 133.02 176.537 133.02 183.178C133.02 189.818 127.636 195.202 120.995 195.202Z" fill="#FBBEBE"/>
<path d="M110.165 182.673C109.054 184.445 107.598 185.975 105.883 187.171C104.167 188.368 102.229 189.207 100.182 189.638L101.089 192.933C102.654 198.591 104.413 204.576 108.783 208.5C108.287 206.582 108.922 204.536 110.002 202.872C111.082 201.207 112.598 199.899 114.084 198.606L121.005 192.611C121.205 192.448 121.373 192.25 121.501 192.026C121.672 191.604 121.672 191.131 121.501 190.709C120.619 187.964 118.102 186.25 116.051 184.397C115.022 183.438 114.103 182.368 113.311 181.206C111.929 179.234 111.072 181.216 110.165 182.673Z" fill="#FBBEBE"/>
<path d="M136.835 171.089L137.107 168.83C135.21 169.325 133.406 167.71 132.192 166.04C130.979 164.371 129.854 162.404 128.006 161.705C125.762 160.863 123.384 162.201 121.238 163.33C118.837 164.663 116.201 165.521 113.475 165.857C113.04 165.871 112.609 165.941 112.192 166.065C110.794 166.561 110.131 168.314 109.927 169.905C109.724 171.495 109.779 173.184 109.09 174.601C108.595 175.677 107.673 176.474 107.108 177.534C105.622 180.378 107.059 184.267 105.508 187.057L109.363 183.524C109.714 183.202 110.21 182.865 110.601 183.138C110.908 183.356 110.933 183.826 111.057 184.203C111.429 185.303 112.806 185.63 113.802 185.194C114.798 184.758 115.526 183.812 116.279 182.95C117.983 180.938 120.015 179.169 122.393 178.312C123.435 177.923 124.548 177.759 125.659 177.832C126.769 177.906 127.851 178.215 128.833 178.738C130.632 179.754 131.95 182.122 134.154 182.206C137.176 182.32 138.435 176.692 139.832 174.468C139.321 174.083 138.961 173.531 138.816 172.907C138.671 172.284 138.75 171.63 139.039 171.059C138.836 170.975 136.879 170.742 136.835 171.089Z" fill="#464353"/>
<path d="M285.559 100.791C286.525 101.651 287.418 102.589 288.229 103.596C289.046 104.617 289.48 105.89 289.458 107.197C289.454 107.577 289.333 107.945 289.111 108.253C288.998 108.4 288.842 108.508 288.664 108.562C288.487 108.617 288.297 108.614 288.12 108.555C287.921 108.453 287.751 108.304 287.625 108.119C287.101 107.49 286.546 106.888 285.96 106.316C285.747 106.103 285.465 105.88 285.178 105.959C285.049 106.005 284.933 106.081 284.841 106.182C284.507 106.47 284.265 106.849 284.142 107.272C283.969 108.03 284.41 108.788 284.91 109.382C285.41 109.977 286 110.547 286.203 111.295C286.28 111.492 286.28 111.711 286.203 111.909C286.107 112.052 285.973 112.165 285.817 112.236C285.107 112.627 284.321 112.857 283.512 112.91C282.704 112.963 281.894 112.838 281.14 112.543C280.149 112.142 279.267 111.453 278.246 111.097C277.805 110.976 277.376 110.81 276.968 110.601C276.676 110.407 276.426 110.157 276.231 109.865C276.036 109.573 275.901 109.246 275.834 108.902C275.705 108.214 275.68 107.511 275.759 106.816C275.883 104.125 276.459 101.473 277.464 98.9732C277.522 98.812 277.621 98.6686 277.751 98.5571C277.9 98.4662 278.072 98.4198 278.246 98.4233C279.515 98.2895 281.596 97.6405 282.819 98.1112C283.247 98.3458 283.617 98.6744 283.899 99.0723C284.127 99.325 285.559 100.46 285.559 100.791Z" fill="#A1616A"/>
<path d="M285.961 99.6718C285.961 98.463 287.448 95.5448 285.084 95.3516C285.084 94.0585 286.913 93.2559 286.571 91.8836C286.462 91.4278 286.075 91.0562 286.031 90.5905C285.882 89.2677 288.27 88.5493 287.874 87.281C287.725 86.7855 287.2 86.4982 287.086 86.0077C286.818 84.8632 288.865 84.3529 288.904 83.1788C288.904 82.7824 288.681 82.4108 288.701 82.0145C288.701 81.519 289.132 81.1425 289.37 80.7115C289.989 79.6067 289.687 77.8974 290.817 77.3276C290.069 77.3921 289.826 76.2823 290.133 75.6035C290.44 74.9248 291.069 74.3352 291.074 73.5822C291.037 73.3093 291.037 73.0326 291.074 72.7597C291.282 72.0364 292.466 71.9769 292.665 71.2734C292.69 71.0034 292.699 70.732 292.689 70.4609C292.769 69.9011 293.343 69.5443 293.883 69.3858C294.444 69.2905 294.984 69.0977 295.479 68.8161C295.826 68.5535 296.227 68.1175 296.598 68.3206C296.737 68.4048 296.806 68.5634 296.911 68.6823C297.356 69.2025 298.209 68.9746 298.768 68.5931C300.423 67.4685 301.246 65.452 301.597 63.4852C301.949 61.5183 301.939 59.487 302.38 57.5399C302.515 56.9331 302.693 56.337 302.915 55.7564C303.103 55.2609 303.708 54.4831 303.748 53.9827C303.837 52.8432 301.478 53.621 300.582 53.735C299.711 53.82 298.85 53.9859 298.01 54.2304C297.114 54.5691 296.236 54.9544 295.38 55.3848C291.803 56.9652 287.482 57.1584 284.609 59.814C283.663 60.6859 282.865 61.8304 281.636 62.2268C281.073 62.3348 280.517 62.4787 279.972 62.6578C278.609 63.2969 278.396 65.1052 277.653 66.4132C277.419 66.7586 277.215 67.1232 277.044 67.5031C276.9 67.9512 276.833 68.4201 276.845 68.8904L276.741 72.3237C276.573 78.0758 276.404 83.8426 277.019 89.56C277.217 91.4476 277.514 93.3897 276.954 95.203C276.806 95.6984 276.598 96.1641 276.459 96.6645C276.336 97.2512 276.273 97.8488 276.271 98.4481L276.191 100.673C276.164 100.846 276.203 101.023 276.3 101.168C276.383 101.235 276.48 101.283 276.584 101.308C276.688 101.333 276.796 101.334 276.9 101.312C279.996 101.034 283.128 99.2903 286.051 100.346" fill="#464353"/>
<path d="M144.653 270.597C124.415 270.597 108.01 268.226 108.01 265.301C108.01 262.376 124.415 260.005 144.653 260.005C164.89 260.005 181.295 262.376 181.295 265.301C181.295 268.226 164.89 270.597 144.653 270.597Z" fill="#504F60"/>
<path d="M113.129 265.559C113.773 262.799 114.174 260.377 114.174 260.377C114.174 260.377 114.025 257.374 115.373 255.12V254.367V248.818C114.989 247.811 114.52 246.838 113.971 245.91C112.98 244.166 113.971 237.775 113.971 237.775C113.971 237.775 117.672 228.763 116.775 223.046C115.878 217.328 124.375 197.659 124.375 197.659C124.323 195.763 124.055 193.878 123.577 192.041C123.487 191.655 123.45 191.258 123.468 190.862C123.468 190.813 123.468 190.768 123.468 190.718C123.468 190.669 123.468 190.748 123.468 190.763C123.597 186.993 126.58 179.928 126.58 179.928L126.178 166.462C126.178 166.462 124.276 158.535 127.377 147.858C128.462 144.137 129.156 141.16 129.597 138.861C129.646 138.603 129.696 138.366 129.736 138.113C123.349 137.122 118.469 136.329 118.469 136.329C118.469 136.329 122.175 120.827 124.677 118.112C127.179 115.397 129.181 106.871 129.181 106.871C129.181 106.871 130.484 95.9266 128.378 92.7261C126.272 89.5256 125.975 84.0064 125.975 84.0064C125.975 84.0064 121.174 80.5383 120.57 78.9678C119.966 77.3973 118.97 73.9292 118.97 72.0912C118.97 70.2531 119.569 68.6231 119.371 67.6322C119.173 66.6414 120.773 62.9801 119.971 61.2362C119.763 60.7005 119.655 60.1312 119.653 59.5566C119.652 59.5402 119.652 59.5235 119.653 59.5071C119.646 57.981 119.787 56.4578 120.075 54.959C121.463 53.7863 123.084 52.9202 124.831 52.4174L124.935 52.0012L125.207 50.9113C125.359 50.8107 125.516 50.7181 125.678 50.6338V50.2375L125.723 48.662L124.969 45.1246C123.483 38.9713 131.702 38.0547 131.702 38.0547C132.201 37.1108 133.03 36.384 134.031 36.0135C135.681 35.4338 134.303 45.2682 133.536 45.9222C132.956 46.4177 131.162 49.4795 130.295 50.9955L130.157 51.2432C130.292 51.3652 130.418 51.4977 130.533 51.6396L130.221 53.7749L130.172 54.1019C130.716 54.7783 131.159 55.5312 131.484 56.3363C131.484 56.3363 129.998 57.9811 130.281 59.8043C130.563 61.6276 129.82 63.9412 129.785 64.0651C129.874 63.9611 130.93 62.8215 131.985 63.099C133.04 63.3764 135.988 64.2633 135.988 64.2633C135.988 64.2633 138.188 64.6497 137.97 65.1352C137.752 65.6208 139.456 67.7511 139.456 67.7511L145.372 62.1428C145.431 61.9744 145.495 61.8059 145.545 61.6474C145.786 60.8387 145.952 60.0095 146.04 59.1702C145.396 59.017 144.763 58.8166 144.148 58.5707C143.526 58.3573 142.965 57.997 142.513 57.5204C141.913 56.8119 141.799 55.8508 141.557 54.9689C141.091 53.2448 140.07 51.7139 139.362 50.074C138.162 47.3029 137.775 44.2477 138.247 41.2651C138.338 40.346 138.649 39.4623 139.154 38.6889C140.12 37.3611 141.874 36.8211 143.147 35.7608C144.42 34.7006 145.243 33.0805 146.729 32.2928C148.072 31.5744 149.702 31.6586 151.218 31.9063C154.179 32.3946 157.023 33.4295 159.605 34.9582C160.467 35.4537 161.419 36.063 162.41 35.8797C163.262 35.7261 163.896 35.0474 164.431 34.3934C164.425 34.3664 164.417 34.3398 164.406 34.3142C164.43 34.29 164.452 34.2635 164.471 34.2349C165.098 35.6263 165.412 37.1381 165.392 38.6641C165.392 38.9019 165.392 39.1595 165.362 39.3726V39.6203C165.362 39.6896 165.362 39.759 165.362 39.8234C165.363 39.929 165.378 40.0341 165.407 40.1355C165.532 40.4386 165.721 40.7108 165.962 40.9332C166.144 41.1397 166.309 41.36 166.457 41.5921C166.457 41.5128 166.408 41.4336 166.378 41.3494C166.756 41.901 166.969 42.5489 166.992 43.2171C167.02 43.7036 166.861 44.1823 166.546 44.5548C166.25 44.8429 165.926 45.1017 165.58 45.3277C165.698 45.9817 165.758 46.6449 165.759 47.3094C165.748 49.2796 165.228 51.2134 164.251 52.9241C163.274 54.6348 161.872 56.0643 160.18 57.0745C160.111 57.238 160.046 57.4064 159.982 57.5699C159.224 59.5517 158.654 61.8802 158.907 64.0106C158.907 64.1642 158.951 64.3227 158.976 64.4763C159.001 64.6299 159.125 64.6398 159.189 64.724C159.189 64.724 168.964 64.8231 171.263 62.7423C173.562 60.6614 177.07 67.8304 177.07 67.8304C177.07 67.8304 180.572 68.5092 181.276 67.8304C181.979 67.1517 186.077 67.7363 186.077 67.7363C187.755 66.2434 189.94 65.4462 192.185 65.5068C193.546 64.4728 195.047 63.6386 196.644 63.0296L196.753 62.99C197.458 62.7331 198.211 62.6383 198.958 62.7126C198.958 62.7126 203.764 58.7491 205.166 56.6088C206.568 54.4685 213.241 46.5663 213.271 46.5316V46.1501L213.345 45.0007C213.544 45.0318 213.744 45.0484 213.945 45.0503C213.98 44.9363 214.029 44.8025 214.079 44.649C214.463 43.5278 214.937 42.4393 215.496 41.3939C215.496 41.3939 215.496 39.9423 215.074 39.5757C214.653 39.2091 215.248 33.8831 215.248 33.8831C215.248 33.8831 219.578 23.7614 223.457 31.3168C223.457 31.3168 230.79 36.2067 224.636 41.9042C224.636 41.9042 222.159 43.0933 221.832 44.0346C221.604 44.644 220.772 46.3533 220.212 47.5027L219.959 47.9981L220.029 48.0576L219.94 49.0088L219.9 49.3754C221.059 50.0343 221.847 50.6883 221.654 51.1788C221.313 52.0181 221.078 52.897 220.955 53.7947C220.955 53.7947 212.444 64.4565 211.344 69.0095C211.344 69.0095 188.519 82.5746 181.013 83.5407L182.341 90.3034C182.534 92.1385 182.634 93.9823 182.638 95.8275C182.539 97.2791 183.54 103.868 183.54 103.868C183.54 103.868 184.843 113.559 185.943 114.917C187.043 116.274 186.845 122.086 186.845 122.086C187.104 124.868 187.601 127.622 188.331 130.32C189.431 134.001 188.633 138.559 188.633 138.559C188.633 138.559 192.433 147.279 183.327 141.368C183.327 141.368 178.868 141.091 173.706 140.912C173.706 141.081 173.706 141.254 173.706 141.408C173.706 142.072 173.706 142.79 173.74 143.543C173.81 148.537 173.839 155.433 173.611 160.626C173.21 169.831 170.406 188.048 170.406 188.048V197.219C170.587 198.079 170.677 198.955 170.673 199.834C170.733 203.061 169.874 206.238 168.196 208.995L167.493 215.099C167.493 215.099 165.848 219.122 165.818 221.539C165.825 221.734 165.848 221.928 165.888 222.119C165.952 222.427 165.978 222.741 165.967 223.056C166.061 225.83 164.391 232.469 164.391 232.469C164.391 232.469 164.292 239.152 163.291 239.544C162.434 239.876 164.436 243.393 165.03 244.404C165.046 244.342 165.058 244.279 165.065 244.216L165.189 244.414C165.396 244.955 165.501 245.529 165.501 246.108C165.558 246.565 165.483 247.027 165.287 247.443C165.09 247.859 164.78 248.21 164.391 248.457C162.489 249.621 161.468 250.587 163.083 250.973C163.678 251.066 164.266 251.19 164.847 251.345C164.847 251.271 164.907 251.191 164.931 251.122C165.159 251.211 165.349 251.376 165.469 251.589C165.589 251.802 165.632 252.05 165.59 252.291C165.575 253.077 165.373 253.848 165.001 254.54C163.4 258.127 162.291 259.495 162.291 259.495L161.523 259.411C161.636 259.704 161.786 259.982 161.969 260.238C162.261 260.654 162.648 260.993 163.098 261.229C163.518 261.48 163.985 261.64 164.471 261.7C165.013 261.717 165.546 261.849 166.034 262.086C166.523 262.324 166.955 262.661 167.305 263.077C168.295 264.37 168.93 266.129 166.958 267.674L159.799 270.152C159.799 270.152 147.482 271.752 148.136 268.987C148.79 266.223 149.186 263.805 149.186 263.805C149.134 262.117 149.473 260.44 150.177 258.905C150.306 258.655 150.452 258.413 150.613 258.182L150.177 258.137C150.177 258.137 149.276 252.029 148.077 250.869C147.799 250.602 147.735 250.374 147.799 250.235C147.675 249.903 147.992 249.71 148.394 249.596L148.483 249.839C148.875 249.753 149.275 249.708 149.677 249.705C149.677 249.705 150.078 246.509 148.775 245.345C148.67 245.212 148.593 245.06 148.55 244.896C148.506 244.732 148.497 244.561 148.523 244.394C148.513 243.955 148.559 243.518 148.661 243.091C148.674 243.118 148.689 243.145 148.706 243.17C149.36 240.267 151.579 235.654 151.579 235.654C151.579 235.654 151.678 232.751 150.876 231.587C150.073 230.423 150.98 215.792 150.98 215.792C150.98 215.792 150.678 208.723 151.579 205.428C152.481 202.133 150.479 198.254 150.479 198.254C150.479 198.254 150.479 198.18 150.479 198.046V197.996L150.593 196.882C150.596 196.905 150.596 196.928 150.593 196.951C150.797 195.078 151.178 191.685 151.46 190.119C151.862 187.889 151.356 177.238 151.356 177.238L149.558 172.68L146.353 180.532L142.949 190.996C142.949 190.996 141.264 193.205 141.225 195.455C141.225 195.564 141.225 195.673 141.225 195.782C141.252 196.014 141.265 196.247 141.264 196.48C141.325 197.802 140.962 199.109 140.229 200.211C140.229 200.211 139.327 205.165 137.925 206.409C136.523 207.652 136.523 210.09 136.523 210.09C136.523 210.09 134.824 217.264 134.046 218.512C133.372 219.573 133.337 222.476 133.342 223.383C133.342 223.546 133.342 223.64 133.342 223.64C133.342 223.64 133.105 226.207 133.114 228.357C133.114 228.624 133.114 228.882 133.114 229.125C133.112 229.107 133.112 229.088 133.114 229.07C133.115 229.658 133.185 230.243 133.323 230.814L133.352 230.913C133.352 230.789 133.352 230.67 133.318 230.551C133.666 232.012 133.832 233.509 133.813 235.01C133.858 237.587 133.466 240.639 131.906 242.442C129.201 245.543 127.501 245.157 127.501 245.157C127.501 245.157 128.799 249.031 130.404 249.809C130.465 249.838 130.522 249.874 130.573 249.918C130.573 249.839 130.603 249.764 130.613 249.69C130.791 249.883 130.928 250.112 131.013 250.361C131.099 250.61 131.131 250.874 131.108 251.137C131.222 252.841 130.147 255.596 129.126 256.879C128.747 257.25 128.283 257.522 127.774 257.672C127.854 257.729 127.939 257.78 128.026 257.825C128.205 257.923 128.388 258.011 128.576 258.088C128.837 258.198 129.112 258.27 129.394 258.301C129.937 258.315 130.471 258.446 130.96 258.683C131.448 258.921 131.881 259.26 132.228 259.678C133.218 260.966 133.853 262.725 131.881 264.271L124.722 266.748C124.722 266.748 112.484 268.319 113.129 265.559Z" fill="url(#paint0_linear)"/>
<path d="M160.15 270.137L167.086 267.66C168.998 266.114 168.389 264.355 167.423 263.062C167.09 262.649 166.673 262.313 166.2 262.076C165.726 261.838 165.207 261.705 164.678 261.685C164.208 261.625 163.757 261.464 163.355 261.214C162.915 260.975 162.538 260.635 162.255 260.223C161.749 259.42 161.476 258.492 161.467 257.543C161.467 257.543 153.858 255.313 151.777 257.543C151.405 257.946 151.095 258.402 150.855 258.895C150.164 260.434 149.825 262.108 149.864 263.795C149.864 263.795 149.478 266.213 148.849 268.977C148.219 271.742 160.15 270.137 160.15 270.137Z" fill="#2D293D"/>
<path d="M126.241 266.718L133.177 264.241C135.09 262.695 134.48 260.936 133.514 259.648C133.184 259.234 132.769 258.896 132.296 258.659C131.823 258.421 131.304 258.289 130.775 258.271C130.501 258.243 130.233 258.171 129.982 258.058C129.799 257.98 129.62 257.893 129.447 257.795C127.51 256.73 127.559 254.114 127.559 254.114C127.559 254.114 119.954 251.884 117.869 254.114C117.589 254.416 117.345 254.748 117.14 255.105C115.837 257.359 115.981 260.366 115.981 260.366C115.981 260.366 115.594 262.789 114.99 265.549C114.386 268.308 126.241 266.718 126.241 266.718Z" fill="#2D293D"/>
<path opacity="0.1" d="M151.773 257.538C151.401 257.942 151.091 258.397 150.851 258.891L162.246 260.213C161.74 259.41 161.467 258.482 161.458 257.533C161.458 257.533 153.853 255.309 151.773 257.538Z" fill="black"/>
<path opacity="0.1" d="M117.131 255.115V257.25C118.905 260.168 127.481 259.529 129.973 258.067C129.789 257.99 129.611 257.902 129.438 257.805C127.5 256.74 127.55 254.124 127.55 254.124C127.55 254.124 119.945 251.894 117.859 254.124C117.58 254.426 117.336 254.758 117.131 255.115Z" fill="black"/>
<path d="M115.778 245.909C116.308 246.84 116.76 247.812 117.13 248.818V256.472C119.072 259.668 129.145 258.602 130.507 256.858C131.87 255.114 133.291 250.576 131.761 249.789C130.23 249.001 128.951 245.136 128.951 245.136C128.951 245.136 130.601 245.523 133.217 242.421C135.833 239.32 135.055 232.443 134.57 230.798C134.084 229.154 134.57 223.63 134.57 223.63C134.57 223.63 134.471 219.75 135.243 218.492C136.016 217.233 137.666 210.069 137.666 210.069C137.666 210.069 137.666 207.647 139.024 206.388C140.381 205.13 141.253 200.185 141.253 200.185C142.047 198.95 142.388 197.478 142.219 196.019C141.932 193.596 143.869 190.98 143.869 190.98L147.164 180.512L150.265 172.664L152.009 177.217C152.009 177.217 152.504 187.874 152.103 190.098C151.702 192.323 151.112 198.238 151.112 198.238C151.112 198.238 153.049 202.113 152.178 205.407C151.306 208.702 151.623 215.782 151.623 215.782C151.623 215.782 150.751 230.407 151.528 231.571C152.306 232.736 152.207 235.644 152.207 235.644C152.207 235.644 148.244 244.165 149.492 245.33C150.741 246.494 150.364 249.689 150.364 249.689C150.364 249.689 147.654 249.689 148.814 250.854C149.973 252.018 150.85 258.122 150.85 258.122L162.567 259.494C162.567 259.494 163.637 258.142 165.188 254.54C166.738 250.938 164.9 251.344 163.34 250.953C161.779 250.561 162.765 249.6 164.608 248.436C166.451 247.272 165.381 244.656 165.381 244.656C165.381 244.656 162.572 239.91 163.543 239.523C164.514 239.137 164.608 232.448 164.608 232.448C164.608 232.448 166.545 224.521 166.06 222.371C165.574 220.221 167.61 215.108 167.61 215.108L168.289 209.004C170.362 205.541 171.118 201.446 170.419 197.47V188.057C170.419 188.057 173.134 169.845 173.521 160.64C173.769 154.744 173.699 146.698 173.62 141.679C173.57 138.865 173.521 136.998 173.521 136.998L131.666 132.638C131.666 132.638 131.706 134.57 130.908 138.855C130.477 141.154 129.809 144.132 128.758 147.853C125.756 158.509 127.594 166.451 127.594 166.451L127.985 179.922C127.985 179.922 124.304 188.929 125.077 192.031C125.544 193.872 125.807 195.76 125.86 197.659C125.86 197.659 117.626 217.328 118.498 223.045C119.37 228.762 115.788 237.774 115.788 237.774C115.788 237.774 114.807 244.165 115.778 245.909Z" fill="#464353"/>
<path opacity="0.05" d="M139.709 195.435L126.966 193.735C126.966 193.735 134.185 201.103 139.709 195.435Z" fill="black"/>
<path opacity="0.1" d="M128.809 181.285C128.809 181.285 128.373 185.794 131.133 187.488C131.133 187.488 126.193 186.715 128.809 181.285Z" fill="black"/>
<path opacity="0.1" d="M129.592 166.947C129.592 166.947 140.244 175.716 144.118 174.988C147.993 174.26 129.592 166.947 129.592 166.947Z" fill="black"/>
<path opacity="0.1" d="M155.501 199.547C155.501 199.547 163.592 201.385 163.835 204.635C164.078 207.885 155.501 199.547 155.501 199.547Z" fill="black"/>
<path opacity="0.05" d="M153.724 239.955C153.724 239.955 165.153 242.085 161.908 243.537C158.663 244.989 153.332 246.153 153.332 246.153C153.332 246.153 149.641 246.346 153.724 239.955Z" fill="black"/>
<g opacity="0.05">
<path opacity="0.05" d="M164.217 245.845C164.504 245.666 164.748 245.424 164.929 245.137C165.11 244.851 165.224 244.527 165.262 244.19L165.381 244.394C165.381 244.394 166.447 247.009 164.603 248.169C164.395 248.303 164.192 248.436 164.009 248.565C163.667 248.501 163.3 248.451 162.949 248.362C161.388 247.976 162.374 247.009 164.217 245.845Z" fill="black"/>
<path opacity="0.05" d="M149.492 245.067C149.175 244.779 149.185 244.036 149.378 243.085C149.874 243.833 150.017 245.002 150.027 245.889C149.907 245.581 149.725 245.301 149.492 245.067Z" fill="black"/>
<path opacity="0.05" d="M151.251 196.866C151.671 198.012 151.932 199.211 152.023 200.428C151.802 199.587 151.506 198.768 151.137 197.981L151.251 196.866Z" fill="black"/>
<path opacity="0.05" d="M125.072 191.783C124.996 191.435 124.961 191.079 124.968 190.723C125.112 191.446 125.211 192.115 125.285 192.704C125.221 192.402 125.151 192.115 125.072 191.783Z" fill="black"/>
<path opacity="0.05" d="M151.524 231.313C151.366 231.076 151.277 230.273 151.237 229.158C151.596 230.021 151.786 230.944 151.797 231.878C151.729 231.68 151.638 231.49 151.524 231.313Z" fill="black"/>
<path opacity="0.05" d="M149.147 249.585C149.747 251.528 150.193 253.516 150.479 255.53L162.196 256.883C162.196 256.883 163.267 255.53 164.817 251.928C164.942 251.65 165.053 251.366 165.149 251.076C165.853 251.398 166.14 252.127 165.209 254.252C163.658 257.839 162.583 259.206 162.583 259.206L150.866 257.849C150.866 257.849 149.994 251.745 148.834 250.581C148.24 250.021 148.606 249.729 149.147 249.585Z" fill="black"/>
<path opacity="0.05" d="M164.603 232.186C164.603 232.186 164.509 238.869 163.538 239.256C163.043 238.151 162.721 237.1 163.157 236.927C164.148 236.541 164.222 229.852 164.222 229.852C164.222 229.852 166.159 221.925 165.673 219.775C165.188 217.625 167.224 212.512 167.224 212.512L167.903 206.408C169.976 202.944 170.732 198.85 170.033 194.874V185.461C170.033 185.461 172.748 167.249 173.135 158.044C173.382 152.148 173.313 144.102 173.234 139.083C173.234 138.177 173.204 137.374 173.189 136.695L173.521 136.73C173.521 136.73 173.576 138.593 173.62 141.412C173.699 146.431 173.774 154.477 173.521 160.367C173.135 169.572 170.425 187.79 170.425 187.79V197.203C171.12 201.178 170.362 205.27 168.289 208.732L167.616 214.836C167.616 214.836 165.579 219.968 166.065 222.104C166.55 224.239 164.603 232.186 164.603 232.186Z" fill="black"/>
<path opacity="0.05" d="M130.11 254.273C131.062 252.894 131.697 251.323 131.968 249.67C133.162 250.75 131.79 254.941 130.482 256.606C129.129 258.35 119.052 259.415 117.105 256.215V254.372C119.746 256.963 128.832 255.922 130.11 254.273Z" fill="black"/>
<path opacity="0.05" d="M115.387 243.323C115.918 244.254 116.372 245.227 116.744 246.231V247.604C116.521 247.108 116.209 246.445 115.753 245.662C115.447 244.899 115.302 244.081 115.327 243.259C115.327 243.259 115.372 243.303 115.387 243.323Z" fill="black"/>
<path opacity="0.05" d="M129.517 244.854C129.148 244.108 128.829 243.338 128.561 242.55C128.561 242.55 130.21 242.937 132.826 239.835C134.729 237.581 134.838 233.32 134.565 230.536C135.061 232.186 135.829 239.063 133.213 242.164C131.504 244.19 130.21 244.725 129.517 244.854Z" fill="black"/>
<path opacity="0.05" d="M134.569 223.367C134.398 225.276 134.334 227.193 134.376 229.109C134.327 228.807 134.261 228.507 134.178 228.213C133.682 226.563 134.178 221.044 134.178 221.044C134.178 221.044 134.079 217.164 134.857 215.906C135.634 214.648 137.254 207.474 137.254 207.474C137.254 207.474 137.254 205.051 138.612 203.793C139.969 202.534 140.841 197.59 140.841 197.59C141.642 196.357 141.992 194.885 141.832 193.423C141.54 191 143.477 188.385 143.477 188.385L146.772 177.921L149.873 170.073L151.622 174.631C151.622 174.631 151.622 175.206 151.682 176.118L150.265 172.417L147.163 180.249L143.869 190.713C143.869 190.713 141.931 193.329 142.224 195.752C142.384 197.213 142.034 198.685 141.233 199.918C141.233 199.918 140.361 204.873 139.003 206.121C137.646 207.37 137.651 209.802 137.651 209.802C137.651 209.802 136.001 216.971 135.228 218.225C134.455 219.478 134.569 223.367 134.569 223.367Z" fill="black"/>
</g>
<path d="M126.435 45.1096L127.163 48.647L127.119 50.2225L127.089 51.3818L131.132 51.798L131.583 50.9607C132.42 49.4447 134.159 46.3631 134.719 45.8874C135.467 45.2632 136.8 35.4238 135.214 36.0084C134.238 36.3854 133.437 37.1109 132.965 38.0447C132.965 38.0447 125.003 38.9563 126.435 45.1096Z" fill="#FFCDD3"/>
<path opacity="0.1" d="M127.088 51.3815L131.131 51.7977L131.582 50.9604C131.038 50.3413 130.297 49.9299 129.484 49.7962C128.671 49.6625 127.836 49.8148 127.123 50.2271L127.088 51.3815Z" fill="black"/>
<path d="M126.069 53.299L131.4 54.5327L131.514 53.74L131.816 51.6046C131.816 51.6046 129.706 48.7906 126.654 50.9011L126.386 51.9861L126.069 53.299Z" fill="#D9D9D9"/>
<path d="M212.423 45.4955L218.115 48.5474L218.611 47.4773C219.151 46.3427 219.958 44.6335 220.181 44.0092C220.518 43.0679 222.891 41.8788 222.891 41.8788C228.837 36.1863 221.752 31.2914 221.752 31.2914C217.996 23.736 213.825 33.8577 213.825 33.8577C213.825 33.8577 213.24 39.1936 213.652 39.5503C214.063 39.907 214.063 41.3685 214.063 41.3685C213.52 42.4157 213.061 43.5041 212.69 44.6236C212.517 45.1636 212.423 45.4955 212.423 45.4955Z" fill="#FFCDD3"/>
<path opacity="0.1" d="M212.423 45.4962L218.116 48.5481L218.611 47.478C217.809 46.8042 214.96 44.5054 214.024 44.5995C213.577 44.6553 213.125 44.6669 212.676 44.6342C212.518 45.1643 212.423 45.4962 212.423 45.4962Z" fill="black"/>
<path d="M211.843 47.2153L218.239 50.3663L218.368 48.994L218.457 48.0427C218.457 48.0427 214.751 44.867 213.656 44.9908C213.103 45.0711 212.54 45.0711 211.987 44.9908L211.912 46.1403L211.843 47.2153Z" fill="#D9D9D9"/>
<path d="M141.938 68.6084C141.938 68.6084 169.821 71.7544 164.609 70.06C160.982 68.8759 159.54 66.5919 159.238 64.0157C158.99 61.8704 159.545 59.5568 160.274 57.575C160.929 55.817 161.759 54.129 162.751 52.5364C162.751 52.5364 141.447 40.8144 145.703 51.4712C146.359 53.0831 146.767 54.7854 146.912 56.5197C147.04 58.2433 146.853 59.9757 146.362 61.6326C145.558 64.3212 144.027 66.7353 141.938 68.6084Z" fill="#FFCDD3"/>
<path opacity="0.1" d="M145.717 51.4556C146.373 53.0675 146.781 54.7698 146.926 56.5041C148.932 58.1936 151.132 58.0796 153.961 58.0796C156.131 58.0796 158.539 58.6048 160.273 57.5594C160.928 55.8013 161.758 54.1134 162.75 52.5208C162.75 52.5208 141.451 40.7988 145.717 51.4556Z" fill="black"/>
<path d="M154.338 58.8232C147.971 58.8232 142.81 53.6616 142.81 47.2944C142.81 40.9272 147.971 35.7656 154.338 35.7656C160.706 35.7656 165.867 40.9272 165.867 47.2944C165.867 53.6616 160.706 58.8232 154.338 58.8232Z" fill="#FFCDD3"/>
<path opacity="0.1" d="M141.938 68.6077C141.938 68.6077 169.821 71.7538 164.609 70.0594C160.982 68.8753 159.54 66.5913 159.238 64.015C157.851 62.5287 155.062 61.4239 153.293 60.8492C151.658 60.2993 149.892 60.2699 148.239 60.765C147.59 60.9608 146.971 61.2477 146.401 61.6171C145.589 64.3156 144.044 66.7356 141.938 68.6077Z" fill="black"/>
<path opacity="0.1" d="M126.069 53.2986L131.4 54.5323L131.514 53.7396C130.943 52.9555 130.144 52.3665 129.227 52.0526C128.309 51.7388 127.317 51.7154 126.386 51.9857L126.069 53.2986Z" fill="black"/>
<path opacity="0.1" d="M211.844 47.2148L218.24 50.3658L218.369 48.9934C216.297 47.8795 214.144 46.9239 211.929 46.1348L211.844 47.2148Z" fill="black"/>
<path opacity="0.1" d="M130.909 138.866C141.715 140.59 157.073 142.79 159.511 142.047C161.537 141.433 167.998 141.497 173.621 141.69C173.572 138.876 173.522 137.008 173.522 137.008L131.667 132.648C131.667 132.648 131.707 134.581 130.909 138.866Z" fill="black"/>
<path d="M120.139 136.329C120.139 136.329 155.697 142.433 159.512 141.284C163.326 140.134 182.921 141.378 182.921 141.378C191.74 147.288 188.059 138.569 188.059 138.569C188.059 138.569 188.831 134.016 187.766 130.334C187.051 127.632 186.562 124.874 186.305 122.09C186.305 122.09 186.498 116.274 185.433 114.917C184.368 113.559 183.104 103.873 183.104 103.873C183.104 103.873 182.138 97.284 182.232 95.8323C182.326 94.3807 181.945 90.3082 181.945 90.3082L180.682 83.5257C187.95 82.5596 210.041 68.9945 210.041 68.9945C211.106 64.4415 219.34 53.7846 219.34 53.7846C219.46 52.8885 219.688 52.0102 220.019 51.1687C220.599 49.618 211.879 46.5166 211.879 46.5166C211.879 46.5166 205.389 54.4436 204.031 56.5938C202.674 58.744 198.027 62.6975 198.027 62.6975C197.305 62.6233 196.575 62.7183 195.896 62.975L195.782 63.0097C194.225 63.6211 192.765 64.4555 191.447 65.4869C189.263 65.435 187.143 66.2345 185.537 67.7163C185.537 67.7163 181.573 67.1317 180.885 67.8105C180.196 68.4892 176.817 67.8105 176.817 67.8105C176.817 67.8105 173.428 60.6415 171.199 62.7223C168.969 64.8032 159.512 64.7041 159.512 64.7041C158.253 63.0295 155.186 61.8305 153.269 61.236C151.633 60.6884 149.869 60.659 148.216 61.1518C147.503 61.3646 146.832 61.6999 146.234 62.1427L140.482 67.7609C140.482 67.7609 138.837 65.6256 139.03 65.145C139.223 64.6644 137.093 64.273 137.093 64.273C137.093 64.273 134.284 63.4011 133.219 63.1088C132.154 62.8165 131.178 63.9708 131.088 64.0749C131.123 63.951 131.851 61.5977 131.584 59.8141C131.316 58.0305 132.748 56.3461 132.748 56.3461C129.359 48.0128 121.705 54.9886 121.705 54.9886C121.705 54.9886 120.833 59.5416 121.606 61.2856C122.379 63.0295 120.833 66.7106 121.026 67.6816C121.219 68.6527 120.635 70.2975 120.635 72.1406C120.635 73.9836 121.626 77.4665 122.185 79.0172C122.745 80.5679 127.417 84.0558 127.417 84.0558C127.417 84.0558 127.71 89.5799 129.746 92.7755C131.782 95.971 130.504 106.9 130.504 106.9C130.504 106.9 128.567 115.427 126.144 118.142C123.721 120.857 120.139 136.329 120.139 136.329Z" fill="#3F3D56"/>
<path opacity="0.1" d="M171.971 72.5767C171.971 72.5767 173.036 69.3812 174.007 69.1087C174.971 68.7541 175.91 68.3336 176.816 67.8502L176.192 66.6562C176.192 66.6562 172.556 67.6471 171.971 68.7222C171.386 69.7973 171.971 72.5767 171.971 72.5767Z" fill="black"/>
<path opacity="0.1" d="M191.447 65.5063C191.64 66.4972 200.266 67.3444 200.266 67.3444L195.906 62.9746L195.797 63.0142C194.233 63.6289 192.768 64.4685 191.447 65.5063Z" fill="black"/>
<path d="M216.397 52.9823C215.97 52.9823 215.624 52.6363 215.624 52.2094C215.624 51.7826 215.97 51.4365 216.397 51.4365C216.824 51.4365 217.17 51.7826 217.17 52.2094C217.17 52.6363 216.824 52.9823 216.397 52.9823Z" fill="#575988"/>
<path d="M215.407 54.5331C214.98 54.5331 214.634 54.187 214.634 53.7602C214.634 53.3333 214.98 52.9873 215.407 52.9873C215.834 52.9873 216.18 53.3333 216.18 53.7602C216.18 54.187 215.834 54.5331 215.407 54.5331Z" fill="#575988"/>
<path d="M214.434 55.9647C214.007 55.9647 213.661 55.6187 213.661 55.1918C213.661 54.765 214.007 54.4189 214.434 54.4189C214.861 54.4189 215.207 54.765 215.207 55.1918C215.207 55.6187 214.861 55.9647 214.434 55.9647Z" fill="#575988"/>
<path d="M213.419 57.5106C212.992 57.5106 212.646 57.1646 212.646 56.7377C212.646 56.3109 212.992 55.9648 213.419 55.9648C213.845 55.9648 214.191 56.3109 214.191 56.7377C214.191 57.1646 213.845 57.5106 213.419 57.5106Z" fill="#575988"/>
<path d="M122.09 57.2828C121.742 57.2828 121.46 57.0011 121.46 56.6536C121.46 56.3061 121.742 56.0244 122.09 56.0244C122.437 56.0244 122.719 56.3061 122.719 56.6536C122.719 57.0011 122.437 57.2828 122.09 57.2828Z" fill="#575988"/>
<path d="M121.992 58.7145C121.644 58.7145 121.363 58.4327 121.363 58.0853C121.363 57.7378 121.644 57.4561 121.992 57.4561C122.339 57.4561 122.621 57.7378 122.621 58.0853C122.621 58.4327 122.339 58.7145 121.992 58.7145Z" fill="#575988"/>
<path d="M121.908 60.1412C121.56 60.1412 121.279 59.8595 121.279 59.512C121.279 59.1645 121.56 58.8828 121.908 58.8828C122.255 58.8828 122.537 59.1645 122.537 59.512C122.537 59.8595 122.255 60.1412 121.908 60.1412Z" fill="#575988"/>
<path opacity="0.1" d="M171.937 98.8343C172.031 98.7204 150.188 126.301 133.234 110.363C133.219 110.368 160.007 114 171.937 98.8343Z" fill="black"/>
<path opacity="0.1" d="M184.471 113.173C184.471 113.173 171.401 113.53 170.034 117.29V121.204C170.406 121.41 170.824 121.519 171.25 121.519C171.676 121.519 172.094 121.41 172.466 121.204C173.784 120.49 181.686 116.477 184.471 118.41V113.173Z" fill="black"/>
<path d="M184.229 113.173C184.229 113.173 171.729 113.515 170.421 117.102V120.827C170.777 121.025 171.178 121.129 171.585 121.129C171.992 121.129 172.393 121.025 172.749 120.827C174.008 120.154 181.563 116.324 184.229 118.167V113.173Z" fill="#3F3D56"/>
<path opacity="0.1" d="M177.336 84.7939C176.001 87.8847 174.299 90.8039 172.268 93.4889C170.058 96.4566 167.381 99.0452 164.341 101.153C164.341 101.153 177.118 86.5874 177.336 84.7939Z" fill="black"/>
<path opacity="0.1" d="M181.611 69.6084C181.611 69.6084 179.431 79.0217 173.813 82.2172L181.611 69.6084Z" fill="black"/>
<path opacity="0.1" d="M184.956 70.5596C185.01 70.3862 186.893 77.9911 177.712 82.2172C177.712 82.2172 181.612 80.8943 184.956 70.5596Z" fill="black"/>
<path opacity="0.1" d="M127.887 64.2485C128.031 64.2485 123.359 67.2211 122.086 68.6083C122.086 68.6083 125.128 64.0503 127.887 64.2485Z" fill="black"/>
<path d="M157.455 57.7434C157.453 57.9949 157.399 58.2433 157.297 58.473C157.194 58.7026 157.045 58.9084 156.859 59.0774C156.672 59.2464 156.453 59.375 156.215 59.4549C155.976 59.5349 155.724 59.5645 155.473 59.5418C151.96 59.7598 148.299 59.9134 145.069 58.551C144.463 58.3347 143.919 57.9742 143.484 57.5006C142.909 56.7922 142.795 55.831 142.562 54.9491C142.106 53.225 141.135 51.6941 140.437 50.0542C139.255 47.2836 138.859 44.2411 139.292 41.2602C139.384 40.3465 139.685 39.4664 140.174 38.6889C141.105 37.3562 142.805 36.8162 144.038 35.7559C145.272 34.6957 146.065 33.0756 147.506 32.2879C148.804 31.5646 150.395 31.6537 151.856 31.9015C154.731 32.3896 157.486 33.4239 159.972 34.9484C160.809 35.4438 161.725 36.0532 162.687 35.8699C163.529 35.7114 164.143 35.0029 164.668 34.339C165.344 35.9245 165.628 37.6493 165.496 39.3677C165.459 39.6198 165.468 39.8765 165.521 40.1257C165.642 40.427 165.826 40.699 166.061 40.9234C166.928 41.9142 167.468 43.5244 166.61 44.545C166.239 44.9859 165.664 45.2287 165.303 45.6795C164.654 46.4871 164.872 47.6613 164.886 48.6918C164.922 49.0516 164.831 49.4126 164.629 49.7124C164.441 49.8871 164.212 50.0104 163.963 50.0703C163.714 50.1302 163.453 50.1247 163.207 50.0542C162.716 49.9064 162.201 49.8576 161.691 49.9106C161.154 50.0852 160.69 50.4339 160.373 50.9014C158.773 52.9872 158.139 55.2563 157.455 57.7434Z" fill="#2D293D"/>
<g opacity="0.1">
<path opacity="0.1" d="M143.072 56.6229C143.508 57.0964 144.052 57.4569 144.658 57.6732C147.908 59.0257 151.564 58.8721 155.062 58.6641C155.438 58.6678 155.809 58.5847 156.147 58.4213C156.682 58.1092 156.885 57.4552 157.049 56.8607C157.732 54.3835 158.362 52.1094 159.987 50.0435C160.3 49.5669 160.764 49.2093 161.305 49.0278C161.814 48.9797 162.329 49.0285 162.821 49.1715C163.067 49.2426 163.327 49.2489 163.576 49.1899C163.825 49.1308 164.055 49.0085 164.242 48.8346C164.445 48.5348 164.536 48.1738 164.5 47.814C164.5 46.7736 164.267 45.6093 164.916 44.8018C165.278 44.3509 165.853 44.1081 166.224 43.6622C166.467 43.3335 166.615 42.9452 166.655 42.5387C166.694 42.1321 166.622 41.7226 166.447 41.3535C167.066 42.3444 167.329 43.5879 166.611 44.4401C166.239 44.881 165.664 45.1238 165.303 45.5746C164.654 46.3871 164.872 47.5564 164.887 48.5869C164.925 48.9462 164.835 49.3074 164.634 49.6075C164.446 49.783 164.216 49.9068 163.966 49.9667C163.715 50.0267 163.454 50.0207 163.207 49.9493C162.716 49.8015 162.201 49.7526 161.691 49.8057C161.154 49.9803 160.69 50.329 160.373 50.7965C158.753 52.8625 158.119 55.1316 157.435 57.6187C157.355 58.2307 157.049 58.7908 156.578 59.1892C156.238 59.3529 155.865 59.4344 155.488 59.427C151.975 59.645 148.314 59.8036 145.084 58.4361C144.477 58.2213 143.933 57.8606 143.499 57.3858C143.28 57.1067 143.112 56.7915 143.003 56.4544C142.998 56.5188 143.033 56.5733 143.072 56.6229Z" fill="black"/>
<path opacity="0.1" d="M165.497 39.8229C165.341 39.6539 165.221 39.455 165.145 39.2383C165.1 38.9876 165.1 38.731 165.145 38.4803C165.242 37.0677 165.058 35.6501 164.605 34.3087L164.669 34.2344C165.347 35.8174 165.631 37.5413 165.497 39.2581C165.482 39.4461 165.482 39.6349 165.497 39.8229Z" fill="black"/>
</g>
<path opacity="0.1" d="M159.51 64.7292C159.51 64.7292 145.107 66.6416 143.814 64.4766L159.51 64.7292Z" fill="black"/>
<path opacity="0.1" d="M131.514 58.7686C131.514 58.7686 123.507 58.7685 121.749 61.7808L131.514 58.7686Z" fill="black"/>
<path d="M86.7211 326.379C89.0958 328.502 92.1816 329.655 95.3665 329.609C96.179 329.609 97.3036 329.763 97.3086 330.575C97.289 330.814 97.207 331.043 97.0708 331.239C96.0654 332.915 94.4781 334.162 92.6119 334.742C90.8779 335.267 89.0249 335.178 87.2166 335.084L81.9402 334.811C80.9493 334.757 79.9584 334.707 78.9676 334.583C77.9767 334.459 76.8967 334.256 75.8612 334.088C73.3169 333.726 70.7439 333.607 68.177 333.731C67.4933 333.756 66.6907 333.731 66.2844 333.236C65.8782 332.74 66.0862 331.794 66.2398 331.051C66.5569 329.52 66.2398 327.915 66.5321 326.379C67.0276 323.684 69.3611 321.618 71.9175 320.642C74.2956 319.74 78.5068 318.705 80.7561 320.211C83.1292 321.791 84.5809 324.432 86.7211 326.379Z" fill="#3F3D56"/>
<path d="M81.4794 236.08C81.0137 238.295 78.8685 239.989 78.8091 242.248C78.7546 244.061 80.0476 245.582 80.979 247.133C81.8567 248.739 82.5976 250.417 83.1937 252.147C84.9474 256.653 87.1238 260.982 89.6938 265.078C90.9324 267.06 92.3196 269.175 92.0372 271.479C91.8399 272.556 91.4595 273.592 90.9126 274.541L87.1968 281.923C86.3829 283.397 85.746 284.962 85.2993 286.585C84.9772 287.987 84.9475 289.439 84.7592 290.865C84.1746 295.394 82.0492 299.952 83.3076 304.341C83.4166 304.718 83.803 305.174 84.1053 304.911C82.8766 307.205 81.8907 309.514 81.9848 312.115C82.0343 313.477 82.4505 314.899 81.9501 316.167C81.7371 316.697 81.3655 317.193 81.3705 317.763C81.3705 318.139 81.5439 318.491 81.5835 318.858C81.6875 319.903 80.7264 320.775 79.7306 321.107C78.7347 321.439 77.6497 321.414 76.644 321.716C74.7118 322.296 73.3295 323.961 71.6896 325.115C70.0072 326.274 68.0244 326.919 65.9822 326.973C65.6908 327.004 65.3969 326.945 65.1399 326.804C64.9943 326.677 64.8775 326.52 64.7972 326.344C64.7169 326.168 64.6749 325.977 64.6742 325.784C64.5845 324.858 64.7237 323.925 65.0797 323.066C65.4357 322.208 65.9974 321.45 66.7154 320.859C67.0302 320.662 67.2907 320.39 67.4735 320.066C67.566 319.78 67.5897 319.477 67.5428 319.18C67.2437 315.119 67.3167 311.039 67.7608 306.992C67.9611 305.709 68.0258 304.409 67.954 303.113C67.85 302.033 67.523 300.962 67.6419 299.887C67.7608 298.812 68.3107 297.831 68.6328 296.796C69.2075 294.953 69.0489 292.971 69.1282 291.044C69.2273 287.695 69.9952 284.405 70.7582 281.135C71.0604 279.852 71.3924 278.509 72.299 277.558C73.0719 276.75 74.3204 275.978 74.0281 274.902C73.8662 274.506 73.6251 274.147 73.3196 273.847C72.9608 273.397 72.6976 272.878 72.5459 272.323C72.3943 271.767 72.3575 271.187 72.4377 270.617C72.1118 270.7 71.7672 270.667 71.4627 270.525C71.1581 270.382 70.9126 270.138 70.7681 269.834C64.7337 266.985 59.8685 261.288 57.6985 254.971C57.5705 254.502 57.3735 254.054 57.1138 253.643C56.554 252.86 55.5829 252.524 54.7209 252.093C52.0158 250.73 50.148 248.179 48.4338 245.682C47.4429 244.235 46.452 242.739 46.0061 241.034C45.7717 239.932 45.6604 238.807 45.6742 237.68L45.5206 231.859C45.4869 231.476 45.5239 231.089 45.6296 230.719C45.7766 230.374 45.9904 230.061 46.2588 229.798C47.9066 228.055 50.0707 226.888 52.432 226.469C54.0174 226.186 55.6374 226.241 57.2427 226.107C60.354 225.849 63.4257 224.883 66.5371 225.116C71.427 225.478 75.7819 228.866 78.0857 233.197C78.8933 234.723 79.7454 236.05 81.4794 236.08Z" fill="#464353"/>
<path d="M108.63 198.229C108.564 199.128 108.685 200.03 108.987 200.879C109.368 201.692 110.324 202.326 111.162 201.994C110.909 201.424 111.578 200.775 112.202 200.845C112.509 200.916 112.794 201.06 113.033 201.265C113.273 201.471 113.458 201.731 113.574 202.024C113.988 202.856 114.127 203.798 113.971 204.714C113.773 205.854 113.114 206.949 113.287 208.093C113.426 209.044 114.124 209.991 113.753 210.872C113.512 211.275 113.209 211.638 112.856 211.948C112.366 212.55 112.127 213.318 112.187 214.093C112.247 214.867 112.602 215.589 113.178 216.109L103.804 216.297C104.146 217.863 103.443 219.463 102.64 220.855C100.392 224.683 97.288 227.938 93.5712 230.364C89.8544 232.791 85.6259 234.323 81.2174 234.842C81.4558 234.981 81.6602 235.171 81.816 235.399C81.9718 235.627 82.075 235.887 82.1181 236.159C82.1613 236.432 82.1433 236.711 82.0655 236.975C81.9877 237.24 81.852 237.484 81.6683 237.69C80.9053 238.448 79.6122 238.354 78.656 237.864C77.6998 237.373 76.9517 236.561 76.0798 235.932C74.5404 234.841 72.6625 234.335 70.7836 234.505C69.6094 234.619 68.4699 235 67.2907 235.06C63.8227 235.243 60.8501 232.746 57.5108 231.725C55.0782 230.977 52.3186 230.977 50.2774 229.456C49.3956 228.802 48.6722 227.727 48.9299 226.667C49.143 226.058 49.4805 225.499 49.9207 225.027C51.0949 223.506 51.7885 221.678 52.6307 219.949C54.2994 216.526 56.5968 213.447 59.4034 210.872C61.5218 209.021 63.7666 207.319 66.1215 205.779C66.6908 205.359 67.2979 204.993 67.9348 204.684C68.7572 204.323 69.6688 204.149 70.412 203.694C71.5119 203 72.146 201.776 72.9932 200.79C74.8511 198.62 77.7048 197.624 79.9937 195.92C81.5296 194.776 82.8871 193.27 84.7202 192.72C85.612 192.447 86.5582 192.427 87.45 192.16C89.4763 191.545 90.9528 189.747 92.9395 189.019C94.51 188.444 96.244 188.593 97.8938 188.389C99.7535 188.16 101.53 187.484 103.071 186.418C103.568 186.013 104.124 185.689 104.721 185.457C107.233 184.694 107.436 189.37 107.694 190.991C108.025 193.398 108.63 195.791 108.63 198.229Z" fill="#D9D9D9"/>
<path d="M106.183 213.915C105.762 218.483 109.21 222.907 108.204 227.381C107.991 228.332 107.58 229.239 107.431 230.205C107.01 232.855 108.596 235.367 110.107 237.587L123.087 256.636C123.608 257.473 124.231 258.241 124.94 258.925C127.417 261.13 131.143 260.907 134.403 261.561C136.693 262.031 138.855 262.988 140.745 264.365C140.83 264.431 140.886 264.527 140.9 264.634C140.915 264.74 140.888 264.848 140.824 264.935C140.286 265.668 139.572 266.254 138.75 266.641C137.927 267.028 137.02 267.203 136.112 267.149C135.77 267.595 136.112 268.259 136.583 268.581C137.276 269.077 138.238 269.191 138.376 270.375C138.423 270.786 138.34 271.202 138.139 271.564C137.614 272.362 136.801 272.927 135.869 273.139C131.376 274.517 126.521 272.099 123.157 268.814C119.793 265.529 117.38 261.383 114.08 258.043C112.252 256.19 110.176 254.61 108.293 252.817C104.538 249.235 101.615 244.89 98.8009 240.535C97.9537 239.222 97.0966 237.874 96.7448 236.353C96.3931 234.832 96.5566 233.291 96.1553 231.82C95.6301 229.893 94.2181 228.352 93.044 226.737C90.7402 223.566 89.1994 219.687 89.5065 215.778C89.8137 211.869 92.2314 208.014 95.9175 206.686C97.0608 206.232 98.3195 206.156 99.5094 206.468C101.02 206.934 102.135 208.183 103.166 209.382L105.643 212.225C106.246 212.855 106.719 213.598 107.035 214.41C107.195 214.82 107.233 215.267 107.145 215.697C107.057 216.128 106.847 216.524 106.54 216.838" fill="#FBBEBE"/>
<path d="M99.6029 195.177C101.307 195.276 103.185 195.444 104.389 196.663C104.894 197.223 105.302 197.862 105.598 198.556C106.767 200.939 107.906 203.431 107.991 206.086C108.06 208.207 107.446 210.283 107.124 212.378C106.856 214.122 107.535 215.901 107.664 217.665C105.548 217.016 102.754 216.134 100.837 215.039C99.5286 214.291 98.2652 213.439 96.8383 212.963C94.8021 212.284 91.3885 213.458 89.4514 214.4C89.3473 213.042 90.3679 210.674 90.2589 209.312C90.2438 208.738 90.1419 208.17 89.9567 207.627C89.667 207.053 89.3236 206.507 88.9312 205.997C88.1937 204.798 87.8546 203.397 87.9623 201.993C88.0699 200.59 88.6189 199.256 89.5306 198.184C91.2498 196.252 93.94 195.529 96.5064 195.211C98.1226 195.024 99.7513 194.968 101.377 195.043" fill="#D9D9D9"/>
</g>
<defs>
<linearGradient id="paint0_linear" x1="170.114" y1="270.598" x2="170.114" y2="28.4977" gradientUnits="userSpaceOnUse">
<stop stop-color="#808080" stop-opacity="0.25"/>
<stop offset="0.54" stop-color="#808080" stop-opacity="0.12"/>
<stop offset="1" stop-color="#808080" stop-opacity="0.1"/>
</linearGradient>
<clipPath id="clip0">
<rect width="520" height="336.198" fill="white" transform="matrix(-1 0 0 1 520 0)"/>
</clipPath>
</defs>
</svg>
