<svg width="478" height="340" viewBox="0 0 478 340" fill="none" xmlns="http://www.w3.org/2000/svg">
<g clip-path="url(#clip0)">
<path d="M382.637 306.774C373.953 318.403 355.927 319.627 355.927 319.627C355.927 319.627 351.98 301.996 360.664 290.366C369.348 278.736 387.375 277.512 387.375 277.512C387.375 277.512 391.321 295.144 382.637 306.774Z" fill="#E6E6E6"/>
<path d="M338.397 311.146C344.128 318.82 356.023 319.628 356.023 319.628C356.023 319.628 358.627 307.993 352.897 300.319C347.166 292.645 335.271 291.837 335.271 291.837C335.271 291.837 332.667 303.472 338.397 311.146Z" fill="#E6E6E6"/>
<path d="M0.320007 319.067H400.207V320.417H0.320007V319.067Z" fill="#3F3D56"/>
<path d="M17.2867 71.4951L13.803 73.237C13.803 73.237 -5.06686 120.557 1.31989 131.879C7.70664 143.201 27.7377 164.394 27.7377 164.394L31.5117 153.652L16.0769 120.189L17.2867 71.4951Z" fill="#EFEFEF"/>
<path opacity="0.1" d="M17.2867 71.4951L13.803 73.237C13.803 73.237 -5.06686 120.557 1.31989 131.879C7.70664 143.201 27.7377 164.394 27.7377 164.394L31.5117 153.652L16.0769 120.189L17.2867 71.4951Z" fill="black"/>
<path d="M21.0615 308.096C21.0615 308.096 16.1263 319.418 18.7391 320.289C21.3518 321.16 24.5452 321.16 27.7385 321.16C30.9319 321.16 34.7059 319.998 35.2865 318.837C35.8671 317.676 32.9641 310.128 32.9641 310.128L21.0615 308.096Z" fill="#EFEFEF"/>
<path d="M87.5409 313.902C87.5409 313.902 84.3476 324.063 85.7991 324.643C87.2506 325.224 91.8955 327.836 94.5083 326.966C97.121 326.095 101.185 324.063 102.056 323.192C102.927 322.321 102.056 317.676 102.056 317.676L97.992 311.87L87.5409 313.902Z" fill="#EFEFEF"/>
<path d="M30.3498 162.942L26.1884 164.394C26.1884 164.394 25.1243 174.264 26.2855 177.748C27.4468 181.231 30.0595 206.488 28.608 211.714C27.1565 216.939 28.0274 225.358 28.0274 225.358C28.0274 225.358 19.3182 253.808 21.06 259.905C22.8019 266.001 22.5116 274.711 20.7697 279.065C19.0279 283.42 17.5763 285.162 18.4472 288.645C19.3182 292.129 21.06 293.871 19.3182 296.774C17.5763 299.677 14.0926 300.548 15.8345 303.161C17.5763 305.773 19.3182 307.806 18.7376 309.547C18.1569 311.289 34.1239 314.483 35.5754 311.87C35.5754 311.87 30.9305 307.806 35.5754 305.483C40.2203 303.161 38.7688 294.451 38.7688 294.451C38.7688 294.451 46.8974 261.066 46.6071 258.453C46.3168 255.841 59.3806 215.197 59.3806 215.197C59.3806 215.197 78.5409 273.259 79.7021 275.872C80.8634 278.485 78.2506 284.871 79.7021 286.613C81.1537 288.355 79.1215 292.71 81.1537 294.451C83.1858 296.193 77.67 302.58 81.1537 304.903C84.6374 307.225 86.3792 314.483 86.0889 315.934C85.7986 317.386 100.604 315.644 100.604 313.612C100.604 311.58 100.314 309.838 101.766 306.354C103.217 302.87 104.088 300.548 102.927 299.387C101.766 298.225 100.895 296.774 102.056 292.71C103.217 288.645 100.314 276.162 101.185 273.84C102.056 271.517 101.766 255.841 101.766 255.841C101.766 255.841 98.8624 232.906 99.7333 229.132C100.604 225.358 99.7333 224.487 99.4431 223.036C99.1528 221.584 97.4109 205.908 96.2497 203.585C95.0885 201.263 93.6369 161.491 86.9598 159.458C80.2828 157.426 30.3498 162.942 30.3498 162.942Z" fill="#2F2E41"/>
<path d="M28.0274 318.547C28.0274 318.547 17.5763 316.805 16.9957 318.547C16.4151 320.289 14.6732 333.933 18.7376 334.224C22.8019 334.514 29.7693 335.385 30.9305 332.772C32.0918 330.159 37.6077 328.417 37.6077 328.417C37.6077 328.417 45.7363 326.095 45.7363 323.482C45.7363 320.869 45.4461 316.805 43.9945 316.515C42.5429 316.224 36.7367 313.031 36.7367 311.87C36.7367 310.709 28.0274 318.547 28.0274 318.547Z" fill="#2F2E41"/>
<path d="M93.348 323.192C93.348 323.192 85.8 320.869 84.0582 322.321C82.3163 323.772 79.9939 339.739 84.0582 339.449C88.1225 339.159 98.8639 340.901 99.4445 338.578C100.025 336.256 107.863 335.675 107.863 335.675C107.863 335.675 116.282 331.611 115.702 327.256C115.121 322.901 114.25 321.45 110.767 321.16C107.283 320.869 104.67 316.805 104.38 316.515C104.089 316.224 101.53 314.102 101.213 316.47C100.896 318.837 97.122 324.063 93.348 323.192Z" fill="#2F2E41"/>
<path d="M69.5413 41.8838C59.761 41.8838 51.8326 33.9554 51.8326 24.1751C51.8326 14.3948 59.761 6.46631 69.5413 6.46631C79.3215 6.46631 87.25 14.3948 87.25 24.1751C87.25 33.9554 79.3215 41.8838 69.5413 41.8838Z" fill="#A0616A"/>
<path d="M54.1554 28.2393C54.1554 28.2393 52.9942 47.6899 48.6396 49.4317C44.285 51.1736 70.7029 51.1736 70.7029 51.1736C70.7029 51.1736 70.9932 38.9806 74.7672 36.0776C78.5412 33.1745 54.1554 28.2393 54.1554 28.2393Z" fill="#A0616A"/>
<path d="M47.188 45.0768C47.188 45.0768 65.1871 38.3997 71.5739 48.8508C71.5739 48.8508 91.8954 58.431 93.347 64.2371C94.7985 70.0433 81.154 113.589 81.154 113.589C81.154 113.589 81.154 149.588 84.0571 153.362C86.9602 157.136 92.476 161.2 88.702 162.071C84.928 162.942 25.7053 169.328 25.9956 165.554C26.2859 161.78 30.0599 158.587 25.9956 156.265C21.9313 153.942 25.4149 151.329 22.8022 143.781C20.1894 136.233 13.8026 73.8173 13.8026 73.8173C13.8026 73.8173 18.1572 65.979 19.0282 65.1081C19.8991 64.2371 47.188 45.0768 47.188 45.0768Z" fill="#EFEFEF"/>
<path d="M99.1532 172.232C99.1532 172.232 110.475 197.779 100.605 201.263C90.7343 204.746 91.3149 174.264 91.3149 174.264L99.1532 172.232Z" fill="#A0616A"/>
<path d="M61.0479 27.4682C62.0744 25.4114 63.6111 23.0386 65.9063 23.1638C67.067 23.2272 68.0678 23.9493 69.1022 24.4795C70.1367 25.0096 71.462 25.3382 72.4079 24.6626C73.7913 23.6744 73.3624 21.3305 74.5999 20.1646C75.9508 18.8919 78.6679 19.6025 79.5395 17.9639C80.0049 17.0889 79.6291 16.0034 79.832 15.0333C81.2452 15.1541 82.6681 14.9887 84.016 14.5472C85.3266 14.0159 86.4616 12.785 86.4249 11.3712C86.3857 10.8896 86.2508 10.4206 86.028 9.99174C85.8053 9.56289 85.4992 9.18278 85.1278 8.8737C83.3432 7.25099 80.7617 6.93981 78.5595 5.95567C76.807 5.17248 75.2832 3.95191 73.5607 3.10473C70.5963 1.64666 67.1762 1.36391 63.8821 1.61563C58.8875 1.99731 53.8366 3.65485 50.2147 7.11521C46.5929 10.5756 44.676 16.0347 46.238 20.7941C47.1232 23.491 48.9989 25.7579 50.0457 28.3963C50.6874 30.2018 51.1322 32.0713 51.3724 33.9724L52.1073 38.4814C51.9929 37.7797 53.5337 36.0195 54.0391 35.6007C55.1413 34.6872 56.7446 34.9971 57.7679 34.151C59.2814 32.8993 60.1573 29.2526 61.0479 27.4682Z" fill="#2F2E41"/>
<path opacity="0.1" d="M86.6693 62.2053L91.3142 65.1084C91.3142 65.1084 98.8622 110.687 97.9913 117.073C97.1204 123.46 101.475 159.458 100.023 162.361C98.5719 165.265 97.9913 165.845 97.9913 167.587C97.9913 169.329 102.056 175.716 99.4428 176.877C96.8301 178.038 87.2499 180.07 87.2499 176.877C87.2499 173.683 88.9917 169.329 85.7983 167.297C82.605 165.265 80.2825 152.201 80.2825 152.201C80.2825 152.201 78.8309 138.847 77.3794 136.234C75.9279 133.621 73.8957 124.041 73.8957 119.977C73.8957 115.912 70.412 99.3647 72.4441 90.9457C74.4763 82.5268 75.0569 59.8828 86.6693 62.2053Z" fill="black"/>
<path d="M88.7025 61.3342L93.3474 64.2373C93.3474 64.2373 100.895 109.816 100.024 116.202C99.1536 122.589 103.508 158.587 102.057 161.49C100.605 164.393 100.024 164.974 100.024 166.716C100.024 168.458 104.089 174.844 101.476 176.006C98.8633 177.167 89.2831 179.199 89.2831 176.006C89.2831 172.812 91.0249 168.458 87.8316 166.426C84.6382 164.393 82.3157 151.33 82.3157 151.33C82.3157 151.33 80.8642 137.975 79.4126 135.363C77.9611 132.75 75.9289 123.17 75.9289 119.105C75.9289 115.041 72.4453 98.4936 74.4774 90.0746C76.5096 81.6557 77.0902 59.0117 88.7025 61.3342Z" fill="#EFEFEF"/>
<path d="M136.186 0H478V171.488H136.186V0Z" fill="#E6E6E6"/>
<path d="M151.882 13.9517H462.305V157.537H151.882V13.9517Z" fill="white"/>
<path d="M456.225 25.603L457.047 26.4251L415.362 68.1091L402.283 55.0296L379.321 77.9918L351.127 49.798L303.169 97.7567L281.369 75.9568L233.702 123.625L206.961 96.8847L157.96 145.885L157.138 145.063L206.961 95.2405L233.702 121.981L281.369 74.3133L303.169 96.1126L351.127 48.1539L379.321 76.3477L402.283 53.3855L415.362 66.4656L456.225 25.603Z" fill="#6C63FF"/>
<path d="M349.093 56.8237C345.24 56.8237 342.117 53.7005 342.117 49.8479C342.117 45.9952 345.24 42.8721 349.093 42.8721C352.945 42.8721 356.068 45.9952 356.068 49.8479C356.068 53.7005 352.945 56.8237 349.093 56.8237Z" fill="#6C63FF"/>
<path d="M304.333 102.747C300.48 102.747 297.357 99.6243 297.357 95.7717C297.357 91.9191 300.48 88.7959 304.333 88.7959C308.185 88.7959 311.309 91.9191 311.309 95.7717C311.309 99.6243 308.185 102.747 304.333 102.747Z" fill="#6C63FF"/>
<path d="M207.253 102.747C203.4 102.747 200.277 99.6243 200.277 95.7717C200.277 91.9191 203.4 88.7959 207.253 88.7959C211.105 88.7959 214.229 91.9191 214.229 95.7717C214.229 99.6243 211.105 102.747 207.253 102.747Z" fill="#6C63FF"/>
</g>
<defs>
<clipPath id="clip0">
<rect width="478" height="339.805" fill="white" transform="matrix(-1 0 0 1 478 0)"/>
</clipPath>
</defs>
</svg>
