<svg width="255" height="331" viewBox="0 0 255 331" fill="none" xmlns="http://www.w3.org/2000/svg">
<g clip-path="url(#clip0)">
<path d="M127.5 171.731C174.923 171.731 213.366 133.288 213.366 85.8657C213.366 38.4434 174.923 0 127.5 0C80.0781 0 41.6348 38.4434 41.6348 85.8657C41.6348 133.288 80.0781 171.731 127.5 171.731Z" fill="#E7C3C4"/>
<path d="M139.861 114.491C139.861 117.723 134.327 120.344 127.501 120.344C120.674 120.344 115.141 117.723 115.141 114.491C115.141 111.259 120.674 108.633 127.501 108.633C134.327 108.633 139.861 111.235 139.861 114.491Z" fill="white"/>
<path d="M92.3728 77.4111C97.0422 77.4111 100.828 73.6257 100.828 68.9563C100.828 64.2868 97.0422 60.5015 92.3728 60.5015C87.7033 60.5015 83.918 64.2868 83.918 68.9563C83.918 73.6257 87.7033 77.4111 92.3728 77.4111Z" fill="#383F4D"/>
<path d="M162.627 77.4111C167.296 77.4111 171.081 73.6257 171.081 68.9563C171.081 64.2868 167.296 60.5015 162.627 60.5015C157.957 60.5015 154.172 64.2868 154.172 68.9563C154.172 73.6257 157.957 77.4111 162.627 77.4111Z" fill="#383F4D"/>
<path d="M94.9749 68.9512C96.4118 68.9512 97.5767 67.7864 97.5767 66.3494C97.5767 64.9124 96.4118 63.7476 94.9749 63.7476C93.5379 63.7476 92.373 64.9124 92.373 66.3494C92.373 67.7864 93.5379 68.9512 94.9749 68.9512Z" fill="white"/>
<path d="M165.229 68.9512C166.666 68.9512 167.831 67.7864 167.831 66.3494C167.831 64.9124 166.666 63.7476 165.229 63.7476C163.792 63.7476 162.627 64.9124 162.627 66.3494C162.627 67.7864 163.792 68.9512 165.229 68.9512Z" fill="white"/>
<path d="M178.238 50.7383H147.684C145.616 50.7446 143.635 51.569 142.172 53.0314C140.71 54.4939 139.885 56.4756 139.879 58.5438V79.3586C139.885 81.4268 140.71 83.4085 142.172 84.871C143.635 86.3334 145.616 87.1578 147.684 87.1641H178.238C180.307 87.1578 182.288 86.3334 183.751 84.871C185.213 83.4085 186.038 81.4268 186.044 79.3586V58.5438C186.038 56.4756 185.213 54.4939 183.751 53.0314C182.288 51.569 180.307 50.7446 178.238 50.7383ZM179.537 74.1597C179.531 76.2279 178.706 78.2096 177.244 79.6721C175.781 81.1345 173.8 81.9589 171.731 81.9652H154.172C152.104 81.9589 150.122 81.1345 148.66 79.6721C147.197 78.2096 146.373 76.2279 146.367 74.1597V63.7523C146.373 61.6841 147.197 59.7024 148.66 58.2399C150.122 56.7774 152.104 55.953 154.172 55.9467H171.736C173.803 55.9543 175.782 56.7786 177.244 58.2399C178.705 59.7012 179.529 61.6809 179.537 63.7475V74.1597Z" fill="#393939"/>
<path d="M68.957 58.5438V79.3586C68.9633 81.4268 69.7877 83.4085 71.2502 84.871C72.7126 86.3334 74.6944 87.1578 76.7626 87.1641H107.316C109.385 87.1578 111.366 86.3334 112.829 84.871C114.291 83.4085 115.116 81.4268 115.122 79.3586V58.5438C115.116 56.4756 114.291 54.4939 112.829 53.0314C111.366 51.569 109.385 50.7446 107.316 50.7383H76.7626C74.6944 50.7446 72.7126 51.569 71.2502 53.0314C69.7877 54.4939 68.9633 56.4756 68.957 58.5438ZM75.464 63.7475C75.4703 61.6793 76.2947 59.6976 77.7572 58.2351C79.2196 56.7727 81.2014 55.9483 83.2696 55.942H100.833C102.901 55.9483 104.883 56.7727 106.346 58.2351C107.808 59.6976 108.632 61.6793 108.639 63.7475V74.1549C108.632 76.2231 107.808 78.2048 106.346 79.6673C104.883 81.1297 102.901 81.9541 100.833 81.9604H83.2648C81.1982 81.9529 79.2185 81.1286 77.7572 79.6673C76.2959 78.206 75.4716 76.2262 75.464 74.1597V63.7475Z" fill="#393939"/>
<path d="M138.628 71.5724C135.413 69.4798 131.66 68.3658 127.824 68.3658C123.988 68.3658 120.235 69.4798 117.02 71.5724C115.216 72.7277 112.757 72.9712 111.292 71.6249L109.454 69.7869C108.021 68.4598 108.828 65.2468 111.673 63.3945C116.475 60.2726 122.08 58.6108 127.807 58.6108C133.535 58.6108 139.139 60.2726 143.941 63.3945C146.806 65.2468 147.608 68.4645 146.161 69.7869L144.342 71.6106C142.896 72.9665 140.437 72.7277 138.628 71.5724Z" fill="#393939"/>
<path opacity="0.2" d="M118.863 149.16C119.513 146.515 122.606 145.341 125.308 144.978C129.318 144.419 134.073 144.978 136.288 148.382" fill="#BF655B"/>
<path d="M217.391 69.6055H212.588C209.424 69.6055 206.859 72.1704 206.859 75.3343V102.909C206.859 106.073 209.424 108.638 212.588 108.638H217.391C220.555 108.638 223.12 106.073 223.12 102.909V75.3343C223.12 72.1704 220.555 69.6055 217.391 69.6055Z" fill="#E7C3C4"/>
<path d="M42.4085 69.6006H37.6058C34.4418 69.6006 31.877 72.1655 31.877 75.3294V102.904C31.877 106.068 34.4418 108.633 37.6058 108.633H42.4085C45.5724 108.633 48.1373 106.068 48.1373 102.904V75.3294C48.1373 72.1655 45.5724 69.6006 42.4085 69.6006Z" fill="#E7C3C4"/>
<path d="M102.049 210.176L152.868 210.115V164.58C152.862 162.512 152.038 160.53 150.575 159.068C149.113 157.605 147.131 156.781 145.063 156.774H109.935C107.867 156.781 105.886 157.605 104.423 159.068C102.961 160.53 102.136 162.512 102.13 164.58V210.115" fill="#E7C3C4"/>
<path opacity="0.2" d="M98.2539 20.562C103.983 19.2778 109.516 23.5983 115.378 23.7319C119.957 23.837 124.21 21.3831 128.746 20.8102C133.281 20.2373 137.711 21.5263 142.185 22.1756C146.658 22.8249 151.647 22.6864 155.122 19.7886" fill="#BF655B"/>
<path opacity="0.2" d="M98.2539 28.3671C103.983 27.0829 109.516 31.4034 115.378 31.5371C119.957 31.6421 124.21 29.1883 128.746 28.6154C133.281 28.0425 137.711 29.3315 142.185 29.9808C146.658 30.63 151.647 30.4916 155.122 27.5938" fill="#BF655B"/>
<path d="M102.131 199.612H92.6926C41.7107 199.612 0 241.323 0 292.304V322.557C0.006296 324.626 0.830686 326.607 2.29315 328.07C3.75561 329.532 5.73732 330.357 7.80554 330.363H247.194C249.263 330.357 251.244 329.532 252.707 328.07C254.169 326.607 254.994 324.626 255 322.557V292.304C255 241.323 213.289 199.612 162.307 199.612H152.869C135.193 203.043 118.551 203.13 103.005 199.673" fill="#515481"/>
</g>
<defs>
<clipPath id="clip0">
<rect width="255" height="330.363" fill="white"/>
</clipPath>
</defs>
</svg>
