<svg width="527" height="365" viewBox="0 0 527 365" fill="none" xmlns="http://www.w3.org/2000/svg">
<g clip-path="url(#clip0)">
<path d="M479.371 159.171C489.128 167.154 473.163 237.224 473.163 237.224C473.163 237.224 469.615 344.102 462.076 348.981C454.537 353.859 437.684 348.537 431.032 347.65C424.38 346.763 430.145 280.685 439.902 256.293C449.658 231.902 442.119 196.424 442.119 196.424L389.345 206.624C389.345 206.624 421.276 233.676 419.945 239.441C418.615 245.206 384.467 264.72 378.258 265.606C372.049 266.493 360.076 230.128 349.432 205.293C338.789 180.458 422.163 164.493 422.163 164.493L433.693 142.763C433.693 142.763 469.615 151.189 479.371 159.171Z" fill="#2F2E41"/>
<path d="M452.884 350.82C452.884 350.82 456.102 362.084 452.884 362.084C449.666 362.084 443.766 365.302 434.648 364.229C425.53 363.156 428.212 351.893 434.648 350.284C441.084 348.675 439.475 335.802 439.475 335.802C441.621 331.512 451.811 336.875 451.811 336.875L452.884 350.82Z" fill="#2F2E41"/>
<path d="M407.195 261.252C407.195 261.252 412.716 271.584 409.57 272.263C406.424 272.941 401.336 277.331 392.197 278.206C383.057 279.08 383.304 267.504 389.256 264.574C395.208 261.644 390.92 249.4 390.92 249.4C392.113 244.753 403.205 247.847 403.205 247.847L407.195 261.252Z" fill="#2F2E41"/>
<path d="M473.384 63.1579C472.497 64.9318 476.488 87.1058 476.488 87.1058L472.94 93.3145C472.94 93.3145 452.54 85.3319 455.645 84.0015C458.749 82.671 458.306 66.2623 458.306 66.2623C458.306 66.2623 474.271 61.384 473.384 63.1579Z" fill="#FFB9B9"/>
<path d="M465.705 69.9931C450.688 69.9931 438.514 57.8191 438.514 42.8017C438.514 27.7843 450.688 15.6104 465.705 15.6104C480.723 15.6104 492.896 27.7843 492.896 42.8017C492.896 57.8191 480.723 69.9931 465.705 69.9931Z" fill="#2F2E41"/>
<path d="M467.58 28.5979C461.366 28.5979 456.329 23.5604 456.329 17.3463C456.329 11.1322 461.366 6.09473 467.58 6.09473C473.795 6.09473 478.832 11.1322 478.832 17.3463C478.832 23.5604 473.795 28.5979 467.58 28.5979Z" fill="#2F2E41"/>
<path d="M462.658 22.4424C462.269 22.4828 461.878 22.5031 461.486 22.5032C460.009 22.5032 458.545 22.2122 457.18 21.6468C455.815 21.0813 454.575 20.2525 453.53 19.2077C452.485 18.1629 451.656 16.9225 451.091 15.5574C450.526 14.1923 450.235 12.7292 450.235 11.2516C450.235 9.77403 450.526 8.31091 451.091 6.94581C451.656 5.5807 452.485 4.34033 453.53 3.29552C454.575 2.25071 455.815 1.42192 457.18 0.856478C458.545 0.291031 460.009 -4.40354e-08 461.486 0C461.878 0.000100678 462.269 0.0204047 462.658 0.0608329C459.892 0.350645 457.331 1.65462 455.47 3.72117C453.609 5.78771 452.579 8.47039 452.579 11.2516C452.579 14.0328 453.609 16.7155 455.47 18.7821C457.331 20.8486 459.892 22.1526 462.658 22.4424Z" fill="#2F2E41"/>
<path d="M464.958 74.6887C454.671 74.6887 446.332 66.3495 446.332 56.0626C446.332 45.7757 454.671 37.4365 464.958 37.4365C475.245 37.4365 483.584 45.7757 483.584 56.0626C483.584 66.3495 475.245 74.6887 464.958 74.6887Z" fill="#FFB9B9"/>
<path d="M491.789 84.6668C497.554 85.9972 507.311 100.189 507.311 100.189L491.789 115.71C491.789 115.71 480.702 157.397 479.371 159.171C470.655 170.793 431.476 144.98 431.476 144.98C431.476 144.98 433.028 132.341 432.141 126.132C431.288 120.161 435.467 108.171 435.467 108.171C435.467 108.171 420.832 101.963 423.936 95.7538C427.041 89.5451 446.11 75.3538 454.093 80.232C462.076 85.1103 478.041 80.232 478.041 80.232C478.041 80.232 486.024 83.3364 491.789 84.6668Z" fill="#E6E6E6"/>
<path d="M378.479 174.028C378.479 174.028 353.2 195.759 346.992 191.324C340.783 186.889 370.939 171.367 370.939 171.367L378.479 174.028Z" fill="#FFB9B9"/>
<path d="M492.01 166.489C488.463 170.481 471.61 160.281 473.771 155.751C475.931 151.221 489.35 160.281 489.35 160.281C489.35 160.281 495.558 162.498 492.01 166.489Z" fill="#FFB9B9"/>
<path d="M491.788 106.398L510.414 140.989C510.414 140.989 489.127 158.728 486.466 159.172C483.805 159.615 491.788 171.145 491.788 171.145C491.788 171.145 515.736 154.293 525.049 145.867C534.362 137.441 507.31 100.189 507.31 100.189L499.327 95.3105L491.788 106.398Z" fill="#E6E6E6"/>
<path d="M437.684 105.067L415.953 138.771C415.953 138.771 382.692 176.023 378.257 177.797C373.823 179.571 368.501 171.145 368.501 171.145L408.414 122.806L423.492 95.7535L429.257 93.5361L437.684 105.067Z" fill="#E6E6E6"/>
<path d="M465.704 45.1839C455.348 45.1839 446.952 40.1464 446.952 33.9323C446.952 27.7182 455.348 22.6807 465.704 22.6807C476.061 22.6807 484.457 27.7182 484.457 33.9323C484.457 40.1464 476.061 45.1839 465.704 45.1839Z" fill="#2F2E41"/>
<path d="M413.098 276.698C413.712 276.699 414.302 276.943 414.736 277.378C415.171 277.813 415.415 278.402 415.416 279.016V358.083C415.415 358.698 415.171 359.287 414.736 359.722C414.302 360.156 413.712 360.401 413.098 360.402H143.493C142.879 360.401 142.29 360.156 141.855 359.722C141.42 359.287 141.176 358.698 141.175 358.083V279.016C141.176 278.402 141.42 277.813 141.855 277.378C142.29 276.943 142.879 276.699 143.493 276.698L413.098 276.698Z" fill="#E6E6E6"/>
<path d="M409.607 354.592H146.986V282.508H409.607V354.592Z" fill="white"/>
<path d="M180.134 339.638C180.639 339.637 181.138 339.736 181.605 339.929C182.071 340.121 182.495 340.404 182.852 340.761C183.209 341.117 183.492 341.541 183.686 342.007C183.879 342.473 183.979 342.973 183.979 343.478C183.979 343.982 183.879 344.482 183.686 344.948C183.492 345.415 183.209 345.838 182.852 346.195C182.495 346.551 182.071 346.834 181.605 347.027C181.138 347.22 180.639 347.319 180.134 347.318H164.774C163.755 347.318 162.779 346.913 162.058 346.193C161.338 345.473 160.934 344.496 160.934 343.478C160.934 342.459 161.338 341.483 162.058 340.762C162.779 340.042 163.755 339.638 164.774 339.638H180.134Z" fill="#E0BBCD"/>
<path d="M160.934 332.189H338.248V333.2H160.934V332.189Z" fill="#E6E6E6"/>
<path d="M375.312 340.916C362.959 340.916 352.945 330.902 352.945 318.55C352.945 306.197 362.959 296.184 375.312 296.184C387.664 296.184 397.678 306.197 397.678 318.55C397.678 330.902 387.664 340.916 375.312 340.916Z" fill="#E0BBCD"/>
<path d="M337.967 326.548L338.527 325.707L320.102 313.423L307.467 319.488L289.293 307.877L253.141 323.298L224.352 309.156L196.396 320.49L161.268 289.377L160.598 290.133L196.195 321.662L224.312 310.262L253.112 324.409L289.199 309.015L307.397 320.643L320.02 314.584L337.967 326.548Z" fill="#3F3D56"/>
<path d="M334.964 340.166C335.396 340.165 335.823 340.25 336.222 340.415C336.621 340.58 336.983 340.821 337.289 341.126C337.594 341.431 337.836 341.793 338.002 342.192C338.167 342.591 338.252 343.018 338.252 343.45C338.252 343.881 338.167 344.309 338.002 344.707C337.836 345.106 337.594 345.468 337.289 345.773C336.983 346.078 336.621 346.32 336.222 346.484C335.823 346.649 335.396 346.734 334.964 346.733H300.613C299.742 346.732 298.908 346.386 298.293 345.77C297.679 345.154 297.333 344.32 297.333 343.45C297.333 342.58 297.679 341.745 298.293 341.129C298.908 340.514 299.742 340.167 300.613 340.166H334.964Z" fill="#E6E6E6"/>
<path d="M366.77 308.544H363.275L370.547 315.741C371.817 316.993 373.529 317.695 375.313 317.695C377.097 317.695 378.809 316.993 380.079 315.741L387.35 308.544H383.855L378.331 314.011C377.527 314.804 376.442 315.249 375.312 315.249C374.183 315.249 373.098 314.804 372.294 314.011L366.77 308.544ZM383.9 328.556H387.395L380.078 321.315C378.808 320.063 377.096 319.361 375.312 319.361C373.528 319.361 371.816 320.063 370.546 321.315L363.229 328.556H366.724L372.294 323.044C373.098 322.251 374.183 321.807 375.312 321.807C376.442 321.807 377.527 322.251 378.331 323.044L383.9 328.556Z" fill="white"/>
<path d="M377.99 23.4395C378.605 23.4402 379.194 23.6847 379.629 24.1193C380.063 24.5539 380.308 25.1431 380.309 25.7577V104.825C380.308 105.439 380.063 106.028 379.629 106.463C379.194 106.898 378.605 107.142 377.99 107.143H108.386C107.771 107.142 107.182 106.898 106.748 106.463C106.313 106.028 106.069 105.439 106.068 104.825V25.7577C106.069 25.1431 106.313 24.5538 106.748 24.1192C107.182 23.6847 107.771 23.4402 108.386 23.4395L377.99 23.4395Z" fill="#E6E6E6"/>
<path d="M374.5 101.334H111.878V29.249H374.5V101.334Z" fill="white"/>
<path d="M145.027 86.3794C146.046 86.3794 147.022 86.784 147.742 87.5041C148.463 88.2243 148.867 89.201 148.867 90.2194C148.867 91.2379 148.463 92.2146 147.742 92.9348C147.022 93.6549 146.046 94.0595 145.027 94.0595H129.667C128.649 94.0595 127.672 93.6549 126.952 92.9348C126.232 92.2146 125.827 91.2379 125.827 90.2194C125.827 89.201 126.232 88.2243 126.952 87.5041C127.672 86.784 128.649 86.3794 129.667 86.3794H145.027Z" fill="#E0BBCD"/>
<path d="M125.826 78.9307H303.141V79.941H125.826V78.9307Z" fill="#E6E6E6"/>
<path d="M340.204 87.6572C327.852 87.6572 317.838 77.6435 317.838 65.291C317.838 52.9385 327.852 42.9248 340.204 42.9248C352.557 42.9248 362.57 52.9385 362.57 65.291C362.57 77.6435 352.557 87.6572 340.204 87.6572Z" fill="#E0BBCD"/>
<path d="M302.862 73.2888L303.422 72.4481L284.997 60.1646L272.362 66.2296L254.188 54.6186L253.942 54.723L218.036 70.0401L189.246 55.8978L161.29 67.2314L126.163 36.1182L125.493 36.8745L161.089 68.403L189.207 57.004L218.006 71.1511L254.093 55.7572L272.291 67.3839L284.915 61.3243L302.862 73.2888Z" fill="#3F3D56"/>
<path d="M299.857 86.9072C300.727 86.9083 301.562 87.2548 302.176 87.8705C302.791 88.4861 303.137 89.3207 303.137 90.1908C303.137 91.061 302.791 91.8955 302.176 92.5112C301.562 93.1269 300.727 93.4733 299.857 93.4744H265.506C264.635 93.4744 263.8 93.1285 263.184 92.5127C262.568 91.8969 262.222 91.0617 262.222 90.1908C262.222 89.32 262.568 88.4848 263.184 87.869C263.8 87.2532 264.635 86.9072 265.506 86.9072H299.857Z" fill="#E6E6E6"/>
<path d="M331.206 62.6806C330.788 59.8817 332.919 58.3771 335.833 57.3734L334.888 53.582L337.196 53.0068L338.116 56.6983C338.722 56.5471 339.346 56.4045 339.965 56.2632L339.038 52.5473L341.345 51.9722L342.29 55.7623C342.793 55.6479 343.286 55.5349 343.764 55.4159L343.761 55.4041L346.944 54.6093L347.558 57.0743C347.558 57.0743 345.846 57.4667 345.882 57.491C345.563 57.5293 345.271 57.6913 345.07 57.9424C344.869 58.1934 344.774 58.5133 344.807 58.8333L345.883 63.1525C345.802 63.1729 345.722 63.1986 345.643 63.2295L345.887 63.169L347.397 69.2196C347.43 69.3252 347.483 69.4233 347.555 69.508C347.626 69.5928 347.713 69.6627 347.811 69.7136C347.91 69.7646 348.017 69.7956 348.127 69.8049C348.238 69.8142 348.349 69.8016 348.454 69.7678C348.431 69.8014 350.132 69.3491 350.132 69.3491L351.277 71.9916L348.273 72.7403C347.715 72.8803 347.167 73.0269 346.629 73.1649L347.584 77.0004L345.279 77.5755L344.332 73.7815C343.703 73.9524 343.092 74.1101 342.494 74.2587L343.436 78.035L341.128 78.6102L340.173 74.7826C336.238 75.5273 333.278 75.2269 332.034 71.6682C331.03 68.8022 332.083 67.1491 334.153 66.0704C332.646 65.7214 331.51 64.7295 331.207 62.6806L331.206 62.6806ZM336.48 70.0748C337.194 72.9408 342.018 71.3921 343.583 71.003L342.316 65.9225C340.752 66.313 335.736 67.086 336.479 70.0748H336.48ZM335.766 62.6392C336.417 65.2461 340.433 63.9216 341.737 63.5969L340.588 58.9891C339.284 59.3138 335.088 59.9199 335.766 62.6392Z" fill="white"/>
<path d="M271.922 150.068C272.537 150.069 273.126 150.314 273.56 150.748C273.995 151.183 274.24 151.772 274.24 152.387V231.454C274.24 232.068 273.995 232.657 273.56 233.092C273.126 233.527 272.537 233.771 271.922 233.772H2.31754C1.70294 233.771 1.11374 233.527 0.679169 233.092C0.244568 232.657 0.00012207 232.068 -0.000610352 231.454V152.387C0.00012207 151.772 0.244568 151.183 0.679169 150.748C1.11374 150.314 1.70294 150.069 2.31754 150.068L271.922 150.068Z" fill="#E6E6E6"/>
<path d="M268.432 227.963H5.80963V155.878H268.432V227.963Z" fill="white"/>
<path d="M38.9588 213.009C39.9773 213.009 40.954 213.413 41.6741 214.134C42.3943 214.854 42.7988 215.83 42.7988 216.849C42.7988 217.867 42.3943 218.844 41.6741 219.564C40.954 220.284 39.9773 220.689 38.9588 220.689H23.599C22.5806 220.689 21.6038 220.284 20.8837 219.564C20.1636 218.844 19.759 217.867 19.759 216.849C19.759 215.83 20.1636 214.854 20.8837 214.134C21.6038 213.413 22.5806 213.009 23.599 213.009H38.9588Z" fill="#E0BBCD"/>
<path d="M19.7581 205.561H197.072V206.571H19.7581V205.561Z" fill="#E6E6E6"/>
<path d="M234.138 214.287C221.785 214.287 211.772 204.273 211.772 191.921C211.772 179.568 221.785 169.555 234.138 169.555C246.49 169.555 256.504 179.568 256.504 191.921C256.504 204.273 246.49 214.287 234.138 214.287Z" fill="#E0BBCD"/>
<path d="M196.793 199.919L197.354 199.078L178.928 186.795L166.293 192.86L148.119 181.249L147.873 181.353L111.967 196.67L83.1772 182.528L55.2214 193.861L20.0938 162.748L19.424 163.505L55.0202 195.033L83.1378 183.634L111.938 197.781L148.024 182.387L166.223 194.014L178.846 187.955L196.793 199.919Z" fill="#3F3D56"/>
<path d="M193.789 213.537C194.66 213.537 195.495 213.883 196.111 214.499C196.726 215.115 197.072 215.95 197.072 216.821C197.072 217.692 196.726 218.527 196.111 219.143C195.495 219.758 194.66 220.104 193.789 220.104H159.437C158.566 220.104 157.731 219.758 157.116 219.143C156.5 218.527 156.154 217.692 156.154 216.821C156.154 215.95 156.5 215.115 157.116 214.499C157.731 213.883 158.566 213.537 159.437 213.537H193.789Z" fill="#E6E6E6"/>
<path d="M234.139 206.661L225.084 193.91L234.139 199.256L243.188 193.91L234.139 206.661H234.139Z" fill="white"/>
<path d="M234.139 197.543H234.139L225.09 192.194L234.139 177.18H234.139L243.188 192.194L234.139 197.543Z" fill="white"/>
</g>
<defs>
<clipPath id="clip0">
<rect width="527" height="364.448" fill="white" transform="matrix(-1 0 0 1 527 0)"/>
</clipPath>
</defs>
</svg>
