<svg width="557" height="411" viewBox="0 0 557 411" fill="none" xmlns="http://www.w3.org/2000/svg">
<g clip-path="url(#clip0)">
<path d="M557.001 151.96H322.873V158.828H557.001V151.96Z" fill="#E6E6E6"/>
<path d="M401.539 94.5205H342.227V153.833H401.539V94.5205Z" fill="#E6E6E6"/>
<path d="M389.677 106.383H354.09V141.971H389.677V106.383Z" fill="#CCCCCC"/>
<path d="M490.195 94.5205H475.211V153.833H490.195V94.5205Z" fill="#E6E6E6"/>
<path d="M490.195 103.886H475.211V110.754H490.195V103.886Z" fill="#CCCCCC"/>
<path d="M490.195 133.854H475.211V140.722H490.195V133.854Z" fill="#CCCCCC"/>
<path d="M467.096 94.5205H452.111V153.833H467.096V94.5205Z" fill="#E6E6E6"/>
<path d="M467.096 103.886H452.111V110.754H467.096V103.886Z" fill="#CCCCCC"/>
<path d="M467.096 133.854H452.111V140.722H467.096V133.854Z" fill="#CCCCCC"/>
<path d="M503.106 94.2755L489.678 100.924L515.994 154.078L529.423 147.43L503.106 94.2755Z" fill="#E6E6E6"/>
<path d="M507.261 102.668L493.832 109.316L496.879 115.471L510.308 108.823L507.261 102.668Z" fill="#CCCCCC"/>
<path d="M520.557 129.525L507.129 136.174L510.176 142.329L523.604 135.68L520.557 129.525Z" fill="#CCCCCC"/>
<path d="M364.39 118.329L371.936 131.398L379.482 144.468H364.39H349.299L356.844 131.398L364.39 118.329Z" fill="#E6E6E6"/>
<path d="M377.502 120.826L385.047 133.896L392.594 146.965H377.502H362.41L369.956 133.896L377.502 120.826Z" fill="#E6E6E6"/>
<path d="M382.81 116.997C385.223 116.997 387.18 115.04 387.18 112.627C387.18 110.213 385.223 108.256 382.81 108.256C380.396 108.256 378.439 110.213 378.439 112.627C378.439 115.04 380.396 116.997 382.81 116.997Z" fill="#E6E6E6"/>
<path d="M322.872 64.5522L557 64.5522V57.6845L322.872 57.6845V64.5522Z" fill="#E6E6E6"/>
<path d="M478.332 59.5576L537.645 59.5576V0.245304L478.332 0.245304V59.5576Z" fill="#E6E6E6"/>
<path d="M490.196 47.6953L525.783 47.6953V12.1079L490.196 12.1079V47.6953Z" fill="#CCCCCC"/>
<path d="M389.678 59.5576H404.662V0.245304H389.678V59.5576Z" fill="#E6E6E6"/>
<path d="M389.678 16.478L404.662 16.478V9.61029L389.678 9.61029V16.478Z" fill="#CCCCCC"/>
<path d="M389.678 46.4463H404.662V39.5786H389.678V46.4463Z" fill="#CCCCCC"/>
<path d="M412.778 59.5576H427.762V0.245304H412.778V59.5576Z" fill="#E6E6E6"/>
<path d="M412.778 16.478L427.762 16.478V9.61029L412.778 9.61029V16.478Z" fill="#CCCCCC"/>
<path d="M412.778 46.4463H427.762V39.5786H412.778V46.4463Z" fill="#CCCCCC"/>
<path d="M350.45 53.1544L363.879 59.8027L390.195 6.64822L376.767 -0.000110754L350.45 53.1544Z" fill="#E6E6E6"/>
<path d="M369.564 14.5475L382.992 21.1958L386.039 15.0411L372.611 8.39274L369.564 14.5475Z" fill="#CCCCCC"/>
<path d="M356.267 41.4044L369.695 48.0527L372.742 41.898L359.314 35.2497L356.267 41.4044Z" fill="#CCCCCC"/>
<path d="M515.482 24.0527L507.936 37.1224L500.391 50.192H515.482H530.574L523.028 37.1224L515.482 24.0527Z" fill="#E6E6E6"/>
<path d="M502.371 26.5503L494.825 39.6199L487.279 52.6895H502.371H517.463L509.917 39.6199L502.371 26.5503Z" fill="#E6E6E6"/>
<path d="M497.064 22.7217C499.477 22.7217 501.434 20.765 501.434 18.3513C501.434 15.9376 499.477 13.981 497.064 13.981C494.65 13.981 492.693 15.9376 492.693 18.3513C492.693 20.765 494.65 22.7217 497.064 22.7217Z" fill="#E6E6E6"/>
<path d="M322.872 253.103L557 253.103V246.235L322.872 246.235V253.103Z" fill="#E6E6E6"/>
<path d="M478.332 248.108H537.645V188.796H478.332V248.108Z" fill="#E6E6E6"/>
<path d="M490.196 236.246H525.783V200.659H490.196V236.246Z" fill="#CCCCCC"/>
<path d="M389.678 248.108H404.662V188.796H389.678V248.108Z" fill="#E6E6E6"/>
<path d="M389.678 205.029H404.662V198.161H389.678V205.029Z" fill="#CCCCCC"/>
<path d="M389.678 234.997H404.662V228.129H389.678V234.997Z" fill="#CCCCCC"/>
<path d="M412.778 248.108H427.762V188.796H412.778V248.108Z" fill="#E6E6E6"/>
<path d="M412.778 205.029H427.762V198.161H412.778V205.029Z" fill="#CCCCCC"/>
<path d="M412.778 234.997H427.762V228.129H412.778V234.997Z" fill="#CCCCCC"/>
<path d="M350.45 241.705L363.879 248.354L390.195 195.199L376.767 188.551L350.45 241.705Z" fill="#E6E6E6"/>
<path d="M369.564 203.098L382.992 209.747L386.039 203.592L372.611 196.944L369.564 203.098Z" fill="#CCCCCC"/>
<path d="M356.267 229.955L369.695 236.604L372.742 230.449L359.314 223.8L356.267 229.955Z" fill="#CCCCCC"/>
<path d="M515.482 212.604L507.936 225.673L500.391 238.743H515.482H530.574L523.028 225.673L515.482 212.604Z" fill="#E6E6E6"/>
<path d="M502.371 215.101L494.825 228.171L487.279 241.241H502.371H517.463L509.917 228.171L502.371 215.101Z" fill="#E6E6E6"/>
<path d="M497.064 211.272C499.477 211.272 501.434 209.316 501.434 206.902C501.434 204.488 499.477 202.532 497.064 202.532C494.65 202.532 492.693 204.488 492.693 206.902C492.693 209.316 494.65 211.272 497.064 211.272Z" fill="#E6E6E6"/>
<path d="M275.803 410.385C428.124 410.385 551.605 401.616 551.605 390.797C551.605 379.979 428.124 371.209 275.803 371.209C123.481 371.209 0 379.979 0 390.797C0 401.616 123.481 410.385 275.803 410.385Z" fill="#E6E6E6"/>
<path d="M491.274 401.767C446.302 393.763 397.123 395.093 345.537 401.767C369.049 381.918 389.342 362.068 365.83 342.219C411.693 351.68 418.117 350.723 469.136 342.219C457.303 362.068 479.44 381.918 491.274 401.767Z" fill="#FBC1C3"/>
<path opacity="0.2" d="M491.274 401.767C446.302 393.763 397.123 395.093 345.537 401.767C369.049 381.918 389.342 362.068 365.83 342.219C411.693 351.68 418.117 350.723 469.136 342.219C457.303 362.068 479.44 381.918 491.274 401.767Z" fill="black"/>
<path d="M480.304 393.298C442.102 386.909 400.327 387.971 356.506 393.298C376.479 377.454 393.716 361.61 373.744 345.766C412.703 353.318 418.16 352.554 461.499 345.766C451.447 361.61 470.251 377.454 480.304 393.298Z" fill="#FBC1C3"/>
<path d="M465.753 367.769C476.995 367.769 486.108 358.656 486.108 347.414C486.108 336.173 476.995 327.06 465.753 327.06C454.512 327.06 445.398 336.173 445.398 347.414C445.398 358.656 454.512 367.769 465.753 367.769Z" fill="#2F2E41"/>
<path d="M373.351 323.805L387.455 326.156L394.507 346.528L374.135 359.064L350.629 323.805H372.568H373.351Z" fill="#A0616A"/>
<path d="M413.312 355.147C431.487 355.147 446.221 340.413 446.221 322.238C446.221 304.064 431.487 289.33 413.312 289.33C395.138 289.33 380.404 304.064 380.404 322.238C380.404 340.413 395.138 355.147 413.312 355.147Z" fill="#A0616A"/>
<path d="M231.534 202.358C231.534 202.358 151.614 210.977 137.51 209.41C123.407 207.843 117.139 206.276 117.139 206.276C117.139 206.276 107.736 218.813 112.437 224.297C115.07 227.458 118.256 230.113 121.84 232.133C121.84 232.133 130.459 229.782 136.727 232.133C142.995 234.483 206.461 244.669 217.43 235.267C228.4 225.864 231.534 202.358 231.534 202.358Z" fill="#2F2E41"/>
<path d="M237.018 377.085C237.018 377.085 184.521 362.198 175.119 296.382V290.114C175.119 290.114 164.732 308.336 161.015 312.053C156.706 316.362 141.427 355.147 142.211 359.064C142.994 362.982 142.211 364.549 142.211 364.549L119.488 362.198V355.147C119.488 355.147 131.633 318.713 132.417 310.094C133.2 301.475 162.582 241.535 162.582 241.535C162.582 241.535 173.552 218.813 192.357 241.535C211.161 264.257 212.728 279.928 212.728 279.928L237.018 326.94L237.018 377.085Z" fill="#2F2E41"/>
<path d="M119.488 203.926L94.4153 195.307C94.4153 195.307 70.9093 178.069 76.3941 195.307C81.8788 212.544 106.952 250.154 114.004 246.236C121.055 242.319 129.536 232.594 127.646 231.188C125.756 229.782 113.22 219.596 119.488 203.926Z" fill="#2F2E41"/>
<path d="M122.519 350.521L102.279 360.406C102.279 360.406 77.8023 364.171 91.4526 371.232C105.103 378.292 142.759 385.823 144.642 379.234C146.524 372.644 145.777 361.707 143.797 361.998C141.817 362.288 128.167 363.701 122.519 350.521Z" fill="#2F2E41"/>
<path d="M226.832 325.373C226.832 325.373 216.646 369.25 233.884 378.652C251.122 388.055 371.785 389.622 381.188 372.384C390.59 355.147 385.889 355.147 385.889 355.147L360.816 326.94L381.188 325.373C381.188 325.373 381.188 319.104 374.136 318.321C367.084 317.537 345.145 309.702 326.34 315.187C307.536 320.671 296.566 304.217 296.566 304.217L226.832 325.373Z" fill="#575A89"/>
<path d="M213.512 188.255L200.191 261.124L291.865 250.154L308.319 184.337L213.512 188.255Z" fill="#3F3D56"/>
<path d="M216.255 190.997L205.285 256.03L288.731 246.236L304.793 187.08L216.255 190.997Z" fill="white"/>
<path d="M203.326 261.907L200.192 261.124L198.625 264.257L223.698 333.992L226.056 333.09L226.832 328.507L203.326 261.907Z" fill="#B3B3B3"/>
<path d="M200.191 260.34L225.265 333.208L320.071 319.105L291.865 250.154L200.191 260.34Z" fill="#D0CDE1"/>
<path d="M212.729 257.99V261.907L282.462 254.072L281.679 250.154L212.729 257.99Z" fill="#3F3D56"/>
<path d="M214.295 265.824L225.264 296.382L296.566 287.763L284.029 258.772L214.295 265.824Z" fill="#3F3D56"/>
<path d="M303.617 308.919L301.267 302.65C301.267 302.65 283.246 271.309 273.843 277.577C264.441 283.846 293.431 314.403 293.431 314.403H302.834L303.617 308.919Z" fill="#A0616A"/>
<path d="M244.069 313.62L241.719 304.217C241.719 304.217 235.45 275.227 246.42 276.794C257.389 278.361 260.523 305.784 260.523 305.784L259.74 312.053L244.069 313.62Z" fill="#A0616A"/>
<path d="M262.875 309.702C262.875 309.702 242.503 306.568 241.72 311.269C240.936 315.97 237.018 386.488 256.607 388.839C276.195 391.189 373.352 401.375 363.167 377.086C352.981 352.796 337.31 355.93 337.31 355.93L270.71 362.982L262.875 309.702Z" fill="#575A89"/>
<path d="M324.381 318.713L303.618 304.217L289.906 314.795L307.144 333.6L324.381 318.713Z" fill="#575A89"/>
<path opacity="0.2" d="M268.752 332.816L271.885 362.591L325.949 359.456L278.937 358.673L268.752 332.816Z" fill="black"/>
<path d="M429.557 367.394C451.194 367.394 468.734 349.854 468.734 328.218C468.734 306.581 451.194 289.042 429.557 289.042C407.921 289.042 390.381 306.581 390.381 328.218C390.381 349.854 407.921 367.394 429.557 367.394Z" fill="#2F2E41"/>
<path d="M228.008 213.719L276.587 212.028L281.288 194.131L231.142 195.645L228.008 213.719Z" fill="#FBC1C3"/>
<path d="M215.471 223.906L289.122 221.555L289.906 218.421L216.254 221.014L215.471 223.906Z" fill="#E6E6E6"/>
<path d="M213.904 231.741L287.556 229.39L288.34 226.256L214.688 228.849L213.904 231.741Z" fill="#E6E6E6"/>
<path d="M213.121 238.009L286.772 235.659L287.557 232.524L213.904 235.117L213.121 238.009Z" fill="#E6E6E6"/>
</g>
<defs>
<clipPath id="clip0">
<rect width="557" height="410.386" fill="white"/>
</clipPath>
</defs>
</svg>
