<svg width="822" height="688" viewBox="0 0 822 688" fill="none" xmlns="http://www.w3.org/2000/svg">
<g clip-path="url(#clip0)">
<path d="M755.994 674.556L743.734 674.555L737.902 627.268H755.996L755.994 674.556Z" fill="#9E616A"/>
<path d="M759.121 686.44L719.59 686.439V685.939C719.59 681.858 721.211 677.945 724.097 675.06C726.982 672.174 730.896 670.553 734.976 670.553H734.977L759.121 670.554L759.121 686.44Z" fill="#2F2E41"/>
<path d="M708.994 674.556L696.734 674.555L690.902 627.268H708.996L708.994 674.556Z" fill="#9E616A"/>
<path d="M712.121 686.44L672.59 686.439V685.939C672.59 681.858 674.211 677.945 677.097 675.06C679.982 672.174 683.896 670.553 687.976 670.553H687.977L712.121 670.554L712.121 686.44Z" fill="#2F2E41"/>
<path d="M179.332 684.611V304.8C179.332 302.461 180.261 300.218 181.915 298.564C183.569 296.91 185.813 295.98 188.152 295.98H227.512C229.851 295.98 232.095 296.91 233.749 298.564C235.403 300.218 236.332 302.461 236.332 304.8V304.8V685.6L179.332 684.611Z" fill="#3F3D56"/>
<path d="M309.332 685.801V383.8C309.332 381.461 310.261 379.218 311.915 377.564C313.569 375.91 315.813 374.98 318.152 374.98H357.512C359.851 374.98 362.095 375.91 363.749 377.564C365.403 379.218 366.332 381.461 366.332 383.8V383.8V685.15L309.332 685.801Z" fill="#3F3D56"/>
<path d="M78.3312 326.999C77.7518 326.999 77.1849 326.831 76.6989 326.516C76.2129 326.2 75.8286 325.751 75.5925 325.222C75.3564 324.693 75.2785 324.107 75.3683 323.534C75.458 322.962 75.7116 322.428 76.0984 321.997L207.704 175.206L337.222 247.935L467.511 23.4375L600.239 132.683C600.543 132.933 600.796 133.241 600.981 133.588C601.167 133.936 601.282 134.317 601.32 134.71C601.358 135.102 601.319 135.498 601.204 135.875C601.089 136.252 600.901 136.603 600.651 136.907C600.4 137.211 600.092 137.463 599.744 137.649C599.396 137.834 599.015 137.949 598.623 137.987C598.23 138.025 597.834 137.985 597.457 137.87C597.08 137.754 596.73 137.566 596.426 137.315L469.154 32.5605L339.442 256.063L208.96 182.792L80.5658 326.001C80.2847 326.316 79.9403 326.567 79.5552 326.739C79.17 326.911 78.7529 327 78.3312 326.999V326.999Z" fill="#3F3D56"/>
<path d="M77.832 352C93.296 352 105.832 339.464 105.832 324C105.832 308.536 93.296 296 77.832 296C62.3681 296 49.832 308.536 49.832 324C49.832 339.464 62.3681 352 77.832 352Z" fill="#575A89"/>
<path d="M207.832 207C223.296 207 235.832 194.464 235.832 179C235.832 163.536 223.296 151 207.832 151C192.368 151 179.832 163.536 179.832 179C179.832 194.464 192.368 207 207.832 207Z" fill="#CCCCCC"/>
<path d="M337.832 280C353.296 280 365.832 267.464 365.832 252C365.832 236.536 353.296 224 337.832 224C322.368 224 309.832 236.536 309.832 252C309.832 267.464 322.368 280 337.832 280Z" fill="#E6E6E6"/>
<path d="M467.832 56C483.296 56 495.832 43.464 495.832 28C495.832 12.536 483.296 0 467.832 0C452.368 0 439.832 12.536 439.832 28C439.832 43.464 452.368 56 467.832 56Z" fill="#575A89"/>
<path d="M717.832 264.535C733.296 264.535 745.832 251.999 745.832 236.535C745.832 221.071 733.296 208.535 717.832 208.535C702.368 208.535 689.832 221.071 689.832 236.535C689.832 251.999 702.368 264.535 717.832 264.535Z" fill="#575A89"/>
<path d="M707.931 454.657C718.41 455.919 745.21 446.358 746.662 460.903C760.456 501.508 760.046 657.159 760.046 657.159L739.046 658.159C739.046 658.159 722.266 534.485 714.331 508.026C710.349 540.185 711.046 663.159 711.046 663.159L692.046 664.159C692.046 664.159 675.003 559.442 674.906 528.706C672.835 506.193 677.915 472.83 675.741 451.066C686.132 454.36 697.069 455.58 707.931 454.656L707.931 454.657Z" fill="#3F3D56"/>
<path d="M569.332 684.455V246.701C569.332 241.087 573.281 236.535 578.152 236.535H617.512C622.383 236.535 626.332 241.086 626.332 246.701V685.601L569.332 684.455Z" fill="#3F3D56"/>
<path d="M672.28 336.856C668.077 328.263 662.943 320.158 656.971 312.686C655.723 311.227 654.586 309.676 653.57 308.046C651.42 304.316 650.781 299.936 649.421 295.856C645.621 284.416 636.14 275.226 633.83 263.396C632.99 259.096 625.895 271.594 627.76 276.926C631.09 286.576 631.52 296.796 635.76 306.116C640 315.436 644.98 324.376 648.64 333.906C650.72 339.316 652.381 344.906 655.431 349.906C658.481 354.906 663.241 359.096 668.991 359.846C668.952 356.221 669.502 352.614 670.621 349.166C671.871 345.226 674.09 340.586 672.28 336.856Z" fill="#9E616A"/>
<path d="M735.193 343.335C734.936 336.265 736.039 329.21 738.443 322.555C739.363 320.005 740.443 317.415 740.353 314.705C740.223 312.185 739.023 309.875 737.933 307.595C734.173 299.745 731.533 291.425 728.933 283.125L723.933 267.475C722.303 266.28 731.823 265.865 733.853 268.675C740.493 277.895 745.523 288.485 750.783 298.555C752.125 300.955 753.268 303.46 754.203 306.045C755.488 310.235 756.095 314.604 756.003 318.985C756.003 327.175 754.923 335.335 753.803 343.455C753.093 348.545 752.163 354.085 748.313 357.455C744.313 352.335 740.293 347.335 735.193 343.335Z" fill="#9E616A"/>
<path d="M708.75 335.234C720.21 335.234 729.5 325.944 729.5 314.484C729.5 303.024 720.21 293.734 708.75 293.734C697.29 293.734 688 303.024 688 314.484C688 325.944 697.29 335.234 708.75 335.234Z" fill="#9E616A"/>
<path d="M691.884 293.781C691.651 293.152 691.599 292.469 691.733 291.811C691.867 291.154 692.183 290.546 692.644 290.058C693.162 289.65 693.85 289.497 694.405 289.108C695.195 288.444 695.841 287.626 696.305 286.705C697.722 284.721 699.797 283.304 702.16 282.704C704.523 282.104 707.022 282.361 709.214 283.428C712.643 285.223 714.713 288.817 717.763 291.236C719.311 292.49 721.107 293.421 722.665 294.675C725.785 297.37 728.003 300.957 729.019 304.953C730.031 308.921 730.621 312.985 730.781 317.077C730.943 318.305 730.895 319.552 730.639 320.763C730.323 321.78 729.853 322.741 729.243 323.613C726.108 328.362 721.977 332.675 716.799 335.126C711.622 337.577 705.325 337.976 700.219 335.411C699.705 335.203 699.263 334.85 698.946 334.395C698.656 333.701 698.587 332.935 698.747 332.201C699.024 329.298 698.45 326.377 697.094 323.794C696.144 321.895 694.719 320.261 693.96 318.295C693.253 316.094 692.95 313.784 693.066 311.475C692.976 305.494 693.382 299.538 691.884 293.781Z" fill="#2D293D"/>
<path d="M49.332 685.05V473.709C49.332 470.999 53.281 468.801 58.152 468.801H97.512C102.383 468.801 106.332 471.001 106.332 473.709V685.601L49.332 685.05Z" fill="#3F3D56"/>
<path d="M820.169 687.803H1C0.734784 687.803 0.480429 687.697 0.292892 687.51C0.105356 687.322 0 687.068 0 686.803C0 686.538 0.105356 686.283 0.292892 686.096C0.480429 685.908 0.734784 685.803 1 685.803H820.168C820.433 685.803 820.688 685.908 820.875 686.096C821.063 686.283 821.168 686.538 821.168 686.803C821.168 687.068 821.063 687.322 820.875 687.51C820.688 687.697 820.433 687.803 820.168 687.803H820.169Z" fill="#E6E6E6"/>
<path d="M439.332 684.306V187.536C439.332 181.165 443.281 176 448.152 176H487.512C492.383 176 496.332 181.165 496.332 187.536V685.601L439.332 684.306Z" fill="#575A89"/>
<path d="M627.184 274.365C632.154 274.365 636.184 270.336 636.184 265.365C636.184 260.395 632.154 256.365 627.184 256.365C622.213 256.365 618.184 260.395 618.184 265.365C618.184 270.336 622.213 274.365 627.184 274.365Z" fill="#A0616A"/>
<path d="M727.184 270.365C732.154 270.365 736.184 266.336 736.184 261.365C736.184 256.395 732.154 252.365 727.184 252.365C722.213 252.365 718.184 256.395 718.184 261.365C718.184 266.336 722.213 270.365 727.184 270.365Z" fill="#A0616A"/>
<path d="M749.052 372.775C749.93 371.972 757.09 330.102 757.048 329.158C756.937 324 741.198 318.108 738.048 320.158C735.076 322.092 729.901 344.282 726.571 348.323L723.048 342.158H695.048L693.351 345.31C689.677 343.096 686.372 341.056 685.193 340.38C684.788 340.106 684.347 339.889 683.882 339.735C680.972 339.085 678.24 337.801 675.882 335.975C673.582 334.205 662.908 315.668 660.048 316.158C656.818 316.698 645.923 326.118 646.048 335.158C647.419 335.129 665.262 370.806 665.512 372.135C666.882 377.755 671.406 459.715 672.866 463.535C679.592 462.885 674.282 461.725 680.792 463.535C687.802 465.485 695.202 463.375 702.432 462.595C705.442 462.297 708.467 462.164 711.492 462.195C722.492 462.245 738.192 462.855 748.842 465.585C748.902 458.605 742.772 443.505 740.502 436.915C740.205 434.946 740.215 432.942 740.532 430.975C740.822 428.565 746.678 375.44 749.052 372.775Z" fill="#E6E6E6"/>
</g>
<defs>
<clipPath id="clip0">
<rect width="821.168" height="687.802" fill="white"/>
</clipPath>
</defs>
</svg>
