<svg width="836" height="614" viewBox="0 0 836 614" fill="none" xmlns="http://www.w3.org/2000/svg">
<g clip-path="url(#clip0)">
<path d="M789.432 613.097L790.383 611.338C777.63 604.441 761.757 595.857 753.467 581.771C745.295 567.885 745.111 549.028 752.989 532.56C759.692 518.544 772.006 505.988 788.6 496.247C791.873 494.326 795.308 492.505 798.631 490.744C806.663 486.487 814.968 482.085 821.816 475.841C831.247 467.24 838.383 452.806 833.065 439.95C831.315 435.846 828.45 432.315 824.795 429.758C821.14 427.201 816.842 425.719 812.387 425.482L812.274 427.479C816.355 427.696 820.294 429.052 823.643 431.394C826.992 433.735 829.618 436.969 831.222 440.728C836.165 452.675 829.383 466.232 820.468 474.363C813.807 480.437 805.616 484.778 797.695 488.977C794.353 490.748 790.898 492.579 787.587 494.522C770.649 504.466 758.061 517.32 751.184 531.697C743.024 548.757 743.238 568.333 751.744 582.786C760.316 597.352 776.46 606.083 789.432 613.097Z" fill="#F1F1F1"/>
<path d="M799.715 436.025C809.38 436.025 817.215 432.22 817.215 427.525C817.215 422.831 809.38 419.025 799.715 419.025C790.05 419.025 782.215 422.831 782.215 427.525C782.215 432.22 790.05 436.025 799.715 436.025Z" fill="#F1F1F1"/>
<path d="M785.715 492.025C795.38 492.025 803.215 488.22 803.215 483.525C803.215 478.831 795.38 475.025 785.715 475.025C776.05 475.025 768.215 478.831 768.215 483.525C768.215 488.22 776.05 492.025 785.715 492.025Z" fill="#F1F1F1"/>
<path d="M817.715 501.025C827.38 501.025 835.215 497.22 835.215 492.525C835.215 487.831 827.38 484.025 817.715 484.025C808.05 484.025 800.215 487.831 800.215 492.525C800.215 497.22 808.05 501.025 817.715 501.025Z" fill="#F1F1F1"/>
<path d="M767.715 548.025C777.38 548.025 785.215 544.22 785.215 539.525C785.215 534.831 777.38 531.025 767.715 531.025C758.05 531.025 750.215 534.831 750.215 539.525C750.215 544.22 758.05 548.025 767.715 548.025Z" fill="#F1F1F1"/>
<path d="M732.715 548.025C742.38 548.025 750.215 544.22 750.215 539.525C750.215 534.831 742.38 531.025 732.715 531.025C723.05 531.025 715.215 534.831 715.215 539.525C715.215 544.22 723.05 548.025 732.715 548.025Z" fill="#F1F1F1"/>
<path d="M137.285 439.483H75.19C73.5086 439.481 71.8966 438.812 70.7076 437.623C69.5185 436.434 68.8497 434.822 68.8477 433.141V228.543C68.8497 226.862 69.5185 225.25 70.7076 224.061C71.8966 222.872 73.5086 222.203 75.19 222.201H137.285C138.966 222.203 140.578 222.872 141.767 224.061C142.956 225.25 143.625 226.862 143.627 228.543V433.141C143.625 434.822 142.956 436.434 141.767 437.623C140.578 438.812 138.966 439.481 137.285 439.483V439.483Z" fill="#6C63FF"/>
<path d="M250.523 439.484H188.428C186.747 439.483 185.135 438.814 183.946 437.625C182.757 436.436 182.088 434.824 182.086 433.143V147.356C182.088 145.674 182.757 144.062 183.946 142.873C185.135 141.684 186.747 141.016 188.428 141.014H250.523C252.205 141.016 253.817 141.684 255.006 142.873C256.195 144.062 256.863 145.674 256.865 147.356V433.143C256.863 434.824 256.195 436.436 255.006 437.625C253.817 438.814 252.205 439.483 250.523 439.484V439.484Z" fill="#6C63FF"/>
<path d="M363.761 439.483H301.667C299.985 439.481 298.373 438.812 297.184 437.623C295.995 436.434 295.326 434.822 295.324 433.141V228.543C295.326 226.862 295.995 225.25 297.184 224.061C298.373 222.872 299.985 222.203 301.667 222.201H363.761C365.443 222.203 367.055 222.872 368.244 224.061C369.433 225.25 370.102 226.862 370.104 228.543V433.141C370.102 434.822 369.433 436.434 368.244 437.623C367.055 438.812 365.443 439.481 363.761 439.483V439.483Z" fill="#6C63FF"/>
<path d="M477 439.484H414.905C413.262 439.519 411.672 438.902 410.483 437.767C409.294 436.632 408.603 435.072 408.562 433.429V115.019C408.603 113.376 409.294 111.816 410.483 110.681C411.672 109.546 413.262 108.929 414.905 108.964H477C478.643 108.929 480.233 109.546 481.422 110.681C482.611 111.816 483.301 113.376 483.342 115.019V433.429C483.301 435.072 482.611 436.632 481.422 437.767C480.233 438.902 478.643 439.519 477 439.484Z" fill="#6C63FF"/>
<path d="M590.238 439.484H528.143C526.462 439.482 524.85 438.813 523.661 437.624C522.472 436.435 521.803 434.823 521.801 433.142V57.6192C521.803 55.9378 522.472 54.3258 523.661 53.1369C524.85 51.948 526.462 51.2792 528.143 51.2773H590.238C591.919 51.2792 593.531 51.948 594.72 53.1369C595.909 54.3258 596.578 55.9378 596.58 57.6192V433.142C596.578 434.823 595.909 436.435 594.72 437.624C593.531 438.813 591.919 439.482 590.238 439.484V439.484Z" fill="#6C63FF"/>
<path d="M106.237 196.563C113.317 196.563 119.057 190.823 119.057 183.743C119.057 176.663 113.317 170.924 106.237 170.924C99.1574 170.924 93.418 176.663 93.418 183.743C93.418 190.823 99.1574 196.563 106.237 196.563Z" fill="#3F3D56"/>
<path d="M219.476 113.238C226.556 113.238 232.295 107.499 232.295 100.419C232.295 93.339 226.556 87.5996 219.476 87.5996C212.396 87.5996 206.656 93.339 206.656 100.419C206.656 107.499 212.396 113.238 219.476 113.238Z" fill="#3F3D56"/>
<path d="M332.714 196.563C339.794 196.563 345.533 190.823 345.533 183.743C345.533 176.663 339.794 170.924 332.714 170.924C325.634 170.924 319.895 176.663 319.895 183.743C319.895 190.823 325.634 196.563 332.714 196.563Z" fill="#3F3D56"/>
<path d="M445.952 72.6426C453.032 72.6426 458.772 66.9032 458.772 59.8233C458.772 52.7433 453.032 47.0039 445.952 47.0039C438.872 47.0039 433.133 52.7433 433.133 59.8233C433.133 66.9032 438.872 72.6426 445.952 72.6426Z" fill="#3F3D56"/>
<path d="M559.19 25.6387C566.27 25.6387 572.01 19.8993 572.01 12.8194C572.01 5.73942 566.27 0 559.19 0C552.11 0 546.371 5.73942 546.371 12.8194C546.371 19.8993 552.11 25.6387 559.19 25.6387Z" fill="#3F3D56"/>
<path d="M663 441.865H1C0.734784 441.865 0.480429 441.76 0.292892 441.572C0.105356 441.385 0 441.13 0 440.865C0 440.6 0.105356 440.346 0.292892 440.158C0.480429 439.971 0.734784 439.865 1 439.865H663C663.265 439.865 663.52 439.971 663.707 440.158C663.895 440.346 664 440.6 664 440.865C664 441.13 663.895 441.385 663.707 441.572C663.52 441.76 663.265 441.865 663 441.865Z" fill="#CBCBCB"/>
<path d="M828 612.865H504C503.735 612.865 503.48 612.76 503.293 612.572C503.105 612.385 503 612.13 503 611.865C503 611.6 503.105 611.346 503.293 611.158C503.48 610.971 503.735 610.865 504 610.865H828C828.265 610.865 828.52 610.971 828.707 611.158C828.895 611.346 829 611.6 829 611.865C829 612.13 828.895 612.385 828.707 612.572C828.52 612.76 828.265 612.865 828 612.865Z" fill="#CBCBCB"/>
<path d="M619.934 425.611C620.757 424.794 621.39 423.806 621.789 422.718C622.188 421.63 622.344 420.467 622.246 419.312C622.147 418.157 621.796 417.037 621.218 416.032C620.64 415.028 619.849 414.162 618.9 413.496L622.832 395.806L612.664 390.795L607.463 415.854C606.45 417.522 606.084 419.504 606.434 421.424C606.785 423.344 607.828 425.069 609.365 426.272C610.902 427.475 612.827 428.072 614.775 427.95C616.723 427.828 618.559 426.996 619.934 425.611V425.611Z" fill="#FFB7B7"/>
<path d="M731.118 425.999C731.874 425.121 732.429 424.087 732.743 422.971C733.057 421.855 733.122 420.684 732.935 419.54C732.747 418.396 732.311 417.307 731.657 416.35C731.003 415.393 730.147 414.59 729.149 414L731.7 396.059L721.176 391.85L717.929 417.236C717.048 418.978 716.836 420.982 717.334 422.869C717.832 424.757 719.005 426.395 720.631 427.476C722.257 428.556 724.222 429.002 726.155 428.73C728.088 428.458 729.853 427.486 731.118 425.999L731.118 425.999Z" fill="#FFB7B7"/>
<path d="M651.862 602.079L641.495 602.078L636.562 562.088L651.865 562.089L651.862 602.079Z" fill="#FFB7B7"/>
<path d="M654.505 612.127L621.074 612.126V611.703C621.074 608.252 622.445 604.943 624.886 602.503C627.326 600.063 630.635 598.692 634.086 598.691H634.087L654.505 598.692L654.505 612.127Z" fill="#2F2E41"/>
<path d="M686.534 602.079L676.166 602.078L671.234 562.088L686.536 562.089L686.534 602.079Z" fill="#FFB7B7"/>
<path d="M689.18 612.127L655.75 612.126V611.703C655.75 608.252 657.121 604.943 659.561 602.503C662.002 600.063 665.311 598.692 668.762 598.691H668.763L689.181 598.692L689.18 612.127Z" fill="#2F2E41"/>
<path d="M707.411 265.63L718.591 261.596C718.591 261.596 723.336 262.603 723.336 275.472C723.336 288.34 735.938 408.354 735.938 408.354L713.883 414.161L701.418 300.298L707.411 265.63Z" fill="#2F2E41"/>
<path d="M632.703 265.63L621.523 261.596C621.523 261.596 616.778 262.603 616.778 275.472C616.778 288.34 604.176 408.354 604.176 408.354L626.23 414.161L638.696 300.298L632.703 265.63Z" fill="#2F2E41"/>
<path d="M632.849 402.506L629.793 492.658L636.559 592.382L653.991 592.784L656.528 499.76L670.904 453.247L669.454 590.339L689.193 590.104L701.419 495.785C701.419 495.785 717.563 417.728 708.61 402.506L667.378 388.795L632.849 402.506Z" fill="#2F2E41"/>
<path d="M633.182 391.643L632.188 413.33C632.188 413.33 646.099 420.253 670.551 416.036C695.004 411.819 711.258 414.599 711.258 414.599L709.38 386.953L633.182 391.643Z" fill="#E5E5E5"/>
<path d="M621.078 261.916L653.232 247.827L655.15 240.447L686.429 241.353L687.781 248.892L718.588 261.596L705.015 308.793L706.407 341.995L723.333 402.507C723.333 402.507 709.057 414.632 674.757 409.415L668.838 397.49L665.218 410.102C665.218 410.102 635.141 421.166 626.805 406.763L632.846 302.717L621.078 261.916Z" fill="#2F2E41"/>
<path d="M670.505 233.514C681.977 233.514 691.276 224.215 691.276 212.743C691.276 201.272 681.977 191.973 670.505 191.973C659.034 191.973 649.734 201.272 649.734 212.743C649.734 224.215 659.034 233.514 670.505 233.514Z" fill="#FFB7B7"/>
<path d="M695.187 204.696C694.815 203.005 694.101 201.409 693.088 200.006C692.684 196.126 691.39 192.391 689.305 189.093C688.489 187.547 687.33 186.209 685.916 185.181C684.298 184.249 682.451 183.788 680.584 183.852C680.246 183.846 679.637 183.949 679.089 183.974C678.738 183.865 678.384 183.768 678.029 183.677C677.822 183.216 677.412 181.874 677.297 181.964L675.75 183.194C675.096 183.08 674.438 182.992 673.778 182.921C673.538 182.236 673.298 181.551 673.057 180.865C672.668 181.478 672.326 182.121 672.035 182.786C671.378 182.754 670.721 182.743 670.063 182.753L668.748 181.489C668.67 181.842 668.492 182.164 668.234 182.416C667.977 182.668 667.651 182.84 667.297 182.91C666.692 182.972 666.089 183.054 665.489 183.15C665.44 183.15 665.39 183.15 665.342 183.149C662.104 183.068 658.619 182.923 655.911 184.701C654.644 185.571 653.612 186.742 652.909 188.108C652.577 188.334 652.245 188.557 651.923 188.796C650.836 189.537 649.895 190.471 649.145 191.55C648.599 192.482 648.186 193.484 647.916 194.529C646.882 197.673 646.403 200.974 646.501 204.282C646.611 207.614 647.868 210.805 650.059 213.317C651.448 214.809 653.214 215.911 654.604 217.401C657.468 220.47 658.005 224.751 660.454 227.998C663.045 231.433 667.774 233.693 671.926 234.341C674.423 234.717 676.97 234.597 679.419 233.986C681.869 233.375 684.174 232.286 686.202 230.781C687.175 230.103 688.001 229.237 688.632 228.233C690.074 225.74 689.463 222.606 689.998 219.776C691.001 214.473 696.063 210.022 695.187 204.696Z" fill="#2F2E41"/>
<path d="M105.553 184.547L104.359 182.943L219.475 97.24L332.346 181.43L446.762 57.206L446.967 57.122L558.007 11.293L558.77 13.142L447.934 58.886L332.595 184.111L219.474 99.734L105.553 184.547Z" fill="#3F3D56"/>
</g>
<defs>
<clipPath id="clip0">
<rect width="835.213" height="613.098" fill="white"/>
</clipPath>
</defs>
</svg>
