<svg width="282" height="272" viewBox="0 0 282 272" fill="none" xmlns="http://www.w3.org/2000/svg">
<path d="M80.9133 190.479C87.2966 188.296 93.5782 185.802 99.721 183.046C105.859 180.275 111.84 177.162 117.645 173.757C129.27 166.981 140.241 159.076 150.228 150.07C160.294 141.151 169.42 131.179 177.431 120.359C181.47 114.98 185.24 109.387 188.713 103.614L191.253 99.2479L193.677 94.8073C195.254 91.833 196.817 88.8403 198.233 85.7781C203.992 73.5665 208.562 60.7627 211.767 47.5751C212.942 42.9264 213.923 38.236 214.742 33.504L199.315 31.8341L218.516 5.58838L231.644 35.3404L217.11 33.763C216.629 38.6199 215.963 43.4676 215.093 48.2828C213.849 55.0732 212.23 61.8081 210.278 68.4552C208.298 75.0929 205.87 81.6012 203.168 87.9891C197.803 100.802 190.79 112.912 182.719 124.24C174.601 135.54 165.187 145.916 154.835 155.236C144.409 164.46 133.03 172.633 120.888 179.438C108.727 186.186 95.8586 191.719 82.5415 195.613C55.9395 203.556 27.6307 205.397 0.580078 200.891C27.9268 202.533 55.3243 199.147 80.9133 190.479Z" fill="#458FF6"/>
<path d="M99.8808 204.832L99.8762 253.017C100.454 253.244 101.033 253.475 101.615 253.692C108.799 256.394 116.32 258.434 123.98 259.784L123.985 194.364C139.795 186.269 154.435 176.241 167.614 164.575L167.605 259.78C175.2 258.461 182.721 256.417 189.965 253.706C190.548 253.484 191.126 253.253 191.709 253.026L191.722 139.393C213.047 113.097 228.135 81.5409 234.773 46.9736H235.347L235.324 224.269C258.794 200.586 271.681 169.358 271.681 135.809C271.69 106.898 262.157 79.7045 244.117 57.1824L241.027 53.3107L248.747 47.1217L251.846 50.984C271.029 74.9447 281.584 105.067 281.58 135.813C281.58 173.16 265.954 209.24 238.71 234.797C225.522 247.175 210.294 256.657 193.439 262.971C185.33 266.01 176.916 268.263 168.423 269.688C160.971 270.937 153.358 271.566 145.785 271.566C138.241 271.566 130.641 270.932 123.157 269.692C114.572 268.249 106.158 265.978 98.1416 262.958C82.7012 257.185 68.6347 248.752 56.252 237.84L56.2566 231.17V215.489C71.3592 213.491 85.9623 209.883 99.8808 204.832Z" fill="#458FF6"/>
<path d="M21.8261 191.457L30.994 187.729L29.1345 183.145C23.0195 168.098 19.9203 152.163 19.9203 135.774C19.9296 66.3666 76.4037 9.90619 145.807 9.91544C161.02 9.91544 175.887 12.5983 189.995 17.89L194.625 19.6292L198.104 10.3595L193.469 8.62026C178.246 2.91224 162.214 0.0166026 145.811 0.0166026C70.9455 0.00735196 10.0307 60.9083 10.0215 135.774C10.0169 153.444 13.3612 170.637 19.9619 186.873" fill="#458FF6"/>
</svg>
