<svg width="707" height="429" viewBox="0 0 707 429" fill="none" xmlns="http://www.w3.org/2000/svg">
<g clip-path="url(#clip0)">
<path d="M615.72 1.18853e-08H8.71971C6.40769 0.00210248 4.19098 0.921496 2.55617 2.55637C0.92135 4.19124 0.00202823 6.40798 0 8.72V420.04C0.00202823 422.352 0.92135 424.569 2.55617 426.204C4.19098 427.838 6.40769 428.758 8.71971 428.76H615.72C616.98 428.76 618.226 428.486 619.371 427.958C620.516 427.43 621.532 426.659 622.35 425.7C622.419 425.625 622.483 425.545 622.54 425.46C623.061 424.824 623.482 424.112 623.79 423.35C624.229 422.302 624.453 421.176 624.45 420.04V8.72C624.447 6.40636 623.526 4.18836 621.889 2.5533C620.252 0.918242 618.033 -0.000120633 615.72 1.18853e-08V1.18853e-08ZM621.96 420.04C621.961 421.257 621.603 422.446 620.93 423.46C620.332 424.352 619.521 425.081 618.57 425.58C617.689 426.035 616.711 426.272 615.72 426.27H8.71971C7.06803 426.268 5.48457 425.611 4.31665 424.443C3.14873 423.275 2.49172 421.692 2.48972 420.04V8.72C2.49172 7.06832 3.14873 5.48486 4.31665 4.31694C5.48457 3.14902 7.06803 2.49201 8.71971 2.49001H615.72C617.373 2.48979 618.959 3.14577 620.129 4.31387C621.299 5.48198 621.957 7.0667 621.96 8.72V420.04Z" fill="#3F3D56"/>
<path d="M623.199 34.9492H1.24219V37.442H623.199V34.9492Z" fill="#3F3D56"/>
<path d="M22.4316 26.1737C26.5618 26.1737 29.91 22.8255 29.91 18.6952C29.91 14.565 26.5618 11.2168 22.4316 11.2168C18.3013 11.2168 14.9531 14.565 14.9531 18.6952C14.9531 22.8255 18.3013 26.1737 22.4316 26.1737Z" fill="#3F3D56"/>
<path d="M43.9316 26.1737C48.0618 26.1737 51.41 22.8255 51.41 18.6952C51.41 14.565 48.0618 11.2168 43.9316 11.2168C39.8013 11.2168 36.4531 14.565 36.4531 18.6952C36.4531 22.8255 39.8013 26.1737 43.9316 26.1737Z" fill="#3F3D56"/>
<path d="M65.4316 26.1737C69.5618 26.1737 72.91 22.8255 72.91 18.6952C72.91 14.565 69.5618 11.2168 65.4316 11.2168C61.3013 11.2168 57.9531 14.565 57.9531 18.6952C57.9531 22.8255 61.3013 26.1737 65.4316 26.1737Z" fill="#3F3D56"/>
<path d="M75.0508 191.746H53.0508C51.8577 191.745 50.7139 191.27 49.8703 190.427C49.0266 189.583 48.5521 188.439 48.5508 187.246V165.246C48.5521 164.053 49.0266 162.909 49.8703 162.066C50.7139 161.222 51.8577 160.747 53.0508 160.746H75.0508C76.2438 160.747 77.3877 161.222 78.2313 162.066C79.0749 162.909 79.5495 164.053 79.5508 165.246V187.246C79.5495 188.439 79.0749 189.583 78.2313 190.427C77.3877 191.27 76.2438 191.745 75.0508 191.746Z" fill="#575A89"/>
<path d="M75.0508 248.746H53.0508C51.8577 248.745 50.7139 248.27 49.8703 247.427C49.0266 246.583 48.5521 245.439 48.5508 244.246V222.246C48.5521 221.053 49.0266 219.909 49.8703 219.066C50.7139 218.222 51.8577 217.747 53.0508 217.746H75.0508C76.2438 217.747 77.3877 218.222 78.2313 219.066C79.0749 219.909 79.5495 221.053 79.5508 222.246V244.246C79.5495 245.439 79.0749 246.583 78.2313 247.427C77.3877 248.27 76.2438 248.745 75.0508 248.746V248.746Z" fill="#3F3D56"/>
<path d="M75.0508 305.746H53.0508C51.8577 305.745 50.7139 305.27 49.8703 304.427C49.0266 303.583 48.5521 302.439 48.5508 301.246V279.246C48.5521 278.053 49.0266 276.909 49.8703 276.066C50.7139 275.222 51.8577 274.747 53.0508 274.746H75.0508C76.2438 274.747 77.3877 275.222 78.2313 276.066C79.0749 276.909 79.5495 278.053 79.5508 279.246V301.246C79.5495 302.439 79.0749 303.583 78.2313 304.427C77.3877 305.27 76.2438 305.745 75.0508 305.746Z" fill="#CCCCCC"/>
<path d="M219.051 180.746H113.051C111.857 180.746 110.713 180.272 109.869 179.428C109.025 178.584 108.551 177.44 108.551 176.246C108.551 175.053 109.025 173.908 109.869 173.064C110.713 172.22 111.857 171.746 113.051 171.746H219.051C220.244 171.746 221.389 172.22 222.233 173.064C223.077 173.908 223.551 175.053 223.551 176.246C223.551 177.44 223.077 178.584 222.233 179.428C221.389 180.272 220.244 180.746 219.051 180.746V180.746Z" fill="#CCCCCC"/>
<path d="M219.051 237.746H113.051C111.857 237.746 110.713 237.272 109.869 236.428C109.025 235.584 108.551 234.44 108.551 233.246C108.551 232.053 109.025 230.908 109.869 230.064C110.713 229.22 111.857 228.746 113.051 228.746H219.051C220.244 228.746 221.389 229.22 222.233 230.064C223.077 230.908 223.551 232.053 223.551 233.246C223.551 234.44 223.077 235.584 222.233 236.428C221.389 237.272 220.244 237.746 219.051 237.746V237.746Z" fill="#CCCCCC"/>
<path d="M219.051 294.746H113.051C111.857 294.746 110.713 294.272 109.869 293.428C109.025 292.584 108.551 291.44 108.551 290.246C108.551 289.053 109.025 287.908 109.869 287.064C110.713 286.22 111.857 285.746 113.051 285.746H219.051C220.244 285.746 221.389 286.22 222.233 287.064C223.077 287.908 223.551 289.053 223.551 290.246C223.551 291.44 223.077 292.584 222.233 293.428C221.389 294.272 220.244 294.746 219.051 294.746V294.746Z" fill="#CCCCCC"/>
<path d="M582.821 171.816C583.311 172.04 583.783 172.303 584.232 172.603L629.084 153.46L630.685 141.645L648.607 141.535L647.548 168.633L588.348 184.289C588.223 184.701 588.074 185.104 587.9 185.498C587.045 187.324 585.668 188.857 583.944 189.903C582.22 190.95 580.225 191.464 578.21 191.38C576.194 191.297 574.249 190.62 572.617 189.434C570.985 188.249 569.74 186.607 569.038 184.717C568.336 182.826 568.209 180.77 568.671 178.806C569.134 176.843 570.167 175.061 571.639 173.682C573.112 172.304 574.959 171.392 576.948 171.059C578.937 170.727 580.981 170.991 582.821 171.816V171.816Z" fill="#FFB8B8"/>
<path d="M655.123 417.377L642.863 417.376L637.031 370.088L655.125 370.089L655.123 417.377Z" fill="#FFB8B8"/>
<path d="M634.109 413.873H657.753V428.76H619.223C619.223 426.805 619.608 424.869 620.356 423.063C621.104 421.257 622.201 419.616 623.583 418.233C624.965 416.851 626.606 415.754 628.413 415.006C630.219 414.258 632.155 413.873 634.109 413.873V413.873Z" fill="#2F2E41"/>
<path d="M702.806 413.912L690.605 415.114L680.164 368.626L698.171 366.852L702.806 413.912Z" fill="#FFB8B8"/>
<path d="M681.546 412.486L705.076 410.168L706.535 424.984L668.19 428.76C667.998 426.815 668.192 424.851 668.759 422.98C669.327 421.109 670.257 419.368 671.497 417.857C672.737 416.346 674.263 415.094 675.987 414.172C677.711 413.251 679.6 412.678 681.546 412.486V412.486Z" fill="#2F2E41"/>
<path d="M658.538 91.4892C672.102 91.4892 683.099 80.4929 683.099 66.9282C683.099 53.3635 672.102 42.3672 658.538 42.3672C644.973 42.3672 633.977 53.3635 633.977 66.9282C633.977 80.4929 644.973 91.4892 658.538 91.4892Z" fill="#FFB8B8"/>
<path d="M640.124 407.812C639.07 407.815 638.05 407.445 637.242 406.769C636.434 406.093 635.891 405.153 635.709 404.115C629.363 368.889 608.621 253.71 608.125 250.519C608.114 250.446 608.109 250.372 608.109 250.298V241.71C608.109 241.397 608.206 241.092 608.389 240.838L611.129 237C611.259 236.815 611.43 236.663 611.628 236.554C611.826 236.446 612.047 236.385 612.273 236.375C627.895 235.642 679.057 233.496 681.528 236.584C684.011 239.687 683.134 249.091 682.933 250.944L682.942 251.137L705.928 398.133C706.108 399.305 705.819 400.501 705.124 401.462C704.428 402.423 703.383 403.071 702.213 403.267L687.856 405.633C686.787 405.804 685.692 405.587 684.77 405.019C683.847 404.451 683.16 403.572 682.831 402.54C678.391 388.351 663.502 340.622 658.342 322.153C658.31 322.036 658.236 321.935 658.134 321.868C658.033 321.802 657.911 321.774 657.791 321.791C657.67 321.808 657.561 321.868 657.482 321.961C657.403 322.053 657.36 322.17 657.361 322.292C657.619 339.897 658.242 384.815 658.457 400.329L658.481 402C658.49 403.131 658.075 404.225 657.317 405.064C656.559 405.904 655.514 406.429 654.388 406.536L640.544 407.794C640.403 407.806 640.263 407.812 640.124 407.812Z" fill="#2F2E41"/>
<path d="M642.951 101.146C638.665 103.694 636.1 108.377 634.629 113.141C631.904 121.962 630.263 131.083 629.744 140.301L628.189 167.901L608.934 241.071C625.622 255.191 635.249 251.982 657.714 240.432C680.179 228.882 682.746 244.283 682.746 244.283L687.239 182.025L693.657 113.992C692.216 112.258 690.586 110.69 688.796 109.318C682.863 104.705 675.961 101.499 668.609 99.9404C661.257 98.3823 653.647 98.513 646.353 100.323L642.951 101.146Z" fill="#B3B3B3"/>
<path d="M636.695 186.593C637.212 186.787 637.714 187.023 638.195 187.296L682.543 165.099L683.279 153.074L701.573 151.812L702.554 179.225L643.288 198.824C642.804 200.9 641.7 202.779 640.122 204.212C638.544 205.645 636.567 206.563 634.454 206.845C632.342 207.127 630.194 206.759 628.295 205.79C626.397 204.821 624.838 203.297 623.827 201.421C622.816 199.545 622.4 197.406 622.634 195.287C622.868 193.169 623.742 191.172 625.139 189.562C626.536 187.953 628.389 186.806 630.454 186.276C632.518 185.745 634.695 185.856 636.694 186.593H636.695Z" fill="#FFB8B8"/>
<path d="M693.335 114.305C704.247 118.156 706.169 159.879 706.169 159.879C693.332 152.818 677.927 164.372 677.927 164.372C677.927 164.372 674.718 153.46 670.867 139.34C669.704 135.368 669.565 131.166 670.463 127.126C671.361 123.086 673.266 119.339 676.002 116.233C676.002 116.233 682.424 110.451 693.335 114.305Z" fill="#B3B3B3"/>
<path d="M680.559 73.4232C677.499 70.9749 673.323 75.425 673.323 75.425L670.875 53.3915C670.875 53.3915 655.574 55.2244 645.782 52.7799C635.989 50.3354 634.459 61.655 634.459 61.655C633.954 57.0825 633.852 52.4745 634.153 47.8841C634.765 42.3757 642.722 36.8674 656.798 33.1948C670.875 29.5222 678.219 45.4358 678.219 45.4358C688.013 50.3315 683.619 75.8716 680.559 73.4232Z" fill="#2F2E41"/>
<path d="M587.803 235.246C587.961 232.599 588.051 229.933 588.051 227.246C588.051 192.238 574.144 158.663 549.389 133.908C524.634 109.153 491.059 95.2461 456.051 95.2461V235.246H587.803Z" fill="#575A89"/>
<path d="M446.052 247.246V107.246C420.286 107.245 395.082 114.785 373.55 128.937C352.017 143.088 335.097 163.232 324.876 186.885C314.655 210.538 311.58 236.665 316.031 262.044C320.481 287.424 332.262 310.946 349.92 329.71C367.579 348.474 390.343 361.659 415.406 367.641C440.469 373.622 466.734 372.137 490.963 363.369C515.192 354.602 536.325 338.934 551.757 318.3C567.188 297.665 576.243 272.965 577.804 247.246H446.052Z" fill="#3F3D56"/>
</g>
<defs>
<clipPath id="clip0">
<rect width="706.535" height="428.76" fill="white"/>
</clipPath>
</defs>
</svg>
