<svg width="201" height="56" viewBox="0 0 201 56" fill="none" xmlns="http://www.w3.org/2000/svg">
<path d="M16.295 38.6336C17.5898 38.1907 18.864 37.685 20.11 37.1258C21.3551 36.5638 22.5683 35.9323 23.7458 35.2417C26.1037 33.8672 28.3293 32.2637 30.355 30.4368C32.3967 28.6279 34.2479 26.6049 35.873 24.4103C36.6921 23.3191 37.4568 22.1847 38.1615 21.0138L38.6766 20.128L39.1682 19.2273C39.4882 18.624 39.8053 18.0169 40.0924 17.3958C41.2606 14.9187 42.1876 12.3216 42.8378 9.64659C43.0761 8.70362 43.275 7.75221 43.4411 6.79236L40.312 6.45364L44.2067 1.12988L46.8696 7.16486L43.9215 6.8449C43.8239 7.83009 43.6888 8.8134 43.5124 9.79014C43.26 11.1675 42.9316 12.5337 42.5357 13.882C42.1341 15.2284 41.6415 16.5485 41.0936 17.8443C40.0052 20.4433 38.5827 22.8997 36.9454 25.1975C35.2988 27.4897 33.3894 29.5943 31.2895 31.4849C29.1747 33.3558 26.8665 35.0137 24.4036 36.3939C21.9368 37.7629 19.3266 38.8851 16.6253 39.6751C11.2293 41.2861 5.48702 41.6595 0 40.7457C5.54707 41.0787 11.1045 40.3919 16.295 38.6336Z" fill="white"/>
<path d="M20.1428 41.5439L20.1418 51.3179C20.2591 51.3639 20.3764 51.4108 20.4946 51.4549C21.9518 52.0028 23.4774 52.4166 25.0312 52.6906L25.0321 39.4206C28.2391 37.7786 31.2088 35.7444 33.8819 33.3781L33.88 52.6896C35.4207 52.4222 36.9463 52.0075 38.4156 51.4577C38.5339 51.4127 38.6511 51.3657 38.7694 51.3198L38.7722 28.2701C43.0976 22.9361 46.1583 16.5352 47.5047 9.52344H47.621L47.6163 45.4865C52.3771 40.6826 54.9912 34.3483 54.9912 27.543C54.993 21.6788 53.0593 16.1627 49.4 11.5942L48.7732 10.8089L50.3392 9.55346L50.9679 10.3369C54.8589 15.1972 57 21.3072 56.9991 27.5439C56.9991 35.1195 53.8296 42.4381 48.3032 47.622C45.6281 50.1328 42.5393 52.0563 39.1203 53.337C37.4755 53.9535 35.7688 54.4104 34.0461 54.6994C32.5345 54.9528 30.9901 55.0804 29.4542 55.0804C27.9239 55.0804 26.3823 54.9518 24.8642 54.7004C23.1227 54.4076 21.416 53.9469 19.79 53.3342C16.658 52.1633 13.8047 50.4528 11.293 48.2394L11.2939 46.8864V43.7057C14.3574 43.3003 17.3195 42.5685 20.1428 41.5439Z" fill="white"/>
<path d="M4.31244 38.8323L6.1721 38.0761L5.79491 37.1462C4.55452 34.094 3.92587 30.8617 3.92587 27.5374C3.92775 13.4586 15.3831 2.00603 29.461 2.00791C32.547 2.00791 35.5626 2.5521 38.4243 3.62549L39.3635 3.97828L40.0691 2.09798L39.1289 1.74519C36.0411 0.58736 32.789 2.13739e-07 29.4619 2.13739e-07C14.276 -0.00187621 1.91985 12.3514 1.91797 27.5374C1.91703 31.1216 2.5954 34.6092 3.93432 37.9025" fill="white"/>
<path d="M79.9428 18.1464V35.2344H76.8708V27.8184H68.1108V35.2344H65.0628V18.1464H68.1108V25.2984H76.8708V18.1464H79.9428ZM94.6888 35.2344L86.7448 27.2424V35.2344H83.6488V18.1464H86.7448V25.8024L94.3768 18.1464H98.0968L89.7928 26.3544L98.4808 35.2344H94.6888ZM112.003 35.4504C110.691 35.4504 109.459 35.2744 108.307 34.9224C107.171 34.5704 106.203 34.0664 105.403 33.4104L106.459 31.1544C107.291 31.7784 108.155 32.2424 109.051 32.5464C109.963 32.8344 110.955 32.9784 112.027 32.9784C113.211 32.9784 114.123 32.7704 114.763 32.3544C115.419 31.9384 115.747 31.3544 115.747 30.6024C115.747 29.9624 115.443 29.4744 114.835 29.1384C114.243 28.7864 113.259 28.4584 111.883 28.1544C109.739 27.6904 108.179 27.0904 107.203 26.3544C106.227 25.6184 105.739 24.5464 105.739 23.1384C105.739 22.1304 106.011 21.2344 106.555 20.4504C107.099 19.6664 107.867 19.0504 108.859 18.6024C109.867 18.1544 111.027 17.9304 112.339 17.9304C113.539 17.9304 114.675 18.1144 115.747 18.4824C116.835 18.8344 117.723 19.3304 118.411 19.9704L117.379 22.2264C115.859 21.0104 114.179 20.4024 112.339 20.4024C111.235 20.4024 110.363 20.6344 109.723 21.0984C109.083 21.5464 108.763 22.1624 108.763 22.9464C108.763 23.6184 109.043 24.1304 109.603 24.4824C110.179 24.8344 111.155 25.1624 112.531 25.4664C113.955 25.8024 115.115 26.1704 116.011 26.5704C116.907 26.9544 117.595 27.4584 118.075 28.0824C118.555 28.6904 118.795 29.4584 118.795 30.3864C118.795 31.4104 118.523 32.3064 117.979 33.0744C117.435 33.8264 116.651 34.4104 115.627 34.8264C114.603 35.2424 113.395 35.4504 112.003 35.4504ZM125.321 20.6904H119.753V18.1464H134.033V20.6904H128.441V35.2344H125.321V20.6904ZM142.748 35.4504C141.1 35.4504 139.66 35.0984 138.428 34.3944C137.212 33.6744 136.268 32.6584 135.596 31.3464C134.94 30.0184 134.612 28.4584 134.612 26.6664C134.612 24.8904 134.94 23.3464 135.596 22.0344C136.252 20.7064 137.188 19.6904 138.404 18.9864C139.636 18.2824 141.084 17.9304 142.748 17.9304C144.412 17.9304 145.852 18.2824 147.068 18.9864C148.3 19.6904 149.236 20.7064 149.876 22.0344C150.532 23.3464 150.86 24.8904 150.86 26.6664C150.86 28.4584 150.532 30.0184 149.876 31.3464C149.22 32.6584 148.284 33.6744 147.068 34.3944C145.852 35.0984 144.412 35.4504 142.748 35.4504ZM142.748 32.9784C144.332 32.9784 145.564 32.4344 146.444 31.3464C147.324 30.2584 147.764 28.6984 147.764 26.6664C147.764 24.6504 147.324 23.1064 146.444 22.0344C145.564 20.9464 144.332 20.4024 142.748 20.4024C141.164 20.4024 139.932 20.9384 139.052 22.0104C138.172 23.0824 137.732 24.6344 137.732 26.6664C137.732 28.6984 138.172 30.2584 139.052 31.3464C139.932 32.4344 141.164 32.9784 142.748 32.9784ZM161.784 35.4504C160.104 35.4504 158.632 35.0904 157.368 34.3704C156.12 33.6504 155.16 32.6344 154.488 31.3224C153.816 29.9944 153.48 28.4424 153.48 26.6664C153.48 24.9064 153.816 23.3704 154.488 22.0584C155.16 20.7304 156.12 19.7144 157.368 19.0104C158.632 18.2904 160.104 17.9304 161.784 17.9304C162.936 17.9304 164.016 18.1144 165.024 18.4824C166.048 18.8344 166.896 19.3304 167.568 19.9704L166.56 22.2264C165.792 21.6024 165.024 21.1544 164.256 20.8824C163.504 20.5944 162.696 20.4504 161.832 20.4504C160.184 20.4504 158.904 20.9864 157.992 22.0584C157.096 23.1304 156.648 24.6664 156.648 26.6664C156.648 28.6824 157.096 30.2344 157.992 31.3224C158.888 32.3944 160.168 32.9304 161.832 32.9304C162.696 32.9304 163.504 32.7944 164.256 32.5224C165.024 32.2344 165.792 31.7784 166.56 31.1544L167.568 33.4104C166.896 34.0504 166.048 34.5544 165.024 34.9224C164.016 35.2744 162.936 35.4504 161.784 35.4504ZM181.501 35.2344L173.557 27.2424V35.2344H170.461V18.1464H173.557V25.8024L181.189 18.1464H184.909L176.605 26.3544L185.293 35.2344H181.501ZM191.761 35.4504C190.449 35.4504 189.217 35.2744 188.065 34.9224C186.929 34.5704 185.961 34.0664 185.161 33.4104L186.217 31.1544C187.049 31.7784 187.913 32.2424 188.809 32.5464C189.721 32.8344 190.713 32.9784 191.785 32.9784C192.969 32.9784 193.881 32.7704 194.521 32.3544C195.177 31.9384 195.505 31.3544 195.505 30.6024C195.505 29.9624 195.201 29.4744 194.593 29.1384C194.001 28.7864 193.017 28.4584 191.641 28.1544C189.497 27.6904 187.937 27.0904 186.961 26.3544C185.985 25.6184 185.497 24.5464 185.497 23.1384C185.497 22.1304 185.769 21.2344 186.313 20.4504C186.857 19.6664 187.625 19.0504 188.617 18.6024C189.625 18.1544 190.785 17.9304 192.097 17.9304C193.297 17.9304 194.433 18.1144 195.505 18.4824C196.593 18.8344 197.481 19.3304 198.169 19.9704L197.137 22.2264C195.617 21.0104 193.937 20.4024 192.097 20.4024C190.993 20.4024 190.121 20.6344 189.481 21.0984C188.841 21.5464 188.521 22.1624 188.521 22.9464C188.521 23.6184 188.801 24.1304 189.361 24.4824C189.937 24.8344 190.913 25.1624 192.289 25.4664C193.713 25.8024 194.873 26.1704 195.769 26.5704C196.665 26.9544 197.353 27.4584 197.833 28.0824C198.313 28.6904 198.553 29.4584 198.553 30.3864C198.553 31.4104 198.281 32.3064 197.737 33.0744C197.193 33.8264 196.409 34.4104 195.385 34.8264C194.361 35.2424 193.153 35.4504 191.761 35.4504Z" fill="white"/>
</svg>
