<svg width="688" height="573" viewBox="0 0 688 573" fill="none" xmlns="http://www.w3.org/2000/svg">
<g filter="url(#filter0_d)">
<path d="M20.2695 35.5C20.2695 24.4543 29.2238 15.5 40.2695 15.5H647.27C658.315 15.5 667.27 24.4543 667.27 35.5V527.5C667.27 538.546 658.315 547.5 647.27 547.5H40.2695C29.2239 547.5 20.2695 538.546 20.2695 527.5V35.5Z" fill="white"/>
<path d="M40.2695 18H647.27C656.935 18 664.77 25.835 664.77 35.5V527.5C664.77 537.165 656.935 545 647.27 545H40.2695C30.6046 545 22.7695 537.165 22.7695 527.5V35.5C22.7695 25.835 30.6045 18 40.2695 18Z" stroke="#458FF6" stroke-width="5"/>
</g>
<path d="M208.22 418.725C206.453 418.725 204.911 418.358 203.595 417.625C202.295 416.875 201.286 415.808 200.57 414.425C199.87 413.042 199.52 411.425 199.52 409.575C199.52 407.725 199.87 406.117 200.57 404.75C201.286 403.383 202.295 402.333 203.595 401.6C204.911 400.85 206.453 400.475 208.22 400.475C209.986 400.475 211.52 400.85 212.82 401.6C214.12 402.333 215.12 403.383 215.82 404.75C216.52 406.117 216.87 407.725 216.87 409.575C216.87 411.425 216.52 413.042 215.82 414.425C215.12 415.808 214.12 416.875 212.82 417.625C211.52 418.358 209.986 418.725 208.22 418.725ZM208.22 415.675C209.72 415.675 210.886 415.15 211.72 414.1C212.57 413.05 212.995 411.542 212.995 409.575C212.995 407.608 212.57 406.108 211.72 405.075C210.886 404.042 209.72 403.525 208.22 403.525C206.72 403.525 205.545 404.042 204.695 405.075C203.861 406.108 203.445 407.608 203.445 409.575C203.445 411.558 203.861 413.075 204.695 414.125C205.545 415.158 206.72 415.675 208.22 415.675ZM219.918 400.7H227.993C229.959 400.7 231.484 401.175 232.568 402.125C233.668 403.075 234.218 404.367 234.218 406C234.218 407.617 233.668 408.908 232.568 409.875C231.468 410.825 229.943 411.3 227.993 411.3H223.818V418.5H219.918V400.7ZM227.493 408.325C229.526 408.325 230.543 407.558 230.543 406.025C230.543 404.475 229.526 403.7 227.493 403.7H223.818V408.325H227.493ZM243.013 418.725C241.663 418.725 240.363 418.55 239.113 418.2C237.879 417.833 236.854 417.325 236.038 416.675L237.288 413.875C239.004 415.075 240.921 415.675 243.038 415.675C244.171 415.675 245.038 415.5 245.638 415.15C246.254 414.783 246.563 414.275 246.563 413.625C246.563 413.058 246.279 412.617 245.713 412.3C245.163 411.967 244.188 411.65 242.788 411.35C241.221 411.033 239.971 410.65 239.038 410.2C238.121 409.733 237.446 409.175 237.013 408.525C236.596 407.858 236.388 407.033 236.388 406.05C236.388 404.983 236.679 404.025 237.263 403.175C237.863 402.325 238.696 401.667 239.763 401.2C240.829 400.717 242.063 400.475 243.463 400.475C244.729 400.475 245.946 400.658 247.113 401.025C248.279 401.392 249.213 401.892 249.913 402.525L248.663 405.325C247.096 404.125 245.371 403.525 243.488 403.525C242.488 403.525 241.688 403.725 241.088 404.125C240.488 404.525 240.188 405.067 240.188 405.75C240.188 406.15 240.296 406.483 240.513 406.75C240.746 407.017 241.129 407.258 241.663 407.475C242.196 407.675 242.954 407.875 243.938 408.075C246.221 408.575 247.863 409.225 248.863 410.025C249.879 410.825 250.388 411.917 250.388 413.3C250.388 414.967 249.738 416.292 248.438 417.275C247.138 418.242 245.329 418.725 243.013 418.725ZM256.952 403.875H251.377V400.7H266.477V403.875H260.902V418.5H256.952V403.875ZM283.575 418.5H279.45L277.175 412.575C276.992 412.108 276.709 411.783 276.325 411.6C275.959 411.417 275.492 411.325 274.925 411.325H272.4V418.5H268.55V400.7H276.475C278.542 400.7 280.109 401.15 281.175 402.05C282.242 402.95 282.775 404.242 282.775 405.925C282.775 407.108 282.459 408.125 281.825 408.975C281.209 409.825 280.317 410.433 279.15 410.8C280.2 411.017 280.959 411.742 281.425 412.975L283.575 418.5ZM275.9 408.35C277.017 408.35 277.834 408.167 278.35 407.8C278.867 407.417 279.125 406.825 279.125 406.025C279.125 405.225 278.867 404.642 278.35 404.275C277.834 403.892 277.017 403.7 275.9 403.7H272.35V408.35H275.9ZM297.906 414.55H289.581L287.881 418.5H283.956L292.131 400.7H295.281L303.456 418.5H299.606L297.906 414.55ZM296.631 411.575L293.756 404.9L290.881 411.575H296.631ZM329.682 400.7V418.5H326.232V408.775L322.132 418.5H319.607L315.482 408.9V418.5H312.057V400.7H315.157L320.907 413.825L326.607 400.7H329.682ZM333.272 400.7H345.547V403.725H337.072V407.925H345.022V410.975H337.072V415.475H345.547V418.5H333.272V400.7ZM365.913 400.7V418.5H362.463V408.775L358.363 418.5H355.838L351.713 408.9V418.5H348.288V400.7H351.388L357.138 413.825L362.838 400.7H365.913ZM380.928 409.3C381.961 409.6 382.761 410.125 383.328 410.875C383.894 411.625 384.178 412.542 384.178 413.625C384.178 415.125 383.619 416.317 382.503 417.2C381.386 418.067 379.869 418.5 377.953 418.5H369.503V400.7H377.703C379.553 400.7 381.011 401.117 382.078 401.95C383.161 402.767 383.703 403.892 383.703 405.325C383.703 406.258 383.453 407.075 382.953 407.775C382.469 408.475 381.794 408.983 380.928 409.3ZM373.303 407.95H377.053C378.053 407.95 378.794 407.783 379.278 407.45C379.778 407.1 380.028 406.567 380.028 405.85C380.028 405.117 379.778 404.575 379.278 404.225C378.794 403.875 378.053 403.7 377.053 403.7H373.303V407.95ZM377.503 415.5C378.553 415.5 379.311 415.325 379.778 414.975C380.261 414.608 380.503 414.033 380.503 413.25C380.503 412.45 380.261 411.867 379.778 411.5C379.311 411.133 378.553 410.95 377.503 410.95H373.303V415.5H377.503ZM386.91 400.7H399.185V403.725H390.71V407.925H398.66V410.975H390.71V415.475H399.185V418.5H386.91V400.7ZM416.901 418.5H412.776L410.501 412.575C410.317 412.108 410.034 411.783 409.651 411.6C409.284 411.417 408.817 411.325 408.251 411.325H405.726V418.5H401.876V400.7H409.801C411.867 400.7 413.434 401.15 414.501 402.05C415.567 402.95 416.101 404.242 416.101 405.925C416.101 407.108 415.784 408.125 415.151 408.975C414.534 409.825 413.642 410.433 412.476 410.8C413.526 411.017 414.284 411.742 414.751 412.975L416.901 418.5ZM409.226 408.35C410.342 408.35 411.159 408.167 411.676 407.8C412.192 407.417 412.451 406.825 412.451 406.025C412.451 405.225 412.192 404.642 411.676 404.275C411.159 403.892 410.342 403.7 409.226 403.7H405.676V408.35H409.226ZM425.679 418.725C424.329 418.725 423.029 418.55 421.779 418.2C420.545 417.833 419.52 417.325 418.704 416.675L419.954 413.875C421.67 415.075 423.587 415.675 425.704 415.675C426.837 415.675 427.704 415.5 428.304 415.15C428.92 414.783 429.229 414.275 429.229 413.625C429.229 413.058 428.945 412.617 428.379 412.3C427.829 411.967 426.854 411.65 425.454 411.35C423.887 411.033 422.637 410.65 421.704 410.2C420.787 409.733 420.112 409.175 419.679 408.525C419.262 407.858 419.054 407.033 419.054 406.05C419.054 404.983 419.345 404.025 419.929 403.175C420.529 402.325 421.362 401.667 422.429 401.2C423.495 400.717 424.729 400.475 426.129 400.475C427.395 400.475 428.612 400.658 429.779 401.025C430.945 401.392 431.879 401.892 432.579 402.525L431.329 405.325C429.762 404.125 428.037 403.525 426.154 403.525C425.154 403.525 424.354 403.725 423.754 404.125C423.154 404.525 422.854 405.067 422.854 405.75C422.854 406.15 422.962 406.483 423.179 406.75C423.412 407.017 423.795 407.258 424.329 407.475C424.862 407.675 425.62 407.875 426.604 408.075C428.887 408.575 430.529 409.225 431.529 410.025C432.545 410.825 433.054 411.917 433.054 413.3C433.054 414.967 432.404 416.292 431.104 417.275C429.804 418.242 427.995 418.725 425.679 418.725ZM451.784 400.7V418.5H447.959V411.025H439.709V418.5H435.884V400.7H439.709V407.9H447.959V400.7H451.784ZM455.367 400.7H459.267V418.5H455.367V400.7ZM462.838 400.7H470.913C472.879 400.7 474.404 401.175 475.488 402.125C476.588 403.075 477.138 404.367 477.138 406C477.138 407.617 476.588 408.908 475.488 409.875C474.388 410.825 472.863 411.3 470.913 411.3H466.738V418.5H462.838V400.7ZM470.413 408.325C472.446 408.325 473.463 407.558 473.463 406.025C473.463 404.475 472.446 403.7 470.413 403.7H466.738V408.325H470.413Z" fill="black"/>
<g clip-path="url(#clip0)">
<path d="M198.539 324.425C199.858 324.889 201.274 325.005 202.651 324.762C204.028 324.52 205.32 323.926 206.401 323.04C209.155 320.728 210.02 316.921 210.721 313.394L212.799 302.965L208.449 305.961C205.32 308.115 202.121 310.338 199.955 313.458C197.788 316.579 196.843 320.838 198.583 324.215" fill="#E4E4E4"/>
<path d="M198.909 337.051C198.468 333.844 198.015 330.596 198.324 327.354C198.599 324.475 199.477 321.663 201.265 319.357C202.214 318.136 203.369 317.089 204.678 316.264C205.02 316.049 205.333 316.59 204.994 316.804C202.729 318.236 200.978 320.349 199.992 322.84C198.902 325.61 198.728 328.63 198.917 331.572C199.03 333.351 199.271 335.119 199.513 336.885C199.533 336.965 199.521 337.049 199.48 337.121C199.44 337.192 199.373 337.245 199.295 337.269C199.215 337.291 199.13 337.28 199.057 337.239C198.985 337.198 198.932 337.131 198.91 337.051L198.909 337.051Z" fill="#F2F2F2"/>
<path d="M384.143 337.325H249.814C246.63 337.322 243.577 336.055 241.326 333.804C239.075 331.553 237.808 328.5 237.805 325.316V130.509C237.808 127.325 239.075 124.273 241.326 122.021C243.577 119.77 246.63 118.504 249.814 118.5H384.143C387.327 118.504 390.379 119.77 392.63 122.021C394.882 124.273 396.148 127.325 396.152 130.509V325.317C396.148 328.5 394.882 331.553 392.63 333.804C390.379 336.055 387.327 337.322 384.143 337.325V337.325Z" fill="#3F3D56"/>
<path d="M384.379 329.664H249.577C248.595 329.663 247.654 329.272 246.961 328.578C246.267 327.884 245.876 326.943 245.875 325.962V129.864C245.876 128.883 246.267 127.942 246.961 127.248C247.654 126.554 248.595 126.163 249.577 126.162H384.379C385.36 126.163 386.301 126.554 386.995 127.248C387.689 127.942 388.08 128.883 388.081 129.864V325.962C388.08 326.943 387.689 327.884 386.995 328.578C386.301 329.272 385.36 329.663 384.379 329.664V329.664Z" fill="white"/>
<path d="M316.467 123.199C317.031 123.199 317.489 122.742 317.489 122.178C317.489 121.614 317.031 121.156 316.467 121.156C315.903 121.156 315.445 121.614 315.445 122.178C315.445 122.742 315.903 123.199 316.467 123.199Z" fill="white"/>
<path d="M254.801 216.286H369.697V196.593C369.679 194.517 369.247 192.465 368.426 190.557C367.605 188.65 366.411 186.926 364.914 185.487L364.883 185.456C362.831 183.397 355.973 178.171 348.877 178.614C345.129 178.848 341.92 180.654 339.339 183.984C331.306 194.351 320.755 190.851 315.18 187.843C310.267 185.191 305.25 183.946 300.267 184.144C293.287 184.417 283.464 186.988 276.3 197.687C273.563 201.77 267.613 207.313 254.801 210.57L254.801 216.286Z" fill="#E4E4E4"/>
<path d="M376.196 216.747H255.02C254.919 216.747 254.823 216.707 254.752 216.635C254.681 216.564 254.641 216.468 254.641 216.367L254.825 215.945L376.196 215.988C376.296 215.988 376.393 216.028 376.464 216.099C376.535 216.17 376.575 216.267 376.575 216.367C376.575 216.468 376.535 216.564 376.464 216.635C376.393 216.707 376.296 216.747 376.196 216.747H376.196Z" fill="#3F3D56"/>
<path d="M278.068 194.412H277.324V216.213H278.068V194.412Z" fill="#3F3D56"/>
<path d="M300.338 184.229H299.594V216.211H300.338V184.229Z" fill="#3F3D56"/>
<path d="M322.65 190.924H321.906V216.212H322.65V190.924Z" fill="#3F3D56"/>
<path d="M344.966 178.65H344.223V216.211H344.966V178.65Z" fill="#3F3D56"/>
<path d="M367.279 187.205H366.535V216.213H367.279V187.205Z" fill="#3F3D56"/>
<path d="M300.014 187.018C301.27 187.018 302.289 185.999 302.289 184.742C302.289 183.486 301.27 182.467 300.014 182.467C298.757 182.467 297.738 183.486 297.738 184.742C297.738 185.999 298.757 187.018 300.014 187.018Z" fill="#575A89"/>
<path d="M344.639 181.066C345.895 181.066 346.914 180.048 346.914 178.791C346.914 177.534 345.895 176.516 344.639 176.516C343.382 176.516 342.363 177.534 342.363 178.791C342.363 180.048 343.382 181.066 344.639 181.066Z" fill="#575A89"/>
<path d="M322.326 193.34C323.583 193.34 324.601 192.321 324.601 191.064C324.601 189.808 323.583 188.789 322.326 188.789C321.069 188.789 320.051 189.808 320.051 191.064C320.051 192.321 321.069 193.34 322.326 193.34Z" fill="#575A89"/>
<path d="M277.697 196.685C278.954 196.685 279.973 195.667 279.973 194.41C279.973 193.153 278.954 192.135 277.697 192.135C276.441 192.135 275.422 193.153 275.422 194.41C275.422 195.667 276.441 196.685 277.697 196.685Z" fill="#575A89"/>
<path d="M366.951 189.248C368.208 189.248 369.226 188.229 369.226 186.973C369.226 185.716 368.208 184.697 366.951 184.697C365.694 184.697 364.676 185.716 364.676 186.973C364.676 188.229 365.694 189.248 366.951 189.248Z" fill="#575A89"/>
<path d="M299.371 295.63V257.111C299.371 256.874 299.465 256.647 299.633 256.479C299.801 256.311 300.028 256.217 300.266 256.217H304.257C304.494 256.217 304.722 256.311 304.89 256.479C305.057 256.647 305.152 256.874 305.152 257.111V257.111V295.73L299.371 295.63Z" fill="#3F3D56"/>
<path d="M312.555 295.748V265.121C312.555 264.884 312.649 264.656 312.817 264.489C312.984 264.321 313.212 264.227 313.449 264.227H317.441C317.678 264.227 317.906 264.321 318.073 264.489C318.241 264.656 318.335 264.884 318.335 265.121V295.682L312.555 295.748Z" fill="#3F3D56"/>
<path d="M338.924 295.613V251.218C338.907 250.963 338.992 250.712 339.159 250.519C339.327 250.326 339.564 250.207 339.818 250.188H343.81C344.065 250.207 344.302 250.326 344.469 250.519C344.637 250.712 344.721 250.963 344.705 251.218V295.729L338.924 295.613Z" fill="#3F3D56"/>
<path d="M286.188 295.673V274.24C286.188 273.965 286.588 273.742 287.082 273.742H291.074C291.568 273.742 291.968 273.965 291.968 274.24V295.729L286.188 295.673Z" fill="#3F3D56"/>
<path d="M325.738 295.596V245.217C325.738 244.571 326.139 244.047 326.633 244.047H330.624C331.118 244.047 331.519 244.571 331.519 245.217V295.728L325.738 295.596Z" fill="#575A89"/>
<path d="M361.907 296.193H271.628C271.533 296.193 271.442 296.155 271.374 296.088C271.307 296.021 271.27 295.93 271.27 295.835C271.27 295.74 271.307 295.649 271.374 295.581C271.442 295.514 271.533 295.477 271.628 295.477H361.907C362.002 295.477 362.093 295.514 362.161 295.581C362.228 295.649 362.265 295.74 362.265 295.835C362.265 295.93 362.228 296.021 362.161 296.088C362.093 296.155 362.002 296.193 361.907 296.193Z" fill="#3F3D56"/>
<path d="M469.477 333.253L465.249 333.253L463.238 316.945H469.478L469.477 333.253Z" fill="#FFB6B6"/>
<path d="M470.558 337.352L456.926 337.351V337.179C456.926 335.772 457.485 334.422 458.48 333.427C459.475 332.432 460.825 331.873 462.232 331.873H462.232L470.558 331.873L470.558 337.352Z" fill="#2F2E41"/>
<path d="M437.362 333.114L433.277 332.022L435.547 315.748L441.574 317.36L437.362 333.114Z" fill="#FFB6B6"/>
<path d="M437.341 337.35L424.172 333.829L424.216 333.662C424.58 332.303 425.469 331.143 426.687 330.439C427.905 329.735 429.353 329.543 430.713 329.907L430.713 329.907L438.757 332.058L437.341 337.35Z" fill="#2F2E41"/>
<path d="M471.913 241.863L475.454 245.977L470.874 329.585H461.091L456.158 265.252L440.866 331.31L430.695 328.816L439.943 244.913L471.913 241.863Z" fill="#2F2E41"/>
<path d="M442.306 187.886L452.047 183L467.026 183.263L479.917 189.859L472.583 226.488L475.751 245.585H475.751C463.506 248.708 450.686 248.814 438.391 245.893L438.293 245.87C438.293 245.87 445.574 220.034 442.475 212.15L442.306 187.886Z" fill="#E4E4E4"/>
<path d="M470.486 168.364C470.475 165.441 469.305 162.641 467.232 160.58C465.159 158.518 462.353 157.364 459.43 157.369C456.506 157.375 453.705 158.54 451.639 160.609C449.574 162.678 448.414 165.482 448.414 168.405C448.414 171.329 449.574 174.133 451.639 176.202C453.705 178.271 456.506 179.436 459.43 179.441C462.353 179.447 465.159 178.292 467.232 176.231C469.305 174.169 470.475 171.37 470.486 168.446C470.486 168.419 470.486 168.392 470.486 168.364Z" fill="#FFB6B6"/>
<path d="M454.506 162.057C455.078 161.519 455.83 161.215 456.615 161.206C457.795 161.167 459.561 161.586 460.313 162.545C460.917 163.315 460.946 164.375 460.949 165.354L460.955 168.056C460.957 168.856 460.967 169.689 461.33 170.401C461.693 171.114 462.527 171.654 463.288 171.412C464.192 171.124 464.589 169.923 465.513 169.707C466.206 169.545 466.919 170.051 467.222 170.696C467.478 171.364 467.563 172.085 467.469 172.795C467.381 174.21 465.352 174.771 465.064 176.159C464.898 176.962 464.316 178.564 465.064 178.228C468.513 177.883 470.027 175.869 471.605 173.973L475.165 169.696C475.571 169.272 475.884 168.766 476.082 168.213C476.17 167.825 476.202 167.427 476.176 167.03C476.156 165.967 476.127 164.904 476.089 163.842C476.056 162.914 475.822 161.742 474.913 161.552C474.44 161.452 473.815 161.625 473.565 161.212C473.471 161.005 473.456 160.771 473.522 160.553C473.722 159.492 474.061 158.383 473.712 157.361C473.185 155.82 471.372 155.188 469.77 154.897C468.168 154.606 466.369 154.356 465.364 153.076C465.094 152.65 464.802 152.24 464.489 151.846C464.028 151.427 463.461 151.141 462.849 151.019C460.86 150.516 458.759 150.702 456.89 151.548C456.115 151.902 455.337 152.378 454.486 152.324C453.603 152.268 452.849 151.647 451.977 151.495C450.569 151.251 449.223 152.306 448.529 153.556C447.669 155.104 447.59 157.224 448.804 158.513C449.411 159.156 450.315 159.598 450.567 160.444C450.669 160.789 450.645 161.161 450.736 161.509C450.841 161.855 451.043 162.165 451.316 162.402C451.59 162.639 451.926 162.793 452.284 162.848C453.145 162.988 453.873 162.594 454.506 162.057Z" fill="#2F2E41"/>
<path d="M440.96 214.59C441.169 215.129 441.495 215.615 441.912 216.014C442.33 216.413 442.83 216.716 443.378 216.901C443.925 217.086 444.507 217.149 445.081 217.085C445.655 217.021 446.208 216.832 446.702 216.531L466.48 226.986L467.121 222.168L447.902 210.835C447.342 210.04 446.509 209.478 445.562 209.256C444.615 209.033 443.619 209.166 442.763 209.629C441.907 210.092 441.251 210.853 440.919 211.767C440.586 212.681 440.601 213.686 440.96 214.59V214.59Z" fill="#FFB6B6"/>
<path d="M467.317 215.423C466.995 215.903 466.571 216.306 466.076 216.604C465.581 216.902 465.027 217.088 464.452 217.149C463.878 217.21 463.297 217.144 462.75 216.956C462.204 216.768 461.705 216.462 461.29 216.061L439.703 221.935L439.891 215.818L461.365 210.24C462.086 209.587 463.021 209.221 463.994 209.211C464.967 209.201 465.91 209.549 466.643 210.188C467.377 210.827 467.851 211.713 467.975 212.678C468.099 213.642 467.865 214.619 467.317 215.423V215.423Z" fill="#FFB6B6"/>
<path d="M475.709 190.121L479.918 189.857C479.918 189.857 484.846 196.36 482.113 203.416C482.113 203.416 482.586 228.762 471.672 227.721C460.757 226.68 457.309 226.68 457.309 226.68L460.585 217.541L467.914 215.278C467.914 215.278 465.655 205.314 469.931 201.168L475.709 190.121Z" fill="#E4E4E4"/>
<path d="M445.316 189.899L444.721 186.85C444.721 186.85 435.948 186.644 434.213 199.937C434.213 199.937 426.324 219.833 434.057 222.394C441.79 224.956 450.296 222.394 450.296 222.394L449.655 213.621L441.146 211.884C441.146 211.884 445.542 206.198 443.148 201.266L445.316 189.899Z" fill="#E4E4E4"/>
<path d="M499.157 337.75H189.628C189.533 337.75 189.442 337.712 189.374 337.645C189.307 337.578 189.27 337.486 189.27 337.391C189.27 337.296 189.307 337.205 189.374 337.138C189.442 337.071 189.533 337.033 189.628 337.033H499.157C499.252 337.033 499.343 337.071 499.411 337.138C499.478 337.205 499.515 337.296 499.515 337.391C499.515 337.486 499.478 337.578 499.411 337.645C499.343 337.712 499.252 337.75 499.157 337.75Z" fill="#CACACA"/>
</g>
<defs>
<filter id="filter0_d" x="0.269531" y="0.5" width="687" height="572" filterUnits="userSpaceOnUse" color-interpolation-filters="sRGB">
<feFlood flood-opacity="0" result="BackgroundImageFix"/>
<feColorMatrix in="SourceAlpha" type="matrix" values="0 0 0 0 0 0 0 0 0 0 0 0 0 0 0 0 0 0 127 0" result="hardAlpha"/>
<feOffset dy="5"/>
<feGaussianBlur stdDeviation="10"/>
<feComposite in2="hardAlpha" operator="out"/>
<feColorMatrix type="matrix" values="0 0 0 0 0 0 0 0 0 0 0 0 0 0 0 0 0 0 0.25 0"/>
<feBlend mode="normal" in2="BackgroundImageFix" result="effect1_dropShadow"/>
<feBlend mode="normal" in="SourceGraphic" in2="effect1_dropShadow" result="shape"/>
</filter>
<clipPath id="clip0">
<rect width="310.246" height="219.25" fill="white" transform="translate(189.27 118.5)"/>
</clipPath>
</defs>
</svg>
