<svg width="762" height="526" viewBox="0 0 762 526" fill="none" xmlns="http://www.w3.org/2000/svg">
<path d="M761 525.787H1C0.734784 525.787 0.480429 525.682 0.292892 525.494C0.105356 525.307 0 525.052 0 524.787C0 524.522 0.105356 524.268 0.292892 524.08C0.480429 523.892 0.734784 523.787 1 523.787H761C761.265 523.787 761.52 523.892 761.707 524.08C761.895 524.268 762 524.522 762 524.787C762 525.052 761.895 525.307 761.707 525.494C761.52 525.682 761.265 525.787 761 525.787Z" fill="#CCCCCC"/>
<path d="M138.463 512.602L150.722 512.6L156.555 465.312L138.461 465.313L138.463 512.602Z" fill="#FFB8B8"/>
<path d="M135.332 508.599L159.476 508.598H159.477C161.497 508.598 163.498 508.996 165.365 509.769C167.232 510.542 168.928 511.675 170.357 513.104C171.786 514.533 172.919 516.229 173.692 518.096C174.465 519.963 174.863 521.963 174.863 523.984V524.484L135.333 524.485L135.332 508.599Z" fill="#2F2E41"/>
<path d="M102.463 512.602L114.722 512.6L120.555 465.312L102.461 465.313L102.463 512.602Z" fill="#FFB8B8"/>
<path d="M99.332 508.599L123.476 508.598H123.477C125.497 508.598 127.498 508.996 129.365 509.769C131.232 510.542 132.928 511.675 134.357 513.104C135.786 514.533 136.919 516.229 137.692 518.096C138.465 519.963 138.863 521.963 138.863 523.984V524.484L99.3328 524.485L99.332 508.599Z" fill="#2F2E41"/>
<path d="M632.478 505.969L655.919 499.591L659.893 514.198L622.088 524.484L622.022 524.242C620.985 520.432 621.504 516.366 623.465 512.94C625.426 509.513 628.668 507.005 632.478 505.969Z" fill="#2F2E41"/>
<path d="M551.44 512.908L538.974 512.907L533.043 464.822L551.443 464.823L551.44 512.908Z" fill="#FFB8B8"/>
<path d="M529.82 509.346H554.114V524.483H514.934V524.233C514.934 520.284 516.502 516.498 519.294 513.706C522.086 510.914 525.872 509.346 529.82 509.346V509.346Z" fill="#2F2E41"/>
<path d="M495.569 242.549H240.73C236.356 242.544 232.162 240.804 229.069 237.711C225.975 234.617 224.235 230.423 224.23 226.049V25.895C224.234 22.6902 225.509 19.6176 227.775 17.3514C230.041 15.0851 233.114 13.8103 236.318 13.8066H499.772C503.032 13.8104 506.158 15.1072 508.463 17.4126C510.769 19.718 512.065 22.8437 512.069 26.104V226.049C512.064 230.423 510.324 234.617 507.231 237.711C504.137 240.804 499.943 242.544 495.569 242.549V242.549Z" fill="#F2F2F2"/>
<path d="M256.73 226.048H479.569C483.812 226.048 487.882 224.362 490.883 221.362C493.883 218.361 495.569 214.291 495.569 210.048V56.5C495.569 52.2565 493.883 48.1869 490.883 45.1863C487.882 42.1857 483.812 40.5 479.569 40.5H256.73C252.487 40.5 248.417 42.1857 245.417 45.1863C242.416 48.1869 240.73 52.2565 240.73 56.5V210.048C240.73 214.291 242.416 218.361 245.417 221.362C248.417 224.362 252.487 226.048 256.73 226.048Z" fill="white"/>
<path d="M511.84 24.9502H224V16.5498C224.006 12.1607 225.753 7.95334 228.858 4.85073C231.962 1.74812 236.171 0.00363938 240.56 0H495.28C499.669 0.00360501 503.878 1.74808 506.982 4.85069C510.087 7.95331 511.834 12.1607 511.84 16.5498V24.9502Z" fill="#CCCCCC"/>
<path d="M254.096 16.7836C256.462 16.7836 258.379 14.8659 258.379 12.5002C258.379 10.1345 256.462 8.2168 254.096 8.2168C251.73 8.2168 249.812 10.1345 249.812 12.5002C249.812 14.8659 251.73 16.7836 254.096 16.7836Z" fill="white"/>
<path d="M270.354 16.7836C272.719 16.7836 274.637 14.8659 274.637 12.5002C274.637 10.1345 272.719 8.2168 270.354 8.2168C267.988 8.2168 266.07 10.1345 266.07 12.5002C266.07 14.8659 267.988 16.7836 270.354 16.7836Z" fill="white"/>
<path d="M286.612 16.7836C288.977 16.7836 290.895 14.8659 290.895 12.5002C290.895 10.1345 288.977 8.2168 286.612 8.2168C284.246 8.2168 282.328 10.1345 282.328 12.5002C282.328 14.8659 284.246 16.7836 286.612 16.7836Z" fill="white"/>
<path d="M273.129 112.455H262.093C261.495 112.454 260.921 112.216 260.498 111.793C260.075 111.37 259.837 110.796 259.836 110.198V99.1617C259.837 98.5632 260.075 97.9894 260.498 97.5662C260.921 97.143 261.495 96.905 262.093 96.9043H273.129C273.728 96.905 274.302 97.143 274.725 97.5662C275.148 97.9894 275.386 98.5632 275.387 99.1617V110.198C275.386 110.796 275.148 111.37 274.725 111.793C274.302 112.216 273.728 112.454 273.129 112.455V112.455Z" fill="#575A89"/>
<path d="M273.129 141.049H262.093C261.495 141.048 260.921 140.81 260.498 140.387C260.075 139.964 259.837 139.39 259.836 138.791V127.755C259.837 127.157 260.075 126.583 260.498 126.16C260.921 125.737 261.495 125.499 262.093 125.498H273.129C273.728 125.499 274.302 125.737 274.725 126.16C275.148 126.583 275.386 127.157 275.387 127.755V138.791C275.386 139.39 275.148 139.964 274.725 140.387C274.302 140.81 273.728 141.048 273.129 141.049Z" fill="#3F3D56"/>
<path d="M273.129 169.643H262.093C261.495 169.642 260.921 169.404 260.498 168.981C260.075 168.557 259.837 167.984 259.836 167.385V156.349C259.837 155.751 260.075 155.177 260.498 154.754C260.921 154.33 261.495 154.092 262.093 154.092H273.129C273.728 154.092 274.302 154.33 274.725 154.754C275.148 155.177 275.386 155.751 275.387 156.349V167.385C275.386 167.984 275.148 168.557 274.725 168.981C274.302 169.404 273.728 169.642 273.129 169.643V169.643Z" fill="#CCCCCC"/>
<path d="M345.367 106.939H292.194C291.596 106.937 291.023 106.699 290.601 106.276C290.179 105.853 289.941 105.279 289.941 104.681C289.941 104.083 290.179 103.51 290.601 103.087C291.023 102.663 291.596 102.425 292.194 102.424H345.367C345.664 102.423 345.958 102.481 346.233 102.594C346.507 102.707 346.757 102.874 346.967 103.083C347.177 103.293 347.344 103.542 347.457 103.816C347.571 104.09 347.63 104.384 347.63 104.681C347.63 104.978 347.571 105.272 347.457 105.546C347.344 105.82 347.177 106.069 346.967 106.279C346.757 106.489 346.507 106.655 346.233 106.768C345.958 106.881 345.664 106.939 345.367 106.939V106.939Z" fill="#CCCCCC"/>
<path d="M345.367 135.53H292.194C291.596 135.529 291.023 135.291 290.601 134.868C290.179 134.444 289.941 133.871 289.941 133.273C289.941 132.675 290.179 132.102 290.601 131.678C291.023 131.255 291.596 131.017 292.194 131.016H345.367C345.966 131.016 346.54 131.253 346.964 131.677C347.387 132.1 347.625 132.674 347.625 133.273C347.625 133.872 347.387 134.446 346.964 134.869C346.54 135.293 345.966 135.53 345.367 135.53Z" fill="#CCCCCC"/>
<path d="M345.367 164.124H292.194C291.596 164.123 291.023 163.884 290.601 163.461C290.179 163.038 289.941 162.465 289.941 161.867C289.941 161.269 290.179 160.695 290.601 160.272C291.023 159.849 291.596 159.611 292.194 159.609H345.367C345.664 159.609 345.958 159.667 346.233 159.78C346.507 159.893 346.757 160.059 346.967 160.269C347.177 160.479 347.344 160.728 347.457 161.002C347.571 161.276 347.63 161.57 347.63 161.867C347.63 162.164 347.571 162.458 347.457 162.732C347.344 163.006 347.177 163.255 346.967 163.465C346.757 163.674 346.507 163.84 346.233 163.954C345.958 164.067 345.664 164.125 345.367 164.124V164.124Z" fill="#CCCCCC"/>
<path d="M476.377 133.99C476.434 133.041 476.466 132.086 476.466 131.122C476.466 118.573 471.481 106.538 462.607 97.6637C453.733 88.7899 441.698 83.8047 429.148 83.8047V133.99H476.377Z" fill="#575A89"/>
<path d="M425.562 138.293V88.1074C416.325 88.107 407.291 90.81 399.572 95.8828C391.853 100.956 385.788 108.177 382.124 116.655C378.46 125.134 377.358 134.5 378.953 143.597C380.549 152.695 384.772 161.127 391.102 167.853C397.432 174.58 405.592 179.306 414.576 181.45C423.56 183.594 432.975 183.062 441.661 179.919C450.346 176.776 457.922 171.16 463.453 163.763C468.985 156.366 472.231 147.512 472.791 138.293H425.562Z" fill="#3F3D56"/>
<path d="M504.691 248.926C505.024 249.379 505.322 249.858 505.58 250.358L555.694 255.993L562.982 246.145L579.281 255.203L564.934 279.122L503.538 263.009C501.976 264.511 499.993 265.502 497.854 265.85C495.715 266.197 493.521 265.886 491.563 264.956C489.605 264.026 487.977 262.523 486.895 260.645C485.812 258.767 485.328 256.605 485.504 254.445C485.681 252.285 486.511 250.23 487.884 248.553C489.258 246.876 491.109 245.657 493.191 245.058C495.274 244.459 497.49 244.509 499.544 245.2C501.598 245.89 503.393 247.19 504.691 248.926V248.926Z" fill="#FFB8B8"/>
<path d="M248.986 235.988C247.719 236.733 246.304 237.191 244.84 237.33C243.377 237.469 241.9 237.285 240.516 236.792C239.131 236.298 237.871 235.507 236.825 234.474C235.779 233.441 234.972 232.191 234.461 230.813L198.734 231.558L208.632 215.846L241.042 217.547C243.414 216.842 245.963 217.033 248.205 218.082C250.447 219.131 252.226 220.966 253.205 223.239C254.184 225.512 254.296 228.065 253.518 230.415C252.741 232.765 251.128 234.748 248.986 235.988V235.988Z" fill="#FFB8B8"/>
<path d="M233.284 231.49C233 232.437 232.413 233.265 231.613 233.845C230.813 234.426 229.844 234.727 228.856 234.704L163.469 233.043L104.262 215.513C102.633 215.031 101.116 214.229 99.7995 213.155C98.4827 212.082 97.3926 210.757 96.5924 209.258C95.7923 207.759 95.2981 206.116 95.1386 204.424C94.9791 202.733 95.1575 201.026 95.6634 199.404C96.1693 197.782 96.9926 196.277 98.0855 194.976C99.1783 193.675 100.519 192.604 102.029 191.826C103.54 191.048 105.19 190.578 106.883 190.443C108.577 190.308 110.281 190.511 111.895 191.041L165.386 208.579L229.587 214.774C230.711 214.888 231.752 215.419 232.505 216.262C233.258 217.105 233.668 218.2 233.654 219.33L233.468 230.281C233.462 230.69 233.4 231.097 233.284 231.49V231.49Z" fill="#3F3D56"/>
<path d="M94.2344 321.492L97.1618 495.186C97.1711 495.736 97.2937 496.278 97.522 496.779C97.7504 497.279 98.0795 497.727 98.4889 498.095C98.8982 498.463 99.379 498.742 99.9011 498.915C100.423 499.088 100.975 499.152 101.523 499.102L115.87 497.798C116.811 497.713 117.691 497.297 118.355 496.624C119.018 495.952 119.422 495.066 119.495 494.124L127.894 385.778C127.914 385.524 128.03 385.287 128.219 385.115C128.408 384.944 128.656 384.851 128.911 384.856C129.166 384.861 129.41 384.963 129.592 385.142C129.774 385.321 129.881 385.563 129.891 385.818L134.089 496.644C134.128 497.678 134.566 498.656 135.311 499.374C136.057 500.091 137.051 500.492 138.086 500.492H153.471C154.49 500.492 155.47 500.104 156.212 499.406C156.954 498.708 157.402 497.753 157.464 496.736L168.234 320.492L104.234 304.492L94.2344 321.492Z" fill="#2F2E41"/>
<path d="M140.655 158.395C154.219 158.395 165.216 147.399 165.216 133.834C165.216 120.27 154.219 109.273 140.655 109.273C127.09 109.273 116.094 120.27 116.094 133.834C116.094 147.399 127.09 158.395 140.655 158.395Z" fill="#FFB8B8"/>
<path d="M167.292 327.931C167.268 327.931 167.244 327.93 167.22 327.93L109.789 327.047C108.685 327.03 107.626 326.608 106.813 325.861C106 325.113 105.49 324.094 105.381 322.995L104.731 316.492C104.718 316.369 104.66 316.254 104.568 316.171C104.477 316.088 104.357 316.042 104.233 316.042C104.109 316.042 103.989 316.088 103.897 316.171C103.806 316.254 103.748 316.369 103.735 316.492L103.064 323.209C102.96 324.26 102.488 325.242 101.732 325.98C100.977 326.719 99.9849 327.167 98.9312 327.247L94.8726 327.559C94.1573 327.615 93.4392 327.498 92.7782 327.219C92.1172 326.94 91.5324 326.507 91.0726 325.957C90.6129 325.406 90.2915 324.753 90.1353 324.053C89.9791 323.353 89.9926 322.625 90.1746 321.931L93.6693 308.607C100.901 280.916 101.482 251.906 95.367 223.947L93.6304 216.048C92.3214 210.146 92.9205 203.982 95.3415 198.443C97.7625 192.905 101.88 188.278 107.101 185.231L118.381 178.619L123.499 170.942C124.489 169.46 125.822 168.239 127.385 167.382C128.948 166.525 130.694 166.058 132.476 166.019C139.616 165.863 151.863 167.171 154.164 177.61C159.866 179.558 164.804 183.264 168.268 188.194C171.733 193.125 173.545 199.026 173.446 205.052L171.789 323.494C171.772 324.676 171.291 325.804 170.45 326.634C169.608 327.465 168.474 327.931 167.292 327.931V327.931Z" fill="#3F3D56"/>
<path d="M138.731 147.993C138.631 151.465 136.22 153.474 133.261 155.292C130.301 157.111 126.842 157.899 123.453 158.66C122.998 158.902 122.488 159.022 121.973 159.009C121.457 158.997 120.954 158.852 120.511 158.588C120.069 158.324 119.701 157.951 119.445 157.503C119.189 157.056 119.052 156.551 119.048 156.035L115.939 144.212C114.84 140.435 114.039 136.578 113.546 132.675C112.798 125.166 114.577 117.088 119.818 111.659C125.06 106.23 134.149 104.301 140.43 108.484C147.884 98.9642 181.953 119.997 173.549 126.617C172.054 127.794 169.768 126.304 167.871 126.16C165.973 126.015 163.846 126.349 162.641 127.822C161.066 129.746 161.752 132.613 161.103 135.013C160.834 135.858 160.401 136.641 159.829 137.317C159.256 137.993 158.555 138.55 157.766 138.954C156.978 139.358 156.117 139.602 155.233 139.672C154.35 139.742 153.461 139.637 152.619 139.361C151.05 138.588 149.574 137.639 148.219 136.533C146.763 135.563 144.924 134.847 143.285 135.458C141.126 136.264 140.358 138.909 140.163 141.206C139.834 143.497 139.356 145.764 138.731 147.993V147.993Z" fill="#2F2E41"/>
<path opacity="0.2" d="M144.469 213.818L148.469 262.818L169.469 313.818L138.469 263.818L144.469 213.818Z" fill="black"/>
<path d="M402.819 482.146L183.649 352.12C179.889 349.883 177.17 346.247 176.088 342.008C175.006 337.77 175.649 333.275 177.877 329.51L280.002 157.371C281.64 154.616 284.304 152.624 287.409 151.831C290.514 151.038 293.807 151.51 296.565 153.142L523.145 287.564C525.947 289.231 527.974 291.941 528.78 295.1C529.587 298.259 529.107 301.609 527.447 304.415L425.428 476.375C423.192 480.134 419.556 482.854 415.317 483.936C411.079 485.018 406.584 484.374 402.819 482.146Z" fill="#F2F2F2"/>
<path d="M205.829 346.093L397.478 459.792C401.127 461.957 405.488 462.584 409.599 461.534C413.711 460.485 417.237 457.845 419.402 454.195L497.747 322.138C499.912 318.489 500.539 314.129 499.489 310.017C498.44 305.906 495.8 302.379 492.15 300.214L300.501 186.515C296.851 184.35 292.491 183.723 288.38 184.773C284.268 185.822 280.742 188.462 278.577 192.112L200.232 324.169C198.067 327.818 197.44 332.178 198.489 336.29C199.539 340.401 202.179 343.928 205.829 346.093V346.093Z" fill="white"/>
<path d="M527.838 303.306L280.285 156.441L284.571 149.216C286.816 145.444 290.466 142.717 294.719 141.633C298.972 140.549 303.481 141.196 307.258 143.432L526.327 273.398C530.1 275.641 532.829 279.288 533.916 283.541C535.003 287.793 534.359 292.303 532.125 296.081L527.838 303.306Z" fill="#CCCCCC"/>
<path d="M312.518 165.372C314.883 165.372 316.801 163.454 316.801 161.088C316.801 158.722 314.883 156.805 312.518 156.805C310.152 156.805 308.234 158.722 308.234 161.088C308.234 163.454 310.152 165.372 312.518 165.372Z" fill="white"/>
<path d="M326.502 173.668C328.868 173.668 330.786 171.751 330.786 169.385C330.786 167.019 328.868 165.102 326.502 165.102C324.136 165.102 322.219 167.019 322.219 169.385C322.219 171.751 324.136 173.668 326.502 173.668Z" fill="white"/>
<path d="M340.487 181.963C342.852 181.963 344.77 180.046 344.77 177.68C344.77 175.314 342.852 173.396 340.487 173.396C338.121 173.396 336.203 175.314 336.203 177.68C336.203 180.046 338.121 181.963 340.487 181.963Z" fill="white"/>
<path d="M472.755 328.376L472.477 328.846L475.294 330.517L475.573 330.048L472.755 328.376Z" fill="#E6E6E6"/>
<path d="M466.787 325.469L461.095 322.092L461.373 321.622L467.065 325L466.787 325.469ZM455.402 318.715L449.71 315.338L449.989 314.869L455.681 318.245L455.402 318.715ZM444.018 311.961L438.326 308.584L438.604 308.115L444.297 311.492L444.018 311.961ZM432.633 305.207L426.941 301.83L427.22 301.361L432.912 304.737L432.633 305.207ZM421.249 298.453L415.557 295.076L415.836 294.607L421.528 297.984L421.249 298.453ZM409.865 291.699L404.172 288.322L404.451 287.852L410.143 291.229L409.865 291.699ZM398.48 284.945L392.788 281.568L393.067 281.099L398.759 284.476L398.48 284.945ZM387.096 278.191L381.404 274.814L381.682 274.344L387.374 277.721L387.096 278.191ZM375.711 271.437L370.019 268.06L370.298 267.591L375.99 270.968L375.711 271.437ZM364.327 264.683L358.635 261.306L358.913 260.837L364.606 264.214L364.327 264.683ZM352.943 257.929L347.25 254.552L347.529 254.083L353.221 257.46L352.943 257.929ZM341.558 251.175L335.866 247.798L336.145 247.328L341.837 250.706L341.558 251.175ZM330.174 244.421L324.481 241.044L324.76 240.574L330.452 243.952L330.174 244.421ZM318.789 237.667L313.097 234.29L313.376 233.82L319.068 237.198L318.789 237.667ZM307.405 230.913L301.713 227.536L301.991 227.066L307.683 230.444L307.405 230.913ZM296.02 224.159L290.328 220.782L290.607 220.312L296.299 223.69L296.02 224.159Z" fill="#E6E6E6"/>
<path d="M282.095 215.263L281.816 215.732L284.634 217.404L284.913 216.934L282.095 215.263Z" fill="#E6E6E6"/>
<path d="M354.333 317.165L354.055 317.635L356.872 319.306L357.151 318.837L354.333 317.165Z" fill="#E6E6E6"/>
<path d="M348.447 314.308L342.839 310.981L343.118 310.511L348.726 313.838L348.447 314.308ZM337.232 307.654L331.624 304.327L331.903 303.858L337.51 307.185L337.232 307.654ZM326.016 301L320.409 297.674L320.687 297.204L326.295 300.531L326.016 301ZM314.801 294.347L309.193 291.02L309.472 290.55L315.08 293.877L314.801 294.347ZM303.586 287.693L297.978 284.366L298.257 283.897L303.864 287.224L303.586 287.693ZM292.37 281.039L286.763 277.713L287.041 277.243L292.649 280.57L292.37 281.039ZM281.155 274.386L275.547 271.059L275.826 270.589L281.434 273.916L281.155 274.386ZM269.94 267.732L264.332 264.405L264.611 263.936L270.218 267.262L269.94 267.732Z" fill="#E6E6E6"/>
<path d="M256.185 258.937L255.906 259.406L258.724 261.078L259.003 260.608L256.185 258.937Z" fill="#E6E6E6"/>
<path d="M287.13 305.232L286.852 305.701L289.669 307.373L289.948 306.903L287.13 305.232Z" fill="#E6E6E6"/>
<path d="M281.082 302.279L275.312 298.856L275.591 298.387L281.36 301.809L281.082 302.279ZM269.543 295.433L263.773 292.011L264.052 291.541L269.821 294.964L269.543 295.433ZM258.004 288.588L252.234 285.165L252.513 284.695L258.282 288.118L258.004 288.588Z" fill="#E6E6E6"/>
<path d="M243.927 279.601L243.648 280.07L246.466 281.742L246.745 281.272L243.927 279.601Z" fill="#E6E6E6"/>
<path d="M266.212 340.493L265.934 340.963L268.751 342.635L269.03 342.165L266.212 340.493Z" fill="#E6E6E6"/>
<path d="M260.164 337.539L254.394 334.116L254.673 333.646L260.442 337.069L260.164 337.539ZM248.625 330.693L242.855 327.27L243.134 326.801L248.903 330.224L248.625 330.693ZM237.086 323.847L231.316 320.425L231.595 319.955L237.364 323.378L237.086 323.847Z" fill="#E6E6E6"/>
<path d="M223.009 314.86L222.73 315.33L225.548 317.002L225.827 316.532L223.009 314.86Z" fill="#E6E6E6"/>
<path d="M238.402 325.115L400.812 421.467C404.747 423.796 409.445 424.469 413.876 423.338C418.306 422.207 422.107 419.364 424.444 415.435L471.897 335.448L471.571 335.267L363.905 362.748L355.377 329.355C355.221 328.738 354.925 328.165 354.51 327.681C354.096 327.198 353.576 326.817 352.989 326.568C352.093 326.207 351.103 326.151 350.172 326.41L293.75 340.809L287.514 316.394C287.379 315.867 287.142 315.372 286.816 314.937C286.491 314.501 286.082 314.134 285.614 313.857C285.147 313.579 284.629 313.397 284.091 313.319C283.552 313.242 283.004 313.272 282.477 313.406C282.096 313.507 245.382 323.235 238.402 325.115Z" fill="#575A89"/>
<path d="M237.432 325.175L237.297 324.646L282.446 313.12C283.639 312.817 284.903 312.999 285.961 313.627C287.02 314.255 287.786 315.277 288.091 316.469L294.201 340.404L350.31 326.08C351.502 325.777 352.766 325.96 353.825 326.587C354.883 327.215 355.649 328.237 355.954 329.429L364.357 362.343L472.583 334.715L472.718 335.244L363.963 363.007L355.425 329.564C355.292 329.043 355.058 328.554 354.736 328.123C354.413 327.692 354.01 327.33 353.547 327.055C353.085 326.781 352.572 326.6 352.04 326.524C351.508 326.447 350.966 326.476 350.445 326.609L293.807 341.068L287.562 316.604C287.292 315.552 286.616 314.65 285.683 314.096C284.749 313.542 283.634 313.381 282.581 313.649L237.432 325.175Z" fill="#3F3D56"/>
<path d="M289.81 310.961C291.921 310.961 293.633 309.25 293.633 307.139C293.633 305.028 291.921 303.316 289.81 303.316C287.7 303.316 285.988 305.028 285.988 307.139C285.988 309.25 287.7 310.961 289.81 310.961Z" fill="#3F3D56"/>
<path d="M357.014 322.894C359.125 322.894 360.836 321.183 360.836 319.072C360.836 316.961 359.125 315.25 357.014 315.25C354.903 315.25 353.191 316.961 353.191 319.072C353.191 321.183 354.903 322.894 357.014 322.894Z" fill="#3F3D56"/>
<path d="M474.092 332.1C476.203 332.1 477.914 330.388 477.914 328.277C477.914 326.166 476.203 324.455 474.092 324.455C471.981 324.455 470.27 326.166 470.27 328.277C470.27 330.388 471.981 332.1 474.092 332.1Z" fill="#3F3D56"/>
<path d="M174.38 332.812C173.233 331.891 172.303 330.731 171.654 329.412C171.004 328.093 170.652 326.648 170.622 325.178C170.592 323.708 170.884 322.25 171.478 320.905C172.073 319.56 172.955 318.363 174.062 317.396L160.684 284.26L178.886 287.935L188.8 318.838C190.301 320.806 191.028 323.257 190.843 325.725C190.658 328.193 189.574 330.508 187.796 332.23C186.019 333.952 183.671 334.963 181.199 335.07C178.726 335.177 176.3 334.374 174.38 332.812V332.812Z" fill="#FFB8B8"/>
<path d="M174.156 318.453C173.17 318.524 172.188 318.269 171.361 317.727C170.534 317.185 169.908 316.386 169.58 315.454L147.922 253.736L143.294 192.162C143.166 190.468 143.377 188.765 143.913 187.153C144.45 185.541 145.301 184.051 146.419 182.771C147.536 181.491 148.896 180.445 150.421 179.696C151.946 178.946 153.605 178.507 155.301 178.404C156.997 178.302 158.697 178.537 160.301 179.097C161.905 179.657 163.382 180.53 164.646 181.666C165.909 182.802 166.935 184.178 167.662 185.713C168.389 187.249 168.804 188.914 168.882 190.611L171.473 246.844L188.471 309.063C188.763 310.155 188.637 311.316 188.116 312.319C187.595 313.323 186.717 314.094 185.656 314.483L175.352 318.196C174.967 318.336 174.565 318.422 174.156 318.453V318.453Z" fill="#3F3D56"/>
<path d="M575.717 263.767C575.314 263.59 574.938 263.355 574.601 263.071L554.46 246.104C553.976 245.696 553.582 245.193 553.302 244.625C553.023 244.057 552.864 243.437 552.836 242.804C552.809 242.172 552.913 241.541 553.141 240.951C553.37 240.36 553.719 239.824 554.166 239.376L572.443 221.023C573.21 220.246 574.231 219.771 575.32 219.684C576.409 219.598 577.492 219.905 578.373 220.551L592.195 230.588C593.057 231.215 593.674 232.123 593.938 233.156C594.203 234.189 594.098 235.282 593.643 236.246L581.686 261.527C581.177 262.603 580.269 263.438 579.155 263.856C578.041 264.274 576.808 264.242 575.717 263.767L575.717 263.767Z" fill="#575A89"/>
<path d="M654.276 503.73L642.247 507.003L623.898 462.162L641.652 457.332L654.276 503.73Z" fill="#FFB8B8"/>
<path d="M570.221 195.428C584.014 195.428 595.196 184.247 595.196 170.453C595.196 156.66 584.014 145.479 570.221 145.479C556.428 145.479 545.246 156.66 545.246 170.453C545.246 184.247 556.428 195.428 570.221 195.428Z" fill="#FFB8B8"/>
<path d="M550.68 478.625H533.644C532.479 478.623 531.359 478.178 530.51 477.381C529.661 476.583 529.147 475.493 529.072 474.331C523.996 393.632 526.965 335.745 538.417 292.158C538.467 291.968 538.529 291.78 538.602 291.597L539.515 289.316C539.852 288.465 540.437 287.736 541.195 287.223C541.953 286.709 542.848 286.437 543.763 286.439H578.796C579.456 286.439 580.109 286.581 580.708 286.857C581.308 287.133 581.841 287.536 582.27 288.037L587.029 293.589C587.121 293.697 587.208 293.808 587.292 293.924C608.749 323.846 627.978 382.344 650.248 460.971C650.577 462.114 650.446 463.34 649.884 464.387C649.322 465.435 648.373 466.222 647.239 466.581L628.931 472.439C627.88 472.77 626.745 472.713 625.733 472.278C624.72 471.843 623.898 471.058 623.415 470.068L575.905 371.528C575.572 370.839 575.027 370.275 574.35 369.921C573.672 369.566 572.899 369.439 572.143 369.558C571.388 369.678 570.692 370.037 570.156 370.583C569.621 371.129 569.276 371.834 569.173 372.591L555.213 474.669C555.06 475.763 554.517 476.766 553.684 477.493C552.852 478.219 551.785 478.621 550.68 478.625V478.625Z" fill="#2F2E41"/>
<path d="M585.107 293.994C585.059 293.994 585.012 293.993 584.963 293.992L542.41 292.649C541.316 292.618 540.269 292.195 539.461 291.457C538.653 290.719 538.137 289.715 538.008 288.628C532.614 244.963 547.408 233.265 554.019 230.263C554.572 230.014 555.05 229.626 555.409 229.137C555.767 228.649 555.993 228.076 556.065 227.474L556.637 222.897C556.735 222.089 557.047 221.321 557.541 220.675C567.907 207.247 582.061 202.947 589.575 201.58C590.184 201.47 590.81 201.486 591.413 201.625C592.016 201.765 592.585 202.026 593.084 202.392C593.584 202.758 594.004 203.222 594.318 203.755C594.633 204.288 594.836 204.88 594.915 205.494L595.772 212.066C595.859 212.693 596.109 213.286 596.497 213.786C618.115 242.046 594.032 283.773 588.984 291.85C588.572 292.506 588 293.047 587.322 293.422C586.644 293.797 585.882 293.994 585.107 293.994V293.994Z" fill="#575A89"/>
<path d="M597.699 154.92C595.845 149.297 594.475 143.525 593.607 137.668C593.334 134.258 594.207 130.588 596.691 128.236C601.338 123.832 609.234 125.93 614.095 130.097C621.119 136.119 624.622 145.375 625.946 154.532C627.27 163.69 626.687 173.002 627.006 182.249C627.325 191.496 628.647 201.004 633.362 208.966C638.076 216.927 646.825 223.039 656.052 222.361C659.777 222.16 663.314 220.661 666.049 218.125C667.391 216.847 668.408 215.267 669.014 213.516C669.619 211.764 669.796 209.893 669.53 208.06C674.246 216.505 671.855 227.951 664.821 234.59C657.786 241.229 646.965 243.106 637.716 240.272C628.468 237.437 620.856 230.329 616.309 221.791C611.763 213.253 610.097 203.39 610.338 193.72C610.523 186.294 611.786 178.808 610.531 171.486C609.276 164.165 604.694 156.731 597.469 155.007L597.699 154.92Z" fill="#2F2E41"/>
<path d="M565.253 164.546C564.021 168.662 559.309 171.199 555.07 170.503C552.96 170.064 551.008 169.062 549.421 167.604C547.835 166.145 546.672 164.284 546.058 162.218C544.893 158.033 545.37 153.561 547.391 149.715C548.504 147.41 550.061 145.347 551.973 143.644C553.884 141.941 556.113 140.632 558.531 139.792C560.963 138.986 563.553 138.776 566.083 139.18C568.613 139.584 571.008 140.591 573.068 142.114C573.287 141.19 573.749 140.341 574.406 139.654C575.062 138.967 575.89 138.468 576.804 138.207C578.644 137.712 580.586 137.74 582.41 138.29C587.668 139.788 592.223 143.103 595.267 147.643C598.272 152.17 600.26 157.295 601.094 162.664C602.529 170.716 602 179.514 597.478 186.329C592.955 193.144 583.704 197.168 576.198 193.919C575.73 191.526 576.839 189.117 578.121 187.044C579.404 184.971 580.924 182.951 581.417 180.563C581.91 178.176 580.965 175.255 578.655 174.474C576.685 173.808 574.584 174.887 572.509 175.018C571.33 175.092 570.152 174.855 569.094 174.33C568.036 173.805 567.134 173.011 566.48 172.028C565.825 171.045 565.441 169.907 565.365 168.728C565.289 167.549 565.525 166.372 566.048 165.313L565.253 164.546Z" fill="#2F2E41"/>
<path d="M501.954 267.434C502.367 267.816 502.75 268.23 503.098 268.672L553.375 264.759L558.676 253.715L576.39 259.537L566.809 285.732L503.477 281.482C502.226 283.251 500.465 284.598 498.43 285.343C496.395 286.088 494.181 286.195 492.083 285.651C489.986 285.107 488.103 283.937 486.686 282.297C485.27 280.658 484.386 278.625 484.152 276.471C483.918 274.316 484.346 272.141 485.379 270.236C486.411 268.33 487.999 266.784 489.932 265.803C491.864 264.822 494.05 264.453 496.197 264.744C498.345 265.036 500.353 265.974 501.954 267.434V267.434Z" fill="#FFB8B8"/>
<path d="M576.118 276.983C575.694 276.863 575.289 276.681 574.917 276.445L552.652 262.382C552.117 262.044 551.657 261.598 551.303 261.074C550.949 260.549 550.707 259.957 550.594 259.334C550.48 258.712 550.497 258.072 550.643 257.456C550.79 256.84 551.062 256.261 551.444 255.756L567.049 235.084C567.703 234.21 568.65 233.6 569.717 233.366C570.784 233.131 571.899 233.289 572.86 233.808L587.92 241.868C588.86 242.371 589.595 243.187 589.997 244.174C590.4 245.162 590.445 246.259 590.126 247.276L581.725 273.951C581.368 275.086 580.582 276.037 579.536 276.603C578.489 277.169 577.263 277.305 576.118 276.983V276.983Z" fill="#575A89"/>
</svg>
