<svg width="995" height="698" viewBox="0 0 995 698" fill="none" xmlns="http://www.w3.org/2000/svg">
<g clip-path="url(#clip0)">
<path d="M812.69 437.547H171.852C167.477 437.542 163.283 435.802 160.19 432.709C157.096 429.615 155.357 425.421 155.352 421.047V25.8931C155.355 22.6882 156.63 19.6156 158.896 17.3494C161.162 15.0832 164.235 13.8084 167.439 13.8047H816.893C820.153 13.8084 823.279 15.1052 825.584 17.4106C827.89 19.716 829.186 22.8418 829.19 26.1021V421.047C829.185 425.421 827.445 429.615 824.352 432.709C821.259 435.802 817.065 437.542 812.69 437.547V437.547Z" fill="#F2F2F2"/>
<path d="M789.31 414.182H192.065C183.31 414.182 176.188 407.512 176.188 399.313V55.2085C176.188 49.1284 181.465 44.1816 187.953 44.1816H793.227C799.822 44.1816 805.188 49.21 805.188 55.3901V399.313C805.188 407.512 798.065 414.182 789.31 414.182Z" fill="white"/>
<path d="M828.958 24.9502H155.117V16.5498C155.124 12.1607 156.871 7.95332 159.975 4.85071C163.08 1.7481 167.288 0.00362614 171.677 0H812.397C816.787 0.00360501 820.995 1.74807 824.1 4.85069C827.204 7.9533 828.951 12.1607 828.958 16.5498V24.9502Z" fill="#CCCCCC"/>
<path d="M185.213 16.7836C187.579 16.7836 189.497 14.8659 189.497 12.5002C189.497 10.1345 187.579 8.2168 185.213 8.2168C182.847 8.2168 180.93 10.1345 180.93 12.5002C180.93 14.8659 182.847 16.7836 185.213 16.7836Z" fill="white"/>
<path d="M201.471 16.7836C203.837 16.7836 205.754 14.8659 205.754 12.5002C205.754 10.1345 203.837 8.2168 201.471 8.2168C199.105 8.2168 197.188 10.1345 197.188 12.5002C197.188 14.8659 199.105 16.7836 201.471 16.7836Z" fill="white"/>
<path d="M217.733 16.7836C220.098 16.7836 222.016 14.8659 222.016 12.5002C222.016 10.1345 220.098 8.2168 217.733 8.2168C215.367 8.2168 213.449 10.1345 213.449 12.5002C213.449 14.8659 215.367 16.7836 217.733 16.7836Z" fill="white"/>
<path d="M723.573 356.469H260.734C256.095 356.463 251.647 354.618 248.366 351.337C245.085 348.057 243.24 343.608 243.234 338.969V115.815C243.238 112.345 244.618 109.018 247.072 106.565C249.526 104.111 252.852 102.731 256.322 102.727H727.776C731.301 102.731 734.681 104.133 737.174 106.626C739.667 109.119 741.069 112.499 741.073 116.024V338.969C741.068 343.608 739.222 348.057 735.941 351.337C732.661 354.618 728.213 356.464 723.573 356.469V356.469ZM256.322 104.727C253.383 104.73 250.564 105.899 248.486 107.978C246.407 110.057 245.238 112.875 245.234 115.815V338.969C245.239 343.078 246.874 347.018 249.779 349.924C252.685 352.83 256.625 354.464 260.734 354.469H723.573C727.682 354.464 731.622 352.83 734.528 349.924C737.434 347.018 739.068 343.078 739.073 338.969V116.024C739.07 113.029 737.878 110.157 735.76 108.039C733.642 105.921 730.771 104.73 727.776 104.727H256.322Z" fill="#CCCCCC"/>
<path d="M276.734 338.97H707.573C711.816 338.97 715.886 337.284 718.887 334.283C721.887 331.283 723.573 327.213 723.573 322.97V136.422C723.573 132.178 721.887 128.109 718.887 125.108C715.886 122.108 711.816 120.422 707.573 120.422H276.734C272.491 120.422 268.421 122.108 265.421 125.108C262.42 128.109 260.734 132.178 260.734 136.422V322.97C260.734 327.213 262.42 331.283 265.421 334.283C268.421 337.284 272.491 338.97 276.734 338.97Z" fill="#F2F2F2"/>
<path d="M325.652 174.695C330.623 174.695 334.652 170.666 334.652 165.695C334.652 160.725 330.623 156.695 325.652 156.695C320.682 156.695 316.652 160.725 316.652 165.695C316.652 170.666 320.682 174.695 325.652 174.695Z" fill="#CCCCCC"/>
<path d="M325.652 208.695C330.623 208.695 334.652 204.666 334.652 199.695C334.652 194.725 330.623 190.695 325.652 190.695C320.682 190.695 316.652 194.725 316.652 199.695C316.652 204.666 320.682 208.695 325.652 208.695Z" fill="#CCCCCC"/>
<path d="M325.652 242.695C330.623 242.695 334.652 238.666 334.652 233.695C334.652 228.725 330.623 224.695 325.652 224.695C320.682 224.695 316.652 228.725 316.652 233.695C316.652 238.666 320.682 242.695 325.652 242.695Z" fill="#CCCCCC"/>
<path d="M325.652 276.695C330.623 276.695 334.652 272.666 334.652 267.695C334.652 262.725 330.623 258.695 325.652 258.695C320.682 258.695 316.652 262.725 316.652 267.695C316.652 272.666 320.682 276.695 325.652 276.695Z" fill="#CCCCCC"/>
<path d="M666.652 166.695H370.652C370.387 166.695 370.133 166.59 369.945 166.402C369.758 166.215 369.652 165.961 369.652 165.695C369.652 165.43 369.758 165.176 369.945 164.988C370.133 164.801 370.387 164.695 370.652 164.695H666.652C666.918 164.695 667.172 164.801 667.359 164.988C667.547 165.176 667.652 165.43 667.652 165.695C667.652 165.961 667.547 166.215 667.359 166.402C667.172 166.59 666.918 166.695 666.652 166.695Z" fill="#CCCCCC"/>
<path d="M666.652 200.695H370.652C370.387 200.695 370.133 200.59 369.945 200.402C369.758 200.215 369.652 199.961 369.652 199.695C369.652 199.43 369.758 199.176 369.945 198.988C370.133 198.801 370.387 198.695 370.652 198.695H666.652C666.918 198.695 667.172 198.801 667.359 198.988C667.547 199.176 667.652 199.43 667.652 199.695C667.652 199.961 667.547 200.215 667.359 200.402C667.172 200.59 666.918 200.695 666.652 200.695Z" fill="#CCCCCC"/>
<path d="M666.652 234.695H370.652C370.387 234.695 370.133 234.59 369.945 234.402C369.758 234.215 369.652 233.961 369.652 233.695C369.652 233.43 369.758 233.176 369.945 232.988C370.133 232.801 370.387 232.695 370.652 232.695H666.652C666.918 232.695 667.172 232.801 667.359 232.988C667.547 233.176 667.652 233.43 667.652 233.695C667.652 233.961 667.547 234.215 667.359 234.402C667.172 234.59 666.918 234.695 666.652 234.695Z" fill="#CCCCCC"/>
<path d="M666.652 268.695H370.652C370.387 268.695 370.133 268.59 369.945 268.402C369.758 268.215 369.652 267.961 369.652 267.695C369.652 267.43 369.758 267.176 369.945 266.988C370.133 266.801 370.387 266.695 370.652 266.695H666.652C666.918 266.695 667.172 266.801 667.359 266.988C667.547 267.176 667.652 267.43 667.652 267.695C667.652 267.961 667.547 268.215 667.359 268.402C667.172 268.59 666.918 268.695 666.652 268.695Z" fill="#CCCCCC"/>
<path d="M426.652 302.695H397.652C396.327 302.694 395.056 302.167 394.119 301.229C393.181 300.292 392.654 299.021 392.652 297.695V270.695C392.654 269.37 393.181 268.099 394.118 267.161C395.056 266.224 396.327 265.697 397.652 265.695H426.652C427.978 265.697 429.249 266.224 430.186 267.161C431.124 268.099 431.651 269.37 431.652 270.695V297.695C431.651 299.021 431.124 300.292 430.186 301.229C429.249 302.167 427.978 302.694 426.652 302.695V302.695Z" fill="#575A89"/>
<path d="M491.652 302.695H462.652C461.327 302.694 460.056 302.167 459.118 301.229C458.181 300.292 457.654 299.021 457.652 297.695V236.695C457.654 235.37 458.181 234.099 459.118 233.161C460.056 232.224 461.327 231.697 462.652 231.695H491.652C492.978 231.697 494.249 232.224 495.186 233.161C496.124 234.099 496.651 235.37 496.652 236.695V297.695C496.651 299.021 496.124 300.292 495.186 301.229C494.249 302.167 492.978 302.694 491.652 302.695V302.695Z" fill="#575A89"/>
<path d="M557.652 302.695H528.652C527.327 302.694 526.056 302.167 525.118 301.229C524.181 300.292 523.654 299.021 523.652 297.695V202.695C523.654 201.37 524.181 200.099 525.118 199.161C526.056 198.224 527.327 197.697 528.652 197.695H557.652C558.978 197.697 560.249 198.224 561.186 199.161C562.124 200.099 562.651 201.37 562.652 202.695V297.695C562.651 299.021 562.124 300.292 561.186 301.229C560.249 302.167 558.978 302.694 557.652 302.695V302.695Z" fill="#575A89"/>
<path d="M625.652 302.695H596.652C595.327 302.694 594.056 302.167 593.118 301.229C592.181 300.292 591.654 299.021 591.652 297.695V169.695C591.654 168.37 592.181 167.099 593.118 166.161C594.056 165.224 595.327 164.697 596.652 164.695H625.652C626.978 164.697 628.249 165.224 629.186 166.161C630.124 167.099 630.651 168.37 630.652 169.695V297.695C630.651 299.021 630.124 300.292 629.186 301.229C628.249 302.167 626.978 302.694 625.652 302.695V302.695Z" fill="#575A89"/>
<path d="M666.652 302.695H370.652C370.387 302.695 370.133 302.59 369.945 302.402C369.758 302.215 369.652 301.961 369.652 301.695C369.652 301.43 369.758 301.176 369.945 300.988C370.133 300.801 370.387 300.695 370.652 300.695H666.652C666.918 300.695 667.172 300.801 667.359 300.988C667.547 301.176 667.652 301.43 667.652 301.695C667.652 301.961 667.547 302.215 667.359 302.402C667.172 302.59 666.918 302.695 666.652 302.695Z" fill="#3F3D56"/>
<path d="M796.703 489.243C797.513 488.017 798.583 486.983 799.836 486.214C801.089 485.446 802.496 484.961 803.956 484.795C805.417 484.629 806.896 484.785 808.29 485.252C809.684 485.72 810.958 486.487 812.024 487.5L843.779 471.111L841.804 489.576L811.951 502.308C810.131 503.985 807.758 504.935 805.284 504.979C802.809 505.024 800.404 504.159 798.524 502.548C796.645 500.938 795.421 498.694 795.086 496.242C794.75 493.79 795.325 491.3 796.703 489.243Z" fill="#FFB8B8"/>
<path d="M824.025 496.129C823.305 495.564 822.773 494.793 822.502 493.918L819.976 485.758C819.705 484.874 819.711 483.928 819.995 483.048C820.279 482.168 820.826 481.396 821.563 480.837L847.301 461.397L875.176 409.684C876.343 408.181 877.795 406.922 879.45 405.979C881.104 405.037 882.927 404.429 884.816 404.192C886.705 403.954 888.622 404.091 890.458 404.594C892.294 405.097 894.013 405.957 895.517 407.125C897.021 408.292 898.28 409.745 899.222 411.399C900.165 413.053 900.772 414.877 901.009 416.765C901.247 418.654 901.11 420.572 900.607 422.408C900.103 424.244 899.243 425.962 898.076 427.466L882.217 460.937C877.406 471.096 869.068 479.161 858.754 483.633L828.591 496.716C828.011 496.967 827.385 497.093 826.753 497.087C826.121 497.08 825.497 496.94 824.922 496.676C824.603 496.53 824.302 496.346 824.025 496.129V496.129Z" fill="#3F3D56"/>
<path d="M898.776 388.103C912.341 388.103 923.337 377.106 923.337 363.542C923.337 349.977 912.341 338.98 898.776 338.98C885.211 338.98 874.215 349.977 874.215 363.542C874.215 377.106 885.211 388.103 898.776 388.103Z" fill="#FFB8B8"/>
<path d="M888.813 685.736L876.554 685.735L870.723 638.447L888.818 638.448L888.813 685.736Z" fill="#FFB8B8"/>
<path d="M867.797 682.232H891.441V697.119H852.91C852.91 695.164 853.295 693.228 854.043 691.422C854.791 689.616 855.888 687.975 857.27 686.593C858.653 685.21 860.294 684.114 862.1 683.366C863.906 682.617 865.842 682.232 867.797 682.232Z" fill="#2F2E41"/>
<path d="M928.813 685.739L916.554 685.738L910.723 638.449L928.818 638.451L928.813 685.739Z" fill="#FFB8B8"/>
<path d="M907.797 682.234H931.441V697.121H892.91C892.91 695.166 893.295 693.23 894.043 691.424C894.791 689.618 895.888 687.977 897.27 686.595C898.653 685.212 900.294 684.116 902.1 683.368C903.906 682.619 905.842 682.234 907.797 682.234V682.234Z" fill="#2F2E41"/>
<path d="M929.708 673.739L915.341 673.738C914.352 673.737 913.391 673.41 912.606 672.809C911.82 672.207 911.255 671.364 910.996 670.409L890.317 593.708C890.285 593.588 890.209 593.485 890.105 593.418C890.001 593.351 889.876 593.325 889.754 593.345C889.631 593.365 889.521 593.429 889.444 593.526C889.366 593.623 889.328 593.745 889.335 593.868L893.512 666.61C893.549 667.254 893.448 667.897 893.214 668.498C892.981 669.098 892.622 669.642 892.16 670.091C891.699 670.541 891.146 670.886 890.54 671.104C889.934 671.321 889.288 671.406 888.646 671.352L872.498 670.006C871.463 669.917 870.491 669.475 869.745 668.753C868.999 668.03 868.524 667.073 868.402 666.042L853.691 513.297L859.383 516.712L912.712 507.658L934.169 668.645C934.254 669.28 934.201 669.926 934.016 670.54C933.831 671.154 933.516 671.721 933.094 672.203C932.671 672.686 932.151 673.072 931.567 673.337C930.983 673.602 930.349 673.739 929.708 673.739H929.708Z" fill="#2F2E41"/>
<path d="M871.525 529.42C865.642 529.373 859.878 527.751 854.834 524.722C854.056 524.262 853.437 523.577 853.055 522.758C852.674 521.939 852.549 521.024 852.697 520.133C854.573 508.647 864.381 449.725 873.305 417.604C876.94 404.521 884.977 397.474 897.192 396.66C915.06 395.488 930.942 409.468 932.596 427.86C935.513 460.309 923.663 506.411 918.432 524.726C918.229 525.433 917.856 526.08 917.345 526.609C916.834 527.139 916.201 527.535 915.501 527.763C914.801 527.99 914.057 528.043 913.332 527.915C912.607 527.788 911.925 527.485 911.345 527.032L900.683 518.739C900.027 518.237 899.216 517.982 898.391 518.016C897.566 518.05 896.779 518.373 896.167 518.927C887.181 526.942 878.644 529.42 871.525 529.42Z" fill="#3F3D56"/>
<path opacity="0.2" d="M906.788 443.738L915.787 481.739L902.785 513.738L911.787 482.739L906.788 443.738Z" fill="black"/>
<path d="M912.789 383.739C914.974 383.78 917.145 383.387 919.177 382.583C920.071 382.239 921 381.956 921.892 381.611C929.774 378.566 934.966 370.173 935.153 361.725C935.339 353.278 930.965 345.078 924.469 339.675C917.973 334.271 909.559 331.497 901.134 330.855C892.059 330.163 881.84 332.464 876.769 340.022C875.419 342.034 874.475 344.474 875.274 346.904C875.514 347.637 875.942 348.294 876.515 348.81C878.78 350.825 881.037 349.31 883.346 349.176C886.519 348.992 889.369 351.561 890.394 354.57C891.418 357.579 890.967 360.891 890.14 363.96C889.509 365.807 889.112 367.725 888.957 369.67C888.89 370.646 889.073 371.622 889.49 372.507C889.906 373.391 890.541 374.155 891.335 374.725C893.318 375.924 895.922 375.23 897.906 374.034C899.89 372.837 901.605 371.173 903.748 370.293C905.891 369.412 908.77 369.608 910.018 371.561C910.414 372.271 910.682 373.046 910.81 373.849C911.928 378.944 911.671 378.644 912.789 383.739V383.739Z" fill="#2F2E41"/>
<path d="M874.721 651.431L720.925 597.87C718.286 596.948 716.12 595.016 714.904 592.499C713.687 589.982 713.518 587.086 714.435 584.444L754.401 469.686C755.076 467.753 756.491 466.166 758.335 465.275C760.179 464.383 762.301 464.26 764.236 464.931L923.231 520.303C925.198 520.99 926.812 522.43 927.719 524.306C928.626 526.181 928.751 528.34 928.068 530.309L888.146 644.941C887.224 647.58 885.292 649.745 882.776 650.962C880.259 652.179 877.362 652.347 874.721 651.431V651.431Z" fill="#E6E6E6"/>
<path d="M734.05 591.276L868.533 638.111C871.094 639.003 873.905 638.841 876.346 637.661C878.788 636.481 880.66 634.379 881.552 631.818L913.824 539.151C914.716 536.59 914.554 533.78 913.374 531.339C912.194 528.897 910.092 527.024 907.531 526.133L773.047 479.297C770.486 478.405 767.676 478.567 765.234 479.748C762.793 480.928 760.92 483.03 760.028 485.591L727.756 578.257C727.315 579.525 727.127 580.868 727.204 582.208C727.282 583.549 727.622 584.861 728.207 586.07C728.791 587.279 729.608 588.361 730.61 589.254C731.613 590.147 732.781 590.835 734.05 591.276Z" fill="white"/>
<path d="M767.819 526.169L761.159 523.85C760.798 523.723 760.502 523.459 760.335 523.115C760.169 522.77 760.146 522.374 760.271 522.013L762.591 515.353C762.717 514.991 762.981 514.695 763.325 514.529C763.67 514.362 764.066 514.339 764.427 514.465L771.088 516.784C771.449 516.91 771.745 517.175 771.912 517.519C772.078 517.863 772.101 518.26 771.976 518.621L769.656 525.281C769.53 525.642 769.266 525.938 768.921 526.105C768.577 526.271 768.181 526.294 767.819 526.169V526.169Z" fill="#575A89"/>
<path d="M761.812 543.425L755.151 541.105C754.79 540.979 754.494 540.715 754.328 540.371C754.161 540.026 754.138 539.63 754.263 539.269L756.583 532.608C756.709 532.247 756.973 531.951 757.318 531.785C757.662 531.618 758.058 531.595 758.42 531.72L765.08 534.04C765.441 534.166 765.737 534.43 765.904 534.775C766.07 535.119 766.093 535.515 765.968 535.877L763.648 542.537C763.522 542.898 763.258 543.194 762.914 543.361C762.569 543.527 762.173 543.55 761.812 543.425V543.425Z" fill="#3F3D56"/>
<path d="M755.8 560.681L749.14 558.361C748.779 558.235 748.482 557.971 748.316 557.626C748.149 557.282 748.126 556.886 748.252 556.524L750.571 549.864C750.697 549.503 750.962 549.207 751.306 549.04C751.65 548.874 752.047 548.851 752.408 548.976L759.068 551.296C759.429 551.422 759.726 551.686 759.892 552.031C760.058 552.375 760.081 552.771 759.956 553.133L757.637 559.793C757.51 560.154 757.246 560.45 756.902 560.617C756.557 560.783 756.161 560.806 755.8 560.681V560.681Z" fill="#CCCCCC"/>
<path d="M812.574 538.021L780.483 526.845C780.304 526.783 780.139 526.687 779.997 526.561C779.855 526.435 779.739 526.282 779.656 526.111C779.574 525.94 779.525 525.755 779.514 525.566C779.503 525.376 779.53 525.186 779.592 525.007C779.654 524.828 779.752 524.663 779.878 524.521C780.004 524.38 780.157 524.264 780.328 524.182C780.499 524.1 780.685 524.052 780.874 524.041C781.064 524.031 781.253 524.058 781.432 524.121L813.523 535.296C813.702 535.358 813.867 535.455 814.009 535.581C814.151 535.707 814.267 535.86 814.35 536.03C814.433 536.201 814.481 536.387 814.492 536.576C814.503 536.765 814.477 536.955 814.414 537.134C814.352 537.314 814.255 537.479 814.128 537.62C814.002 537.762 813.849 537.877 813.678 537.96C813.507 538.042 813.321 538.09 813.132 538.1C812.943 538.111 812.753 538.084 812.574 538.021V538.021Z" fill="#CCCCCC"/>
<path d="M806.566 555.278L774.476 544.102C774.115 543.976 773.818 543.712 773.652 543.367C773.485 543.023 773.462 542.626 773.588 542.265C773.714 541.904 773.978 541.607 774.323 541.441C774.667 541.274 775.064 541.251 775.425 541.377L807.515 552.553C807.695 552.615 807.86 552.712 808.002 552.838C808.143 552.964 808.259 553.116 808.342 553.287C808.425 553.458 808.473 553.643 808.484 553.832C808.495 554.022 808.468 554.212 808.406 554.391C808.344 554.57 808.247 554.735 808.12 554.877C807.994 555.018 807.841 555.133 807.67 555.216C807.499 555.298 807.314 555.346 807.124 555.357C806.935 555.367 806.745 555.34 806.566 555.278V555.278Z" fill="#CCCCCC"/>
<path d="M800.555 572.533L768.464 561.358C768.103 561.232 767.806 560.968 767.64 560.623C767.473 560.279 767.451 559.882 767.576 559.521C767.702 559.16 767.966 558.863 768.311 558.697C768.655 558.53 769.052 558.507 769.413 558.633L801.504 569.809C801.865 569.935 802.161 570.199 802.328 570.543C802.494 570.888 802.517 571.284 802.391 571.645C802.266 572.007 802.001 572.303 801.657 572.47C801.312 572.636 800.916 572.659 800.555 572.533V572.533Z" fill="#CCCCCC"/>
<path d="M885.952 581.883C886.186 581.323 886.406 580.753 886.608 580.171C889.246 572.598 888.767 564.287 885.277 557.066C881.786 549.846 875.571 544.308 867.997 541.67L857.449 571.957L885.952 581.883Z" fill="#575A89"/>
<path d="M854.383 573.8L864.931 543.513C859.357 541.571 853.336 541.303 847.612 542.743C841.887 544.182 836.709 547.265 832.716 551.612C828.723 555.959 826.089 561.379 825.14 567.205C824.19 573.031 824.967 579.007 827.373 584.397C829.78 589.787 833.711 594.354 838.683 597.537C843.654 600.719 849.448 602.376 855.35 602.305C861.252 602.234 867.004 600.437 871.897 597.135C876.79 593.834 880.61 589.172 882.886 583.726L854.383 573.8Z" fill="#3F3D56"/>
<path d="M892.146 530.352C892.027 528.887 892.231 527.413 892.742 526.035C893.254 524.657 894.062 523.408 895.109 522.376C896.155 521.343 897.416 520.553 898.801 520.061C900.186 519.569 901.662 519.386 903.126 519.526L917.999 487.033L927.84 502.781L912.207 531.222C911.809 533.665 910.529 535.877 908.609 537.439C906.689 539.001 904.263 539.805 901.79 539.697C899.318 539.59 896.97 538.58 895.193 536.857C893.415 535.135 892.331 532.82 892.146 530.352V530.352Z" fill="#FFB8B8"/>
<path d="M917.896 518.911C916.98 518.911 916.085 518.632 915.332 518.111L908.309 513.249C907.55 512.721 906.971 511.972 906.652 511.105C906.332 510.237 906.286 509.292 906.521 508.397L914.776 477.217L904.797 419.324C904.786 417.419 905.15 415.53 905.869 413.766C906.588 412.002 907.647 410.396 908.987 409.042C910.327 407.688 911.921 406.61 913.677 405.872C915.433 405.134 917.318 404.75 919.223 404.74C921.128 404.731 923.017 405.098 924.78 405.819C926.544 406.54 928.148 407.601 929.5 408.943C930.853 410.284 931.928 411.879 932.664 413.636C933.4 415.394 933.783 417.279 933.79 419.184L941.967 455.307C944.45 466.271 942.866 477.763 937.511 487.646L921.85 516.554C921.549 517.11 921.134 517.596 920.632 517.981C920.131 518.366 919.554 518.641 918.939 518.788C918.597 518.87 918.247 518.911 917.896 518.911V518.911Z" fill="#3F3D56"/>
<path d="M994 697.682H804C803.735 697.682 803.48 697.576 803.293 697.389C803.105 697.201 803 696.947 803 696.682C803 696.416 803.105 696.162 803.293 695.975C803.48 695.787 803.735 695.682 804 695.682H994C994.265 695.682 994.52 695.787 994.707 695.975C994.895 696.162 995 696.416 995 696.682C995 696.947 994.895 697.201 994.707 697.389C994.52 697.576 994.265 697.682 994 697.682Z" fill="#CCCCCC"/>
<path d="M490.541 685.239L502.801 685.238L508.633 637.951H490.539L490.541 685.239Z" fill="#A0616A"/>
<path d="M487.414 681.237L511.558 681.236H511.559C513.579 681.236 515.58 681.634 517.447 682.407C519.314 683.181 521.01 684.314 522.439 685.743C523.868 687.171 525.001 688.868 525.774 690.734C526.547 692.601 526.945 694.602 526.945 696.623V697.123L487.415 697.124L487.414 681.237Z" fill="#2F2E41"/>
<path d="M441.541 685.239L453.801 685.238L459.633 637.951H441.539L441.541 685.239Z" fill="#A0616A"/>
<path d="M438.414 681.237L462.558 681.236H462.559C464.579 681.236 466.58 681.634 468.447 682.407C470.314 683.181 472.01 684.314 473.439 685.743C474.868 687.171 476.001 688.868 476.774 690.734C477.547 692.601 477.945 694.602 477.945 696.623V697.123L438.415 697.124L438.414 681.237Z" fill="#2F2E41"/>
<path d="M492.987 357.858C506.551 357.858 517.548 346.862 517.548 333.297C517.548 319.733 506.551 308.736 492.987 308.736C479.422 308.736 468.426 319.733 468.426 333.297C468.426 346.862 479.422 357.858 492.987 357.858Z" fill="#A0616A"/>
<path d="M509.504 675.033H486.754C486.158 675.033 485.569 674.915 485.019 674.685C484.47 674.456 483.971 674.119 483.553 673.696C483.134 673.272 482.804 672.769 482.581 672.217C482.358 671.665 482.247 671.074 482.254 670.479L483.576 562.447C483.581 562.064 483.439 561.693 483.178 561.411C482.918 561.129 482.559 560.957 482.176 560.932C481.794 560.906 481.415 561.028 481.12 561.273C480.824 561.517 480.634 561.866 480.587 562.247L467.346 671.077C467.213 672.168 466.685 673.172 465.862 673.901C465.039 674.63 463.978 675.032 462.879 675.033H439.91C439.29 675.033 438.676 674.905 438.107 674.656C437.539 674.408 437.028 674.044 436.606 673.589C436.185 673.133 435.863 672.596 435.659 672.009C435.456 671.423 435.375 670.801 435.424 670.183L450.591 476.107L451.004 476.062L523.633 468.219L514 670.747C513.946 671.903 513.449 672.993 512.611 673.791C511.774 674.59 510.661 675.035 509.504 675.033V675.033Z" fill="#2F2E41"/>
<path d="M451.477 488.021C450.31 488.019 449.19 487.562 448.354 486.749C447.517 485.936 447.029 484.829 446.993 483.663C446.597 471.391 445.917 428.93 453.815 397.758C455.971 389.242 460.809 381.646 467.615 376.092C474.421 370.539 482.833 367.322 491.608 366.919V366.919C500.245 366.447 508.811 368.707 516.091 373.378C523.372 378.049 528.996 384.894 532.167 392.942C545.442 426.645 557.984 468.188 542.348 474.704C521.853 483.243 467.824 487.05 451.753 488.012C451.661 488.018 451.569 488.021 451.477 488.021Z" fill="#3F3D56"/>
<path d="M545.346 308.473C545.732 308.869 546.148 309.235 546.592 309.566L544.013 359.092L533.289 364.583L539.46 381.85L559.39 373.976C561 373.339 562.36 372.198 563.266 370.723C564.172 369.248 564.576 367.519 564.415 365.795L559.194 309.616C560.903 308.341 562.183 306.576 562.864 304.556C563.545 302.536 563.595 300.357 563.007 298.308C562.419 296.259 561.222 294.437 559.574 293.086C557.925 291.734 555.905 290.916 553.78 290.741C551.656 290.565 549.528 291.041 547.681 292.104C545.833 293.168 544.353 294.768 543.438 296.693C542.522 298.618 542.214 300.776 542.555 302.881C542.896 304.985 543.869 306.935 545.346 308.473V308.473Z" fill="#A0616A"/>
<path d="M544.217 360.936L551.761 382.375C551.976 382.985 552.057 383.634 551.998 384.278C551.939 384.922 551.742 385.546 551.42 386.107C551.099 386.668 550.66 387.153 550.134 387.529C549.608 387.905 549.007 388.163 548.372 388.286L526.127 392.594C523 393.675 519.571 393.472 516.594 392.029C513.616 390.586 511.333 388.021 510.243 384.896C509.154 381.772 509.349 378.343 510.784 375.362C512.219 372.38 514.778 370.09 517.899 368.992L537.873 358.449C538.445 358.148 539.075 357.973 539.721 357.937C540.366 357.901 541.012 358.004 541.614 358.24C542.216 358.476 542.761 358.839 543.21 359.304C543.659 359.769 544.003 360.326 544.217 360.936V360.936Z" fill="#3F3D56"/>
<path d="M438.96 308.473C438.574 308.869 438.157 309.235 437.714 309.566L440.292 359.092L451.016 364.583L444.845 381.85L424.916 373.976C423.306 373.339 421.945 372.198 421.039 370.723C420.133 369.248 419.73 367.519 419.89 365.795L425.111 309.616C423.402 308.341 422.122 306.576 421.441 304.556C420.76 302.536 420.71 300.357 421.298 298.308C421.886 296.259 423.083 294.437 424.732 293.086C426.38 291.734 428.401 290.916 430.525 290.741C432.649 290.565 434.777 291.041 436.624 292.104C438.472 293.168 439.952 294.768 440.868 296.693C441.783 298.618 442.091 300.776 441.75 302.881C441.409 304.985 440.436 306.935 438.96 308.473H438.96Z" fill="#A0616A"/>
<path d="M442.691 358.24C443.293 358.004 443.939 357.901 444.585 357.937C445.231 357.973 445.861 358.148 446.433 358.45L466.406 368.993C469.528 370.09 472.087 372.381 473.522 375.362C474.957 378.343 475.151 381.772 474.062 384.897C472.973 388.021 470.689 390.586 467.712 392.029C464.734 393.472 461.306 393.676 458.179 392.595L435.933 388.287C435.298 388.164 434.697 387.905 434.171 387.529C433.645 387.153 433.207 386.668 432.885 386.107C432.563 385.546 432.367 384.922 432.308 384.278C432.249 383.634 432.33 382.985 432.544 382.375L440.088 360.936C440.303 360.326 440.646 359.769 441.096 359.304C441.545 358.839 442.089 358.476 442.691 358.24V358.24Z" fill="#3F3D56"/>
<path d="M502.528 337.484C502.399 334.351 503.186 331.248 504.791 328.554C506.397 325.861 508.752 323.693 511.569 322.316C519.035 318.462 523.725 310.241 521.67 302.734C519.039 293.125 505.961 286.893 495.365 290.199C492.497 291.217 489.731 292.503 487.104 294.039L480.181 297.75C477.223 299.23 474.372 300.913 471.647 302.787C467.565 305.795 464.365 309.844 462.383 314.511C460.4 319.178 459.708 324.291 460.376 329.317C461.74 339.086 468.137 348.045 476.894 354.178C480.243 356.681 484.111 358.401 488.213 359.209C492.41 359.902 497.083 359.115 500.152 356.505C504.948 352.425 504.453 345.594 502.902 339.888C502.697 339.101 502.572 338.296 502.528 337.484Z" fill="#2F2E41"/>
<path d="M586 697.682H396C395.735 697.682 395.48 697.576 395.293 697.389C395.105 697.201 395 696.947 395 696.682C395 696.416 395.105 696.162 395.293 695.975C395.48 695.787 395.735 695.682 396 695.682H586C586.265 695.682 586.52 695.787 586.707 695.975C586.895 696.162 587 696.416 587 696.682C587 696.947 586.895 697.201 586.707 697.389C586.52 697.576 586.265 697.682 586 697.682Z" fill="#CCCCCC"/>
<path d="M275.91 515.254L119.132 579.571C116.44 580.672 113.421 580.66 110.737 579.538C108.053 578.416 105.924 576.275 104.817 573.585L56.8253 456.602C56.0187 454.629 56.0274 452.417 56.8495 450.451C57.6717 448.485 59.2402 446.925 61.2109 446.114L223.288 379.623C225.295 378.802 227.545 378.811 229.545 379.648C231.545 380.484 233.132 382.08 233.957 384.084L281.896 500.939C282.997 503.631 282.985 506.651 281.863 509.334C280.741 512.018 278.6 514.147 275.91 515.254V515.254Z" fill="#E6E6E6"/>
<path d="M124.81 565.382L261.9 509.141C264.511 508.07 266.589 506.006 267.678 503.402C268.766 500.799 268.776 497.87 267.705 495.259L228.952 400.797C228.422 399.504 227.642 398.328 226.658 397.337C225.673 396.346 224.503 395.558 223.214 395.019C221.925 394.48 220.542 394.2 219.145 394.195C217.748 394.191 216.363 394.461 215.071 394.991L77.9801 451.232C76.6875 451.763 75.5119 452.542 74.5206 453.527C73.5293 454.512 72.7417 455.682 72.2026 456.971C71.6636 458.26 71.3837 459.642 71.379 461.04C71.3742 462.437 71.6447 463.821 72.175 465.114L110.928 559.577C111.458 560.869 112.238 562.045 113.223 563.036C114.207 564.027 115.378 564.815 116.667 565.354C117.956 565.893 119.338 566.173 120.735 566.178C122.132 566.183 123.517 565.912 124.81 565.382V565.382Z" fill="white"/>
<path d="M228.195 426.558L226.18 427.385L226.318 427.721L228.333 426.894L228.195 426.558Z" fill="#E6E6E6"/>
<path d="M222.249 429.391L218.177 431.061L218.039 430.725L222.111 429.055L222.249 429.391ZM214.105 432.731L210.034 434.402L209.896 434.066L213.968 432.396L214.105 432.731ZM205.962 436.072L201.89 437.743L201.752 437.407L205.824 435.736L205.962 436.072ZM197.818 439.413L193.747 441.084L193.609 440.748L197.681 439.077L197.818 439.413ZM189.675 442.754L185.603 444.424L185.465 444.089L189.537 442.418L189.675 442.754ZM181.531 446.095L177.46 447.765L177.322 447.429L181.394 445.759L181.531 446.095ZM173.388 449.436L169.316 451.106L169.178 450.77L173.25 449.1L173.388 449.436ZM165.244 452.777L161.173 454.447L161.035 454.111L165.107 452.441L165.244 452.777ZM157.101 456.117L153.029 457.788L152.891 457.452L156.963 455.782L157.101 456.117ZM148.957 459.458L144.886 461.129L144.748 460.793L148.82 459.122L148.957 459.458ZM140.814 462.799L136.742 464.47L136.604 464.134L140.676 462.463L140.814 462.799ZM132.67 466.14L128.599 467.81L128.461 467.474L132.533 465.804L132.67 466.14ZM124.527 469.481L120.455 471.151L120.317 470.815L124.389 469.145L124.527 469.481ZM116.383 472.822L112.312 474.492L112.174 474.156L116.246 472.486L116.383 472.822ZM108.24 476.163L104.168 477.833L104.03 477.497L108.102 475.827L108.24 476.163ZM100.096 479.503L96.0245 481.174L95.8867 480.838L99.9585 479.168L100.096 479.503Z" fill="#E6E6E6"/>
<path d="M91.8124 482.509L89.7969 483.336L89.9347 483.672L91.9502 482.845L91.8124 482.509Z" fill="#E6E6E6"/>
<path d="M174.836 484.947L172.82 485.773L172.958 486.109L174.974 485.283L174.836 484.947Z" fill="#E6E6E6"/>
<path d="M168.948 487.756L164.936 489.401L164.799 489.065L168.81 487.42L168.948 487.756ZM160.925 491.047L156.914 492.693L156.776 492.357L160.787 490.711L160.925 491.047ZM152.903 494.338L148.891 495.984L148.753 495.648L152.765 494.002L152.903 494.338ZM144.88 497.63L140.869 499.275L140.731 498.939L144.742 497.294L144.88 497.63ZM136.857 500.921L132.846 502.566L132.708 502.231L136.72 500.585L136.857 500.921ZM128.835 504.212L124.824 505.858L124.686 505.522L128.697 503.876L128.835 504.212ZM120.812 507.503L116.801 509.149L116.663 508.813L120.674 507.167L120.812 507.503ZM112.79 510.795L108.778 512.44L108.641 512.104L112.652 510.459L112.79 510.795Z" fill="#E6E6E6"/>
<path d="M104.629 513.749L102.613 514.576L102.751 514.912L104.767 514.085L104.629 513.749Z" fill="#E6E6E6"/>
<path d="M141.598 515.851L139.582 516.678L139.72 517.014L141.735 516.187L141.598 515.851Z" fill="#E6E6E6"/>
<path d="M135.593 518.707L131.466 520.4L131.328 520.064L135.455 518.371L135.593 518.707ZM127.339 522.093L123.212 523.786L123.074 523.45L127.201 521.757L127.339 522.093ZM119.085 525.479L114.958 527.172L114.82 526.837L118.947 525.143L119.085 525.479Z" fill="#E6E6E6"/>
<path d="M110.691 528.531L108.676 529.357L108.814 529.693L110.829 528.866L110.691 528.531Z" fill="#E6E6E6"/>
<path d="M151.945 541.075L149.93 541.902L150.068 542.238L152.083 541.411L151.945 541.075Z" fill="#E6E6E6"/>
<path d="M145.941 543.93L141.814 545.623L141.676 545.287L145.803 543.594L145.941 543.93ZM137.687 547.316L133.56 549.009L133.422 548.673L137.549 546.98L137.687 547.316ZM129.433 550.702L125.306 552.395L125.168 552.059L129.295 550.366L129.433 550.702Z" fill="#E6E6E6"/>
<path d="M121.043 553.753L119.027 554.58L119.165 554.916L121.181 554.089L121.043 553.753Z" fill="#E6E6E6"/>
<path d="M130.633 550.513L246.808 502.852C249.619 501.695 251.857 499.47 253.03 496.665C254.203 493.86 254.216 490.704 253.065 487.89L229.592 430.674L229.365 430.775L200.856 498.942L179.711 490.102C179.321 489.937 178.898 489.865 178.476 489.892C178.053 489.918 177.643 490.042 177.276 490.254C176.725 490.585 176.299 491.089 176.064 491.687L161.123 527.408L145.663 520.946C145.329 520.806 144.971 520.734 144.61 520.732C144.248 520.731 143.89 520.801 143.555 520.938C143.221 521.076 142.916 521.277 142.66 521.532C142.403 521.787 142.2 522.09 142.06 522.424C141.961 522.666 132.429 546.054 130.633 550.513Z" fill="#575A89"/>
<path d="M130.276 551.051L129.941 550.911L141.896 522.325C142.212 521.57 142.815 520.972 143.572 520.661C144.329 520.351 145.179 520.353 145.934 520.668L161.088 527.006L175.945 491.481C176.261 490.726 176.864 490.128 177.621 489.817C178.378 489.507 179.227 489.509 179.983 489.824L200.822 498.539L229.478 430.016L229.813 430.156L201.017 499.014L179.842 490.159C179.513 490.021 179.159 489.95 178.801 489.948C178.443 489.947 178.089 490.016 177.758 490.152C177.427 490.288 177.127 490.487 176.873 490.739C176.619 490.991 176.417 491.291 176.28 491.621L161.283 527.481L145.794 521.003C145.127 520.725 144.378 520.723 143.71 520.997C143.042 521.271 142.51 521.799 142.231 522.465L130.276 551.051Z" fill="#3F3D56"/>
<path d="M141.667 518.562C143.07 518.562 144.208 517.424 144.208 516.02C144.208 514.616 143.07 513.479 141.667 513.479C140.263 513.479 139.125 514.616 139.125 516.02C139.125 517.424 140.263 518.562 141.667 518.562Z" fill="#3F3D56"/>
<path d="M174.905 487.657C176.309 487.657 177.447 486.52 177.447 485.116C177.447 483.712 176.309 482.574 174.905 482.574C173.501 482.574 172.363 483.712 172.363 485.116C172.363 486.52 173.501 487.657 174.905 487.657Z" fill="#3F3D56"/>
<path d="M226.663 429.177C228.066 429.177 229.204 428.039 229.204 426.635C229.204 425.232 228.066 424.094 226.663 424.094C225.259 424.094 224.121 425.232 224.121 426.635C224.121 428.039 225.259 429.177 226.663 429.177Z" fill="#3F3D56"/>
<path d="M84.4021 513.136C85.7233 512.479 86.8844 511.539 87.8034 510.385C88.7224 509.23 89.3771 507.888 89.7212 506.453C90.0654 505.018 90.0907 503.524 89.7954 502.078C89.5001 500.632 88.8913 499.269 88.012 498.084L95.5606 424.279H79.2473L73.2482 496.345C71.355 497.955 70.1179 500.202 69.7712 502.663C69.4245 505.123 69.9924 507.625 71.3672 509.695C72.7421 511.765 74.8284 513.258 77.2308 513.892C79.6332 514.527 82.1848 514.257 84.4021 513.136Z" fill="#FFB8B8"/>
<path d="M99.3808 383.547C112.128 383.547 122.461 373.214 122.461 360.467C122.461 347.72 112.128 337.387 99.3808 337.387C86.6341 337.387 76.3008 347.72 76.3008 360.467C76.3008 373.214 86.6341 383.547 99.3808 383.547Z" fill="#FFB8B8"/>
<path d="M103.724 467.26C102.8 467.26 101.902 466.957 101.167 466.397C100.432 465.837 99.9015 465.051 99.6561 464.16C97.807 457.442 92.996 446.083 85.3573 430.397C83.6337 426.851 82.6792 422.981 82.5565 419.041C82.4338 415.1 83.1457 411.178 84.6454 407.532C86.1451 403.886 88.3987 400.598 91.2585 397.884C94.1182 395.17 97.5195 393.091 101.239 391.784C104.764 390.54 108.503 390.015 112.234 390.24C115.965 390.466 119.614 391.438 122.963 393.098C126.312 394.759 129.294 397.074 131.733 399.907C134.172 402.74 136.017 406.033 137.161 409.592C143.082 428.155 142.796 448.039 142.398 455.726C142.349 456.652 141.997 457.536 141.397 458.243C140.798 458.95 139.983 459.44 139.077 459.64L104.631 467.162C104.333 467.228 104.029 467.26 103.724 467.26Z" fill="#FF6584"/>
<path d="M137.08 686.425H148.6L154.081 641.988L137.078 641.989L137.08 686.425Z" fill="#FFB8B8"/>
<path d="M170.82 697.121L134.613 697.123L134.612 683.134L156.83 683.133C158.668 683.132 160.487 683.494 162.184 684.197C163.881 684.9 165.423 685.93 166.723 687.229C168.022 688.528 169.052 690.07 169.755 691.768C170.458 693.465 170.82 695.284 170.82 697.121Z" fill="#2F2E41"/>
<path d="M21.8828 671.495L31.9788 677.045L58.1908 640.747L43.2918 632.555L21.8828 671.495Z" fill="#FFB8B8"/>
<path d="M46.293 697.123L14.5645 679.679L21.304 667.421L40.7738 678.125C44.025 679.912 46.433 682.918 47.4681 686.481C48.5031 690.044 48.0804 693.872 46.293 697.123V697.123V697.123Z" fill="#2F2E41"/>
<path d="M136.542 661.761C135.515 661.76 134.524 661.386 133.753 660.708C132.982 660.03 132.485 659.095 132.353 658.077L117.945 547.053C117.881 546.561 117.664 546.103 117.324 545.743C116.984 545.382 116.539 545.139 116.053 545.046C115.566 544.954 115.063 545.018 114.615 545.229C114.167 545.439 113.797 545.787 113.558 546.22L53.5121 655.16C53.0167 656.05 52.2184 656.732 51.2626 657.083C50.3068 657.434 49.2568 657.43 48.3036 657.072L35.2154 652.085C34.689 651.885 34.2079 651.581 33.8005 651.192C33.3931 650.803 33.0675 650.337 32.8429 649.82C32.6182 649.303 32.4991 648.747 32.4925 648.184C32.4858 647.621 32.5918 647.062 32.8042 646.54L74.3994 544.359C74.5047 544.1 74.5761 543.828 74.6119 543.55C80.2457 499.944 94.5801 477.77 98.839 472.012C99.1501 471.589 99.3548 471.097 99.4359 470.578C99.517 470.059 99.4721 469.528 99.305 469.031L98.7195 467.274C98.4857 466.577 98.4377 465.831 98.5804 465.11C98.7232 464.388 99.0516 463.717 99.5333 463.161C114.88 445.681 141.628 455.22 141.897 455.318L142.031 455.367L142.115 455.482C172.108 496.615 161.018 630.214 158.491 656.578C158.396 657.569 157.955 658.495 157.244 659.191C156.533 659.887 155.598 660.31 154.606 660.384L136.87 661.749C136.76 661.758 136.651 661.761 136.542 661.761Z" fill="#2F2E41"/>
<path d="M189.106 387.278C188.991 387.785 188.916 388.3 188.881 388.819L148.514 412.107L138.702 406.458L128.242 420.152L144.64 431.839C145.965 432.784 147.56 433.273 149.187 433.233C150.813 433.193 152.383 432.627 153.66 431.62L195.285 398.781C197.164 399.476 199.21 399.583 201.15 399.088C203.091 398.592 204.835 397.517 206.15 396.006C207.465 394.495 208.289 392.62 208.512 390.629C208.736 388.638 208.347 386.627 207.399 384.862C206.451 383.098 204.989 381.663 203.206 380.75C201.423 379.837 199.404 379.489 197.418 379.751C195.432 380.013 193.573 380.874 192.089 382.218C190.604 383.563 189.564 385.328 189.106 387.278V387.278Z" fill="#FFB8B8"/>
<path d="M147.164 413.21L134.118 430.119C133.747 430.6 133.276 430.995 132.738 431.278C132.2 431.561 131.608 431.725 131.001 431.758C130.394 431.791 129.788 431.693 129.222 431.471C128.657 431.248 128.146 430.906 127.724 430.469L112.955 415.132C110.504 413.219 108.912 410.412 108.528 407.326C108.143 404.241 108.998 401.129 110.905 398.673C112.811 396.218 115.614 394.618 118.698 394.225C121.782 393.832 124.896 394.678 127.357 396.578L145.881 406.936C146.412 407.233 146.872 407.641 147.23 408.131C147.589 408.622 147.838 409.184 147.959 409.779C148.081 410.375 148.073 410.989 147.936 411.581C147.799 412.173 147.536 412.729 147.164 413.21V413.21Z" fill="#FF6584"/>
<path d="M96.596 442.586L75.5788 438.791C74.9808 438.683 74.4131 438.448 73.9144 438.1C73.4156 437.753 72.9976 437.303 72.6887 436.779C72.3798 436.256 72.1873 435.672 72.1243 435.068C72.0614 434.464 72.1294 433.853 72.3238 433.277L79.1372 413.104C79.7068 410.047 81.4653 407.341 84.0271 405.58C86.5889 403.818 89.7448 403.143 92.8029 403.705C95.861 404.266 98.5717 406.018 100.341 408.575C102.109 411.132 102.792 414.286 102.239 417.345L101.574 438.559C101.555 439.166 101.405 439.762 101.134 440.306C100.864 440.85 100.48 441.33 100.007 441.712C99.5348 442.094 98.9856 442.37 98.3969 442.521C97.8083 442.672 97.194 442.694 96.596 442.586H96.596Z" fill="#FF6584"/>
<path d="M103.034 355.159C108.966 359.219 116.755 363.393 122.813 359.069C124.708 357.626 126.085 355.608 126.738 353.317C127.39 351.026 127.283 348.585 126.432 346.36C123.531 338.064 115.56 334.411 107.938 331.612C98.0292 327.972 87.2402 325.077 77.0112 327.683C66.7822 330.29 57.742 340.193 59.5886 350.587C61.0735 358.945 68.9574 365.899 67.8382 374.314C66.7118 382.782 57.1878 387.24 48.7796 388.754C40.3714 390.267 30.9625 390.754 24.9199 396.793C17.2114 404.497 19.1363 418.268 26.3897 426.403C33.643 434.537 44.5888 438.224 55.1952 440.731C69.248 444.052 84.4471 445.797 97.7938 440.286C111.14 434.774 121.527 419.937 117.66 406.024C116.027 400.148 112.18 395.181 108.462 390.346C104.744 385.511 100.979 380.454 99.5608 374.522C98.3789 369.579 99.2537 363.839 102.532 360.131C103.128 359.482 103.503 358.66 103.604 357.785C103.704 356.909 103.524 356.024 103.091 355.257L103.034 355.159Z" fill="#2F2E41"/>
<path d="M191 697.682H1C0.734784 697.682 0.480429 697.576 0.292892 697.389C0.105356 697.201 0 696.947 0 696.682C0 696.416 0.105356 696.162 0.292892 695.975C0.480429 695.787 0.734784 695.682 1 695.682H191C191.265 695.682 191.52 695.787 191.707 695.975C191.895 696.162 192 696.416 192 696.682C192 696.947 191.895 697.201 191.707 697.389C191.52 697.576 191.265 697.682 191 697.682Z" fill="#CCCCCC"/>
</g>
<defs>
<clipPath id="clip0">
<rect width="995" height="697.681" fill="white"/>
</clipPath>
</defs>
</svg>
