<svg width="943" height="602" viewBox="0 0 943 602" fill="none" xmlns="http://www.w3.org/2000/svg">
<g clip-path="url(#clip0)">
<path d="M167.723 596.506C176.716 588.907 182.178 576.903 180.745 565.218C179.313 553.532 170.441 542.79 158.932 540.308C147.423 537.827 134.304 544.696 130.809 555.938C128.885 534.263 126.668 511.681 115.145 493.223C104.71 476.51 86.6381 464.551 67.0517 462.412C47.4654 460.272 26.8434 468.353 14.6281 483.812C2.41282 499.271 -0.578068 521.746 7.97721 539.494C14.2796 552.569 25.8908 562.299 38.0564 570.215C77.368 595.58 124.517 605.895 170.829 599.262L167.723 596.506Z" fill="#F2F2F2"/>
<path d="M33.9942 468.801C50.1553 481.964 64.9815 496.687 78.2583 512.755C91.5371 528.807 103.228 546.109 113.166 564.418C118.721 574.688 123.711 585.254 128.114 596.069C129.012 598.269 125.439 599.227 124.552 597.051C116.753 577.985 107.104 559.729 95.7439 542.546C84.4389 525.424 71.4997 509.439 57.108 494.817C48.9681 486.55 40.3798 478.737 31.3819 471.413C29.5376 469.911 32.1651 467.311 33.9942 468.801V468.801Z" fill="white"/>
<path d="M704.355 0H217.355C215.5 0.00205925 213.72 0.740212 212.408 2.05252C211.096 3.36483 210.358 5.14412 210.355 7V337C210.358 338.856 211.096 340.635 212.408 341.947C213.72 343.26 215.5 343.998 217.355 344H704.355C706.211 343.998 707.991 343.26 709.303 341.947C710.615 340.635 711.353 338.856 711.355 337V7C711.353 5.14412 710.615 3.36483 709.303 2.05252C707.991 0.740212 706.211 0.00205925 704.355 0V0ZM709.355 337C709.355 338.326 708.828 339.597 707.89 340.535C706.953 341.473 705.681 341.999 704.355 342H217.355C216.03 341.999 214.758 341.473 213.821 340.535C212.883 339.597 212.356 338.326 212.355 337V7C212.356 5.67408 212.883 4.40262 213.821 3.46506C214.758 2.52749 216.03 2.00053 217.355 2H704.355C705.681 2.00053 706.953 2.52749 707.89 3.46506C708.828 4.40262 709.355 5.67408 709.355 7V337Z" fill="#3F3D56"/>
<path d="M710.355 28.0391H211.355V30.0391H710.355V28.0391Z" fill="#3F3D56"/>
<path d="M228.355 21C231.669 21 234.355 18.3137 234.355 15C234.355 11.6863 231.669 9 228.355 9C225.042 9 222.355 11.6863 222.355 15C222.355 18.3137 225.042 21 228.355 21Z" fill="#3F3D56"/>
<path d="M245.605 21C248.919 21 251.605 18.3137 251.605 15C251.605 11.6863 248.919 9 245.605 9C242.292 9 239.605 11.6863 239.605 15C239.605 18.3137 242.292 21 245.605 21Z" fill="#3F3D56"/>
<path d="M262.855 21C266.169 21 268.855 18.3137 268.855 15C268.855 11.6863 266.169 9 262.855 9C259.542 9 256.855 11.6863 256.855 15C256.855 18.3137 259.542 21 262.855 21Z" fill="#3F3D56"/>
<path d="M502.855 74.5H418.855C416.999 74.5 415.218 73.7625 413.906 72.4498C412.593 71.137 411.855 69.3565 411.855 67.5C411.855 65.6435 412.593 63.863 413.906 62.5502C415.218 61.2375 416.999 60.5 418.855 60.5H502.855C504.712 60.5 506.492 61.2375 507.805 62.5502C509.118 63.863 509.855 65.6435 509.855 67.5C509.855 69.3565 509.118 71.137 507.805 72.4498C506.492 73.7625 504.712 74.5 502.855 74.5V74.5Z" fill="#CCCCCC"/>
<path d="M560.355 108.5H361.355C359.499 108.5 357.718 107.763 356.406 106.45C355.093 105.137 354.355 103.357 354.355 101.5C354.355 99.6435 355.093 97.863 356.406 96.5502C357.718 95.2375 359.499 94.5 361.355 94.5H560.355C562.212 94.5 563.992 95.2375 565.305 96.5502C566.618 97.863 567.355 99.6435 567.355 101.5C567.355 103.357 566.618 105.137 565.305 106.45C563.992 107.763 562.212 108.5 560.355 108.5Z" fill="#CCCCCC"/>
<path d="M620.036 317.452C612.493 317.452 605.12 315.215 598.848 311.024C592.576 306.834 587.688 300.877 584.802 293.908C581.915 286.94 581.16 279.271 582.631 271.873C584.103 264.475 587.735 257.68 593.069 252.346C598.402 247.012 605.198 243.38 612.596 241.909C619.994 240.437 627.662 241.192 634.631 244.079C641.6 246.965 647.556 251.854 651.747 258.125C655.938 264.397 658.174 271.771 658.174 279.314C658.163 289.425 654.141 299.119 646.991 306.269C639.842 313.418 630.148 317.44 620.036 317.452V317.452ZM620.036 243.806C613.014 243.806 606.149 245.889 600.309 249.79C594.47 253.692 589.919 259.237 587.231 265.726C584.544 272.214 583.841 279.353 585.211 286.241C586.581 293.129 589.963 299.456 594.929 304.421C599.894 309.387 606.221 312.769 613.109 314.139C619.997 315.509 627.136 314.806 633.625 312.119C640.113 309.431 645.658 304.88 649.56 299.041C653.462 293.202 655.544 286.336 655.544 279.314C655.533 269.9 651.789 260.874 645.132 254.218C638.476 247.561 629.45 243.817 620.036 243.806V243.806Z" fill="#3F3D56"/>
<path d="M300.298 215.307C292.755 215.307 285.382 213.07 279.11 208.88C272.838 204.689 267.95 198.733 265.063 191.764C262.177 184.795 261.421 177.127 262.893 169.729C264.365 162.331 267.997 155.535 273.331 150.202C278.664 144.868 285.46 141.236 292.858 139.764C300.256 138.293 307.924 139.048 314.893 141.934C321.862 144.821 327.818 149.709 332.009 155.981C336.199 162.253 338.436 169.626 338.436 177.169C338.425 187.281 334.403 196.974 327.253 204.124C320.103 211.274 310.409 215.296 300.298 215.307V215.307ZM300.298 141.661C293.275 141.661 286.41 143.744 280.571 147.646C274.732 151.547 270.181 157.093 267.493 163.581C264.806 170.069 264.103 177.209 265.473 184.096C266.843 190.984 270.225 197.311 275.19 202.277C280.156 207.243 286.483 210.625 293.371 211.995C300.259 213.365 307.398 212.662 313.886 209.974C320.374 207.287 325.92 202.735 329.822 196.896C333.723 191.057 335.806 184.192 335.806 177.169C335.795 167.755 332.051 158.73 325.394 152.073C318.737 145.417 309.712 141.672 300.298 141.661V141.661Z" fill="#3F3D56"/>
<path d="M315.114 197.388C314.115 197.388 313.157 196.992 312.451 196.286C311.744 195.581 311.346 194.623 311.345 193.625V172.226C311.346 171.229 311.742 170.272 312.448 169.567C313.153 168.862 314.109 168.465 315.107 168.464H315.114C316.111 168.465 317.068 168.862 317.773 169.567C318.478 170.272 318.875 171.229 318.876 172.226V193.625C318.875 194.622 318.478 195.579 317.773 196.284C317.068 196.99 316.111 197.386 315.114 197.388ZM305.289 197.388C304.791 197.393 304.297 197.299 303.835 197.112C303.374 196.926 302.953 196.65 302.599 196.3C302.244 195.95 301.962 195.534 301.769 195.075C301.576 194.616 301.475 194.123 301.473 193.625V182.098C301.474 181.101 301.871 180.144 302.576 179.439C303.281 178.734 304.238 178.337 305.235 178.336H305.289C306.287 178.337 307.243 178.734 307.949 179.439C308.654 180.144 309.051 181.101 309.052 182.098V193.625C309.051 194.622 308.654 195.579 307.949 196.284C307.243 196.99 306.287 197.386 305.289 197.388V197.388ZM295.37 197.388C294.372 197.388 293.414 196.992 292.707 196.286C292 195.581 291.603 194.623 291.601 193.625V160.716C291.602 159.718 291.999 158.762 292.704 158.056C293.41 157.351 294.366 156.954 295.364 156.953H295.37C296.368 156.954 297.324 157.351 298.03 158.056C298.735 158.762 299.132 159.718 299.133 160.716V193.625C299.132 194.622 298.735 195.579 298.03 196.284C297.324 196.99 296.368 197.386 295.37 197.388V197.388ZM285.489 197.388C284.994 197.388 284.504 197.291 284.047 197.102C283.59 196.913 283.175 196.636 282.825 196.286C282.475 195.936 282.198 195.521 282.009 195.064C281.819 194.607 281.722 194.117 281.723 193.622L281.727 188.679C281.727 187.681 282.124 186.725 282.83 186.019C283.536 185.314 284.493 184.918 285.491 184.919C286.489 184.919 287.445 185.316 288.151 186.022C288.856 186.728 289.252 187.685 289.252 188.683V193.625C289.25 194.622 288.854 195.579 288.148 196.284C287.443 196.99 286.487 197.386 285.489 197.388V197.388Z" fill="#575A89"/>
<path d="M878.841 599.307C871.298 599.307 863.925 597.07 857.653 592.88C851.381 588.689 846.493 582.733 843.606 575.764C840.72 568.795 839.964 561.127 841.436 553.729C842.908 546.331 846.54 539.535 851.874 534.202C857.207 528.868 864.003 525.236 871.401 523.764C878.799 522.293 886.467 523.048 893.436 525.934C900.405 528.821 906.361 533.709 910.552 539.981C914.742 546.253 916.979 553.626 916.979 561.169C916.968 571.28 912.946 580.974 905.796 588.124C898.646 595.274 888.952 599.296 878.841 599.307ZM878.841 525.661C871.818 525.661 864.953 527.744 859.114 531.646C853.275 535.547 848.724 541.093 846.036 547.581C843.349 554.069 842.646 561.209 844.016 568.096C845.386 574.984 848.767 581.311 853.733 586.277C858.699 591.243 865.026 594.625 871.914 595.995C878.802 597.365 885.941 596.662 892.429 593.974C898.917 591.287 904.463 586.735 908.365 580.896C912.266 575.057 914.349 568.192 914.349 561.169C914.338 551.755 910.594 542.73 903.937 536.073C897.28 529.417 888.255 525.672 878.841 525.661V525.661Z" fill="#3F3D56"/>
<path d="M889.354 554.55L881.919 565.92C882.516 566.645 882.841 567.556 882.838 568.495C882.836 569.579 882.404 570.618 881.637 571.383C880.87 572.149 879.831 572.579 878.747 572.579C877.663 572.579 876.624 572.149 875.857 571.383C875.09 570.618 874.658 569.579 874.656 568.495C874.658 568.232 874.682 567.969 874.727 567.71L869.82 564.852C869.186 565.465 868.371 565.856 867.496 565.967C866.621 566.077 865.734 565.901 864.967 565.464L859.746 570.356V575.232C859.748 576.196 860.132 577.12 860.813 577.803C861.494 578.485 862.417 578.87 863.381 578.875H894.293C895.258 578.871 896.182 578.485 896.865 577.803C897.547 577.121 897.932 576.196 897.936 575.232V557.149L892.943 553.828C892.441 554.218 891.856 554.486 891.233 554.611C890.611 554.737 889.968 554.716 889.354 554.55H889.354Z" fill="#575A89"/>
<path d="M866.985 557.849C868.07 557.849 869.111 558.28 869.878 559.047C870.645 559.814 871.076 560.855 871.076 561.94V561.94V562.466L876.195 565.331C876.926 564.732 877.841 564.405 878.786 564.405C879.084 564.407 879.381 564.439 879.673 564.499L887.125 552.965C886.752 552.442 886.509 551.839 886.414 551.204C886.319 550.569 886.376 549.921 886.579 549.312C886.782 548.704 887.126 548.151 887.583 547.701C888.04 547.25 888.597 546.913 889.208 546.719C889.82 546.524 890.469 546.476 891.102 546.58C891.736 546.683 892.336 546.935 892.853 547.314C893.371 547.693 893.792 548.19 894.082 548.762C894.372 549.335 894.522 549.968 894.521 550.61C894.52 550.935 894.484 551.259 894.411 551.576L897.936 553.931V547.108C897.932 546.143 897.547 545.219 896.865 544.536C896.182 543.854 895.258 543.469 894.293 543.465H863.381C862.417 543.469 861.494 543.854 860.813 544.537C860.132 545.219 859.748 546.144 859.746 547.108V566.651L863.154 563.384C862.926 562.767 862.851 562.104 862.935 561.451C863.018 560.799 863.259 560.176 863.635 559.636C864.011 559.096 864.512 558.656 865.096 558.351C865.679 558.047 866.327 557.888 866.985 557.888V557.849Z" fill="#575A89"/>
<path d="M462.368 215.307C454.825 215.307 447.452 213.07 441.18 208.88C434.908 204.689 430.02 198.733 427.134 191.764C424.247 184.795 423.492 177.127 424.963 169.729C426.435 162.331 430.067 155.535 435.401 150.202C440.734 144.868 447.53 141.236 454.928 139.764C462.326 138.293 469.994 139.048 476.963 141.934C483.932 144.821 489.888 149.709 494.079 155.981C498.27 162.253 500.506 169.626 500.506 177.169C500.495 187.281 496.473 196.974 489.323 204.124C482.174 211.274 472.48 215.296 462.368 215.307V215.307ZM462.368 141.661C455.346 141.661 448.481 143.744 442.641 147.646C436.802 151.547 432.251 157.093 429.564 163.581C426.876 170.069 426.173 177.209 427.543 184.096C428.913 190.984 432.295 197.311 437.261 202.277C442.226 207.243 448.553 210.625 455.441 211.995C462.329 213.365 469.468 212.662 475.957 209.974C482.445 207.287 487.99 202.735 491.892 196.896C495.794 191.057 497.876 184.192 497.876 177.169C497.865 167.755 494.121 158.73 487.464 152.073C480.808 145.417 471.782 141.672 462.368 141.661V141.661Z" fill="#3F3D56"/>
<path d="M442.105 190.995C441.557 190.995 441.021 190.832 440.565 190.528C440.109 190.224 439.754 189.791 439.544 189.285C439.334 188.779 439.278 188.221 439.385 187.684C439.491 187.146 439.754 186.652 440.141 186.264L454.233 172.133C454.452 171.911 454.713 171.736 455.001 171.617C455.288 171.497 455.597 171.436 455.908 171.437H455.91C456.221 171.436 456.529 171.497 456.817 171.616C457.104 171.735 457.365 171.91 457.585 172.13L464.12 178.666C464.252 178.798 464.408 178.903 464.581 178.975C464.753 179.046 464.938 179.083 465.125 179.082H465.126C465.312 179.083 465.497 179.046 465.67 178.974C465.842 178.903 465.999 178.798 466.13 178.665L475.357 169.423C475.401 169.379 475.436 169.327 475.46 169.269C475.484 169.212 475.496 169.15 475.496 169.088C475.496 169.025 475.484 168.964 475.46 168.906C475.436 168.849 475.401 168.797 475.357 168.753L472.371 165.772C472.172 165.574 472.037 165.321 471.982 165.045C471.927 164.769 471.955 164.483 472.062 164.223C472.17 163.964 472.352 163.742 472.585 163.585C472.819 163.429 473.094 163.346 473.375 163.346H483.979C484.356 163.346 484.717 163.496 484.983 163.762C485.25 164.029 485.4 164.39 485.4 164.767V175.364C485.4 175.645 485.317 175.92 485.161 176.153C485.005 176.387 484.783 176.569 484.523 176.677C484.263 176.785 483.978 176.813 483.702 176.758C483.426 176.703 483.173 176.568 482.974 176.369L479.984 173.379C479.94 173.335 479.888 173.3 479.831 173.276C479.773 173.252 479.712 173.24 479.649 173.24C479.587 173.24 479.526 173.252 479.468 173.276C479.411 173.3 479.358 173.335 479.314 173.379L466.82 185.865C466.6 186.086 466.339 186.26 466.052 186.379C465.765 186.498 465.456 186.559 465.145 186.558H465.145C464.834 186.559 464.526 186.498 464.238 186.379C463.951 186.26 463.69 186.085 463.471 185.865L456.932 179.326C456.661 179.068 456.301 178.923 455.927 178.923C455.553 178.923 455.193 179.068 454.922 179.326L444.065 190.182C443.809 190.441 443.503 190.646 443.167 190.785C442.83 190.925 442.469 190.996 442.105 190.995V190.995Z" fill="#575A89"/>
<path d="M462.368 315.307C454.825 315.307 447.452 313.07 441.18 308.88C434.908 304.689 430.02 298.733 427.134 291.764C424.247 284.795 423.492 277.127 424.963 269.729C426.435 262.331 430.067 255.535 435.401 250.202C440.734 244.868 447.53 241.236 454.928 239.764C462.326 238.293 469.994 239.048 476.963 241.934C483.932 244.821 489.888 249.709 494.079 255.981C498.27 262.253 500.506 269.626 500.506 277.169C500.495 287.281 496.473 296.974 489.323 304.124C482.174 311.274 472.48 315.296 462.368 315.307V315.307Z" fill="#E6E6E6"/>
<path d="M620.368 212.307C612.825 212.307 605.452 210.07 599.18 205.88C592.908 201.689 588.02 195.733 585.134 188.764C582.247 181.795 581.492 174.127 582.963 166.729C584.435 159.331 588.067 152.535 593.401 147.202C598.734 141.868 605.53 138.236 612.928 136.764C620.326 135.293 627.994 136.048 634.963 138.934C641.932 141.821 647.888 146.709 652.079 152.981C656.27 159.253 658.506 166.626 658.506 174.169C658.495 184.281 654.473 193.974 647.323 201.124C640.174 208.274 630.48 212.296 620.368 212.307V212.307Z" fill="#E6E6E6"/>
<path d="M300.299 239.031C293.753 239.04 287.318 240.727 281.609 243.931C289.859 244.66 297.595 248.249 303.478 254.078C309.362 259.906 313.024 267.608 313.831 275.85C314.637 284.093 312.538 292.358 307.896 299.217C303.254 306.076 296.361 311.096 288.41 313.411C289.899 313.905 291.419 314.302 292.959 314.601C295.377 315.077 297.835 315.315 300.299 315.311C310.415 315.311 320.116 311.293 327.268 304.14C334.421 296.988 338.439 287.287 338.439 277.171C338.439 267.056 334.421 257.355 327.268 250.202C320.116 243.05 310.415 239.031 300.299 239.031V239.031Z" fill="#E6E6E6"/>
<path d="M285.829 241.892C283.413 241.408 280.954 241.167 278.489 241.172C268.683 241.162 259.248 244.925 252.142 251.682C245.035 258.439 240.8 267.672 240.316 277.466C239.832 287.261 243.135 296.866 249.54 304.291C255.946 311.716 264.963 316.392 274.722 317.349C284.482 318.307 294.235 315.472 301.962 309.433C309.688 303.394 314.794 294.614 316.222 284.912C317.65 275.21 315.291 265.331 309.632 257.321C303.974 249.312 295.451 243.787 285.829 241.892V241.892ZM288.409 313.412C283.525 314.833 278.393 315.188 273.359 314.453C268.326 313.718 263.509 311.91 259.236 309.152C254.962 306.394 251.33 302.749 248.587 298.466C245.843 294.183 244.052 289.36 243.334 284.324C242.617 279.288 242.989 274.157 244.427 269.278C245.864 264.398 248.333 259.885 251.667 256.043C255 252.2 259.12 249.119 263.747 247.007C268.375 244.895 273.402 243.802 278.489 243.802C279.539 243.802 280.579 243.852 281.609 243.932C289.859 244.661 297.594 248.25 303.478 254.079C309.362 259.907 313.024 267.609 313.83 275.851C314.637 284.094 312.538 292.359 307.896 299.218C303.254 306.076 296.361 311.097 288.409 313.412V313.412Z" fill="#3F3D56"/>
<path d="M300.698 272.598C299.438 267.073 296.036 262.274 291.24 259.254C286.444 256.235 280.646 255.242 275.119 256.493C274.579 256.616 274.02 256.768 273.527 256.919L278.624 279.315L301.02 274.228C300.926 273.707 300.821 273.138 300.698 272.598Z" fill="#575A89"/>
<path d="M298.528 278.16L276.122 283.248L271.035 260.852C267.128 262.06 263.65 264.364 261.013 267.489C258.376 270.614 256.69 274.43 256.156 278.484C255.622 282.538 256.261 286.661 257.998 290.362C259.735 294.064 262.498 297.19 265.957 299.37C269.417 301.55 273.43 302.692 277.519 302.66C281.608 302.629 285.602 301.426 289.028 299.194C292.454 296.961 295.168 293.793 296.849 290.065C298.529 286.337 299.105 282.206 298.509 278.16H298.528Z" fill="#575A89"/>
<path d="M692.236 457.452C684.693 457.452 677.319 455.215 671.047 451.024C664.776 446.834 659.887 440.877 657.001 433.908C654.114 426.94 653.359 419.271 654.83 411.873C656.302 404.475 659.934 397.68 665.268 392.346C670.602 387.012 677.397 383.38 684.795 381.909C692.193 380.437 699.862 381.192 706.83 384.079C713.799 386.965 719.755 391.854 723.946 398.125C728.137 404.397 730.374 411.771 730.374 419.314C730.362 429.425 726.34 439.119 719.191 446.269C712.041 453.418 702.347 457.44 692.236 457.452V457.452ZM692.236 383.806C685.213 383.806 678.348 385.889 672.509 389.79C666.669 393.692 662.118 399.237 659.431 405.726C656.743 412.214 656.04 419.353 657.41 426.241C658.78 433.129 662.162 439.456 667.128 444.421C672.094 449.387 678.421 452.769 685.308 454.139C692.196 455.509 699.336 454.806 705.824 452.119C712.312 449.431 717.858 444.88 721.759 439.041C725.661 433.202 727.743 426.336 727.743 419.314C727.733 409.9 723.988 400.874 717.332 394.218C710.675 387.561 701.65 383.817 692.236 383.806V383.806Z" fill="#3F3D56"/>
<path d="M708.692 434.595C707.296 434.596 705.931 434.183 704.77 433.408C703.609 432.633 702.703 431.532 702.168 430.242C701.633 428.953 701.493 427.534 701.764 426.165C702.035 424.796 702.707 423.537 703.693 422.55C704.68 421.562 705.937 420.889 707.306 420.616C708.675 420.342 710.094 420.481 711.384 421.015C712.674 421.548 713.777 422.452 714.553 423.612C715.329 424.772 715.744 426.136 715.745 427.532C715.746 429.404 715.003 431.199 713.68 432.523C712.358 433.848 710.564 434.593 708.692 434.595ZM692.236 434.595C690.366 434.593 688.573 433.849 687.251 432.527C685.929 431.205 685.185 429.412 685.183 427.542V411.086C685.185 409.217 685.929 407.425 687.252 406.104C688.574 404.783 690.367 404.041 692.236 404.041C694.105 404.041 695.898 404.783 697.22 406.104C698.543 407.425 699.287 409.217 699.289 411.086V427.542C699.287 429.412 698.543 431.205 697.221 432.527C695.899 433.849 694.106 434.593 692.236 434.595V434.595ZM675.785 434.595C673.913 434.593 672.119 433.849 670.796 432.525C669.473 431.202 668.729 429.408 668.727 427.537V420.962C668.727 419.09 669.47 417.295 670.794 415.971C672.117 414.648 673.913 413.904 675.785 413.904C677.657 413.904 679.452 414.648 680.775 415.971C682.099 417.295 682.843 419.09 682.843 420.962V427.537C682.841 429.408 682.096 431.202 680.773 432.525C679.45 433.849 677.656 434.593 675.785 434.595V434.595Z" fill="#575A89"/>
<path d="M208.631 590.417L220.256 589.098L220.7 543.633L203.543 545.58L208.631 590.417Z" fill="#A0616A"/>
<path d="M243.898 597.348L207.364 601.493L205.763 587.378L228.181 584.834C231.925 584.409 235.684 585.489 238.631 587.836C241.579 590.182 243.474 593.604 243.898 597.348V597.348L243.898 597.348Z" fill="#2F2E41"/>
<path d="M89.0801 589.69L100.779 589.689L106.344 544.564L89.0781 544.565L89.0801 589.69Z" fill="#A0616A"/>
<path d="M123.344 600.553L86.5753 600.554L86.5746 586.348L109.137 586.347C112.905 586.347 116.518 587.844 119.182 590.508C121.847 593.172 123.344 596.785 123.344 600.553V600.553L123.344 600.553Z" fill="#2F2E41"/>
<path d="M173.018 387.896L179.697 409.623L215.959 488.093L225.502 562.526L203.554 563.48L190.194 494.773L144.39 445.151L104.311 574.931L86.1797 573.023C86.1797 573.023 101.448 405.072 122.442 387.896C122.442 387.896 156.795 371.673 173.018 387.896Z" fill="#2F2E41"/>
<path d="M143.387 294.143C156.331 294.143 166.825 283.65 166.825 270.705C166.825 257.761 156.331 247.268 143.387 247.268C130.443 247.268 119.949 257.761 119.949 270.705C119.949 283.65 130.443 294.143 143.387 294.143Z" fill="#A0616A"/>
<path d="M175.405 392.189C175.405 392.189 178.268 294.854 138.189 301.534C98.1101 308.214 114.81 402.209 114.81 402.209C114.81 402.209 123.398 419.385 144.392 400.3C165.386 381.215 175.405 392.189 175.405 392.189Z" fill="#575A89"/>
<path d="M258.378 311.172C257.626 312.356 256.623 313.36 255.44 314.115C254.258 314.869 252.924 315.355 251.533 315.539C250.142 315.722 248.728 315.598 247.39 315.176C246.053 314.754 244.824 314.043 243.79 313.094L213.77 329.268L215.341 311.618L243.609 298.965C245.317 297.334 247.565 296.387 249.925 296.303C252.286 296.219 254.595 297.003 256.415 298.508C258.236 300.013 259.441 302.133 259.803 304.467C260.165 306.801 259.658 309.187 258.378 311.172L258.378 311.172Z" fill="#A0616A"/>
<path d="M143.166 313.417L191.897 321.655L235.567 301.039L242.197 315.216L194.391 345.667C194.391 345.667 143.778 349.103 132.077 335.756C127.689 330.751 127.187 326.195 128.274 322.456C129.227 319.392 131.266 316.782 134.009 315.117C136.751 313.453 140.008 312.848 143.166 313.417V313.417Z" fill="#575A89"/>
<path d="M140.6 295.332C140.712 295.232 140.799 295.107 140.855 294.967C140.91 294.827 140.932 294.676 140.918 294.527C140.905 294.377 140.857 294.232 140.778 294.104C140.699 293.976 140.592 293.869 140.464 293.789C138.382 292.501 136.687 290.675 135.555 288.504C134.423 286.334 133.896 283.898 134.031 281.454C134.165 279.009 134.955 276.646 136.318 274.613C137.681 272.579 139.567 270.95 141.777 269.897C148.668 266.612 158.005 269.168 163.099 262.854C164.135 261.504 164.868 259.945 165.247 258.286C165.626 256.626 165.643 254.905 165.296 253.238C164.197 247.275 159.715 242.847 154.694 239.812C148.527 236.084 141.439 234.158 134.234 234.251C127.028 234.345 119.993 236.455 113.925 240.342C107.857 244.229 102.999 249.738 99.9014 256.245C96.804 262.752 95.5907 269.996 96.3993 277.156C97.0473 282.896 98.8181 289.331 95.4056 293.99C92.4022 298.091 86.7331 298.86 81.7532 299.879C71.072 302.065 60.7674 307.107 53.5189 315.251C46.2705 323.395 42.4036 334.821 44.5891 345.502C46.7745 356.183 55.5421 365.57 66.3182 367.226C75.0895 368.574 84.1464 364.849 90.5875 358.744C97.0287 352.64 101.1 344.397 103.668 335.902C106.716 325.82 107.918 314.956 113.421 305.975C118.806 297.186 130.411 290.886 139.506 295.463C139.68 295.554 139.878 295.59 140.074 295.567C140.269 295.544 140.452 295.462 140.6 295.332V295.332Z" fill="#2F2E41"/>
<path d="M819.809 468.816C821.077 468.185 822.192 467.284 823.074 466.175C823.956 465.066 824.584 463.778 824.915 462.4C825.245 461.023 825.27 459.589 824.986 458.201C824.703 456.813 824.118 455.504 823.274 454.366L845.856 329.391L824.783 329.113L809.101 452.698C807.284 454.242 806.096 456.4 805.763 458.762C805.43 461.124 805.976 463.526 807.295 465.513C808.615 467.5 810.618 468.933 812.924 469.542C815.231 470.151 817.68 469.893 819.809 468.816H819.809Z" fill="#FFB8B8"/>
<path d="M754.406 462.891L746.406 500.891L747.406 585.891H762.406L769.406 502.891L780.406 467.891L754.406 462.891Z" fill="#FFB8B8"/>
<path d="M803.98 465.742L795.98 503.742L796.98 588.742H811.98L818.98 505.742L829.98 470.742L803.98 465.742Z" fill="#FFB8B8"/>
<path d="M742.168 584.926L765.812 584.866L765.849 599.753L727.319 599.85C727.314 597.895 727.694 595.958 728.437 594.15C729.181 592.342 730.274 590.698 731.652 589.312C733.031 587.926 734.67 586.826 736.474 586.073C738.278 585.32 740.213 584.93 742.168 584.926V584.926Z" fill="#2F2E41"/>
<path d="M792.109 586.533L815.753 586.474L815.791 601.36L777.26 601.457C777.255 599.502 777.635 597.565 778.379 595.757C779.122 593.949 780.215 592.305 781.594 590.92C782.973 589.534 784.611 588.433 786.415 587.68C788.22 586.928 790.154 586.538 792.109 586.533V586.533Z" fill="#2F2E41"/>
<path d="M790.905 276.534C804.469 276.534 815.466 265.538 815.466 251.973C815.466 238.408 804.469 227.412 790.905 227.412C777.34 227.412 766.344 238.408 766.344 251.973C766.344 265.538 777.34 276.534 790.905 276.534Z" fill="#FFB8B8"/>
<path d="M845.184 312.723C837.712 300.997 814.25 273.189 779.338 289.151C776.587 290.423 774.291 292.507 772.76 295.122C771.228 297.737 770.534 300.759 770.77 303.78C772.46 326.079 774.591 382.893 756.406 416.891C756.406 416.891 809.406 432.891 838.406 417.891C838.406 417.891 828.406 350.891 838.406 337.891C841.741 333.736 844.441 329.111 846.419 324.165C847.114 322.292 847.364 320.284 847.149 318.298C846.935 316.312 846.262 314.404 845.184 312.723V312.723Z" fill="#3F3D56"/>
<path d="M835.406 311.891L845.22 315.98C845.873 316.252 846.435 316.705 846.84 317.285C847.245 317.866 847.475 318.55 847.505 319.257L848.406 340.891L826.406 338.891L835.406 311.891Z" fill="#3F3D56"/>
<path d="M760.404 414.891C760.404 414.891 738.404 455.891 742.404 493.891L773.404 498.891L795.404 445.891L790.404 499.891L822.404 500.891C822.404 500.891 843.404 422.891 836.404 415.891L760.404 414.891Z" fill="#2F2E41"/>
<path d="M729.162 418.551C730.562 418.336 731.899 417.818 733.077 417.031C734.255 416.245 735.247 415.209 735.982 413.998C736.717 412.787 737.177 411.429 737.33 410.021C737.484 408.612 737.327 407.187 736.87 405.846L781.498 321.716L761.515 315.023L723.881 399.934C721.679 400.851 719.89 402.543 718.853 404.691C717.815 406.839 717.602 409.293 718.253 411.588C718.903 413.882 720.373 415.859 722.384 417.142C724.395 418.425 726.806 418.926 729.162 418.551H729.162Z" fill="#FFB8B8"/>
<path d="M787.59 298.941L779.324 295.243C779.324 295.243 772.316 290.898 766.103 300.458C759.891 310.019 753.18 330.97 753.18 330.97L780.15 338.559L787.59 298.941Z" fill="#3F3D56"/>
<path d="M794.841 263.797C795.723 260.735 795.468 256.592 792.499 255.434C790.953 254.831 789.227 255.307 787.575 255.476C784.344 255.793 781.109 254.903 778.495 252.976C775.424 250.694 773.528 247.205 771.727 243.829L769.003 238.723C768.397 237.659 767.88 236.546 767.457 235.396C765.942 230.889 767.587 225.671 770.956 222.315C774.477 219.039 779.11 217.223 783.919 217.232C788.69 217.267 793.404 218.277 797.77 220.2C805.531 223.363 812.561 228.086 818.424 234.075C822.256 237.995 825.744 243.102 824.943 248.525C824.32 252.746 821.243 256.127 818.308 259.224L807.664 270.461C805.779 272.451 803.764 274.522 801.132 275.288C798.5 276.053 795.109 274.929 794.391 272.283C794.391 272.283 793.959 266.859 794.841 263.797Z" fill="#2F2E41"/>
<path d="M942 601.742H1C0.734784 601.742 0.480429 601.637 0.292892 601.449C0.105356 601.262 0 601.007 0 600.742C0 600.477 0.105356 600.223 0.292892 600.035C0.480429 599.848 0.734784 599.742 1 599.742H942C942.265 599.742 942.52 599.848 942.707 600.035C942.895 600.223 943 600.477 943 600.742C943 601.007 942.895 601.262 942.707 601.449C942.52 601.637 942.265 601.742 942 601.742Z" fill="#3F3D56"/>
<path d="M634.035 295.312H606.035C605.24 295.312 604.476 294.996 603.914 294.434C603.351 293.871 603.035 293.108 603.035 292.312C603.035 291.517 603.351 290.754 603.914 290.191C604.476 289.629 605.24 289.312 606.035 289.312H634.035C634.831 289.312 635.594 289.629 636.156 290.191C636.719 290.754 637.035 291.517 637.035 292.312C637.035 293.108 636.719 293.871 636.156 294.434C635.594 294.996 634.831 295.312 634.035 295.312V295.312Z" fill="#575A89"/>
<path d="M634.035 282.312H606.035C605.24 282.312 604.476 281.996 603.914 281.434C603.351 280.871 603.035 280.108 603.035 279.312C603.035 278.517 603.351 277.754 603.914 277.191C604.476 276.629 605.24 276.312 606.035 276.312H634.035C634.831 276.312 635.594 276.629 636.156 277.191C636.719 277.754 637.035 278.517 637.035 279.312C637.035 280.108 636.719 280.871 636.156 281.434C635.594 281.996 634.831 282.312 634.035 282.312V282.312Z" fill="#575A89"/>
<path d="M634.035 269.312H606.035C605.24 269.312 604.476 268.996 603.914 268.434C603.351 267.871 603.035 267.108 603.035 266.312C603.035 265.517 603.351 264.754 603.914 264.191C604.476 263.629 605.24 263.312 606.035 263.312H634.035C634.831 263.312 635.594 263.629 636.156 264.191C636.719 264.754 637.035 265.517 637.035 266.312C637.035 267.108 636.719 267.871 636.156 268.434C635.594 268.996 634.831 269.312 634.035 269.312V269.312Z" fill="#575A89"/>
</g>
<defs>
<clipPath id="clip0">
<rect width="943" height="601.742" fill="white"/>
</clipPath>
</defs>
</svg>
